<svg id="mapBubble" xmlns="http://www.w3.org/2000/svg" xmlns:xlink="http://www.w3.org/1999/xlink" viewBox="0 0 324 315.08"><defs><style>.cls-1,.cls-10,.cls-13,.cls-14,.cls-6,.cls-7,.cls-8,.cls-9{fill:none;}.cls-2{clip-path:url(#clip-path);}.cls-3{fill:#f9f5ed;}.cls-4{fill:#fff;}.cls-14,.cls-4{stroke:#d9d1c5;}.cls-14,.cls-4,.cls-5,.cls-7{stroke-miterlimit:10;}.cls-5{fill:#f9e7b7;stroke:#f9b826;}.cls-6{stroke:#b0cbf3;stroke-linecap:round;stroke-width:20px;opacity:0.8;}.cls-10,.cls-13,.cls-6,.cls-8,.cls-9{stroke-linejoin:round;}.cls-7{stroke:#2a9ce8;stroke-width:15px;}.cls-8,.cls-9{stroke:#e40d00;}.cls-10,.cls-13,.cls-8,.cls-9{stroke-width:8px;}.cls-9{stroke-dasharray:9.79 2.94;}.cls-10{stroke:#f58323;}.cls-10,.cls-13{stroke-dasharray:10 3;}.cls-11{fill:#f58323;}.cls-12{fill:#33c42c;}.cls-13{stroke:#33c42c;}</style><clipPath id="clip-path" transform="translate(29.83 10.33)"><circle class="cls-1" cx="142.65" cy="142.29" r="139.49"/></clipPath></defs><title>gpsPopUp_alt</title><g class="cls-2"><circle class="cls-3" cx="172.49" cy="152.62" r="139.49"/><path class="cls-4" d="M288.67,115.33h-0.08l-28.27.42c0.16-11.06-.64-30.92-7.88-37.2-3.22-2.79-8.1-4.46-14.52-5a19.67,19.67,0,0,0-14.87,5.14,19.89,19.89,0,0,0-6.39,14.58v40.15l-115.35,2.1C100.24,107,98.85,83.2,97.05,73,90.43,35.5,48.46,16.74,46.67,16l-6,13.74C41,29.86,77.07,46.09,82.28,75.64c0.84,4.76,1.59,12.84,2.26,23.2H-24.33a5,5,0,0,0-5,5,5,5,0,0,0,5,5H85.13c0.42,7.93.81,16.78,1.17,26.2q-4.85.29-9.42,1L-24.3,137.83l0.27,15L39,151.68a68.73,68.73,0,0,0-8.37,8C4.54,189.06,9.5,233.35,9.72,235.22l14.9-1.77c0-.39-4.33-39.61,17.32-63.92,8.83-9.92,21-16.13,36.18-18.56l8.73-.16c2.14,66.77,2.82,151.3,2.83,152.58l15-.12c0-5.21-.7-87-2.83-152.74l114.83-2.09v62.06l16.25-.55c19.6-.66,36.2-14.21,40.36-32.95a37.09,37.09,0,0,0,.88-9.93,5,5,0,0,0-10,.51,27.06,27.06,0,0,1-.66,7.25c-3.17,14.28-15.9,24.61-30.94,25.12l-5.91.2V93.3a9.73,9.73,0,0,1,3.17-7.23,9.51,9.51,0,0,1,7.29-2.53c5.57,0.45,7.89,1.81,8.77,2.57,3.33,2.89,4.93,20.49,4.28,34.49l-0.25,5.31,38.82-.58A5,5,0,0,0,288.67,115.33Z" transform="translate(29.83 10.33)"/><path class="cls-5" d="M136.54,287.88l-14.81-2.41c0.37-2.28,9.56-56.18,51.81-75.87,14.52-6.76,23.61-22.33,22.62-38.73l-4.61-76.75a40.2,40.2,0,0,0-33.61-37.41c-15.73-2.64-29.62-4.42-29.76-4.44l1.9-14.88c0.14,0,14.32,1.83,30.35,4.53a55.13,55.13,0,0,1,46.1,51.3L211.14,170c1.35,22.49-11.21,43.88-31.26,53.22-14.47,6.75-26.13,19.51-34.65,37.95A117.12,117.12,0,0,0,136.54,287.88Z" transform="translate(29.83 10.33)"/><path class="cls-6" d="M140.4,253c10.23-16.77,26.08-33.86,44-42.53,6.65-3.21,18.35-15.09,18.79-27.33,1.62-44.69-5.29-98.17-5.29-98.17s-2.75-22.23-30.13-32.93c-7.33-2.86-19.69-4.48-29.06-7.08" transform="translate(29.83 10.33)"/><line class="cls-7" x1="158.97" x2="158.97" y2="315.08"/><line class="cls-8" x1="158.97" y1="77.29" x2="158.97" y2="82.29"/><line class="cls-9" x1="158.97" y1="85.23" x2="158.97" y2="172.86"/><line class="cls-8" x1="158.97" y1="174.33" x2="158.97" y2="179.33"/><line class="cls-10" x1="158.97" y1="174.32" x2="158.97" y2="237.79"/><rect class="cls-11" x="154.97" y="72.32" width="8" height="10"/><rect class="cls-11" x="154.97" y="59.32" width="8" height="10"/><rect class="cls-11" x="154.97" y="238.91" width="8" height="10"/><rect class="cls-11" x="154.97" y="251.41" width="8" height="10"/><rect class="cls-12" x="154.97" y="46.32" width="8" height="10"/><rect class="cls-12" x="154.97" y="33.32" width="8" height="10"/><rect class="cls-12" x="154.97" y="20.32" width="8" height="10"/><rect class="cls-12" x="154.97" y="300.11" width="8" height="10"/><rect class="cls-12" x="124.14" y="278.71" width="10" height="8" transform="translate(-140.74 375.33) rotate(-80.8)"/><rect class="cls-12" x="127.01" y="266.04" width="10" height="8" transform="translate(-136.53 316.65) rotate(-70.88)"/><rect class="cls-12" x="131.87" y="255.16" width="10" height="8" transform="translate(-126.23 279.02) rotate(-64.03)"/><path class="cls-13" d="M140.4,253c10.23-16.77,26.08-33.86,44-42.53,6.65-3.21,18.35-15.09,18.79-27.33,1.62-44.69-5.29-98.17-5.29-98.17s-2.75-22.23-30.13-32.93c-7.33-2.86-19.69-4.48-29.06-7.08" transform="translate(29.83 10.33)"/><circle class="cls-14" cx="172.49" cy="152.62" r="139.49"/></g></svg>