<svg id="redCar" xmlns="http://www.w3.org/2000/svg" viewBox="0 0 82.96 132.65"><defs><style>.cls-1{fill:#e40d00;}.cls-2{fill:#53b7b4;}.cls-3,.cls-5{fill:none;stroke:#a50b07;stroke-linecap:round;stroke-miterlimit:10;}.cls-3{stroke-width:4px;}.cls-4{fill:#f7ff73;}.cls-5{stroke-width:2px;}</style></defs><title>redCar</title><path class="cls-1" d="M7.49,54.81H77.57L77.3,23.6A22.8,22.8,0,0,0,54.51,1H30.45A22.8,22.8,0,0,0,7.66,23.67Z" transform="translate(-1 -1)"/><path class="cls-1" d="M56.61,132.2l-0.8.16a64.83,64.83,0,0,1-26.52-.16h0c-6.46,0-11.75-4.46-15.5-9.09a28.6,28.6,0,0,1-6.33-18v-48c0-19.37,15.7-53.59,35.08-53.59h0c19.37,0,35.08,34.22,35.08,53.59v48.57a28.34,28.34,0,0,1-5.43,16.83C68.61,127.34,63.35,132.2,56.61,132.2Z" transform="translate(-1 -1)"/><path class="cls-2" d="M23.27,62.39l0.78-.21c15.08-4,22.59-3.9,37.64.21h0L70,43.6h0c-9.52-7.93-45.1-7.93-54.29,0h0Z" transform="translate(-1 -1)"/><polygon class="cls-2" points="18.93 66.4 18.93 92.29 11.42 97.72 11.42 48.02 18.93 66.4"/><polygon class="cls-2" points="64.87 66.4 64.87 92.29 72.39 97.72 72.39 48.02 64.87 66.4"/><path class="cls-2" d="M22.48,97.05H62.57L62,102.91a8.71,8.71,0,0,1-8.67,7.92H31.69A8.71,8.71,0,0,1,23,102.91Z" transform="translate(-1 -1)"/><line class="cls-3" x1="36.47" y1="4.04" x2="46.5" y2="4.04"/><ellipse class="cls-4" cx="23.9" cy="7.68" rx="7.31" ry="2.09" transform="translate(-2.09 9.07) rotate(-23.29)"/><ellipse class="cls-4" cx="61.65" cy="8.31" rx="2.09" ry="7.31" transform="translate(28.64 60.66) rotate(-66.71)"/><path class="cls-5" d="M16.17,38.94s2.09-20.4,16.7-25V4.34" transform="translate(-1 -1)"/><path class="cls-5" d="M68.88,38.94s-2.09-20.4-16.7-25V4.34" transform="translate(-1 -1)"/><path class="cls-5" d="M19.24,122.53l7-6.26H58.73l7.14,6.26h0a46,46,0,0,1-46.11.3Z" transform="translate(-1 -1)"/><path class="cls-5" d="M35.94,124.61a38.1,38.1,0,0,0,13.22,0" transform="translate(-1 -1)"/><path class="cls-1" d="M1.36,48.29a5.91,5.91,0,1,1,11.12-4Z" transform="translate(-1 -1)"/><path class="cls-1" d="M72.48,44.29a5.91,5.91,0,1,1,11.12,4Z" transform="translate(-1 -1)"/></svg>