<?xml version="1.0" encoding="utf-8"?>
<!-- Generator: Adobe Illustrator 20.0.0, SVG Export Plug-In . SVG Version: 6.00 Build 0)  -->
<svg version="1.1" id="iPad" xmlns="http://www.w3.org/2000/svg" xmlns:xlink="http://www.w3.org/1999/xlink" x="0px" y="0px"
	 viewBox="0 0 115.2 149.7" style="enable-background:new 0 0 115.2 149.7;" xml:space="preserve">
<style type="text/css">
	.st0{fill:#FFFFFF;}
	.st1{fill:#B3B3B3;}
	.st2{fill:#FFFFFF;stroke:#B3B3B3;stroke-width:0.5;stroke-miterlimit:10;}
</style>
<title>device_iPad</title>
<path class="st0" d="M6.3,149c-3.2,0-5.8-2.6-5.8-5.8V6.5c0-3.2,2.6-5.8,5.8-5.8h102.6c3.2,0,5.8,2.6,5.8,5.8v136.7
	c0,3.2-2.6,5.8-5.8,5.8H6.3L6.3,149z"/>
<path class="st1" d="M109.4,149.7H5.7c-3.2,0-5.7-2.6-5.7-5.7V5.7C0,2.6,2.5,0,5.7,0h103.8c3.2,0,5.7,2.6,5.7,5.7V144
	C115.2,147.2,112.6,149.7,109.4,149.7z M5.7,2C3.6,2,2,3.7,2,5.7V144c0,2.1,1.6,3.7,3.7,3.7h103.8c2.1,0,3.7-1.7,3.7-3.7V5.7
	c0-2.1-1.6-3.7-3.7-3.7C109.5,2,5.7,2,5.7,2z"/>
<rect x="12.3" y="14.2" width="90.6" height="121.2"/>
<path class="st2" d="M61.5,141.9c0-2.1-1.8-3.8-3.9-3.8s-3.8,1.8-3.8,3.9c0,2.1,1.7,3.8,3.8,3.8C59.7,145.8,61.5,144,61.5,141.9
	L61.5,141.9"/>
<circle class="st1" cx="57.5" cy="7.8" r="1.2"/>
</svg>
