<?xml version="1.0" encoding="utf-8"?>
<!-- Generator: Adobe Illustrator 20.0.0, SVG Export Plug-In . SVG Version: 6.00 Build 0)  -->
<svg version="1.1" id="Layer_1" xmlns="http://www.w3.org/2000/svg" xmlns:xlink="http://www.w3.org/1999/xlink" x="0px" y="0px"
	 viewBox="0 0 99.8 67.7" style="enable-background:new 0 0 99.8 67.7;" xml:space="preserve">
<style type="text/css">
	.st0{fill:#012B14;}
	.st1{fill:#F7C71C;}
	.st2{opacity:0.5;fill:url(#SVGID_1_);enable-background:new    ;}
	.st3{fill:url(#SVGID_2_);}
	.st4{fill:url(#SVGID_3_);}
</style>
<g id="bananas">
	<path class="st0" d="M10.1,24.2c0-0.2,0.1-0.4,0.2-0.5c0.2-0.2,0.4-0.2,0.7-0.3c0.5-0.2,0.6-0.8,1.1-1c0.3-0.1,0.7,0.1,1,0.2
		c0.7,0.4,1.5,0.8,2.2,1.1c-1-0.2-2.1,0.2-2.9,0.9c-0.5,0.4-0.9,1-1.2,1.6c-0.2,0.4-0.9,2.3-1.2,1C9.9,26.3,10,25.2,10.1,24.2z"/>
	<path class="st1" d="M89.4,13.2c-0.1-0.7-0.8-1.2-1.4-1.5c-1-0.6-2.1-1.1-3.1-1.7c-1.1,0.6-2.3,1-3.5,1.1
		c-0.6,4.6-1.4,9.4-4.1,13.2c-2.1,2.9-5.1,4.9-8.2,6.7c-4.5,2.6-9.2,4.9-14.2,6c-5,1.2-10.4,1.1-15.2-0.7
		c-6.6-2.6-12.1-8.1-18.7-10.8c-2.9-1.2-5.4-1.9-8.4-2.3h-0.1c-0.1,0.1-0.1,0.2-0.2,0.3c-0.1,0.2-0.4,0.2-0.6,0.3
		c-0.2,0.1-0.3,0.2-0.4,0.4c-0.2,0.2-0.4,0.3-0.6,0.5l-0.1,0.1C8.1,35.6,16,45.1,25,51c9.3,6.1,21,7.7,32,6.3
		c6.1-0.8,13.4-2.7,18.5-6.2s9.1-8.9,10-15c0.6-3.8,0-7.6-0.1-11.4c-0.1-2.1-0.2-3.6,0.2-5.4c0.9-1.8,3.1-2.7,3.1-2.7l-0.9-0.4
		C89.3,15.8,89.6,14.3,89.4,13.2z"/>
	
		<linearGradient id="SVGID_1_" gradientUnits="userSpaceOnUse" x1="53.9635" y1="39.7899" x2="68.2135" y2="18.0399" gradientTransform="matrix(1 0 0 -1 0 70)">
		<stop  offset="0" style="stop-color:#E59F0A;stop-opacity:0"/>
		<stop  offset="1" style="stop-color:#E59F0A"/>
	</linearGradient>
	<path class="st2" d="M89.4,13.2c-0.1-0.7-0.8-1.2-1.4-1.5c-1-0.6-2.1-1.1-3.1-1.7c-1.1,0.6-2.3,1-3.5,1.1
		c-0.6,4.6-1.4,9.4-4.1,13.2c-2.1,2.9-5.1,4.9-8.2,6.7c-4.5,2.6-9.2,4.9-14.2,6c-5,1.2-10.4,1.1-15.2-0.7
		c-6.6-2.6-12.1-8.1-18.7-10.8c-2.9-1.2-5.4-1.9-8.4-2.3h-0.1c-0.1,0.1-0.1,0.2-0.2,0.3c-0.1,0.2-0.4,0.2-0.6,0.3
		c-0.2,0.1-0.3,0.2-0.4,0.4c-0.2,0.2-0.4,0.3-0.6,0.5l-0.1,0.1C8.1,35.6,16,45.1,25,51c9.3,6.1,21,7.7,32,6.3
		c6.1-0.8,13.4-2.7,18.5-6.2s9.1-8.9,10-15c0.6-3.8,0-7.6-0.1-11.4c-0.1-2.1-0.2-3.6,0.2-5.4c0.9-1.8,3.1-2.7,3.1-2.7l-0.9-0.4
		C89.3,15.8,89.6,14.3,89.4,13.2z"/>
	
		<linearGradient id="SVGID_2_" gradientUnits="userSpaceOnUse" x1="55.89" y1="84.4606" x2="48.64" y2="42.6273" gradientTransform="matrix(1 0 0 -1 0 70)">
		<stop  offset="0" style="stop-color:#02AA50"/>
		<stop  offset="1" style="stop-color:#02AA50;stop-opacity:0"/>
	</linearGradient>
	<path class="st3" d="M89.4,13.2c-0.1-0.7-0.8-1.2-1.4-1.5c-1-0.6-2.1-1.1-3.1-1.7c-1.1,0.6-2.3,1-3.5,1.1
		c-0.6,4.6-1.4,9.4-4.1,13.2c-2.1,2.9-5.1,4.9-8.2,6.7c-4.5,2.6-9.2,4.9-14.2,6c-5,1.2-10.4,1.1-15.2-0.7
		c-6.6-2.6-12.1-8.1-18.7-10.8c-2.9-1.2-5.4-1.9-8.4-2.3h-0.1c-0.1,0.1-0.1,0.2-0.2,0.3c-0.1,0.2-0.4,0.2-0.6,0.3
		c-0.2,0.1-0.3,0.2-0.4,0.4c-0.2,0.2-0.4,0.3-0.6,0.5l-0.1,0.1C8.1,35.6,16,45.1,25,51c9.3,6.1,21,7.7,32,6.3
		c6.1-0.8,13.4-2.7,18.5-6.2s9.1-8.9,10-15c0.6-3.8,0-7.6-0.1-11.4c-0.1-2.1-0.2-3.6,0.2-5.4c0.9-1.8,3.1-2.7,3.1-2.7l-0.9-0.4
		C89.3,15.8,89.6,14.3,89.4,13.2z"/>
	<path class="st0" d="M81.4,11.1c1.1-0.1,2.5-0.5,3.5-1.1c0.9,0.5,1.9,1,2.8,1.5c0.6,0.3,1.7,0.7,1.7,1.4c0,0.5-0.6,0.9-1.3,1.2
		c-0.7,0.2-1.4,0.2-2.1,0.1C84.6,14,82.4,13.3,81.4,11.1"/>
	
		<linearGradient id="SVGID_3_" gradientUnits="userSpaceOnUse" x1="80.0455" y1="85.4855" x2="10.2955" y2="0.7355" gradientTransform="matrix(1 0 0 -1 0 70)">
		<stop  offset="0" style="stop-color:#02AA50"/>
		<stop  offset="0.3516" style="stop-color:#FADD77"/>
		<stop  offset="0.4786" style="stop-color:#FADC72"/>
		<stop  offset="0.6192" style="stop-color:#F9D965"/>
		<stop  offset="0.7663" style="stop-color:#F9D34F"/>
		<stop  offset="0.9169" style="stop-color:#F8CC30"/>
		<stop  offset="1" style="stop-color:#F7C71C"/>
	</linearGradient>
	<path class="st4" d="M81.4,11.1c-0.6,4.6-1.4,9.4-4.1,13.2c-2.1,2.9-5.1,4.9-8.2,6.7c-4.5,2.6-9.2,4.9-14.2,6
		c-5,1.2-10.4,1.1-15.2-0.7c-6.6-2.6-12.1-8.1-18.7-10.8c-2.9-1.2-5.4-1.9-8.4-2.3h-0.1c-0.1,0.1-0.1,0.2-0.2,0.3
		c-0.1,0.2-0.4,0.2-0.6,0.3c-0.2,0.1-0.3,0.2-0.4,0.4c-0.2,0.2-0.4,0.3-0.6,0.5l-0.1,0.1c-0.1,0.3-0.1,0.6-0.2,0.9
		c3.2,5.8,8.8,10.6,14.7,14.4c9.3,6.1,18.3,6.3,29.3,4.8c6.1-0.8,12-3.7,17.1-7.2c4.9-3.3,8-8.6,8.9-14.5c0.3-1.8,0.6-3.2,0.9-4.5
		C81.8,16.2,81.8,13.6,81.4,11.1L81.4,11.1z"/>
	<path class="st0" d="M88.7,12.1l1.2,0.4v1.8l-0.4,1.6l-0.8,0.7h-2.2L84.9,16l-0.5-1.6l-0.7,0.5v-0.6c0,0-1.9-1.3-1.9-2.5
		C81.8,10.6,88.7,12.1,88.7,12.1z"/>
</g>
<g id="chocolateSauce">
</g>
</svg>
