<?xml version="1.0" encoding="utf-8"?>
<!-- Generator: Adobe Illustrator 20.0.0, SVG Export Plug-In . SVG Version: 6.00 Build 0)  -->
<svg version="1.1" id="Layer_1" xmlns="http://www.w3.org/2000/svg" xmlns:xlink="http://www.w3.org/1999/xlink" x="0px" y="0px"
	 viewBox="0 0 89.2 69.8" style="enable-background:new 0 0 89.2 69.8;" xml:space="preserve">
<style type="text/css">
	.st0{fill:#663A16;}
</style>
<g id="sunChocoSauce">
	<path class="st0" d="M79,45.7c0.2-0.7,0.2-1.4,0.2-2.1c-0.1-8-4.7-15-9.4-21c-4-5.1-8.5-9.6-15-11.4C48,9.4,40.7,9.5,34,11.7
		c-5.2,1.6-9.9,4.5-13.9,8.2c-2,1.8-3.8,3.9-5.3,6.1c-2.7,4-3.8,10.1-4.5,14.8c-0.3,2.3-1,14,4.1,11.1c1.8-1.1,0.8-4.5,0.6-6.1
		c-0.3-3.2-0.4-6.5,1.1-9.4c0.8-1.5,2.2-2.8,3.8-2.5c0.9,0.2,1.5,0.9,1.9,1.7s0.5,1.7,0.5,2.6c0.2,3.1-0.3,6.1-0.5,9.1
		c-0.2,2.4-0.8,6.3,0.3,8.5c0.3,0.7,1.6,2.3,2.4,2.5c2.7,0.8,3-4.6,3.5-6c0.3-0.9,1.4-2.4,2.3-1c0.4,0.6,0.4,1.4,0.5,2.1
		c0.1,0.7,0.7,1.5,1.4,1.4c0.6,0,1-0.6,1.2-1.1c1.8-4.1,3.8,0.9,5.7,2.1c3.3,2.2,7.6,0.7,9.9-2.1c1.1-1.3,1.8-2.7,2.6-4.2
		c0.4-0.7,1.5-2.2,2.5-1.4c0.4,0.3,0.6,0.9,0.8,1.5c0.4,1.5,0.8,2.9,1.2,4.4c0.3,1.1,0.6,2.2,1.5,2.9c0.7,0.5,1.6,0.6,2.4,0.3
		c1.8-0.8,2.2-3.7,2.6-5.3c0.4-1.5,1.1-6.4,3.6-3c0.6,0.9,0.7,2,0.9,3.1c0.2,1.8,0.5,3.5,1,5.2c0.2,0.9,0.5,1.8,1.3,2.4
		c1.9,1.4,3.2-1.5,3.4-3c0.1-0.5-0.5-3.6,0.9-2.7c0.6,0.4,0.6,2.6,1,3.3s1.5,1.5,2.6,1.2c0.9-0.3,1.3-1.6,1.4-2.3
		c0.1-0.5,0-1.1,0-1.7c0-0.7-0.3-1.1-0.4-1.6c-0.3-1.3-0.7-3.3-0.3-4.6c0.2-0.8,0.6-1.5,0.8-2.2C78.9,45.8,78.9,45.7,79,45.7z"/>
</g>
</svg>
