<?xml version="1.0" encoding="utf-8"?>
<!-- Generator: Adobe Illustrator 20.0.0, SVG Export Plug-In . SVG Version: 6.00 Build 0)  -->
<svg version="1.1" id="Layer_1" xmlns="http://www.w3.org/2000/svg" xmlns:xlink="http://www.w3.org/1999/xlink" x="0px" y="0px"
	 viewBox="0 0 170.1 221.1" style="enable-background:new 0 0 170.1 221.1;" xml:space="preserve">
<style type="text/css">
	.st0{fill:#698AA8;}
	.st1{fill:#D7EAFF;}
	.st2{fill:#FFFFFF;}
	.st3{fill:#D7EAFF;stroke:#FFFFFF;stroke-width:2;stroke-miterlimit:10;}
	.st4{fill:#A3BFD8;}
	.st5{fill:#E5D16E;}
	.st6{fill:#FFF4C0;}
	.st7{fill:#FFE3FB;}
	.st8{opacity:0.2;fill:#7A4650;enable-background:new    ;}
	.st9{opacity:0.5;fill:#7A4650;enable-background:new    ;}
	.st10{fill:#56381D;}
	.st11{opacity:0.2;fill:#331E0D;enable-background:new    ;}
	.st12{fill:#331E0D;}
	.st13{fill:#F7EA9E;}
	.st14{fill:#663A16;}
	.st15{fill:#29ABE2;}
	.st16{fill:#8CC63F;}
	.st17{fill:#F15A24;}
	.st18{fill:#F2DB7C;}
	.st19{fill:#FF73E0;}
</style>
<g id="sundaeBowl">
	<ellipse class="st0" cx="97.2" cy="184.1" rx="52" ry="27.1"/>
	<g>
		<path class="st1" d="M87.3,210.1c-23.1,0-41.8-10.6-41.8-23.7c0-1.8-0.1-5.7-0.2-7.5c5.1,0,27.7-0.1,44.7-0.1
			c16.8,0,34.7-0.6,39.1-0.8c0,2,0.1,6.6,0.1,8.4C129.1,199.4,110.3,210.1,87.3,210.1z"/>
		<path class="st2" d="M128,179c0,2.3,0.1,5.8,0.1,7.4c0,5.8-4.1,11.4-11.5,15.7c-7.8,4.5-18.2,7-29.3,7s-21.5-2.5-29.3-7
			c-7.4-4.3-11.5-9.9-11.5-15.7c0-1.6-0.1-4.5-0.2-6.5c6.6,0,27.6-0.1,43.7-0.1C105.6,179.8,122.3,179.2,128,179 M130,176.9
			c0,0-20.6,0.8-40.1,0.8c-19.4,0-45.7,0.1-45.7,0.1s0.3,6.1,0.3,8.5c0,13.6,19.2,24.7,42.8,24.7s42.8-11,42.8-24.7
			C130.1,184,130,176.9,130,176.9L130,176.9z"/>
	</g>
	<ellipse class="st3" cx="87.3" cy="179.4" rx="42" ry="24.2"/>
	<ellipse class="st4" cx="87.3" cy="182.4" rx="16.8" ry="9.7"/>
	<ellipse class="st3" cx="87.3" cy="179.4" rx="16.8" ry="9.7"/>
	<ellipse class="st4" cx="87.3" cy="172.3" rx="15" ry="9.5"/>
	<ellipse class="st3" cx="85.1" cy="128.6" rx="68.6" ry="47.1"/>
	<ellipse class="st3" cx="85.1" cy="122.9" rx="74.1" ry="45.2"/>
	<ellipse class="st3" cx="85.1" cy="118.8" rx="69.1" ry="42.1"/>
</g>
<g id="sunBananaBack">
	<g>
		<path class="st5" d="M128.6,71.9c-2.2,2.1-5.8,4.2-8.4,5.8c-6.7,3.9-13.7,7.3-21.2,9c-7.5,1.7-15.6,1.7-22.8-1.1
			c-9.9-3.9-18.1-12.2-28-16.1c-4.3-1.8-8-2.8-12.5-3.5c0,0-0.1,0-0.1,0.1c-0.1,0.1-0.2,0.3-0.3,0.4c-0.2,0.2-0.6,0.3-0.9,0.4
			c-0.2,0.1-0.4,0.4-0.6,0.6c-0.3,0.3-0.6,0.4-0.9,0.7c-0.1,0-0.1,0.1-0.1,0.2c-3.8,16.3,8.1,30.5,21.5,39.3
			c13.9,9.1,31.4,11.6,47.8,9.4c9.2-1.2,20-4,27.6-9.3c7.6-5.3,13.6-13.3,15-22.5c0.9-5.6,1.6-10.6,0.4-16.1c0,0-0.4-6.9-4.5-7.6
			C136.4,60.7,133.9,66.9,128.6,71.9z"/>
		<path class="st6" d="M140.5,61.4c-4.1-0.7-6.7,5.4-12,10.5c-2.2,2.1-5.8,4.2-8.4,5.8c-6.7,3.9-13.7,7.3-21.2,9
			c-7.5,1.7-15.6,1.7-22.8-1.1c-9.9-3.9-18.1-12.2-28-16.1c-3.6-1.4-6.7-2.4-10.2-3.1c4.2,6.1,10.1,11.4,16.3,15.5
			C68.1,91,85.6,93.5,102,91.3c9.2-1.2,20-4,27.6-9.3c6.4-4.4,11.6-10.8,14-18.1C142.9,62.7,142,61.7,140.5,61.4z"/>
	</g>
</g>
<g id="sunIceCreamScoops">
	<g>
		<g>
			<g>
				
					<ellipse transform="matrix(0.109 -0.994 0.994 0.109 -6.371 209.8799)" class="st7" cx="113.9" cy="108.5" rx="32.4" ry="32.4"/>
				<path class="st7" d="M75.3,119c-1.1,4.1,2.4,8.6,6.6,9.3c-0.9,6.5,4.8,13.1,11.4,13.2c1,0,2.1-0.1,2.9,0.5
					c0.8,0.5,1.2,1.5,1.6,2.4c2.8,5.6,10.8,7.7,15.9,4.1c1.1-0.8,2.2-1.8,3.5-1.9c1.2-0.1,2.2,0.6,3.3,1.1c6,2.8,13.9-0.1,16.7-6.1
					c0.4-0.9,0.7-1.8,1.4-2.6c0.9-1,2.2-1.4,3.2-2.2c3.1-2.3,3.6-6.6,5.5-9.9c0.7-1.1,1.5-2.2,1.8-3.4c0.7-3.4-3.4-6-6.8-5.6
					s-6.2,2.7-9.3,4.3c-6.6,3.6-14.4,4.1-21.9,3.7c-5.9-0.3-12.1-1.3-16.8-5C90.3,118,77.8,109.6,75.3,119z"/>
			</g>
			<g>
				<path class="st8" d="M119.7,84L119.7,84C119.7,84.1,119.7,84,119.7,84z"/>
				<path class="st8" d="M128.1,88.2c-0.3-0.5-1.5-1.4-1.5-0.2c0.1-0.2-0.4,0-0.6-0.1c-0.2-0.1-0.5-0.8-0.7-1
					c-0.7-1-1.4-1.6-2.5-2.2c-0.4-0.2-0.8-0.4-1.2-0.6c-0.3-0.1-0.6-0.1-0.8-0.3c-0.4-0.3-1.1-1.4-1.8-1c-0.8,0.4,0.3,0.9,0.6,1
					c0.9,0.3,1.3,1.1,2,1.7c1.7,1.7,2.9,3.9,3.7,6.2c0.4,1,0.7,2.1,0.8,3.2c0,0.4-0.1,2.4,0.5,1.7c0.2-0.2,0.3-0.6,0.4-0.8
					c0.1-0.4,0.4-0.7,0.5-1.1c0.1-0.5,0.1-1-0.1-1.5c-0.1-0.3-0.2-0.6-0.2-0.9c0-0.3,0.2-0.4,0.1-0.7c-0.1-0.5-1.6-1.4-0.4-1.7
					c0.5-0.1,1.2,0.2,1.5,0.6c1.1,1.6,1.1,4.2,1.3,6.1c0.1,0.7,0.2,1.4,0,2.1c-0.1,0.3-0.7,1.3-0.6,1.6c0.1,0.6,1.1-0.8,1.2-1.1
					c0.1-0.2,0-0.4,0.1-0.6c0-0.1,0.1-0.2,0.1-0.3c0.2-0.6,0.3-0.9,0.2-1.5c0-0.3-0.3-1-0.2-1.3c0-0.1,0.5-0.6,0.3-0.7
					c0.3,0.3,0.6,0.3,0.8,0.7c0.2,0.3,0.2,0.8,0.3,1.1c0.3,0.9,0.3,1.8,0.4,2.8c0.1,0.5,0.1,0.9,0.1,1.3c0,0.4,0.2,0.8,0.2,1.2
					c0,0.7-0.7,1.8-0.5,2.5c0.7,0,1.3-3,1.4-3.5c0.2-1.4,0-2.8,0.1-4.2c0-0.7,0.1-1.3-0.3-1.9c-0.4-0.7-0.2-1.2-0.4-1.9
					c-0.2-1.1-1.3-1.7-1.1-2.7c0.1-1-1-2.2-1.6-3.1c-0.4-0.6-0.8-0.9-1.3-1.4c-0.4-0.4-0.8-0.9-1.4-1.2c-0.3-0.2-1.4-0.4-0.9,0.3
					c0.1,0.1,0.5,0.2,0.6,0.3c0.2,0.2,0.2,0.3,0.3,0.5c0.4,0.5,0.4,0.5,0.5,1.1c0.1,0.3,0.2,0.5,0.2,0.8c0,0.2-0.1,0.6-0.1,0.7
					C128.2,88.3,128.1,88.3,128.1,88.2C128,88,128.2,88.3,128.1,88.2z"/>
				<path class="st8" d="M126.5,141.9c-0.1,0-0.1,0.1-0.2,0.2C126.4,142,126.5,141.9,126.5,141.9z"/>
				<path class="st8" d="M126.9,147.5c0.5,0,1-0.4,1.2-0.8C127.7,146.9,127.3,147.4,126.9,147.5
					C127.3,147.5,127.2,147.4,126.9,147.5z"/>
				<path class="st8" d="M149.1,122.3c-0.3-1.1-0.8-2.3-1.7-3.1c-0.5-0.4-0.8-0.4-1.4-0.6c-0.4-0.1-0.8-0.6-1.2-0.6
					c2.5-8,1.8-16.7-2-24.2c-3.5-6.8-9.3-12.3-16.3-15.3c-4.6-2-9.6-2.7-14.6-2.5c4.2,0,8.7,1.6,12.3,3.7c3.6,2.1,6.7,4.9,9.1,8.3
					c2.4,3.4,4,7.3,4.8,11.4c0.4,2.2,0.5,4.4,0.4,6.6c-0.1,2.5-0.3,5.5-1.8,7.5c-0.1,0.2-1,1.7-1.3,1.6c-0.5-0.1,0-0.9,0.1-1.2
					c0.2-0.6,0.1-1.2,0.3-1.8c0.2-0.7,0.5-1.2,0.6-1.9c0.1-0.6,0.1-1.2,0-1.9c0-0.4,0.1-0.8,0-1.2c-0.1-0.8-0.7-1.6-0.7-2.4
					c0,0.2-0.1,0.7-0.3,0.8c-0.1-0.1-0.1-0.1-0.1-0.2c-0.4,0.4-0.7-1.3-0.8-1.4c-0.7-0.9-0.2,1.2-0.2,1.3c0,0.2-0.2,0.2-0.2,0.4
					c0,0.2,0.1,0.7,0.1,0.8c0,0.6-0.1,1.2-0.2,1.8c-0.2,1.1-0.3,2.4-0.7,3.5c-0.4,1.2-0.8,2.2-1.5,3.3c-0.2,0.3-0.6,0.9-0.9,0.9
					c-0.7,0-0.2-0.8-0.1-1c0.3-0.4,0.6-0.9,0.6-1.4c0.1-0.5-0.1-0.9,0.1-1.4c0.2-0.6,0.3-1.4,0.3-2c0-0.2,0-1.4-0.3-1.6
					c0.1,1.6-0.4,3.7-1.1,5.1c-0.2,0.5-0.7,1.4-1.2,1.7c-0.6,0.4,0-0.8,0.1-1c0.4-1.3,0.5-2.8,0.5-4.2c0-0.2-0.1-3.2-0.9-2.9
					c0,0.3,0.2,0.7,0.3,1c0.1,0.4,0,0.8,0,1.2c0,0.9,0,1.7-0.3,2.6c-0.3,0.8-0.6,1.6-1,2.4c-0.3,0.6-0.4,1.5-0.8,2
					c-0.5,0.7-1,1.2-1.5,2c-0.3,0.6-0.7,1.2-1.2,1.6c-0.5,0.4-1,0.7-1.5,1.2c-0.3,0.3-1.1,1.3-1.6,1.3c0.3,0,0.7-0.2,1-0.2
					c0.6-0.1,1.1-0.3,1.7-0.6c0.9-0.4,2.1-1,2.6-1.8c0.1-0.2,0.1-0.5,0.2-0.7c0.2-0.2,0.5-0.3,0.7-0.5c0.1-0.1,0.3-0.5,0.4-0.5
					c0.1,0,0.3,0.1,0.4,0.1c0.4,0,0.8,0.1,1-0.4c0.5,0.2,1,0.7,1.5,0.5c0.4-0.2,0.9-0.5,1.2-0.7c0.8-0.7,1.3-1.8,1.7-2.8
					c1.1-2.5,1.7-4.9,1.7-7.7c0.4,0.4,0.4,1.6,0.4,2.1c0,1-0.2,1.9-0.4,2.8c-0.1,0.5-0.3,0.9-0.4,1.4c-0.2,0.5-0.1,0.9-0.2,1.4
					c-0.1,0.5-0.4,0.8-0.7,1.2c-0.1,0.2-0.9,1.1-0.9,1.2c0.3,0,0.5-0.3,0.7-0.3c0,0,0.2,0.2,0.3,0.2c0.2,0,0.4,0,0.5-0.1
					c0.8-0.1,1.3-0.5,1.8-1.1c-0.7,1.6-1.7,3.9-3.4,4.8c-0.2-0.3,0.5-1.4,0.6-1.7c0.1-0.3,0.2-0.6,0.3-0.9c0.2-0.4,0.2-0.4,0.2-0.7
					c-0.3,0-0.8,0.9-1,1.1c-0.3,0.5-0.6,0.9-1,1.3c-0.5,0.5-1,0.9-1.6,1.3c-0.3,0.2-1,1-1.5,0.8c0-0.1,0.3-0.4,0.3-0.5
					c0.1-0.3,0.2-0.8,0.2-1.2c-0.3,0.2-0.6,0.7-0.9,1c-0.4,0.4-0.8,1-1.4,1.2c-0.2,0.1-0.5,0-0.7,0c-0.2,0.1-0.5,0.2-0.7,0.4
					c-0.4,0.3-0.7,1-1.3,1c0.3-0.6,1.1-0.8,1.5-1.4c0.3-0.5,0.8-1.3,0.8-2c-0.1,0-0.5,0.6-0.7,0.7c-0.1,0.1-0.2,0.1-0.2,0
					c-0.1,0.1-0.1,0.1-0.2,0.2c-0.3,0.1-0.6,0.3-0.8,0.5c-0.4,0.3-0.7,0.7-1.1,1c-0.2,0.1-1.4,1-1.7,0.7c0-0.4,0.8-0.8,0.8-1.2
					c-0.4,0-0.9,0.7-1.2,0.9c-0.4,0.3-0.9,0.5-1.3,0.8c-0.7,0.4-1.9,0.9-2.7,0.9c0.1,0.1,0.8,0.3,0.9,0.4c0.3,0.1,0.8,0.1,1.1,0
					c0.9-0.2,1.7-0.7,2.6-1c0,0.5-1.2,0.5-1.5,0.7c-0.2,0.1-0.3,0.5-0.5,0.6c-0.2,0.2-0.5,0.2-0.7,0.4c-0.6,0.4-1,0.7-1.7,0.7
					c-0.6,0-1.3,0.1-1.8,0.6c0.1,0,0.2,0.1,0.3,0.1c-0.6,0.1-1.2-0.1-1.8-0.2c-0.6-0.1-1.1-0.2-1.7-0.3c-0.3-0.1-2.3-0.7-1.7-1.3
					c0.2-0.2,0.7,0.2,0.9,0.3c0.4,0.2,0.8,0,1.3-0.1c0.5-0.1,2.4-0.6,2.6-1.1c-0.7,0.3-1.9,0.4-2.7,0.4c-0.6,0-1.1-0.2-1.7-0.2
					c-0.6,0-1.1,0.2-1.7,0.2c-0.4,0.1-0.8,0.2-1.2,0.2c-0.4,0-0.8-0.1-1.2-0.2c-0.9-0.1-1.9-0.3-2.7-0.6c-0.4-0.2-1.7-1-2-0.5
					c-0.3,0.5,1.1,1.3,1.4,1.5c0.7,0.3,1.3,0.6,2,0.8c0.5,0.2,1,0.6,1.5,0.6c-0.8-0.1-1.6-0.2-2.3-0.4c-0.6-0.2-1.1-0.5-1.7-0.3
					c-0.5,0.1-1,0.3-1.5,0.5c-0.6,0.2-1.1,0.2-1.6,0.5c-0.4,0.2-0.7,0.6-1.2,0.4c-0.2-0.1-0.2-0.2-0.4-0.3c-0.3-0.1-0.6,0-0.8,0.1
					c-0.6,0.3-0.8,0.5-1.5,0.4c-0.3,0-0.8,0.1-1.1,0.1c-0.4-0.1-0.5-0.5-0.9-0.6c-0.5-0.2-1.1,0-1.6-0.2c-0.5-0.2-0.5-0.7-0.7-1.1
					c-0.3-0.5-0.8-0.7-1.3-0.9c-0.4-0.1-1.1-0.2-1.4-0.5c-0.4-0.3-0.4-0.9-0.7-1.3c-0.3-0.4-0.9-0.7-1.2-1c-0.6-0.5-0.9-0.8-1.1-1.6
					c-0.2,0-0.1,0.7-0.1,0.8c-3.2-4.4-5.1-9.6-5.5-15c-1,15.4,9.4,29.7,24.4,33.4c1,0.3,2.1,0.5,3.2,0.6c0.5,0.1,1,0.1,1.5,0.2
					c0.5,0.1,1,0,0.6,0.6c-0.4,0.6-2.8,0.7-3.3,0.1c0.5,0.5,1.2,0.5,1.8,0.8c0.9,0.4,1.5,0.7,2.5,0.5c0.7-0.1,1.5-0.6,2.2-0.6
					c0.6-0.1,0.9,0.4,0.8,1.1c-0.1,0.8-0.8,0.4-1.1,0.8c-0.1,0.2,0,0.6,0,0.8c0,0.4-0.1,0.7-0.3,1c-0.4,0.6-1.2,1.3-1.8,1.8
					c-0.4,0.3-1.5,1.2-1.9,1.2c0.7,0,1.4-0.5,2.1-0.8c0.2-0.1,0.4-0.2,0.6-0.3c0.3-0.2,0.5-0.5,0.7-0.7c0.5-0.2,0.9-0.1,1.4-0.5
					c0.3-0.2,0.5-0.6,0.8-0.9c0.3-0.2,0.6-0.3,0.9-0.6c0.4,0.7,1.1,1.1,1.8,1.4c0.4,0.2,0.7,0.4,1.1,0.4c0.5,0,0.8-0.2,1.3-0.2
					c-1.2,0.2-2.3-1.2-2.6-2.3c-0.1-0.4-0.4-1.2,0.1-1.3c0.4-0.1,1,0.5,1.4,0.5c0.2,0,0.3-0.2,0.4-0.2c0.3,0,0.2,0,0.5,0.1
					c0.7,0.2,0.9,0.2,1.6-0.1c1.1-0.4,2.6-0.1,3.5-1.1c-1,0.2-1.8,0.5-2.8,0.5c-0.8,0-2.3-0.4-2.7-1.3c-0.1-0.4,0-0.5,0.5-0.6
					c0.5-0.1,0.9,0.1,1.4,0c1-0.2,2.1-0.8,3-1.3c0.4-0.2,1-0.2,1.3-0.5c0.2-0.1,0.4-0.7,0.7-0.7c0.4,0.1,0.4,0.8,0.5,1.1
					c0,0.1,0.2,0.6,0.2,0.7c0.1,0.1,0.4,0.1,0.5,0.3c0.2,0.3,0.2,0.9,0.3,1.2c0.2,0.5,0.3,1,0.4,1.5c0.1,1.4-0.5,2.2-1.1,3.4
					c0.8-0.8,1.4-1.5,2.1-2.4c0.6-0.9,0.5-1.8,0.1-2.8c-0.1-0.2-0.5-0.6-0.5-0.8c0-0.3,0.6-0.7,0.7-1c0.2-0.4,0.2-0.8,0-1.2
					c-0.1-0.2-0.6-0.5-0.9-0.4c0.6-0.3,1-0.8,1.7-0.6c0.4,0.1,0.7,0.5,1.1,0.7c0.5,0.3,0.9,0.6,0.8,1.3c0,0.2-0.4,0.5-0.4,0.6
					c0,0.3,0.1,0.1,0.2,0.3c0.4,0.7,0.5,1.6,0.3,2.4c-0.1,0.6-0.4,1.2-0.7,1.7c-0.3,0.5-1,0.7-1.2,1.2c1.7-1.1,3.6-2.7,3.9-4.9
					c0.1-1,0-2.4-0.6-3.1c-0.9-1.1-2.2-0.5-3.3-1.1c0-0.2,0.6-0.4,0.7-0.5c0.3-0.2,0.4-0.5,0.7-0.8c0.3-0.3,0.7-0.4,1.1-0.7
					c0.4-0.3,0.6-0.6,0.9-0.9c0.5-0.5,1.2-0.6,1.8-1.2c0.2-0.3,0.6-0.6,0.7-1c0-0.2-0.2-0.8,0-0.8c0.2,0.8,0.3,1.8-0.1,2.6
					c-0.4,0.8-1,1.4-1.6,2c0.6,0,1.5-0.7,1.9-1c0.8-0.5,1.2-1.1,1.6-2c0.3-0.6,0.3-1.4,0.6-2c0.4-0.8,0.8-1.4,0.9-2.3
					c0.1-1,0.4-1.2,1.1-1.8c0.6-0.6,0.7-1.2,1-1.9c0.2-0.4,0.4-0.3,0.7-0.5c0.3-0.2,0.5-0.6,0.6-0.9c0.3-0.8,0.3-1.8,0.1-2.7
					c0.6,0.8,1.5,1.6,1.9,2.7c0.3,1.2-0.6,1.2-1.2,2c-0.1,0.2-0.2,0.4-0.4,0.5c-0.2,0.1-0.6,0.1-0.8,0.2c-0.3,0.3-0.1,0.5,0,0.9
					c0.1,0.5,0.2,1,0,1.5c-0.2,0.3-0.7,0.9-1.1,0.4c0.2,0.4,0.4,0.8,0.6,1.3c0.1,0.3,0.2,0.4,0.4,0.7c0.5,0.8,0.1,1.8-0.2,2.6
					c-0.4,1-1,1.9-1.8,2.6c-0.3,0.2-0.6,0.5-1,0.6c-0.2,0.1-0.8,0.1-0.9,0.3c0.9,0,1.3-0.4,2-0.9c0.7-0.5,1.6-0.9,2.1-1.6
					c1-1.3,1.2-2.8,1.5-4.3c0.2-0.7,0.3-1.5,0.7-2.1c0.2-0.3,0.5-0.5,0.7-0.8c0.1-0.2,0.1-0.5,0.3-0.7c0.2-0.2,0.6-0.2,0.8-0.4
					c0.4-0.3,0.7-0.6,0.9-1C149.4,124.1,149.3,123.1,149.1,122.3z M135,106.6C135,106.5,135,106.5,135,106.6
					C135,106.5,135,106.5,135,106.6z M120.9,127.1c0.7,0,1.2-0.1,1.7-0.5c0.5-0.4,0.9-0.8,1.5-1c0.7-0.2,0.9-0.2,1.3-0.8
					c0.2-0.3,0.6-0.8,0.8-1c0.4-0.3,1,0.2,1.4,0.2c0.5,0,1-0.2,1.5-0.4c0.5-0.2,0.8-0.7,1.4-0.7c0.3,0,0.5,0.1,0.8,0
					c0.2-0.1,0.5-0.3,0.8-0.3c-1.9,2.4-4.2,4.1-7.2,4.8c-0.8,0.2-1.6-0.1-2.4,0c-0.5,0.1-0.8,0.2-1.3,0.2c-0.8,0-0.6-0.1-1.1-0.6
					C120.4,127.1,120.6,127.1,120.9,127.1z M110.7,131.4c-0.5-0.1-1.1,0-1.6-0.2c-0.5-0.1-1-0.4-1.6-0.4c-1.2-0.1-2,0.4-2.9-0.5
					c0.7,0,1.2-0.1,1.9-0.3c0.7-0.1,1.4,0,2.1-0.1c0.3,0,0.6-0.1,0.8-0.3c0.3-0.3,0.2-0.7,0.4-1c0.1-0.1,0.4-0.1,0.6-0.3
					c0.2-0.2,0.2-0.6,0.3-0.8c0.6,0.6,1.4,0.5,2.1,1c-0.3,0.5-1,0.8-0.2,1.1c0.2,0.1,0.7,0.2,1,0.2c0.3,0,0.6-0.3,0.9-0.2
					c0.2,0.1,0.2,0.3,0.5,0.4c0.2,0.1,0.7,0,0.9,0c0.7,0,1.5-0.1,2.1-0.5c0.3-0.2,0.5-0.3,0.9-0.4c0.3,0,0.7,0.2,1,0.2
					c0.8,0,1.6-0.2,2.4-0.3c0.9-0.1,1.8-0.1,2.7-0.4c0.8-0.3,1.6-0.7,2.4-1.2c-2.4,1.7-5.3,3.5-8.2,3.9c-0.7,0.1-1.3,0.4-2.1,0.4
					c-0.7,0-1.4-0.3-2-0.5c-0.7-0.2-1.6-0.3-2.3-0.2C112,131.2,111.4,131.5,110.7,131.4C110.3,131.3,111.2,131.5,110.7,131.4z"/>
				<path class="st8" d="M126.3,142.1c-0.1,0.1-0.3,0.2-0.5,0.3C125.9,142.3,126.2,142.2,126.3,142.1
					C126.2,142.1,126.2,142.1,126.3,142.1C126.2,142.2,126.2,142.1,126.3,142.1z"/>
				<path class="st8" d="M110,148.6c-0.3,0-0.5,0-0.7,0.2C109.6,148.8,109.8,148.7,110,148.6z"/>
			</g>
		</g>
		<path class="st9" d="M122.1,83.6c0-0.2-0.1-0.4-0.2-0.5c-0.3-0.5-0.6-1.1-1-1.5c-0.3-0.2-0.5-0.5-0.8-0.6
			c-0.1-0.1-0.3-0.1-0.5-0.2c-0.1-0.1-0.2-0.1-0.4-0.1c-0.2-0.1-0.3-0.1-0.5-0.2s-0.3-0.3-0.5-0.4l-1.1,0.1V69.1l1-5.6l0.6-0.1
			c-2.9-13.2-14-23.6-28.1-25.2c-0.9-0.1-1.8-0.1-2.7-0.2c-0.1,0-0.1,0-0.2,0c-16.6-0.4-31,12-32.9,28.9c-0.1,1,0.1,1.9,0,2.9
			c0,0.1,0.1,0.3,0.1,0.4c0,0.4,0.1,0.8,0.1,1.3c0,0.1,0.3,0.9,0.3,1c0,0.4,0,0.2,0,0.6c0,0.1,0,0.9,0.1,1c0.4,0.6,0,0.9-0.1,0.9
			c-0.1-0.1-0.4-0.1-0.4,0c0.1,0.4,0.1,0.7,0.2,1.1c0,0.1,0,0.3,0.1,0.4c0,0.1,0.1,0.3,0.1,0.4c-3.1-0.5-5.9,0.3-6.9,4.2
			c-1.1,4.1,2.4,8.6,6.6,9.3c-0.9,6.5,4.8,13.1,11.4,13.2c1,0,2.1-0.1,2.9,0.5c0.8,0.5,1.2,1.5,1.6,2.4c2.8,5.6,10.8,7.7,15.9,4.1
			c1.1-0.8,2.2-1.8,3.5-1.9c1.2-0.1,2.2,0.6,3.3,1.1c6,2.8,13.9-0.1,16.7-6.1c0.4-0.9,0.7-1.8,1.4-2.6c0.9-1,2.2-1.4,3.2-2.2
			c0.8-0.6,1.5-1.4,2-2.3c0.1-0.1,0.2-0.2,0.3-0.3c0.5-0.6,0.8-1.3,1.1-2.1c0.1-0.3,0.2-0.6,0.3-1c0,0,0,0,0-0.1
			c0.6-1.5,1.1-2.9,1.9-4.3c0.2-0.3,0.4-0.7,0.6-1c0.1-0.1,0.2-0.2,0.3-0.2c0.6-0.5,0.9-1.3,0.9-2c0-0.4,0-0.8,0-1.2
			C122.3,84.2,122.2,83.9,122.1,83.6z"/>
		<path class="st9" d="M38.3,110c0,0,36,9,36.7,9.1c0.8,0.1,7.3,6.9,7.7,12.8c0.2,3.6,1.8,5.6,3,6.6c0.1-0.1,0.2-0.1,0.3-0.2
			c0.8-0.6,1.5-1.4,2-2.3c0.1-0.1,0.2-0.2,0.3-0.3c0.5-0.6,0.8-1.3,1.1-2.1c0.1-0.3,0.2-0.6,0.3-1c0,0,0,0,0-0.1
			c0.6-1.5,1.1-2.9,1.9-4.3c0.2-0.3,0.4-0.7,0.6-1c0.1-0.1,0.2-0.2,0.3-0.2c0.6-0.5,0.9-1.3,0.9-2c0-0.4,0-0.8,0-1.2
			c0-0.3-0.1-0.6-0.2-0.9c0-0.2-0.1-0.4-0.2-0.5c-0.3-0.5-0.6-1.1-1-1.5c-0.3-0.2-0.5-0.5-0.8-0.6c-0.1-0.1-0.3-0.1-0.5-0.2
			c-0.1-0.1-0.2-0.1-0.4-0.1c-0.2-0.1-0.3-0.1-0.5-0.2s-0.3-0.3-0.5-0.4c0,0-0.1,0-0.2,0l0,0c0.3-1,0.6-1.9,0.8-2.9
			c0-0.1,0-0.2,0.1-0.3c0.1-0.4,0.2-0.8,0.2-1.2c0.1-0.5,0.2-1,0.2-1.6c2-17.8-10.9-33.8-28.7-35.8c-0.9-0.1-1.8-0.1-2.7-0.2
			c-0.1,0-0.1,0-0.2,0c-16.6-0.4-31,12-32.9,28.9c0,0.3-0.1,0.7-0.1,1L38.3,110z"/>
		<g>
			<g>
				
					<ellipse transform="matrix(0.109 -0.994 0.994 0.109 -59.108 151.1306)" class="st10" cx="54.8" cy="108.5" rx="32.4" ry="32.4"/>
				<path class="st10" d="M16,119c-1.1,4.1,2.4,8.6,6.6,9.3c-0.9,6.5,4.8,13.1,11.4,13.2c1,0,2.1-0.1,2.9,0.5
					c0.8,0.5,1.2,1.5,1.6,2.4c2.8,5.6,10.8,7.7,15.9,4.1c1.1-0.8,2.2-1.8,3.5-1.9c1.2-0.1,2.2,0.6,3.3,1.1c6,2.8,13.9-0.1,16.7-6.1
					c0.4-0.9,0.7-1.8,1.4-2.6c0.9-1,2.2-1.4,3.2-2.2c3.1-2.3,3.6-6.6,5.5-9.9c0.7-1.1,1.5-2.2,1.8-3.4c0.7-3.4-3.4-6-6.8-5.6
					s-6.2,2.7-9.3,4.3c-6.6,3.6-14.4,4.1-21.9,3.7c-5.9-0.3-12.1-1.3-16.8-5C31,118,18.5,109.6,16,119z"/>
			</g>
			<path class="st11" d="M60.4,84L60.4,84C60.4,84.1,60.4,84,60.4,84z"/>
			<path class="st11" d="M67.2,141.9c-0.1,0-0.1,0.1-0.2,0.2C67.1,142,67.2,141.9,67.2,141.9z"/>
			<path class="st11" d="M67.7,147.5c0.4,0,0.9-0.3,1.2-0.8c-0.2,0.1-0.4,0.2-0.6,0.3C68.1,147.2,67.9,147.4,67.7,147.5z"/>
			<g>
				<path class="st12" d="M68.8,88.2c-0.3-0.5-1.5-1.4-1.5-0.2c0.1-0.2-0.4,0-0.5-0.1c-0.2-0.1-0.5-0.8-0.7-1
					c-0.7-1-1.4-1.6-2.5-2.2c-0.4-0.2-0.8-0.4-1.1-0.5c-0.3-0.1-0.6-0.1-0.8-0.3c-0.4-0.3-1.1-1.4-1.8-1c-0.8,0.4,0.3,0.9,0.6,1
					c0.9,0.3,1.3,1.1,2,1.7c1.7,1.7,2.9,3.9,3.7,6.2c0.4,1,0.7,2.1,0.8,3.2c0,0.4-0.1,2.4,0.5,1.7c0.2-0.2,0.3-0.6,0.4-0.8
					c0.1-0.4,0.4-0.7,0.5-1.1c0.1-0.5,0.1-1-0.1-1.5C68.1,93,68,92.7,68,92.4c0-0.3,0.2-0.4,0.1-0.7c-0.1-0.5-1.6-1.4-0.4-1.7
					c0.5-0.1,1.2,0.2,1.5,0.6c1.1,1.6,1.1,4.2,1.3,6.1c0.1,0.7,0.2,1.4,0,2.1c-0.1,0.3-0.7,1.3-0.6,1.6c0.1,0.6,1.1-0.8,1.2-1.1
					c0.1-0.2,0-0.4,0.1-0.6c0-0.1,0.1-0.2,0.1-0.3c0.2-0.6,0.3-0.9,0.2-1.5c0-0.3-0.3-1-0.2-1.3c0-0.1,0.5-0.6,0.3-0.7
					c0.3,0.3,0.6,0.3,0.8,0.7c0.2,0.3,0.2,0.8,0.3,1.1c0.3,0.9,0.3,1.8,0.4,2.8c0.1,0.5,0.1,0.9,0.1,1.3c0,0.4,0.2,0.8,0.2,1.2
					c0,0.7-0.7,1.8-0.5,2.5c0.7,0,1.3-3,1.4-3.5c0.2-1.4,0-2.8,0.1-4.2c0-0.7,0.1-1.3-0.3-1.9c-0.4-0.7-0.2-1.2-0.4-1.9
					c-0.2-1.1-1.3-1.7-1.1-2.7c0.1-1-1-2.2-1.6-3.1c-0.4-0.6-0.8-0.9-1.3-1.4c-0.4-0.4-0.8-0.9-1.3-1.2c-0.3-0.2-1.4-0.4-0.9,0.3
					c0.1,0.1,0.5,0.2,0.6,0.3c0.2,0.2,0.2,0.3,0.3,0.5c0.4,0.5,0.4,0.5,0.5,1.1c0.1,0.3,0.2,0.5,0.2,0.8c0,0.2-0.1,0.6-0.1,0.7
					C68.9,88.3,68.8,88.3,68.8,88.2C68.7,88,68.9,88.3,68.8,88.2z"/>
				<path class="st12" d="M89.8,122.3c-0.3-1.1-0.8-2.3-1.7-3.1c-0.5-0.4-0.8-0.4-1.4-0.6c-0.4-0.1-0.8-0.6-1.2-0.6
					c2.5-8,1.8-16.7-2-24.2c-3.5-6.8-9.3-12.3-16.3-15.3c-4.6-2-9.6-2.7-14.6-2.5c4.2,0,8.7,1.6,12.3,3.7c3.6,2.1,6.7,4.9,9.1,8.3
					c2.4,3.4,4,7.3,4.8,11.4c0.4,2.2,0.5,4.4,0.4,6.6c-0.1,2.5-0.3,5.5-1.8,7.5c-0.1,0.2-1,1.7-1.3,1.6c-0.5-0.1,0-0.9,0.1-1.2
					c0.2-0.6,0.1-1.2,0.3-1.8c0.2-0.7,0.5-1.2,0.6-1.9c0.1-0.6,0.1-1.2,0-1.9c0-0.4,0.1-0.8,0-1.2c-0.1-0.8-0.7-1.6-0.7-2.4
					c0,0.2-0.1,0.7-0.3,0.8c-0.1-0.1-0.1-0.1-0.1-0.2c-0.4,0.4-0.7-1.3-0.8-1.4c-0.7-0.9-0.2,1.2-0.2,1.3c0,0.2-0.2,0.2-0.2,0.4
					c0,0.2,0.1,0.7,0.1,0.8c0,0.6-0.1,1.2-0.2,1.8c-0.2,1.1-0.3,2.4-0.7,3.5c-0.4,1.2-0.8,2.2-1.5,3.3c-0.2,0.3-0.6,0.9-0.9,0.9
					c-0.7,0-0.2-0.8-0.1-1c0.3-0.4,0.6-0.9,0.6-1.4c0.1-0.5-0.1-0.9,0.1-1.4c0.2-0.6,0.3-1.4,0.3-2c0-0.2,0-1.4-0.3-1.6
					c0.1,1.6-0.4,3.7-1.1,5.1c-0.2,0.5-0.7,1.4-1.2,1.7c-0.6,0.4,0-0.8,0.1-1c0.4-1.3,0.5-2.8,0.5-4.2c0-0.2-0.1-3.2-0.9-2.9
					c0,0.3,0.2,0.7,0.3,1c0.1,0.4,0,0.8,0,1.2c0,0.9,0,1.7-0.3,2.6c-0.3,0.8-0.6,1.6-1,2.4c-0.3,0.6-0.4,1.5-0.8,2
					c-0.5,0.7-1,1.2-1.5,2c-0.3,0.6-0.7,1.2-1.2,1.6c-0.5,0.4-1,0.7-1.5,1.2c-0.3,0.3-1.1,1.3-1.6,1.3c0.3,0,0.7-0.2,1-0.2
					c0.6-0.1,1.1-0.3,1.7-0.6c0.9-0.4,2.1-1,2.6-1.8c0.1-0.2,0.1-0.5,0.2-0.7c0.2-0.2,0.5-0.3,0.7-0.5c0.1-0.1,0.3-0.5,0.4-0.5
					c0.1,0,0.3,0.1,0.4,0.1c0.4,0,0.8,0.1,1-0.4c0.5,0.2,1,0.7,1.5,0.5c0.4-0.2,0.9-0.5,1.2-0.7c0.8-0.7,1.3-1.8,1.7-2.8
					c1.1-2.5,1.7-4.9,1.7-7.7c0.4,0.4,0.4,1.6,0.4,2.1c0,1-0.2,1.9-0.4,2.9c-0.1,0.5-0.3,0.9-0.4,1.4c-0.2,0.5-0.1,0.9-0.2,1.4
					c-0.1,0.5-0.4,0.8-0.7,1.2c-0.1,0.2-0.9,1.1-0.9,1.3c0.3,0,0.5-0.3,0.7-0.3c0,0,0.2,0.2,0.3,0.2c0.2,0,0.4,0,0.5-0.1
					c0.8-0.1,1.3-0.5,1.8-1.1c-0.7,1.6-1.7,3.9-3.4,4.8c-0.2-0.3,0.5-1.4,0.6-1.7c0.1-0.3,0.2-0.6,0.3-0.9c0.2-0.4,0.2-0.4,0.2-0.7
					c-0.3,0-0.8,0.9-1,1.1c-0.3,0.5-0.6,0.9-1,1.3c-0.5,0.5-1,0.9-1.6,1.3c-0.3,0.2-1,1-1.5,0.8c0-0.1,0.3-0.4,0.3-0.5
					c0.1-0.3,0.2-0.8,0.2-1.2c-0.3,0.2-0.6,0.7-0.9,1c-0.4,0.4-0.8,1-1.4,1.2c-0.2,0.1-0.5,0-0.7,0c-0.2,0.1-0.5,0.2-0.7,0.4
					c-0.4,0.3-0.7,1-1.3,1c0.3-0.6,1.1-0.8,1.5-1.4c0.3-0.5,0.8-1.3,0.8-2c-0.1,0-0.5,0.6-0.7,0.7c-0.1,0.1-0.2,0.1-0.3,0
					c-0.1,0.1-0.1,0.1-0.2,0.2c-0.3,0.1-0.6,0.3-0.8,0.5c-0.4,0.3-0.7,0.7-1.1,1c-0.2,0.1-1.4,1-1.7,0.7c0-0.4,0.8-0.8,0.8-1.2
					c-0.4,0-0.9,0.7-1.2,0.9c-0.4,0.3-0.9,0.5-1.3,0.8c-0.7,0.4-1.9,0.9-2.7,0.9c0.1,0.1,0.8,0.3,0.9,0.4c0.3,0.1,0.8,0.1,1.1,0
					c0.9-0.2,1.7-0.7,2.6-1c0,0.5-1.2,0.5-1.5,0.7c-0.2,0.1-0.3,0.5-0.5,0.6c-0.2,0.2-0.5,0.2-0.7,0.4c-0.6,0.4-1,0.7-1.7,0.7
					c-0.6,0-1.3,0.1-1.8,0.6c0.1,0,0.2,0.1,0.3,0.1c-0.6,0.1-1.2-0.1-1.8-0.2c-0.6-0.1-1.1-0.2-1.7-0.3c-0.3-0.1-2.3-0.7-1.7-1.3
					c0.2-0.2,0.7,0.2,0.9,0.3c0.4,0.2,0.8,0,1.3-0.1c0.5-0.1,2.4-0.6,2.6-1.1c-0.7,0.3-1.9,0.4-2.7,0.4c-0.5,0-0.9-0.2-1.5-0.2
					c-0.6,0-1.1,0.1-1.7,0.2c-0.4,0.1-0.8,0.2-1.3,0.2c-0.4,0.1-0.7-0.1-1.2-0.1c-0.9-0.1-1.8-0.2-2.7-0.5c-0.4-0.1-1.7-1-2.1-0.6
					c-0.5,0.5,0.9,1.3,1.2,1.5c1.1,0.6,2.5,0.9,3.6,1.5c-0.7-0.1-1.5-0.2-2.2-0.4c-0.6-0.2-1.1-0.5-1.7-0.3c-0.5,0.1-1,0.3-1.5,0.5
					c-0.6,0.2-1.1,0.2-1.6,0.5c-0.4,0.2-0.7,0.6-1.2,0.4c-0.2-0.1-0.2-0.2-0.4-0.3c-0.3-0.1-0.6,0-0.8,0.1c-0.6,0.3-0.8,0.5-1.5,0.4
					c-0.3,0-0.8,0.1-1.1,0.1c-0.4-0.1-0.5-0.5-0.9-0.6c-0.5-0.2-1.1,0-1.6-0.2c-0.5-0.2-0.5-0.7-0.7-1.1c-0.3-0.5-0.8-0.7-1.3-0.9
					c-0.4-0.1-1.1-0.2-1.4-0.5c-0.4-0.3-0.4-0.9-0.7-1.3c-0.3-0.4-0.9-0.7-1.2-1c-0.6-0.5-0.9-0.8-1.1-1.6c-0.2,0-0.1,0.7-0.1,0.8
					c-3.2-4.4-5.1-9.6-5.5-15c-1,15.4,9.4,29.7,24.4,33.4c1,0.3,2.1,0.5,3.2,0.6c0.5,0.1,1,0.1,1.5,0.2c0.5,0.1,1,0,0.6,0.6
					c-0.4,0.6-2.8,0.7-3.3,0.1c0.5,0.5,1.2,0.5,1.8,0.8c0.9,0.4,1.5,0.7,2.5,0.5c0.7-0.1,1.5-0.6,2.2-0.6c0.6-0.1,0.9,0.4,0.8,1.1
					c-0.1,0.8-0.8,0.4-1.1,0.8c-0.1,0.2,0,0.6,0,0.8c0,0.4-0.1,0.7-0.3,1c-0.4,0.6-1.2,1.3-1.8,1.8c-0.4,0.3-1.5,1.2-1.9,1.2
					c0.7,0,1.4-0.5,2.1-0.8c0.2-0.1,0.4-0.2,0.6-0.3c0.3-0.2,0.5-0.5,0.7-0.7c0.5-0.2,0.9-0.1,1.4-0.5c0.3-0.2,0.5-0.6,0.8-0.9
					c0.3-0.2,0.6-0.3,0.9-0.6c0.4,0.7,1.1,1.1,1.8,1.4c0.4,0.2,0.7,0.4,1.1,0.4c0.5,0,0.8-0.2,1.3-0.2c-1.2,0.2-2.3-1.2-2.6-2.3
					c-0.1-0.4-0.4-1.2,0.1-1.3c0.4-0.1,1,0.5,1.4,0.5c0.2,0,0.3-0.2,0.4-0.2c0.3,0,0.2,0,0.5,0.1c0.7,0.2,0.9,0.2,1.6-0.1
					c1.1-0.4,2.6-0.1,3.5-1.1c-1,0.2-1.8,0.5-2.8,0.5c-0.8,0-2.3-0.4-2.7-1.3c-0.1-0.4,0-0.5,0.5-0.6c0.5-0.1,0.9,0.1,1.4,0
					c1-0.2,2.1-0.8,3-1.3c0.4-0.2,1-0.2,1.3-0.5c0.2-0.1,0.4-0.7,0.7-0.7c0.4,0.1,0.4,0.8,0.5,1.1c0,0.1,0.2,0.6,0.2,0.7
					c0.1,0.1,0.4,0.1,0.5,0.3c0.2,0.3,0.2,0.9,0.3,1.2c0.2,0.5,0.3,1,0.4,1.5c0.1,1.4-0.5,2.2-1.1,3.4c0.8-0.8,1.4-1.5,2.1-2.4
					c0.6-0.9,0.5-1.8,0.1-2.8c-0.1-0.2-0.5-0.6-0.5-0.8c0-0.3,0.6-0.7,0.7-1c0.2-0.4,0.2-0.8,0-1.2c-0.1-0.2-0.6-0.5-0.9-0.4
					c0.6-0.3,1-0.8,1.7-0.6c0.4,0.1,0.7,0.5,1.1,0.7c0.5,0.3,0.9,0.6,0.8,1.3c0,0.2-0.4,0.5-0.4,0.6c0,0.3,0.1,0.1,0.2,0.3
					c0.4,0.7,0.5,1.6,0.3,2.4c-0.1,0.6-0.4,1.2-0.7,1.7c-0.3,0.5-1,0.7-1.2,1.2c1.7-1.1,3.6-2.7,3.9-4.9c0.1-1,0-2.4-0.6-3.1
					c-0.9-1.1-2.2-0.5-3.3-1.1c0-0.2,0.6-0.4,0.7-0.5c0.3-0.2,0.4-0.5,0.7-0.8c0.3-0.3,0.7-0.4,1.1-0.7c0.4-0.3,0.6-0.6,0.9-0.9
					c0.5-0.5,1.2-0.6,1.8-1.2c0.2-0.3,0.6-0.6,0.7-1c0-0.2-0.2-0.8,0-0.8c0.2,0.8,0.3,1.8-0.1,2.6c-0.4,0.8-1,1.4-1.6,2
					c0.6,0,1.5-0.7,1.9-1c0.8-0.5,1.2-1.1,1.6-2c0.3-0.6,0.3-1.4,0.6-2c0.4-0.8,0.8-1.4,0.9-2.3c0.1-1,0.4-1.2,1.1-1.8
					c0.6-0.6,0.7-1.2,1-1.9c0.2-0.4,0.4-0.3,0.7-0.5c0.3-0.2,0.5-0.6,0.6-0.9c0.3-0.8,0.3-1.8,0.1-2.7c0.6,0.8,1.5,1.6,1.9,2.7
					c0.3,1.2-0.6,1.2-1.2,2c-0.1,0.2-0.2,0.4-0.4,0.5c-0.2,0.1-0.6,0.1-0.8,0.2c-0.3,0.3-0.1,0.5,0,0.9c0.1,0.5,0.2,1,0,1.5
					c-0.2,0.3-0.7,0.9-1.1,0.4c0.2,0.4,0.4,0.8,0.6,1.3c0.1,0.3,0.2,0.4,0.4,0.7c0.5,0.8,0.1,1.8-0.2,2.6c-0.4,1-1,1.9-1.8,2.6
					c-0.3,0.2-0.6,0.5-1,0.6c-0.2,0.1-0.8,0.1-0.9,0.3c0.9,0,1.3-0.4,2-0.9c0.7-0.5,1.6-0.9,2.1-1.6c1-1.3,1.2-2.8,1.5-4.3
					c0.2-0.7,0.3-1.5,0.7-2.1c0.2-0.3,0.5-0.5,0.7-0.8c0.1-0.2,0.1-0.5,0.3-0.7c0.2-0.2,0.6-0.2,0.8-0.4c0.4-0.3,0.7-0.6,0.9-1
					C90.1,124.1,90,123.1,89.8,122.3C89.7,121.9,89.9,122.7,89.8,122.3z M60.4,131.4c-0.6,0.2-1.3,0.2-2,0.3c-0.7,0.2-1.3,0.2-1.9,0
					c-0.7-0.2-1.4-0.5-2.1-0.6c-0.7,0-1.4,0-2.2,0.1c-1.3,0.1-2.4-0.2-3.6-0.5c-1.2-0.3-2.3,0.4-3.3-0.6c0.7,0,1.2-0.1,1.9-0.3
					c0.7-0.1,1.4,0,2.1-0.1c0.3,0,0.6-0.1,0.8-0.3c0.3-0.3,0.2-0.7,0.4-1c0.1-0.1,0.4-0.1,0.6-0.3c0.2-0.2,0.2-0.6,0.3-0.8
					c0.6,0.6,1.4,0.5,2.1,1c-0.3,0.5-1,0.8-0.2,1.1c0.2,0.1,0.7,0.2,1,0.2c0.2,0,0.5-0.2,0.7-0.2c0.3,0,0.3,0.3,0.5,0.4
					c0.2,0.1,0.6,0,0.8,0c0.7,0,1.5-0.1,2.1-0.3c0.3-0.1,0.6-0.4,0.9-0.5c0.4-0.1,0.8,0.1,1.1,0.1c0.7,0.1,1.4-0.1,2-0.2
					c1.8-0.3,3.4-0.4,5-1.4C65.2,129.3,62.9,130.5,60.4,131.4C60.1,131.5,62.8,130.6,60.4,131.4z M70.4,125.3c-1,0.7-1.8,1.4-3,1.8
					c-1,0.3-2.2,0.8-3.2,0.6c-0.6-0.1-1-0.2-1.6,0c-0.4,0.1-0.8,0.4-1.3,0.2c-0.4-0.1-0.4-0.4-0.7-0.6c0.6,0,1.3,0.1,1.9-0.1
					c0.6-0.2,1-0.7,1.5-1c0.6-0.3,1.3-0.3,1.8-0.7c0.4-0.3,0.6-0.8,0.9-1.1c0.5-0.5,0.7-0.2,1.3-0.1c0.6,0.1,1-0.1,1.6-0.3
					c0.5-0.2,1-0.7,1.5-0.7c0.2,0,0.4,0.1,0.6,0.1c0.3,0,0.6-0.4,0.9-0.4C72,123.7,71.2,124.5,70.4,125.3
					C70.1,125.5,71.2,124.5,70.4,125.3z"/>
			</g>
			<path class="st11" d="M67,142.1c-0.1,0.1-0.3,0.2-0.5,0.3C66.6,142.3,66.8,142.3,67,142.1C66.9,142.1,67,142.1,67,142.1z"/>
			<path class="st11" d="M50.7,148.6c-0.3,0-0.5,0-0.7,0.2C50.3,148.8,50.5,148.7,50.7,148.6z"/>
		</g>
		<g>
			<path class="st12" d="M85.3,95.6L54.7,80.5l-0.3-3.7c-2.7-0.2-5,0.9-5.9,4.3c-1.1,4.1,2.4,8.6,6.6,9.3
				c-0.9,6.5,4.8,13.1,11.4,13.2c1,0,2.1-0.1,2.9,0.5c0.8,0.5,1.2,1.5,1.6,2.4c2.7,5.5,10.6,7.6,15.8,4.2L85.3,95.6z"/>
		</g>
		<g>
			<g>
				<ellipse transform="matrix(0.109 -0.994 0.994 0.109 9.7073 147.5202)" class="st2" cx="87.1" cy="68.3" rx="32.4" ry="32.4"/>
				<path class="st2" d="M48.5,78.8c-1.1,4.1,2.4,8.6,6.6,9.3c-0.9,6.5,4.8,13.1,11.4,13.2c1,0,2.1-0.1,2.9,0.5
					c0.8,0.5,1.2,1.5,1.6,2.4c2.8,5.6,10.8,7.7,15.9,4.1c1.1-0.8,2.2-1.8,3.5-1.9c1.2-0.1,2.2,0.6,3.3,1.1c6,2.8,13.9-0.1,16.7-6.1
					c0.4-0.9,0.7-1.8,1.4-2.6c0.9-1,2.2-1.4,3.2-2.2c3.1-2.3,3.6-6.6,5.5-9.9c0.7-1.1,1.5-2.2,1.8-3.4c0.7-3.4-3.4-6-6.8-5.6
					s-6.2,2.7-9.3,4.3c-6.6,3.6-14.4,4.1-21.9,3.7c-5.9-0.3-12.1-1.3-16.8-5C63.5,77.7,51,69.4,48.5,78.8z"/>
			</g>
			<g>
				<path class="st8" d="M92.9,43.7C92.9,43.7,92.8,43.7,92.9,43.7C92.9,43.8,92.9,43.8,92.9,43.7z"/>
				<path class="st8" d="M101.3,47.9c-0.3-0.5-1.5-1.4-1.5-0.2c0.1-0.2-0.4,0-0.6-0.1c-0.2-0.1-0.5-0.8-0.7-1
					c-0.7-1-1.4-1.6-2.5-2.2c-0.3-0.2-0.7-0.4-1.1-0.5c-0.3-0.1-0.7-0.1-0.9-0.2c-0.4-0.3-1.1-1.4-1.8-1c-0.8,0.4,0.3,0.9,0.6,1
					c0.9,0.3,1.3,1.1,2,1.7c1.7,1.7,2.9,3.9,3.7,6.2c0.4,1,0.7,2.1,0.8,3.2c0,0.4-0.1,2.4,0.5,1.7c0.2-0.2,0.3-0.6,0.4-0.8
					c0.1-0.4,0.4-0.7,0.5-1.1c0.1-0.5,0.1-1-0.1-1.5c-0.1-0.3-0.2-0.6-0.2-0.9c0-0.3,0.2-0.4,0.1-0.7c-0.1-0.5-1.6-1.4-0.4-1.7
					c0.5-0.1,1.2,0.2,1.5,0.6c1.1,1.6,1.1,4.2,1.3,6.1c0.1,0.7,0.2,1.4,0,2.1c-0.1,0.3-0.7,1.3-0.6,1.6c0.1,0.6,1.1-0.8,1.2-1.1
					c0.1-0.2,0-0.4,0-0.6c0-0.1,0.1-0.2,0.2-0.3c0.2-0.6,0.3-0.9,0.2-1.5c0-0.3-0.3-1-0.2-1.3c0-0.1,0.5-0.6,0.3-0.7
					c0.3,0.3,0.6,0.3,0.8,0.7c0.2,0.3,0.2,0.8,0.3,1.1c0.3,0.9,0.3,1.8,0.4,2.8c0.1,0.5,0.1,0.9,0.1,1.3c0,0.4,0.2,0.8,0.2,1.2
					c0,0.7-0.7,1.8-0.5,2.5c0.7,0,1.3-2.8,1.4-3.4c0.2-1.3,0-2.7,0.1-4c0-0.8,0.1-1.5-0.3-2.3c-0.3-0.6-0.3-1-0.3-1.7
					c-0.1-1.1-1.3-1.9-1.2-2.9c0.1-0.7,0-0.8-0.4-1.4c-0.4-0.6-0.7-1.1-1.1-1.7c-0.4-0.6-0.7-0.9-1.2-1.4c-0.5-0.4-0.8-0.9-1.4-1.3
					c-0.2-0.1-1.4-0.6-1.2,0.1c0.1,0.2,0.4,0.2,0.5,0.3c0.2,0.2,0.4,0.3,0.5,0.5c0.6,0.7,0.7,1.7,0.7,2.7
					C101.3,48.3,101.3,47.9,101.3,47.9C101.2,47.7,101.3,48,101.3,47.9z"/>
				<path class="st8" d="M99.6,101.6c-0.1,0-0.1,0.1-0.2,0.2C99.6,101.7,99.6,101.7,99.6,101.6z"/>
				<path class="st8" d="M100.1,107.2c0.5,0,1-0.4,1.2-0.8C100.9,106.6,100.5,107.1,100.1,107.2
					C100.5,107.2,100.4,107.1,100.1,107.2z"/>
				<path class="st8" d="M122.3,82.1c-0.3-1.1-0.8-2.3-1.7-3.1c-0.5-0.4-0.8-0.4-1.4-0.6c-0.4-0.1-0.8-0.6-1.2-0.6
					c2.5-8,1.8-16.7-2-24.2c-3.5-6.8-9.3-12.3-16.3-15.3c-4.6-2-9.6-2.7-14.6-2.5c4.2,0,8.7,1.6,12.3,3.7c3.6,2.1,6.7,4.9,9.1,8.3
					c2.4,3.4,4,7.3,4.8,11.4c0.4,2.2,0.5,4.4,0.4,6.6c-0.1,2.5-0.3,5.5-1.8,7.5c-0.1,0.2-1,1.7-1.3,1.6c-0.5-0.1,0-0.9,0.1-1.2
					c0.2-0.6,0.1-1.2,0.3-1.8c0.2-0.7,0.5-1.2,0.6-1.9c0.1-0.6,0.1-1.2,0-1.9c0-0.4,0.1-0.8,0-1.2c-0.1-0.8-0.7-1.6-0.7-2.4
					c0,0.2-0.1,0.7-0.3,0.8c-0.1-0.1-0.1-0.1-0.1-0.2c-0.4,0.4-0.7-1.3-0.8-1.4c-0.7-0.9-0.2,1.2-0.2,1.3c0,0.2-0.2,0.2-0.2,0.4
					c0,0.2,0.1,0.7,0.1,0.8c0,0.6-0.1,1.2-0.2,1.8c-0.2,1.1-0.3,2.4-0.7,3.5c-0.4,1.2-0.8,2.2-1.5,3.3c-0.2,0.3-0.6,0.9-0.9,0.9
					c-0.7,0-0.2-0.8-0.1-1c0.3-0.4,0.6-0.9,0.6-1.4c0.1-0.5-0.1-0.9,0.1-1.4c0.2-0.6,0.3-1.4,0.3-2c0-0.2,0-1.4-0.3-1.6
					c0.1,1.6-0.4,3.7-1.1,5.1c-0.2,0.5-0.7,1.4-1.2,1.7c-0.6,0.4,0-0.8,0.1-1c0.4-1.3,0.5-2.8,0.5-4.2c0-0.2-0.1-3.2-0.9-2.9
					c0,0.3,0.2,0.7,0.3,1c0.1,0.4,0,0.8,0,1.2c0,0.9,0,1.7-0.3,2.6c-0.3,0.8-0.6,1.6-1,2.4c-0.3,0.6-0.4,1.5-0.8,2
					c-0.5,0.7-1,1.2-1.5,2c-0.3,0.6-0.7,1.2-1.2,1.6c-0.5,0.4-1,0.7-1.5,1.2c-0.3,0.3-1.1,1.3-1.6,1.3c0.3,0,0.7-0.2,1-0.2
					c0.6-0.1,1.1-0.3,1.7-0.6c0.9-0.4,2.1-1,2.6-1.8c0.1-0.2,0.1-0.5,0.2-0.7c0.2-0.2,0.5-0.3,0.7-0.5c0.1-0.1,0.3-0.5,0.4-0.5
					c0.1,0,0.3,0.1,0.4,0.1c0.4,0,0.8,0.1,1-0.4c0.5,0.2,1,0.7,1.5,0.5c0.4-0.2,0.9-0.5,1.2-0.7c0.8-0.7,1.3-1.8,1.7-2.8
					c1.1-2.5,1.7-4.9,1.7-7.7c0.4,0.4,0.4,1.6,0.4,2.1c0,1-0.2,1.9-0.4,2.8c-0.1,0.5-0.3,0.9-0.4,1.4c-0.2,0.5-0.1,0.9-0.2,1.4
					c-0.1,0.5-0.4,0.8-0.7,1.2c-0.1,0.2-0.9,1.1-0.9,1.2c0.3,0,0.5-0.3,0.7-0.3c0,0,0.2,0.2,0.3,0.2c0.2,0,0.4,0,0.5-0.1
					c0.8-0.1,1.3-0.5,1.8-1.1c-0.7,1.6-1.7,3.9-3.4,4.8c-0.2-0.3,0.5-1.4,0.6-1.7c0.1-0.3,0.2-0.6,0.3-0.9c0.2-0.4,0.2-0.4,0.2-0.7
					c-0.3,0-0.8,0.9-1,1.1c-0.3,0.5-0.6,0.9-1,1.3c-0.5,0.5-1,0.9-1.6,1.3c-0.3,0.2-1,1-1.5,0.8c0-0.1,0.3-0.4,0.3-0.5
					c0.1-0.3,0.2-0.8,0.2-1.2c-0.3,0.2-0.6,0.7-0.9,1c-0.4,0.4-0.8,1-1.4,1.2c-0.2,0.1-0.5,0-0.7,0c-0.2,0.1-0.5,0.2-0.7,0.4
					c-0.4,0.3-0.7,1-1.3,1c0.3-0.6,1.1-0.8,1.5-1.4c0.3-0.5,0.8-1.3,0.8-2c-0.1,0-0.5,0.6-0.7,0.7c-0.1,0.1-0.2,0.1-0.2,0
					c-0.1,0.1-0.1,0.1-0.2,0.2c-0.3,0.1-0.6,0.3-0.8,0.5c-0.4,0.3-0.7,0.7-1.1,1c-0.2,0.1-1.4,1-1.7,0.7c0-0.4,0.8-0.8,0.8-1.2
					c-0.4,0-0.9,0.7-1.2,0.9c-0.4,0.3-0.9,0.5-1.3,0.8c-0.7,0.4-1.9,0.9-2.7,0.9c0.1,0.1,0.8,0.3,0.9,0.4c0.3,0.1,0.8,0.1,1.1,0
					c0.9-0.2,1.7-0.7,2.6-1c0,0.5-1.2,0.5-1.5,0.7c-0.2,0.1-0.3,0.5-0.5,0.6c-0.2,0.2-0.5,0.2-0.7,0.4c-0.6,0.4-1,0.7-1.7,0.7
					c-0.6,0-1.3,0.1-1.8,0.6c0.1,0,0.2,0.1,0.3,0.1c-0.6,0.1-1.2-0.1-1.8-0.2c-0.6-0.1-1.1-0.2-1.7-0.3c-0.3-0.1-2.3-0.7-1.7-1.3
					c0.2-0.2,0.7,0.2,0.9,0.3c0.4,0.2,0.8,0,1.3-0.1c0.5-0.1,2.4-0.6,2.6-1.1c-0.7,0.3-1.9,0.4-2.7,0.4c-0.6,0-1.1-0.2-1.7-0.2
					c-0.6,0-1.1,0.2-1.7,0.2c-0.4,0.1-0.8,0.2-1.2,0.2c-0.4,0-0.8-0.1-1.2-0.2c-0.9-0.1-1.9-0.3-2.7-0.6c-0.4-0.2-1.7-1-2-0.5
					c-0.3,0.5,1.1,1.3,1.4,1.5c0.7,0.3,1.3,0.6,2,0.8c0.5,0.2,1,0.6,1.5,0.6c-0.8-0.1-1.6-0.2-2.3-0.4c-0.6-0.2-1.1-0.5-1.7-0.3
					c-0.5,0.1-1.1,0.4-1.6,0.6c-0.6,0.2-1.1,0.2-1.6,0.5c-0.4,0.2-0.7,0.5-1.1,0.3c-0.2-0.1-0.3-0.3-0.6-0.3
					c-0.4-0.1-0.6,0.1-0.9,0.2c-0.5,0.2-0.7,0-1.2,0c-0.3,0-0.7,0.1-1.1,0.1c-0.5-0.1-0.5-0.4-1-0.6c-0.5-0.2-1,0-1.4-0.2
					c-0.6-0.2-0.6-0.5-0.8-1c-0.3-0.5-0.7-0.8-1.3-1c-0.4-0.2-1-0.2-1.4-0.5c-0.4-0.3-0.4-0.9-0.7-1.4c-0.3-0.4-0.9-0.7-1.2-1
					c-0.6-0.5-0.9-0.8-1.1-1.6c-0.2,0-0.1,0.7-0.1,0.8c-3.2-4.4-5.1-9.6-5.5-15c-1,15.4,9.4,29.7,24.4,33.4c1,0.3,2.1,0.5,3.2,0.6
					c0.5,0.1,1,0.1,1.5,0.2c0.5,0.1,1,0,0.6,0.6c-0.4,0.6-2.8,0.7-3.3,0.1c0.5,0.5,1.2,0.5,1.8,0.8c0.9,0.4,1.5,0.7,2.5,0.5
					c0.7-0.1,1.5-0.6,2.2-0.6c0.6-0.1,0.9,0.4,0.8,1.1c-0.1,0.8-0.8,0.4-1.1,0.8c-0.1,0.2,0,0.6,0,0.8c0,0.4-0.1,0.7-0.3,1
					c-0.4,0.6-1.2,1.3-1.8,1.8c-0.4,0.3-1.5,1.2-1.9,1.2c0.7,0,1.4-0.5,2.1-0.8c0.2-0.1,0.4-0.2,0.6-0.3c0.3-0.2,0.5-0.5,0.7-0.7
					c0.5-0.2,0.9-0.1,1.4-0.5c0.3-0.2,0.5-0.6,0.8-0.9c0.3-0.2,0.6-0.3,0.9-0.6c0.4,0.7,1.1,1.1,1.8,1.4c0.4,0.2,0.7,0.4,1.1,0.4
					c0.5,0,0.8-0.2,1.3-0.2c-1.2,0.2-2.3-1.2-2.6-2.3c-0.1-0.4-0.4-1.2,0.1-1.3c0.4-0.1,1,0.5,1.4,0.5c0.2,0,0.3-0.2,0.4-0.2
					c0.3,0,0.2,0,0.5,0.1c0.7,0.2,0.9,0.2,1.6-0.1c1.1-0.4,2.6-0.1,3.5-1c-1,0.2-1.8,0.5-2.8,0.5c-0.8,0-2.3-0.4-2.7-1.3
					c-0.1-0.4,0-0.5,0.5-0.5c0.5-0.1,0.9,0.1,1.4,0c1-0.2,2.1-0.8,3-1.3c0.4-0.2,1-0.2,1.3-0.5c0.2-0.1,0.4-0.7,0.7-0.7
					c0.4,0.1,0.4,0.8,0.5,1.1c0,0.1,0.2,0.6,0.2,0.7c0.1,0.1,0.4,0.1,0.5,0.3c0.2,0.3,0.2,0.9,0.3,1.2c0.2,0.5,0.3,1,0.4,1.5
					c0.1,1.4-0.5,2.2-1.1,3.4c0.8-0.8,1.4-1.5,2.1-2.4c0.6-0.9,0.5-1.8,0.1-2.8c-0.1-0.2-0.5-0.6-0.5-0.8c0-0.3,0.6-0.7,0.7-1
					c0.2-0.4,0.2-0.8,0-1.2c-0.1-0.2-0.6-0.5-0.9-0.4c0.6-0.3,1-0.8,1.7-0.6c0.4,0.1,0.7,0.5,1.1,0.7c0.5,0.3,0.9,0.6,0.8,1.3
					c0,0.2-0.4,0.5-0.4,0.6c0,0.3,0.1,0.1,0.2,0.3c0.4,0.7,0.5,1.6,0.3,2.4c-0.1,0.6-0.4,1.2-0.7,1.7c-0.3,0.5-1,0.7-1.2,1.2
					c1.7-1.1,3.6-2.7,3.9-4.9c0.1-1,0-2.4-0.6-3.1c-0.9-1.1-2.2-0.5-3.3-1.1c0-0.2,0.6-0.4,0.7-0.5c0.3-0.2,0.4-0.5,0.7-0.8
					c0.3-0.3,0.7-0.4,1.1-0.7c0.4-0.3,0.6-0.6,0.9-0.9c0.5-0.5,1.2-0.6,1.8-1.2c0.2-0.3,0.6-0.6,0.7-1c0-0.2-0.2-0.8,0-0.8
					c0.2,0.8,0.3,1.8-0.1,2.6c-0.4,0.8-1,1.4-1.6,2c0.6,0,1.5-0.7,1.9-1c0.8-0.5,1.2-1.1,1.6-2c0.3-0.6,0.3-1.4,0.6-2
					c0.4-0.8,0.8-1.4,0.9-2.3c0.1-1,0.4-1.2,1.1-1.8c0.6-0.6,0.7-1.2,1-1.9c0.2-0.4,0.4-0.3,0.7-0.5c0.3-0.2,0.5-0.6,0.6-0.9
					c0.3-0.8,0.3-1.8,0.1-2.7c0.6,0.8,1.5,1.6,1.9,2.7c0.3,1.2-0.6,1.2-1.2,2c-0.1,0.2-0.2,0.4-0.4,0.5c-0.2,0.1-0.6,0.1-0.8,0.2
					c-0.3,0.3-0.1,0.5,0,0.9c0.1,0.5,0.2,1,0,1.5c-0.2,0.3-0.7,0.9-1.1,0.4c0.2,0.4,0.4,0.8,0.6,1.3c0.1,0.3,0.2,0.4,0.4,0.7
					c0.5,0.8,0.1,1.8-0.2,2.5c-0.4,1-1,1.9-1.8,2.6c-0.3,0.2-0.6,0.5-1,0.6c-0.2,0.1-0.8,0.1-0.9,0.3c0.9,0,1.3-0.4,2-0.9
					c0.7-0.5,1.6-0.9,2.1-1.6c1-1.3,1.2-2.8,1.5-4.3c0.2-0.7,0.3-1.5,0.7-2.1c0.2-0.3,0.5-0.5,0.7-0.8c0.1-0.2,0.1-0.5,0.3-0.7
					c0.2-0.2,0.6-0.2,0.8-0.4c0.4-0.3,0.7-0.6,0.9-1C122.4,83.7,122.5,82.8,122.3,82.1z M108.2,66.3L108.2,66.3
					C108.2,66.2,108.2,66.3,108.2,66.3L108.2,66.3z M94.1,86.9c0.7,0,1.2-0.1,1.7-0.5c0.5-0.4,0.9-0.8,1.5-1
					c0.7-0.2,0.9-0.2,1.3-0.8c0.2-0.3,0.6-0.8,0.8-1c0.4-0.3,1,0.2,1.4,0.2c0.5,0,1-0.2,1.5-0.4c0.5-0.2,0.8-0.7,1.4-0.7
					c0.3,0,0.5,0.1,0.8,0c0.2-0.1,0.5-0.3,0.8-0.3c-1.9,2.4-4.2,4.1-7.2,4.8c-0.8,0.2-1.6-0.1-2.4,0c-0.5,0.1-0.8,0.2-1.3,0.2
					c-0.8,0-0.6-0.1-1.1-0.6C93.6,86.9,93.8,86.9,94.1,86.9z M83.8,91.1c-0.5-0.1-1.1,0-1.6-0.2c-0.5-0.1-1-0.4-1.6-0.4
					c-1.2-0.1-2,0.4-2.9-0.5c0.7,0,1.2-0.1,1.9-0.3c0.7-0.1,1.4,0,2.1-0.1c0.3,0,0.6-0.1,0.8-0.3c0.3-0.3,0.2-0.7,0.4-1
					c0.1-0.1,0.4-0.1,0.6-0.3c0.2-0.2,0.2-0.6,0.3-0.8c0.6,0.6,1.4,0.5,2.1,1c-0.4,0.3-1.2,0.6-0.6,1.1c0.1,0.1,0.7,0.2,0.9,0.2
					c0.4,0,0.7-0.2,1-0.2c0.3,0,0.3,0.3,0.5,0.4c0.2,0.1,0.6,0,0.8,0c0.8,0,1.6-0.1,2.3-0.4c0.4-0.2,0.6-0.4,1-0.4
					c0.3,0,0.7,0.2,1,0.2c0.8,0,1.6-0.2,2.4-0.3c0.9-0.1,1.8-0.1,2.7-0.4c0.8-0.3,1.6-0.7,2.4-1.2c-1.2,0.9-2.6,1.7-3.9,2.4
					c-1.3,0.6-2.6,1.4-4,1.5c-0.6,0.1-1.2,0.3-1.8,0.4c-0.7,0.1-1.6-0.1-2.3-0.3c-0.7-0.1-1.3-0.2-2-0.2
					C85.4,91,84.5,91.2,83.8,91.1C83.4,91,84.4,91.2,83.8,91.1z"/>
				<path class="st8" d="M99.4,101.8c-0.1,0.1-0.3,0.2-0.5,0.3C99.1,102.1,99.3,102,99.4,101.8C99.4,101.9,99.4,101.9,99.4,101.8
					C99.3,101.9,99.4,101.9,99.4,101.8z"/>
				<path class="st8" d="M83.1,108.3c-0.3,0-0.5,0-0.7,0.2C82.7,108.5,82.9,108.5,83.1,108.3z"/>
			</g>
		</g>
	</g>
</g>
<g id="sunBananaFront">
	<g>
		<path class="st13" d="M122.3,115.7c-2.5,1.8-6.3,3.5-9.1,4.7c-7.1,3-14.5,5.5-22.2,6.3s-15.7-0.3-22.5-4
			c-9.3-5.1-16.5-14.4-25.7-19.5c-4.1-2.3-7.6-3.8-12-5h-0.1c-0.1,0.1-0.2,0.2-0.3,0.3c-0.2,0.2-0.6,0.2-0.9,0.3
			c-0.3,0.1-0.4,0.3-0.7,0.5c-0.3,0.2-0.6,0.4-1,0.6c-0.1,0-0.1,0.1-0.2,0.1c-5.8,15.7,4.2,31.3,16.4,41.7
			c12.6,10.7,29.7,15.4,46.2,15.3c9.3-0.1,20.3-1.5,28.6-5.7s15.1-11.5,17.7-20.4c1.6-5.5,2.9-10.3,2.4-16c0,0,0.5-6.9-3.5-8.2
			C131.5,105.5,128.2,111.3,122.3,115.7z"/>
		<path class="st6" d="M135.5,106.8c-4-1.2-7.3,4.6-13.2,8.9c-2.5,1.8-6.3,3.5-9.1,4.7c-7.1,3-14.5,5.5-22.2,6.3s-15.7-0.3-22.5-4
			c-9.3-5.1-16.5-14.4-25.7-19.5c-3.4-1.9-6.4-3.2-9.7-4.3c3.4,6.6,8.5,12.6,14.2,17.4C59.9,127,77,131.7,93.5,131.6
			c9.3-0.1,20.3-1.5,28.6-5.7c6.9-3.6,12.9-9.3,16.1-16.2C137.7,108.3,136.8,107.2,135.5,106.8z"/>
		<path class="st5" d="M137.5,123.7c-2.6,8.9-9.5,16.1-17.7,20.4s-19.3,5.7-28.6,5.7c-16.6,0.1-33.6-4.6-46.2-15.3
			c-9.7-8.3-18-19.8-18.1-32.1c-4,14.8,5.6,29.4,17.2,39.3c12.6,10.7,29.7,15.4,46.2,15.3c9.3-0.1,20.3-1.5,28.6-5.7
			c8.2-4.3,15.1-11.5,17.7-20.4c1.3-4.6,2.4-8.7,2.5-13.2C138.6,119.6,138,121.6,137.5,123.7z"/>
	</g>
</g>
<g id="sunChocoSauce">
	<path class="st14" d="M121.5,70.4c0.2-0.7,0.2-1.4,0.2-2.1c-0.1-8-4.7-15-9.4-21c-4-5.1-8.5-9.6-15-11.4
		c-6.8-1.8-14.1-1.7-20.8,0.5c-5.2,1.6-9.9,4.5-13.9,8.2c-2,1.8-3.8,3.9-5.3,6.1c-2.7,4-3.8,10.1-4.5,14.8c-0.3,2.3-1,14,4.1,11.1
		c1.8-1.1,0.8-4.5,0.6-6.1c-0.3-3.2-0.4-6.5,1.1-9.4c0.8-1.5,2.2-2.8,3.8-2.5c0.9,0.2,1.5,0.9,1.9,1.7s0.5,1.7,0.5,2.6
		C65,66,64.5,69,64.3,72c-0.2,2.4-0.8,6.3,0.3,8.5c0.3,0.7,1.6,2.3,2.4,2.5c2.7,0.8,3-4.6,3.5-6c0.3-0.9,1.4-2.4,2.3-1
		c0.4,0.6,0.4,1.4,0.5,2.1s0.7,1.5,1.4,1.4c0.6,0,1-0.6,1.2-1.1c1.8-4.1,3.8,0.9,5.7,2.1c3.3,2.2,7.6,0.7,9.9-2.1
		c1.1-1.3,1.8-2.7,2.6-4.2c0.4-0.7,1.5-2.2,2.5-1.4c0.4,0.3,0.6,0.9,0.8,1.5c0.4,1.5,0.8,2.9,1.2,4.4c0.3,1.1,0.6,2.2,1.5,2.9
		c0.7,0.5,1.6,0.6,2.4,0.3c1.8-0.8,2.2-3.7,2.6-5.3c0.4-1.5,1.1-6.4,3.6-3c0.6,0.9,0.7,2,0.9,3.1c0.2,1.8,0.5,3.5,1,5.2
		c0.2,0.9,0.5,1.8,1.3,2.4c1.9,1.4,3.2-1.5,3.4-3c0.1-0.5-0.5-3.6,0.9-2.7c0.6,0.4,0.6,2.6,1,3.3c0.4,0.7,1.5,1.5,2.6,1.2
		c0.9-0.3,1.3-1.6,1.4-2.3c0.1-0.5,0-1.1,0-1.7c0-0.7-0.3-1.1-0.4-1.6c-0.3-1.3-0.7-3.3-0.3-4.6c0.2-0.8,0.6-1.5,0.8-2.2
		C121.5,70.5,121.5,70.4,121.5,70.4z"/>
</g>
<g id="sunCherryOnTop">
</g>
<g>
	<path class="st15" d="M79.9,46.9L79.1,56c-0.1,0.7-0.7,1.3-1.4,1.2l0,0c-0.7-0.1-1.3-0.7-1.2-1.4l0.8-9.1c0.1-0.7,0.7-1.3,1.4-1.2
		l0,0C79.4,45.5,79.9,46.1,79.9,46.9z"/>
	<path class="st16" d="M67.1,41.9l-1.4,9c-0.1,0.7-0.8,1.2-1.5,1.1l0,0c-0.7-0.1-1.2-0.8-1.1-1.5l1.4-9c0.1-0.7,0.8-1.2,1.5-1.1l0,0
		C66.7,40.4,67.2,41.1,67.1,41.9z"/>
	<path class="st2" d="M83.4,53.4l0.7,9.1c0.1,0.7-0.5,1.4-1.2,1.4l0,0c-0.7,0.1-1.4-0.5-1.4-1.2l-0.7-9.1c-0.1-0.7,0.5-1.4,1.2-1.4
		l0,0C82.7,52.1,83.3,52.6,83.4,53.4z"/>
	<path class="st17" d="M86.4,55l-4.9-7.7c-0.4-0.6-0.2-1.4,0.4-1.8l0,0c0.6-0.4,1.4-0.2,1.8,0.4l4.9,7.7c0.4,0.6,0.2,1.4-0.4,1.8
		l0,0C87.6,55.8,86.8,55.6,86.4,55z"/>
	<path class="st18" d="M72.9,38.9l-4.4,8c-0.4,0.6-1.2,0.9-1.8,0.5l0,0c-0.6-0.4-0.9-1.2-0.5-1.8l4.4-8c0.4-0.6,1.2-0.9,1.8-0.5l0,0
		C73,37.4,73.2,38.2,72.9,38.9z"/>
	<path class="st19" d="M72.9,49.5l-4.4,8c-0.4,0.6-1.2,0.9-1.8,0.5l0,0c-0.6-0.4-0.9-1.2-0.5-1.8l4.4-8c0.4-0.6,1.2-0.9,1.8-0.5l0,0
		C73,48.1,73.2,48.9,72.9,49.5z"/>
	
		<ellipse transform="matrix(8.641011e-02 -0.9963 0.9963 8.641011e-02 21.9803 113.9516)" class="st15" cx="73.1" cy="45" rx="2.4" ry="2.4"/>
	<path class="st17" d="M57.7,54.2l7.3-5.5c0.6-0.4,1.4-0.3,1.9,0.3l0,0c0.4,0.6,0.3,1.4-0.3,1.9l-7.3,5.5c-0.6,0.4-1.4,0.3-1.9-0.3
		l0,0C57,55.5,57.1,54.7,57.7,54.2z"/>
	<path class="st18" d="M109.3,56l-8.4-3.7c-0.7-0.3-1-1.1-0.7-1.8l0,0c0.3-0.7,1.1-1,1.8-0.7l8.4,3.7c0.7,0.3,1,1.1,0.7,1.8l0,0
		C110.8,56,110,56.3,109.3,56z"/>
	<circle class="st15" cx="114.1" cy="51" r="2.4"/>
	<circle class="st2" cx="96.8" cy="57.6" r="2.4"/>
	<path class="st15" d="M104.5,49.3h-9.1c-0.7,0-1.3-0.6-1.3-1.3l0,0c0-0.7,0.6-1.3,1.3-1.3h9.1c0.7,0,1.3,0.6,1.3,1.3l0,0
		C105.8,48.7,105.2,49.3,104.5,49.3z"/>
	<path class="st16" d="M111.6,45.2l-9.1-0.6c-0.7,0-1.3-0.7-1.2-1.4l0,0c0-0.7,0.7-1.3,1.4-1.2l9.1,0.6c0.7,0,1.3,0.7,1.2,1.4l0,0
		C112.9,44.7,112.3,45.3,111.6,45.2z"/>
	<path class="st17" d="M93.2,46.1l7.3-5.5c0.6-0.4,1.4-0.3,1.9,0.3l0,0c0.4,0.6,0.3,1.4-0.3,1.9l-7.3,5.5c-0.6,0.4-1.4,0.3-1.9-0.3
		l0,0C92.5,47.4,92.6,46.5,93.2,46.1z"/>
	<path class="st15" d="M96.5,40.1h-9.1c-0.7,0-1.3-0.6-1.3-1.3l0,0c0-0.7,0.6-1.3,1.3-1.3h9.1c0.7,0,1.3,0.6,1.3,1.3l0,0
		C97.8,39.5,97.2,40.1,96.5,40.1z"/>
	<path class="st17" d="M82.9,36.1l8.8-2.4c0.7-0.1,1.4,0.2,1.6,1l0,0c0.1,0.7-0.2,1.4-1,1.6l-8.8,2.4c-0.7,0.1-1.4-0.2-1.6-1l0,0
		C81.8,37,82.2,36.3,82.9,36.1z"/>
	<path class="st18" d="M90.4,44.8L82,41.1c-0.7-0.3-1-1.1-0.7-1.8l0,0c0.3-0.7,1.1-1,1.8-0.7l8.4,3.7c0.7,0.3,1,1.1,0.7,1.8l0,0
		C91.9,44.8,91.1,45.1,90.4,44.8z"/>
	<path class="st19" d="M98.1,56l-8.4-3.7c-0.7-0.3-1-1.1-0.7-1.8l0,0c0.3-0.7,1.1-1,1.8-0.7l8.4,3.7c0.7,0.3,1,1.1,0.7,1.8l0,0
		C99.6,56,98.8,56.3,98.1,56z"/>
	<circle class="st15" cx="77.2" cy="36.9" r="2.4"/>
	<circle class="st2" cx="100.5" cy="37.9" r="2.4"/>
	<circle class="st2" cx="83.2" cy="44.4" r="2.4"/>
</g>
</svg>
