<svg id="routes" xmlns="http://www.w3.org/2000/svg" viewBox="0 0 92.36 49.18"><defs><style>.cls-1{fill:#fff;stroke:#d9d1c5;stroke-miterlimit:10;}</style></defs><title>18min_bubble</title><path class="cls-1" d="M87.4,1.5H18.87A5.46,5.46,0,0,0,13.42,7V30.59L2.47,48.71,20.59,37.76H87.4a5.46,5.46,0,0,0,5.46-5.46V7A5.46,5.46,0,0,0,87.4,1.5Z" transform="translate(-1 -1)"/><path d="M29.89,26.67V14.93h0c-0.63.34-2.33,1.39-3.17,2V15.37a32.93,32.93,0,0,1,3.3-2h1.33V26.67H29.89Z" transform="translate(-1 -1)"/><path d="M34.42,23.05a3.48,3.48,0,0,1,2.71-3.41v0a3.14,3.14,0,0,1-2.18-3c0-2.06,1.74-3.55,4.09-3.55s4.09,1.49,4.09,3.55a3.18,3.18,0,0,1-2.2,3v0A3.48,3.48,0,0,1,43.63,23c0,2.31-2,3.92-4.64,3.92S34.42,25.37,34.42,23.05Zm7.8,0c0-1.58-1.36-2.69-3.18-2.69s-3.2,1.1-3.2,2.69,1.38,2.69,3.2,2.69S42.23,24.6,42.23,23Zm-0.52-6.32A2.4,2.4,0,0,0,39,14.34a2.42,2.42,0,0,0-2.69,2.34A2.46,2.46,0,0,0,39,19.08,2.45,2.45,0,0,0,41.71,16.69Z" transform="translate(-1 -1)"/><path d="M50.27,16.44h1.44v1.28h0.07a2.81,2.81,0,0,1,2.61-1.45,2.88,2.88,0,0,1,3,1.69h0.06a3.24,3.24,0,0,1,3.14-1.69A3.18,3.18,0,0,1,64,19.71v7H62.57V20a2.18,2.18,0,0,0-2.31-2.38,2.32,2.32,0,0,0-2.4,2.54v6.53H56.42V20.13a2.22,2.22,0,0,0-2.33-2.54,2.32,2.32,0,0,0-2.37,2.54v6.53H50.27V16.44Z" transform="translate(-1 -1)"/><path d="M67.85,13a1,1,0,1,1-1,1A1,1,0,0,1,67.85,13Zm-0.71,3.47h1.44V26.67H67.14V16.44Z" transform="translate(-1 -1)"/><path d="M71.78,16.44h1.44v1.4h0a3.33,3.33,0,0,1,3-1.56A3.5,3.5,0,0,1,80,20.09v6.57H78.52V20.31a2.45,2.45,0,0,0-2.63-2.71,2.56,2.56,0,0,0-2.68,2.81v6.26H71.78V16.44Z" transform="translate(-1 -1)"/></svg>