<svg id="routes" xmlns="http://www.w3.org/2000/svg" viewBox="0 0 96.65 49.18"><defs><style>.cls-1{fill:#fff;stroke:#d9d1c5;stroke-miterlimit:10;}</style></defs><title>35min_bubble</title><path class="cls-1" d="M91.51,1.5H19.05a5.64,5.64,0,0,0-5.64,5.64V30.59L2.47,48.71,20.59,37.76H91.51a5.64,5.64,0,0,0,5.64-5.64v-25A5.64,5.64,0,0,0,91.51,1.5Z" transform="translate(-1 -1)"/><path d="M29.52,19.15h1.26a2.49,2.49,0,0,0,2.71-2.46,2.35,2.35,0,0,0-2.62-2.34,2.4,2.4,0,0,0-2.58,2.27H26.89a3.71,3.71,0,0,1,4-3.55c2.47,0,4.05,1.48,4.1,3.39a3.22,3.22,0,0,1-2.47,3.28v0a3.29,3.29,0,0,1,3,3.25c0,2.27-1.9,4-4.64,4s-4.22-1.69-4.31-3.69h1.39a2.7,2.7,0,0,0,3,2.41c2,0,3.13-1.13,3.11-2.67s-1.2-2.57-3.14-2.57H29.52v-1.3Z" transform="translate(-1 -1)"/><path d="M39.3,23.36a2.73,2.73,0,0,0,3,2.3,3.17,3.17,0,0,0,3.12-3.27,3,3,0,0,0-3.09-3.23,3.17,3.17,0,0,0-3,1.84H38l0.76-7.68H45.9v1.3H40l-0.5,4.47h0a3.9,3.9,0,0,1,2.93-1.2,4.33,4.33,0,0,1,4.39,4.47,4.51,4.51,0,0,1-4.71,4.58c-2.73,0-4.18-1.73-4.31-3.58H39.3Z" transform="translate(-1 -1)"/><path d="M53.57,16.44H55v1.28h0.07a2.81,2.81,0,0,1,2.61-1.45,2.88,2.88,0,0,1,3,1.69h0.06a3.24,3.24,0,0,1,3.14-1.69,3.18,3.18,0,0,1,3.44,3.44v7H65.87V20a2.18,2.18,0,0,0-2.31-2.38,2.32,2.32,0,0,0-2.4,2.54v6.53H59.72V20.13a2.22,2.22,0,0,0-2.33-2.54A2.32,2.32,0,0,0,55,20.13v6.53H53.57V16.44Z" transform="translate(-1 -1)"/><path d="M71.15,13a1,1,0,1,1-1,1A1,1,0,0,1,71.15,13Zm-0.71,3.47h1.44V26.67H70.44V16.44Z" transform="translate(-1 -1)"/><path d="M75.08,16.44h1.44v1.4h0a3.33,3.33,0,0,1,3-1.56,3.5,3.5,0,0,1,3.68,3.82v6.57H81.82V20.31a2.45,2.45,0,0,0-2.63-2.71,2.56,2.56,0,0,0-2.68,2.81v6.26H75.08V16.44Z" transform="translate(-1 -1)"/></svg>