<svg id="bassoBar" xmlns="http://www.w3.org/2000/svg" viewBox="0 0 65.67 103.86"><defs><style>.cls-1{fill:#f57500;}.cls-2{fill:#53b7b4;}.cls-3{fill:#96e2d5;}.cls-4,.cls-6{fill:none;stroke:#c95f17;stroke-miterlimit:10;}.cls-5{fill:#f7ff73;}.cls-6{stroke-linecap:round;}</style></defs><title>algorithms_orangeCarAlt</title><path class="cls-1" d="M6.13,43.59H61.61L59.7,31l1.7-12.14A18,18,0,0,0,43.36,1L40.44,2.8H27.39L24.32,1a18,18,0,0,0-18,17.95L8,31Z" transform="translate(-1 -1)"/><path class="cls-1" d="M45,104.86l-0.63-1.67a51.32,51.32,0,0,1-20.44,0c-0.19,0-.37,1.72-0.56,1.68h0c-5.11,0-9.3-3.53-12.27-7.2a22.64,22.64,0,0,1-5-14.26v-38C6.11,30.07,18.54,3,33.87,3h0C49.21,3,61.64,30.07,61.64,45.41V83.85a22.44,22.44,0,0,1-4.3,13.32C54.52,101,50.36,104.86,45,104.86Z" transform="translate(-1 -1)"/><path class="cls-2" d="M48.76,49c-6.28-1.69-10.6-2.38-14.83-2.38s-8.51.68-14.81,2.33l-0.19,0L13.28,34.87c3.4-2.66,11.48-4.37,20.79-4.37s17.45,1.7,21,4.36Z" transform="translate(-1 -1)"/><path class="cls-3" d="M34.07,31c8.93,0,16.75,1.57,20.35,4L48.48,48.41a55,55,0,0,0-14.55-2.29c-4.21,0-8.49.66-14.7,2.29L13.89,35c3.47-2.47,11.24-4,20.18-4m0-1c-8.89,0-17.75,1.57-21.39,4.71h0l6,14.88,0.62-.16a56.67,56.67,0,0,1,14.68-2.32c4.55,0,9.06.83,15.12,2.48h0l6.61-14.88h0C51.89,31.58,43,30,34.07,30h0Z" transform="translate(-1 -1)"/><polygon class="cls-2" points="9.54 40.56 14.49 52.66 14.49 72.8 9.54 76.38 9.54 40.56"/><path class="cls-3" d="M11,44.1l4,9.66V73.55L11,76.4V44.1M10,39V78.36l6-4.3V53.56L10,39h0Z" transform="translate(-1 -1)"/><polygon class="cls-2" points="51.85 72.8 51.85 52.66 56.8 40.56 56.8 76.38 51.85 72.8"/><path class="cls-3" d="M57.3,44.1V76.4l-4-2.85V53.76l4-9.66m1-5.09-6,14.55v20.5l6,4.3V39h0Z" transform="translate(-1 -1)"/><path class="cls-2" d="M25.29,87.44a6.36,6.36,0,0,1-6.37-5.82l-0.37-4.09H49.19l-0.37,4.09a6.36,6.36,0,0,1-6.37,5.82H25.29Z" transform="translate(-1 -1)"/><path class="cls-3" d="M48.65,78l-0.32,3.55a5.87,5.87,0,0,1-5.87,5.36H25.29a5.87,5.87,0,0,1-5.87-5.36L19.1,78H48.65m1.1-1H18l0.42,4.64a6.89,6.89,0,0,0,6.87,6.27H42.45a6.89,6.89,0,0,0,6.87-6.27L49.74,77h0Z" transform="translate(-1 -1)"/><line class="cls-4" x1="28.87" y1="3.2" x2="36.81" y2="3.2"/><ellipse class="cls-5" cx="19.13" cy="6.29" rx="5.79" ry="1.65" transform="translate(-1.93 7.07) rotate(-23.29)"/><ellipse class="cls-5" cx="49.01" cy="6.79" rx="1.65" ry="5.79" transform="translate(22.4 48.13) rotate(-66.71)"/><path class="cls-6" d="M13,31s1.65-16.14,13.22-19.78V3.64" transform="translate(-1 -1)"/><path class="cls-6" d="M54.74,31S53.08,14.88,41.51,11.25V3.64" transform="translate(-1 -1)"/><path class="cls-4" d="M15.44,97.2l5.51-5H46.7l5.65,5h0a36.41,36.41,0,0,1-36.5.24Z" transform="translate(-1 -1)"/><path class="cls-6" d="M28.66,97.05a30.16,30.16,0,0,0,10.47,0" transform="translate(-1 -1)"/><path class="cls-1" d="M1.28,38.43a4.68,4.68,0,1,1,8.8-3.2Z" transform="translate(-1 -1)"/><path class="cls-1" d="M57.59,35.27a4.68,4.68,0,0,1,8.8,3.2Z" transform="translate(-1 -1)"/></svg>