<svg id="bassoBody_eye" xmlns="http://www.w3.org/2000/svg" xmlns:xlink="http://www.w3.org/1999/xlink" viewBox="0 0 58.19 31.45"><defs><style>.cls-1{fill:url(#linear-gradient);}.cls-2{fill:#1a1412;}</style><linearGradient id="linear-gradient" x1="30.06" y1="16.5" x2="32.97" y2="26.89" gradientUnits="userSpaceOnUse"><stop offset="0" stop-color="#f8edc8"/><stop offset="0.33" stop-color="#eee4c1"/><stop offset="1" stop-color="#dfd6b6"/></linearGradient></defs><title>basso_eye</title><path class="cls-1" d="M59,7.81a9,9,0,0,0-1.36-3.35C55.9,2.27,48.3-1.89,28.09,4.09,4.8,11-.82,16.83,1.47,26.55,3.62,35.69,21.81,32,29.85,29.88,46.9,25.34,61,19.88,59,7.81Z" transform="translate(-1 -1)"/><path class="cls-2" d="M36.2,15.29c1.5,6,2.71,10.79-1.06,11.74-3.31.83-5-3.88-6.49-9.84S25.93,6.4,29.71,5.45C33,4.62,34.7,9.33,36.2,15.29Z" transform="translate(-1 -1)"/></svg>