<?xml version="1.0" encoding="utf-8"?>
<!-- Generator: Adobe Illustrator 20.1.0, SVG Export Plug-In . SVG Version: 6.00 Build 0)  -->
<svg version="1.1" id="redBalloon" xmlns="http://www.w3.org/2000/svg" xmlns:xlink="http://www.w3.org/1999/xlink" x="0px" y="0px"
	 viewBox="0 0 119 387.6" style="enable-background:new 0 0 119 387.6;" xml:space="preserve">
<style type="text/css">
	.st0{opacity:0.9;fill:url(#SVGID_1_);}
	.st1{opacity:0.9;fill:#FFCAC5;}
	.st2{fill:#FFC5BC;}
	.st3{fill:none;stroke:#FFFFFF;stroke-miterlimit:10;}
	.st4{fill:#ED1D24;}
	.st5{fill:none;stroke:#FFFFFF;stroke-linecap:round;stroke-miterlimit:10;}
</style>
<title>redBalloon</title>
<radialGradient id="SVGID_1_" cx="53.2102" cy="57.063" r="46.467" gradientUnits="userSpaceOnUse">
	<stop  offset="0" style="stop-color:#FC7F82"/>
	<stop  offset="0.17" style="stop-color:#FC7276"/>
	<stop  offset="0.47" style="stop-color:#FB5155"/>
	<stop  offset="0.87" style="stop-color:#F91B21"/>
	<stop  offset="1" style="stop-color:#F9090F"/>
</radialGradient>
<path class="st0" d="M91.5,65.4c-2.2,20.7-23.9,46.8-36.3,45.5c-11.4-1.2-28-31.4-25.7-52.2S48.4,28.5,64,30.2S93.7,44.7,91.5,65.4z
	"/>
<path class="st1" d="M64.2,28.8c-16.5-1.7-33.1,7.3-35.5,29.3c-2.4,22,14.3,51.9,26.4,53.2c13.1,1.4,34.8-24.2,37.2-46.2
	C94.8,43.2,80.7,30.5,64.2,28.8z M91.5,65.4c-2.2,20.7-23.9,46.8-36.3,45.5c-11.4-1.2-28-31.4-25.7-52.2C31.8,38,48.4,28.5,64,30.2
	S93.8,44.7,91.5,65.4z"/>
<path class="st2" d="M34.4,60c-1.3,12.2,2.1,18.4,1.2,17.4c-2.2-2.6-4.3-9.6-3.4-17.6s3.4-14.4,7-15.6C40,43.8,35.8,46.5,34.4,60z"
	/>
<path class="st3" d="M56.3,112.5c0,0-37.3,90.5-41,171.5c-3.4,74.9,2.5,65-8.6,103.5"/>
<path class="st4" d="M58.6,115.4c0.4,1.7-1.5,0.8-3.4,1.2s-3.4,1.9-3.7,0.2c-0.1-2,1.5-3.8,3.6-3.8C56.6,112.9,58,113.9,58.6,115.4
	L58.6,115.4z"/>
<path class="st4" d="M55.2,110.9c-0.8-0.1-1.6-0.3-2.5-0.7c0,0,0,0,0,0l1.1,3.3c0,1-0.2,1.8,0.8,1.9l0.7,0.1c1,0.1,1-0.6,1.2-1.6
	l1.8-3c0,0,0-0.1,0-0.1C57.3,110.9,56.2,111,55.2,110.9z"/>
<path class="st5" d="M53.6,112.8c0,0,1.1-1.2,3.4,0.1"/>
</svg>
