<?xml version="1.0" encoding="utf-8"?>
<!-- Generator: Adobe Illustrator 20.1.0, SVG Export Plug-In . SVG Version: 6.00 Build 0)  -->
<svg version="1.1" id="yellowBalloon" xmlns="http://www.w3.org/2000/svg" xmlns:xlink="http://www.w3.org/1999/xlink" x="0px"
	 y="0px" viewBox="0 0 118 445.8" style="enable-background:new 0 0 118 445.8;" xml:space="preserve">
<style type="text/css">
	.st0{opacity:0.9;fill:url(#SVGID_1_);}
	.st1{fill:#FFF296;}
	.st2{fill:#FCB228;}
	.st3{opacity:0.9;fill:#FFF18E;}
	.st4{fill:none;stroke:#FFFFFF;stroke-miterlimit:10;}
	.st5{fill:none;stroke:#FFFFFF;stroke-linecap:round;stroke-miterlimit:10;}
</style>
<title>yellowBalloon</title>
<radialGradient id="SVGID_1_" cx="57" cy="61" r="39.0157" gradientUnits="userSpaceOnUse">
	<stop  offset="0" style="stop-color:#FDDE73"/>
	<stop  offset="1" style="stop-color:#FCB228"/>
</radialGradient>
<path class="st0" d="M89.9,63c0,20.9-18.7,49.1-31.2,49.1c-11.5,0-31.2-28.2-31.2-49.1S43,30.8,58.7,30.8S89.9,42.1,89.9,63z"/>
<path class="st1" d="M58.7,29.5c-16.6,0-32,10.9-32,33c0,22.1,19.8,50,32,50c13.2,0,32-27.9,32-50C90.7,40.3,75.2,29.5,58.7,29.5z
	 M58.7,112.1c-11.5,0-31.2-28.2-31.2-49.1c0-20.9,15.5-32.1,31.1-32.1S89.9,42.1,89.9,63C89.9,83.8,71.2,112.1,58.7,112.1z"/>
<path class="st2" d="M58.7,112.1c-0.8,0-1.6-0.1-2.5-0.4c0,0,0,0,0,0l1.4,3.1c0.1,1,0,1.8,1,1.8h0.7c1,0,0.9-0.8,1-1.8l1.4-3.1
	c0,0,0-0.1,0-0.1C60.7,111.9,59.7,112.1,58.7,112.1z"/>
<path class="st3" d="M32.5,63.6c0,12.3,4,18.1,3.1,17.2c-2.5-2.4-5.3-9-5.3-17.2s1.8-14.6,5.3-16.3C36.4,47,32.5,50.1,32.5,63.6z"/>
<path class="st4" d="M59,113.6c0,0,6.6,65.4,6.6,157.4c0,75-21.6,106.5-10.4,145S82,444,82,444"/>
<path class="st5" d="M57.4,114.3c0,0,1-1.3,3.3-0.3"/>
<path class="st2" d="M62.5,116.1c0.5,1.6-1.4,1-3.3,1.6s-3.2,2.3-3.7,0.7c-0.3-2,1-3.9,3-4.3C60.1,113.8,61.8,114.7,62.5,116.1
	L62.5,116.1z"/>
</svg>
