<svg id="pull" xmlns="http://www.w3.org/2000/svg" xmlns:xlink="http://www.w3.org/1999/xlink" viewBox="0 0 79.46 133.07"><defs><style>.cls-1,.cls-7{fill:#fff;}.cls-2{fill:#172c2d;}.cls-3{fill:#3c4444;}.cls-4,.cls-5,.cls-6,.cls-8,.cls-9{fill:none;}.cls-4,.cls-5,.cls-6{stroke:#4c4e51;}.cls-4,.cls-6,.cls-7,.cls-9{stroke-miterlimit:10;}.cls-5,.cls-7,.cls-8{stroke-linecap:round;}.cls-5,.cls-8{stroke-linejoin:round;}.cls-6,.cls-9{stroke-width:2px;}.cls-7,.cls-8{stroke:#818284;stroke-width:3px;}.cls-9{stroke:#a7a9ac;}.cls-10{fill:#f58323;}.cls-11{opacity:0.4;fill:url(#linear-gradient);}</style><linearGradient id="linear-gradient" x1="33.04" y1="66.85" x2="34.25" y2="73.29" gradientUnits="userSpaceOnUse"><stop offset="0.01" stop-color="#fff"/><stop offset="0.4"/><stop offset="1" stop-color="#fff"/></linearGradient></defs><title>byteShoe-pull</title><path class="cls-1" d="M41,1C36.51,1,2.59,8,20.66,83.37H42l19.29,1C79.34,9,45.73,1,41.44,1H41Z" transform="translate(-1 -1)"/><path class="cls-2" d="M40.58,4C36.25,4.6,17,9.19,17,43.93c0,33.34,4.89,31.37,3.74,48.35-1.13,16.71,1.93,41,19.86,41.76v0l0.43,0,0.43,0v0c17.93-.76,21-25,19.86-41.76C60.16,75.3,65,83.07,65,43.93,65,9.19,45.79,4.6,41.45,4H40.58Z" transform="translate(-1 -1)"/><path class="cls-3" d="M41.44,129.62c5.89,0,11.61-3.17,14.09-15.92a37.93,37.93,0,0,0-3.3-23.3h-22a37.93,37.93,0,0,0-3.3,23.3c2.48,12.75,8.2,15.92,14.09,15.92" transform="translate(-1 -1)"/><path class="cls-2" d="M35.92,67.89l-0.37,9.66L28.83,93.76s11.23,7.93,25.68,0L46.22,77.27V67.89S42.31,63.74,35.92,67.89Z" transform="translate(-1 -1)"/><path class="cls-4" d="M54.73,118a34.35,34.35,0,0,0-2-27.6l-4.59-8.79a15.52,15.52,0,0,1-1.87-7.39V67.89s-4.31-4-10.3,0v6.34a15.52,15.52,0,0,1-1.87,7.39l-4.37,10a38.34,38.34,0,0,0-2.33,24.14C29,122.87,32.79,129.62,41,129.62,48.37,129.62,52.46,124.22,54.73,118Z" transform="translate(-1 -1)"/><path class="cls-1" d="M18.53,26.22S23.3,3.82,41.27,3.82c14.08,0,20.72,16.83,21.67,22.4H55.59a33.34,33.34,0,0,1-3.66-.2c-2.65-.29-7.59-0.8-10-0.8s-6.51.49-8.81,0.78a26.54,26.54,0,0,1-3.36.22H18.53Z" transform="translate(-1 -1)"/><path class="cls-5" d="M35.83,68.71S34.12,42,29.54,36A45.86,45.86,0,0,0,19.1,26.22S25.95,4,40.58,4,62.8,26.33,62.8,26.33A44.94,44.94,0,0,0,52.51,36c-4.59,6-6.29,32.75-6.29,32.75" transform="translate(-1 -1)"/><circle class="cls-6" cx="27.83" cy="62.24" r="2.47"/><circle class="cls-6" cx="26.46" cy="50.23" r="2.47"/><circle class="cls-6" cx="52.9" cy="62.24" r="2.47"/><line class="cls-7" x1="28.44" y1="62.24" x2="53.51" y2="76.27"/><line class="cls-7" x1="52.73" y1="61.95" x2="28" y2="76.56"/><circle class="cls-6" cx="54.27" cy="50.23" r="2.47"/><polyline class="cls-8" points="52.73 61.95 26.46 50.23 54.27 50.23 28.44 62.24"/><circle class="cls-9" cx="28.07" cy="77.08" r="2.47"/><circle class="cls-9" cx="52.7" cy="77.08" r="2.47"/><path class="cls-10" d="M73.81,79.18a4.57,4.57,0,0,1,1.6,1.27,1.61,1.61,0,0,1,0,1.91c-0.82.93-2.31,0.12-3.29-.64a46.17,46.17,0,0,0-9.32-5.2C58.61,74.6,54.2,73,50,71c0-3.68,8,1,9.66,1.59A101.81,101.81,0,0,1,73.81,79.18Z" transform="translate(-1 -1)"/><path class="cls-1" d="M58,61.76c3-1.12,6-2.5,9.18-2.65s6.74,1.29,7.9,4.27A6.79,6.79,0,0,1,72.57,71a10.37,10.37,0,0,1-8.24,1.44c-1.17-.25-2.3-0.64-3.49-0.79a27.52,27.52,0,0,0-3.42-.07,23,23,0,0,1-7.79-1.39,2.29,2.29,0,0,1-.31-2,14,14,0,0,0,6.93,1.43c1.13-.06,2.26-0.26,3.4-0.27,2.5,0,4.94.91,7.44,0.87s5.34-1.62,5.38-4.12c0-2.17-2.17-3.83-4.33-4s-4.27.63-6.3,1.4c-3.79,1.49-8.53,3.29-12.66,3-0.19-2.33.59-2.21,2.41-2.62A51.46,51.46,0,0,0,58,61.76Z" transform="translate(-1 -1)"/><path class="cls-11" d="M33.76,69.52c0.32,1.54.95,3.27,2.44,3.77a3.9,3.9,0,0,1-1.6,1,20.15,20.15,0,0,1-3.1-5.84,10.23,10.23,0,0,1,0-6.52c-0.13.35,2.38-.06,2.39-0.06,0.37,0.25-.34,1.83-0.41,2.3A14.6,14.6,0,0,0,33.76,69.52Z" transform="translate(-1 -1)"/><path class="cls-1" d="M51,76.65a7.63,7.63,0,0,0,.83,2,1.52,1.52,0,0,0,1.92.57c0.79-.51.56-1.71,0.14-2.55a11.6,11.6,0,0,0-4.56-5C48.07,73.53,50.41,75,51,76.65Z" transform="translate(-1 -1)"/><path class="cls-10" d="M29,76.66c-0.38.78-.46,1.93,0.32,2.33a1.41,1.41,0,0,0,1.57-.4,6,6,0,0,0,.9-1.48A8.77,8.77,0,0,1,36.4,73a3.41,3.41,0,0,1,3.54.3,5.19,5.19,0,0,1,1.83-1.52,5,5,0,0,0-4.31-1.39,11.76,11.76,0,0,0-4.36,1.68A12.39,12.39,0,0,0,29,76.66Z" transform="translate(-1 -1)"/><path class="cls-10" d="M46.93,75.1a4.5,4.5,0,0,0,3.53-3.55c0.23-1.62-.61-3.23-0.51-4.87,0.09-1.48,1-2.92.64-4.38a3.3,3.3,0,0,0-1.23-1.87,4.08,4.08,0,0,0-5,.16,7.92,7.92,0,0,0-1.37,1.79l-0.72,1.15a0.66,0.66,0,0,0-.13.33,0.59,0.59,0,0,0,.18.37,2.82,2.82,0,0,0,2.62.92,2.56,2.56,0,0,1,.42-1.84A1.43,1.43,0,0,1,47,62.86a1.65,1.65,0,0,1,.74,1.47A11.26,11.26,0,0,1,47.51,66c-0.38,2.54,1.12,5.89-1.9,7.11-1.32.53-2.91,0-4.18,0.36A6.17,6.17,0,0,0,46.93,75.1Z" transform="translate(-1 -1)"/><path class="cls-10" d="M32.52,63c-1.92-1.82-3.31-4.2-5.49-5.7a8.75,8.75,0,0,0-13,3.88A6.88,6.88,0,0,0,14.66,68c1.68,2.12,4.63,2.71,7.34,2.76a29.81,29.81,0,0,0,13.5-2.66,41.17,41.17,0,0,1-14.42-.47c-1.86-.37-4-1.16-4.49-3-0.55-2.09,1.66-4.09,3.82-4.17s4.15,1.1,6,2.26a36.33,36.33,0,0,0,7.36,3.93c2.46,0.85,5.66,1.32,8.07.11C38.91,64.35,35.42,65.73,32.52,63Z" transform="translate(-1 -1)"/><path class="cls-1" d="M21.91,72.77a59.83,59.83,0,0,1,11.9-4.35,24.07,24.07,0,0,1,13.71.27c0,0.84,0,.84,0,1.68a41,41,0,0,0-13.69.07,37.33,37.33,0,0,0-8.26,3.13c-3.28,1.57-4.74,6.38-7.6,8.63s-10.28,5-11.4,8.51c-0.13.4-2.27-.38-2.45-0.53C3,89.27,3.36,89,4,87.81c0.73-1.42,10.94-6.61,12.11-7.68C19.39,77.14,18,74.79,21.91,72.77Z" transform="translate(-1 -1)"/><path class="cls-1" d="M42.92,70.88a8.07,8.07,0,0,1,4.66,0,0.56,0.56,0,0,1,.52.37,0.55,0.55,0,0,1-.16.36,2.57,2.57,0,0,1-1.68,1.24,4.91,4.91,0,0,1-.89-0.1c-1.75-.21-3.19,1.32-4.86,1.9a9.36,9.36,0,0,1-3.13.34c-1.14,0-2.46-.1-3.12-1,2-1.16,2.79-.36,4.74-0.77C40.48,72.9,41.54,71.45,42.92,70.88Z" transform="translate(-1 -1)"/><path class="cls-1" d="M41.42,62.51c-0.18-.46-0.29-0.94-0.47-1.4a5,5,0,0,0-2.85-2.83,4.63,4.63,0,0,0-4,.38,8,8,0,0,0-2.46,2.83,1.16,1.16,0,0,0-.22.59,1.18,1.18,0,0,0,.56.81c0.54,0.44,1.15.55,1.69,1A2.44,2.44,0,0,1,34.59,62c1-.76,2.54,0,3.32,1s1.23,2.29,2.18,3.14c1.83,1.64,5.33,1.56,7.62,1.93,0.1-.86-0.2-1.46-0.2-2.59C47.41,65.06,42.09,64.24,41.42,62.51Z" transform="translate(-1 -1)"/><polygon class="cls-1" points="4.98 87.03 0 92.6 2.49 94.43 6.06 87.03 4.98 87.03"/><polygon class="cls-10" points="73.94 79.13 73.4 80.29 78.12 85.28 79.46 83.25 73.94 79.13"/></svg>