<svg id="brownLeaf" xmlns="http://www.w3.org/2000/svg" viewBox="0 0 23.31 43.47"><defs><style>.cls-1{fill:#db7f2c;}.cls-2{fill:#a56423;}.cls-3{fill:#6d3a0b;}.cls-4{fill:none;stroke:#6d3a0b;stroke-linecap:round;stroke-miterlimit:10;}</style></defs><title>brownLeaf</title><path class="cls-1" d="M21.66,47.23s-1.38-7.32-6-11.34c-4.25-3.67-10.92-11.18,1.55-19.74,3.22-2.21,3.79-2.33,4.47-5.08Z" transform="translate(-10 -10)"/><path class="cls-2" d="M21.66,47.23s1.38-7.32,6-11.34c4.25-3.67,10.92-11.18-1.55-19.74-3.22-2.21-3.79-2.33-4.47-5.08Z" transform="translate(-10 -10)"/><path class="cls-3" d="M21.12,36.84a68.1,68.1,0,0,0,1.27,16.45c.52.66,1.4-.71,1.4-.71-2.49-4.74-1.84-15.71-1.84-15.71l-.11-24.2A11,11,0,0,0,21.66,10s-.17,2.92-.29,4.42S21.27,34.88,21.12,36.84Z" transform="translate(-10 -10)"/><path class="cls-4" d="M16.49,19.58s3.21.19,5.17,4.31" transform="translate(-10 -10)"/><path class="cls-4" d="M14.49,30.4s5.21.88,7.17,5" transform="translate(-10 -10)"/><path class="cls-4" d="M13.4,23.71a10.28,10.28,0,0,1,8.26,5.92" transform="translate(-10 -10)"/><path class="cls-4" d="M26.82,19.58s-3.21.19-5.17,4.31" transform="translate(-10 -10)"/><path class="cls-4" d="M28.82,30.4s-5.21.88-7.17,5" transform="translate(-10 -10)"/><path class="cls-4" d="M29.91,23.71a10.28,10.28,0,0,0-8.26,5.92" transform="translate(-10 -10)"/></svg>