<svg id="Layer_1" data-name="Layer 1" xmlns="http://www.w3.org/2000/svg" viewBox="0 0 271 57"><defs><style>.cls-1{fill:#fff;}.cls-2{fill:#b3b3b3;}.cls-3{fill:none;stroke:#b3b3b3;stroke-miterlimit:10;stroke-width:2px;}.cls-4{fill:#e06326;}</style></defs><title>learnToCode_sign</title><rect class="cls-1" x="0.5" y="0.5" width="270" height="56" rx="10.5" ry="10.5"/><path class="cls-2" d="M264,2.5a10,10,0,0,1,10,10v35a10,10,0,0,1-10,10H15a10,10,0,0,1-10-10v-35a10,10,0,0,1,10-10H264m0-1H15a11,11,0,0,0-11,11v35a11,11,0,0,0,11,11H264a11,11,0,0,0,11-11v-35a11,11,0,0,0-11-11Z" transform="translate(-4 -1.5)"/><path class="cls-3" d="M11.64,6.41H257.36a9,9,0,0,1,9,9V43.59a9,9,0,0,1-9,9H15.64a9,9,0,0,1-9-9V11.41a5,5,0,0,1,5-5Z"/><path class="cls-4" d="M261.36,53.09H15.64a8,8,0,0,1-8-8V12.91a8,8,0,0,1,8-8H261.36a8,8,0,0,1,8,8V45.09A8,8,0,0,1,261.36,53.09ZM15.64,6.91a6,6,0,0,0-6,6V45.09a6,6,0,0,0,6,6H261.36a6,6,0,0,0,6-6V12.91a6,6,0,0,0-6-6Z" transform="translate(-4 -1.5)"/></svg>