<svg id="orangeLeaf" xmlns="http://www.w3.org/2000/svg" viewBox="0 0 17 39.17"><defs><style>.cls-1{fill:#f5852b;}.cls-2{fill:#e06326;}.cls-3{fill:#842906;}</style></defs><title>orangeLeaf</title><path class="cls-1" d="M18.5,10V44.73A15.29,15.29,0,0,1,10,31C10,21,18.5,10,18.5,10Z" transform="translate(-10 -10)"/><path class="cls-2" d="M18.5,10V44.73A15.29,15.29,0,0,0,27,31C27,21,18.5,10,18.5,10Z" transform="translate(-10 -10)"/><polygon class="cls-3" points="8.5 31.48 7.69 39.17 8.5 39.17 9.31 39.17 8.5 31.48"/><polygon class="cls-3" points="9 36.94 8 36.94 8.5 0 8.5 0 9 36.94"/><polygon class="cls-3" points="8.5 30.77 3.25 25.65 8.56 29.65 8.5 30.77"/><polygon class="cls-3" points="8.5 24.09 3.25 17.77 8.56 22.97 8.5 24.09"/><polygon class="cls-3" points="8.5 17.03 4.88 10.77 8.56 15.9 8.5 17.03"/><polygon class="cls-3" points="8.63 30.77 13.88 25.65 8.56 29.65 8.63 30.77"/><polygon class="cls-3" points="8.63 24.09 13.88 17.77 8.56 22.97 8.63 24.09"/><polygon class="cls-3" points="8.63 17.03 12.25 10.77 8.56 15.9 8.63 17.03"/></svg>