<svg id="yellowLeaf" xmlns="http://www.w3.org/2000/svg" viewBox="0 0 18.33 45.51"><defs><style>.cls-1{fill:#ffd731;}.cls-2{fill:#efc618;}.cls-3{fill:#c19827;}</style></defs><title>yellowLeaf</title><path class="cls-1" d="M19.17,10V47.69S12.94,43.9,10.69,33.6s1.72-7.39,1.72-7.39S10.91,18.26,14,20C14,20,14.12,12.25,19.17,10Z" transform="translate(-10 -10)"/><path class="cls-2" d="M19.17,10V47.69s6.22-3.79,8.47-14.09-1.72-7.39-1.72-7.39,1.5-7.95-1.61-6.23C24.32,20,24.21,12.25,19.17,10Z" transform="translate(-10 -10)"/><path class="cls-3" d="M19,42.37s.46,7.47-1.86,12.29c0,0,.92,1.33,1.42.66a38.43,38.43,0,0,0,1.25-12.87L19.17,10Z" transform="translate(-10 -10)"/><path class="cls-3" d="M19.17,40s-5.78-2.48-5.78-6c0,0,.33,3,5.78,5.32Z" transform="translate(-10 -10)"/><path class="cls-3" d="M19.17,34.38s-3.36-2.31-3.78-9c0,0-.8,4.67,3.78,10.32Z" transform="translate(-10 -10)"/><path class="cls-3" d="M19.17,25.23a6.77,6.77,0,0,1-2.89-6s-.56,4.84,2.89,6.76Z" transform="translate(-10 -10)"/><path class="cls-3" d="M19.39,40s5.78-2.48,5.78-6c0,0-.33,3-5.78,5.32Z" transform="translate(-10 -10)"/><path class="cls-3" d="M19.39,34.38s3.36-2.31,3.78-9c0,0,.8,4.67-3.78,10.32Z" transform="translate(-10 -10)"/><path class="cls-3" d="M19.39,25.23a6.77,6.77,0,0,0,2.89-6s.56,4.84-2.89,6.76Z" transform="translate(-10 -10)"/></svg>