<svg id="arm" xmlns="http://www.w3.org/2000/svg" viewBox="0 0 22.69 32"><defs><style>.cls-1{fill:#35bb70;}</style></defs><title>hopperRightArm</title><path class="cls-1" d="M22.56,1.46A1,1,0,0,0,22.14.9,2.7,2.7,0,0,0,20.06,0a2.29,2.29,0,0,0-2.5,2,2.17,2.17,0,0,0,2,2c0,.19,0,.38,0,.6V15c0,7,.78,14.1,0,13.87-1.69-.54-9.33-8-14.3-21.31,0,0-1.75-5-3.75-5s-1,4-1,4l5.75,11c3.21,5.77,8.63,12,12,13.78,2,1,3.09.68,3.77.06,1.16-1.06.47-3.84.47-17.84C22.56,6.49,23.56,5,22.56,1.46Z" transform="translate(-0.31 0)"/></svg>