<svg id="pull" xmlns="http://www.w3.org/2000/svg" xmlns:xlink="http://www.w3.org/1999/xlink" viewBox="0 0 79.46 133.07"><defs><style>.cls-1,.cls-7{fill:#fff;}.cls-2{fill:#172c2d;}.cls-3{fill:#3c4444;}.cls-4,.cls-5,.cls-6,.cls-8,.cls-9{fill:none;}.cls-4,.cls-5,.cls-6{stroke:#4c4e51;}.cls-4,.cls-6,.cls-7,.cls-9{stroke-miterlimit:10;}.cls-5,.cls-7,.cls-8{stroke-linecap:round;}.cls-5,.cls-8{stroke-linejoin:round;}.cls-6,.cls-9{stroke-width:2px;}.cls-7,.cls-8{stroke:#818284;stroke-width:3px;}.cls-9{stroke:#a7a9ac;}.cls-10{fill:#f58323;}.cls-11{opacity:0.4;fill:url(#linear-gradient);}</style><linearGradient id="linear-gradient" x1="34.04" y1="66.85" x2="35.26" y2="73.29" gradientUnits="userSpaceOnUse"><stop offset="0.01" stop-color="#fff"/><stop offset="0.4"/><stop offset="1" stop-color="#fff"/></linearGradient></defs><title>pullShoe</title><path class="cls-1" d="M42,1C37.51,1,3.59,8,21.66,83.37H43l19.29,1C80.34,9,46.73,1,42.44,1H42Z" transform="translate(-2 -1)"/><path class="cls-2" d="M41.59,4C37.25,4.6,18,9.19,18,43.93c0,33.34,4.89,31.37,3.74,48.35-1.13,16.71,1.93,41,19.86,41.76v0l.43,0,.43,0v0c17.93-.76,21-25,19.86-41.76-1.15-17,3.74-9.21,3.74-48.35C66.05,9.19,46.79,4.6,42.45,4h-.86Z" transform="translate(-2 -1)"/><path class="cls-3" d="M42.44,129.62c5.89,0,11.61-3.17,14.09-15.92a37.93,37.93,0,0,0-3.3-23.3h-22a37.93,37.93,0,0,0-3.3,23.3c2.48,12.75,8.2,15.92,14.09,15.92" transform="translate(-2 -1)"/><path class="cls-2" d="M36.92,67.89l-.37,9.66L29.83,93.76s11.23,7.93,25.68,0L47.22,77.27V67.89S43.31,63.74,36.92,67.89Z" transform="translate(-2 -1)"/><path class="cls-4" d="M55.73,118a34.35,34.35,0,0,0-2-27.6l-4.59-8.79a15.52,15.52,0,0,1-1.87-7.39V67.89s-4.31-4-10.3,0v6.34a15.52,15.52,0,0,1-1.87,7.39l-4.37,10a38.34,38.34,0,0,0-2.33,24.14C30,122.87,33.8,129.62,42,129.62,49.37,129.62,53.46,124.22,55.73,118Z" transform="translate(-2 -1)"/><path class="cls-1" d="M19.53,26.22S24.3,3.82,42.27,3.82c14.08,0,20.72,16.83,21.67,22.4H56.59a33.34,33.34,0,0,1-3.66-.2c-2.65-.29-7.59-.8-10-.8s-6.51.49-8.81.78a26.54,26.54,0,0,1-3.36.22H19.53Z" transform="translate(-2 -1)"/><path class="cls-5" d="M36.83,68.71S35.13,42,30.54,36A45.86,45.86,0,0,0,20.1,26.22S26.95,4,41.59,4,63.8,26.33,63.8,26.33A44.94,44.94,0,0,0,53.51,36c-4.59,6-6.29,32.75-6.29,32.75" transform="translate(-2 -1)"/><circle class="cls-6" cx="27.83" cy="62.24" r="2.47"/><circle class="cls-6" cx="26.46" cy="50.23" r="2.47"/><circle class="cls-6" cx="52.9" cy="62.24" r="2.47"/><line class="cls-7" x1="28.44" y1="62.24" x2="53.51" y2="76.27"/><line class="cls-7" x1="52.73" y1="61.95" x2="28" y2="76.56"/><circle class="cls-6" cx="54.27" cy="50.23" r="2.47"/><polyline class="cls-8" points="52.73 61.95 26.46 50.23 54.27 50.23 28.44 62.24"/><circle class="cls-9" cx="28.07" cy="77.08" r="2.47"/><circle class="cls-9" cx="52.7" cy="77.08" r="2.47"/><path class="cls-10" d="M74.81,79.18a4.57,4.57,0,0,1,1.6,1.27,1.61,1.61,0,0,1,0,1.91c-.82.93-2.31.12-3.29-.64a46.17,46.17,0,0,0-9.32-5.2C59.61,74.6,55.2,73,51,71c0-3.68,8,1,9.66,1.59A101.81,101.81,0,0,1,74.81,79.18Z" transform="translate(-2 -1)"/><path class="cls-1" d="M59,61.76c3-1.12,6-2.5,9.18-2.65s6.74,1.29,7.9,4.27A6.79,6.79,0,0,1,73.57,71a10.37,10.37,0,0,1-8.24,1.44c-1.17-.25-2.3-.64-3.49-.79a27.52,27.52,0,0,0-3.42-.07,23,23,0,0,1-7.79-1.39,2.29,2.29,0,0,1-.31-2,14,14,0,0,0,6.93,1.43c1.13-.06,2.26-.26,3.4-.27,2.5,0,4.94.91,7.44.87s5.34-1.62,5.38-4.12c0-2.17-2.17-3.83-4.33-4s-4.27.63-6.3,1.4c-3.79,1.49-8.53,3.29-12.66,3-.19-2.33.59-2.21,2.41-2.62A51.46,51.46,0,0,0,59,61.76Z" transform="translate(-2 -1)"/><path class="cls-11" d="M34.76,69.52c.32,1.54.95,3.27,2.44,3.77a3.9,3.9,0,0,1-1.6,1,20.15,20.15,0,0,1-3.1-5.84,10.23,10.23,0,0,1,0-6.52c-.13.35,2.38-.06,2.39-.06.37.25-.34,1.83-.41,2.3A14.6,14.6,0,0,0,34.76,69.52Z" transform="translate(-2 -1)"/><path class="cls-1" d="M52,76.65a7.63,7.63,0,0,0,.83,2,1.52,1.52,0,0,0,1.92.57c.79-.51.56-1.71.14-2.55a11.6,11.6,0,0,0-4.56-5C49.07,73.53,51.42,75,52,76.65Z" transform="translate(-2 -1)"/><path class="cls-10" d="M30,76.66c-.38.78-.46,1.93.32,2.33a1.41,1.41,0,0,0,1.57-.4,6,6,0,0,0,.9-1.48A8.77,8.77,0,0,1,37.4,73a3.41,3.41,0,0,1,3.54.3,5.19,5.19,0,0,1,1.83-1.52,5,5,0,0,0-4.31-1.39,11.76,11.76,0,0,0-4.36,1.68A12.39,12.39,0,0,0,30,76.66Z" transform="translate(-2 -1)"/><path class="cls-10" d="M47.93,75.1a4.5,4.5,0,0,0,3.53-3.55c.23-1.62-.61-3.23-.51-4.87.09-1.48,1-2.92.64-4.38a3.3,3.3,0,0,0-1.23-1.87,4.08,4.08,0,0,0-5,.16,7.92,7.92,0,0,0-1.37,1.79l-.72,1.15a.66.66,0,0,0-.13.33.59.59,0,0,0,.18.37,2.82,2.82,0,0,0,2.62.92,2.56,2.56,0,0,1,.42-1.84A1.43,1.43,0,0,1,48,62.86a1.65,1.65,0,0,1,.74,1.47A11.26,11.26,0,0,1,48.51,66c-.38,2.54,1.12,5.89-1.9,7.11-1.32.53-2.91,0-4.18.36A6.17,6.17,0,0,0,47.93,75.1Z" transform="translate(-2 -1)"/><path class="cls-10" d="M33.52,63c-1.92-1.82-3.31-4.2-5.49-5.7a8.75,8.75,0,0,0-13,3.88A6.88,6.88,0,0,0,15.67,68c1.68,2.12,4.63,2.71,7.34,2.76a29.81,29.81,0,0,0,13.5-2.66,41.17,41.17,0,0,1-14.42-.47c-1.86-.37-4-1.16-4.49-3-.55-2.09,1.66-4.09,3.82-4.17s4.15,1.1,6,2.26a36.33,36.33,0,0,0,7.36,3.93c2.46.85,5.66,1.32,8.07.11C39.92,64.35,36.43,65.73,33.52,63Z" transform="translate(-2 -1)"/><path class="cls-1" d="M22.91,72.77a59.83,59.83,0,0,1,11.9-4.35,24.07,24.07,0,0,1,13.71.27c0,.84,0,.84,0,1.68a41,41,0,0,0-13.69.07,37.33,37.33,0,0,0-8.26,3.13c-3.28,1.57-4.74,6.38-7.6,8.63s-10.28,5-11.4,8.51c-.13.4-2.27-.38-2.45-.53C4,89.27,4.37,89,5,87.81c.73-1.42,10.94-6.61,12.11-7.68C20.39,77.14,19,74.79,22.91,72.77Z" transform="translate(-2 -1)"/><path class="cls-1" d="M43.92,70.88a8.07,8.07,0,0,1,4.66,0c.22,0,.5.14.52.37a.55.55,0,0,1-.16.36,2.57,2.57,0,0,1-1.68,1.24,4.91,4.91,0,0,1-.89-.1c-1.75-.21-3.19,1.32-4.86,1.9a9.36,9.36,0,0,1-3.13.34c-1.14,0-2.46-.1-3.12-1,2-1.16,2.79-.36,4.74-.77C41.49,72.9,42.54,71.45,43.92,70.88Z" transform="translate(-2 -1)"/><path class="cls-1" d="M42.42,62.51c-.18-.46-.29-.94-.47-1.4a5,5,0,0,0-2.85-2.83,4.63,4.63,0,0,0-4,.38,8,8,0,0,0-2.46,2.83,1.16,1.16,0,0,0-.22.59,1.18,1.18,0,0,0,.56.81c.54.44,1.15.55,1.69,1A2.44,2.44,0,0,1,35.6,62c1-.76,2.54,0,3.32,1s1.23,2.29,2.18,3.14c1.83,1.64,5.33,1.56,7.62,1.93.1-.86-.2-1.46-.2-2.59C48.41,65.06,43.09,64.24,42.42,62.51Z" transform="translate(-2 -1)"/><polygon class="cls-1" points="4.98 87.03 0 92.6 2.49 94.43 6.06 87.03 4.98 87.03"/><polygon class="cls-10" points="73.94 79.13 73.4 80.29 78.12 85.28 79.46 83.25 73.94 79.13"/></svg>