<?xml version="1.0" encoding="utf-8"?>
<!-- Generator: Adobe Illustrator 20.0.0, SVG Export Plug-In . SVG Version: 6.00 Build 0)  -->
<svg version="1.1" id="bluePrint" xmlns="http://www.w3.org/2000/svg" xmlns:xlink="http://www.w3.org/1999/xlink" x="0px" y="0px"
	 viewBox="0 0 201.7 271.3" style="enable-background:new 0 0 201.7 271.3;" xml:space="preserve">
<style type="text/css">
	.st0{fill:#0F64ED;}
	.st1{opacity:0.4;fill:none;stroke:#EDEDEE;stroke-width:0.5;stroke-miterlimit:10;enable-background:new    ;}
	.st2{opacity:0.4;fill:#EDEDEE;enable-background:new    ;}
	.st3{opacity:0.4;fill:#FFFFFF;enable-background:new    ;}
	.st4{font-family:'SanFranciscoDisplay-Bold';}
	.st5{font-size:20.4px;}
	.st6{fill:none;stroke:#FFFFFF;stroke-width:0.5;stroke-miterlimit:10;}
	.st7{fill:#FFFFFF;}
</style>
<title>droneBlueprint</title>
<rect class="st0" width="201.7" height="271.3"/>
<rect x="4.2" y="3.8" class="st1" width="194.8" height="263.8"/>
<rect x="59.5" y="19.9" class="st2" width="48.2" height="4.3"/>
<rect x="59.5" y="30" class="st2" width="48.2" height="4.3"/>
<rect x="59.5" y="40.5" class="st2" width="21.1" height="4.3"/>
<circle class="st2" cx="35.3" cy="36" r="16.1"/>
<rect x="144.2" y="229" class="st2" width="39.4" height="4.3"/>
<rect x="144.2" y="239.2" class="st2" width="39.4" height="4.3"/>
<rect x="144.2" y="249.4" class="st2" width="39.4" height="4.3"/>
<rect x="83.2" y="229" class="st2" width="39.4" height="4.3"/>
<rect x="83.2" y="239.2" class="st2" width="39.4" height="4.3"/>
<rect x="83.2" y="249.4" class="st2" width="39.4" height="4.3"/>
<rect x="22.2" y="229" class="st2" width="39.4" height="4.3"/>
<rect x="22.2" y="239.2" class="st2" width="39.4" height="4.3"/>
<rect x="22.2" y="249.4" class="st2" width="39.4" height="4.3"/>
<circle class="st3" cx="41.9" cy="205.9" r="16.1"/>
<circle class="st3" cx="102.9" cy="205.9" r="16.1"/>
<circle class="st3" cx="163.9" cy="205.9" r="16.1"/>
<text transform="matrix(1 0 0 1 37.01 211.96)" class="st0 st4 st5">1</text>
<text transform="matrix(0.99 0 0 1 97.23 211.96)" class="st0 st4 st5">2</text>
<text transform="matrix(0.99 0 0 1 158.23 211.96)" class="st0 st4 st5">3</text>
<path class="st6" d="M69.7,157.8L69.7,157.8c-0.9,0-1.7-0.7-1.7-1.7c0,0,0,0,0,0c0.1-6.6,2.2-11.4,6.4-14.3
	c9.5-6.4,25.9-0.2,26.6,0.1c0.8,0.4,1.2,1.4,0.8,2.3c-0.4,0.7-1.2,1.1-2,0.9l0,0c-0.2-0.1-15.4-5.9-23.5-0.4
	c-3.2,2.2-4.9,6.1-4.9,11.5C71.4,157,70.6,157.8,69.7,157.8z"/>
<path class="st6" d="M133.3,157.8c-0.9,0-1.7-0.7-1.7-1.7c0-5.4-1.7-9.3-4.9-11.5c-8-5.5-23.3,0.3-23.5,0.4
	c-0.9,0.3-1.8-0.3-2.1-1.2c-0.2-0.8,0.1-1.6,0.9-2c0.7-0.3,17.1-6.5,26.6-0.1c4.2,2.9,6.4,7.7,6.4,14.3
	C135,157,134.2,157.8,133.3,157.8L133.3,157.8L133.3,157.8z"/>
<rect x="97" y="146.2" class="st6" width="10" height="8.9"/>
<path class="st6" d="M71.9,111.9L33,96.2v-1.5l7.2-0.4l15.3,4.7c6,1.6,16.2,2.4,22.4,2.4"/>
<path class="st6" d="M122.1,136.4l4.6-5.6c4.4-4.9,6.7-11.3,6.5-17.9c0-1.8-0.4-3.6-1.2-5.3c-0.6-0.8-1.3-1.4-2.2-1.8"/>
<path class="st6" d="M75.6,105.5c-1,0.4-1.9,1.1-2.6,2c-0.8,1.6-1.2,3.5-1.2,5.3c-0.2,6.6,2.1,13,6.5,17.9l4.7,5.7"/>
<circle class="st6" cx="101.9" cy="161.1" r="9.2"/>
<circle class="st6" cx="101.9" cy="161.1" r="5"/>
<polygon class="st7" points="97.2,163.2 104.6,156.6 106,157.9 98,164.4 "/>
<polygon class="st7" points="98.7,165 106.2,158.3 106.5,159 99.6,165.8 "/>
<circle class="st6" cx="101.9" cy="161.1" r="5"/>
<path class="st6" d="M133.2,112.1l39.2-15.8v-1.5l-7.2-0.4l-15.3,4.7c-6,1.6-15.2,2.4-21.4,2.4"/>
<path class="st6" d="M76.2,114.7l-5.2,5.1c-4.5,4.4-10,7.7-15.9,9.6l-28.8,9.5v2l9.6,2.6l52.1-16.8"/>
<path class="st6" d="M33.5,115.7h1.4c0.8,0,1.5,0.7,1.5,1.5v20.3c0,0.8-0.7,1.5-1.5,1.5h-1.4c-0.8,0-1.5-0.7-1.5-1.5v-20.3
	C31.9,116.4,32.6,115.7,33.5,115.7z"/>
<path class="st6" d="M168.4,95.6h-1.1c-0.7,0-1.2-0.5-1.2-1.2V77.8c0-0.7,0.5-1.2,1.2-1.2h1.1c0.7,0,1.2,0.5,1.2,1.2v16.5
	C169.6,95,169,95.6,168.4,95.6z"/>
<path class="st6" d="M133.2,112.1l39.2-15.8v-1.5l-23.4,8.9c-3.6,1.4-7.4,2.2-11.3,2.4l-6.9,0.3"/>
<path class="st6" d="M37.1,76.6h1.1c0.7,0,1.2,0.5,1.2,1.2v16.5c0,0.7-0.5,1.2-1.2,1.2h-1.1c-0.7,0-1.2-0.5-1.2-1.2V77.8
	C35.8,77.1,36.4,76.6,37.1,76.6z"/>
<path class="st6" d="M129.3,114.7l5.2,5.1c4.5,4.4,9.9,7.7,15.9,9.6l28.8,9.5v2l-9.6,2.6l-52.1-16.8"/>
<path class="st6" d="M172,139h-1.4c-0.8,0-1.5-0.7-1.5-1.5v-20.3c0-0.8,0.7-1.5,1.5-1.5h1.4c0.8,0,1.5,0.7,1.5,1.5v20.3
	C173.5,138.3,172.8,139,172,139z"/>
<path class="st6" d="M169.6,143.4v-2.1c0,0-28-7.9-33.9-12.2s-8.6-11.6-18.2-13.4v10.9L169.6,143.4z"/>
<polygon class="st6" points="179.2,138.8 179.2,140.8 169.6,143.4 169.6,141.3 "/>
<path class="st6" d="M71.9,111.9L33,96.2v-1.5l23.3,8.9c3.6,1.4,7.5,2.2,11.4,2.4l6.5,0.3"/>
<path class="st6" d="M35.8,143.4v-2.1c0,0,28-7.9,33.9-12.2s8.6-11.6,18.2-13.4v10.9L35.8,143.4z"/>
<path class="st6" d="M70.5,106.2v3.7c0,5.2,14.5,9.4,32.3,9.4s32.3-4.2,32.3-9.4v-3.7"/>
<ellipse class="st6" cx="102.8" cy="107.2" rx="32.3" ry="9.4"/>
<ellipse class="st6" cx="102.8" cy="105.7" rx="27.1" ry="7.9"/>
<path class="st6" d="M97,149.5c1.8,0.2,3.6,0.4,5.4,0.4c1.5,0,3-0.1,4.6-0.3v-3.8H97V149.5z"/>
<polygon class="st6" points="26.3,138.8 26.3,140.8 35.8,143.4 35.8,141.3 "/>
<path class="st6" d="M123.3,133.9v6.9c0,4-9.2,7.2-20.6,7.2s-20.6-3.2-20.6-7.2v-6.9"/>
<path class="st6" d="M82.2,133.2v3.1c0,3.9,9.1,7.1,20.3,7.1s20.3-3.2,20.3-7.1v-3.1c0,0-6.2-3.2-20.3-3.2S82.2,133.2,82.2,133.2z"
	/>
<path class="st6" d="M122.9,134.4c0,3.9-9.1,7.1-20.3,7.1s-20.3-3.2-20.3-7.1"/>
<path class="st6" d="M129.8,176.7h-0.2c-1-0.1-1.8-1.1-1.6-2.1c1.1-9.4,0.2-16.7-2.6-21.8c-3.6-6.4-9-7-9.2-7c-1-0.1-1.8-1-1.7-2
	s1-1.8,2-1.7c0.3,0,7.7,0.7,12.3,9c3.2,5.8,4.3,13.9,3.1,24.1C131.6,176,130.8,176.7,129.8,176.7z"/>
<path class="st6" d="M71.8,176.7c-1,0-1.8-0.7-1.9-1.7c-1.2-10.2,0-18.3,3.6-24.1c2.8-4.9,7.6-8.1,13.1-8.9c1-0.1,1.9,0.7,2,1.7
	c0.1,1-0.7,1.9-1.7,2c-0.3,0-6.2,0.6-10.2,7.1c-3.1,5.1-4.1,12.4-3,21.8c0.1,1-0.6,2-1.6,2.1c0,0,0,0-0.1,0L71.8,176.7L71.8,176.7z"
	/>
<path class="st6" d="M52.3,113.2l-15,2.2l5.7-3.9c-2.7-0.3-5.7-0.4-8.8-0.4s-5.9,0.1-8.5,0.4l5.7,4l-15.3-2.3
	c-3.2,0.9-5.1,2.2-5.1,3.5s1.6,2.3,4.2,3.2l15.4-2.3l-6,4.1c6.3,0.6,12.7,0.6,19,0l-6-4.1l15.4,2.3c2.7-0.9,4.2-2,4.2-3.2
	S55.4,114.1,52.3,113.2z"/>
<path class="st6" d="M30.2,117.5c0-2.1,1.7-3.9,3.9-3.9s3.9,1.7,3.9,3.9l0,0C35.5,118.3,32.8,118.3,30.2,117.5
	C30.2,117.5,30.2,117.5,30.2,117.5z"/>
<path class="st6" d="M56.2,73.9l-15,2.2l5.7-3.9c-2.8-0.2-5.7-0.4-8.9-0.4s-5.8,0.1-8.5,0.4l5.7,4L20,73.9c-3.2,0.9-5.1,2.2-5.1,3.5
	s1.6,2.3,4.2,3.2l15.4-2.3l-6,4.1c3.2,0.3,6.3,0.5,9.5,0.5c3.2,0,6.3-0.2,9.5-0.5l-6-4.1l15.4,2.3c2.7-0.9,4.2-2,4.2-3.2
	S59.3,74.8,56.2,73.9z"/>
<path class="st6" d="M34.1,78.2c0-2.1,1.7-3.9,3.9-3.9c2.1,0,3.9,1.7,3.9,3.9l0,0C39.4,79,36.7,79,34.1,78.2L34.1,78.2z"/>
<path class="st6" d="M186,73.2l-15,2.2l5.7-3.9c-2.7-0.3-5.7-0.4-8.8-0.4s-5.9,0.1-8.5,0.4l5.7,4l-15.3-2.3
	c-3.2,0.9-5.1,2.2-5.1,3.5s1.6,2.3,4.2,3.2l15.4-2.3l-6,4.1c3.2,0.3,6.3,0.5,9.5,0.5c3.2,0,6.3-0.2,9.5-0.5l-6-4.1l15.4,2.3
	c2.7-0.9,4.2-2,4.2-3.2S189.1,74.1,186,73.2z"/>
<path class="st6" d="M163.9,77.5c0-2.1,1.7-3.9,3.9-3.9c2.1,0,3.9,1.7,3.9,3.9l0,0C169.1,78.3,166.4,78.3,163.9,77.5L163.9,77.5z"/>
<path class="st6" d="M189.1,113.2l-15,2.2l5.7-3.9c-2.7-0.3-5.7-0.4-8.8-0.4s-5.9,0.1-8.5,0.4l5.7,4l-15.3-2.3
	c-3.2,0.9-5.1,2.2-5.1,3.5s1.6,2.3,4.2,3.2l15.4-2.3l-6,4.1c6.3,0.6,12.7,0.6,19,0l-6-4.1l15.4,2.3c2.7-0.9,4.2-2,4.2-3.2
	S192.3,114.1,189.1,113.2z"/>
<path class="st6" d="M167.1,117.5c0-2.1,1.7-3.9,3.9-3.9c2.1,0,3.9,1.7,3.9,3.9l0,0C172.3,118.3,169.6,118.3,167.1,117.5
	L167.1,117.5z"/>
<ellipse class="st6" cx="33" cy="141.6" rx="11.2" ry="7.1"/>
<ellipse class="st6" cx="33" cy="139.3" rx="10.6" ry="4.9"/>
<ellipse class="st6" cx="171.3" cy="141.6" rx="11.2" ry="7.1"/>
<ellipse class="st6" cx="171.3" cy="139.3" rx="10.6" ry="4.9"/>
<ellipse class="st6" cx="168.2" cy="95.5" rx="9.1" ry="5.8"/>
<ellipse class="st6" cx="168.2" cy="93.7" rx="8.6" ry="4"/>
<ellipse class="st6" cx="38" cy="95.5" rx="9.1" ry="5.8"/>
<ellipse class="st6" cx="38" cy="93.7" rx="8.6" ry="4"/>
</svg>
