<?xml version="1.0" encoding="utf-8"?>
<!-- Generator: Adobe Illustrator 20.1.0, SVG Export Plug-In . SVG Version: 6.00 Build 0)  -->
<svg version="1.1" id="iPhone6" xmlns="http://www.w3.org/2000/svg" xmlns:xlink="http://www.w3.org/1999/xlink" x="0px" y="0px"
	 viewBox="0 0 47.9 96.9" style="enable-background:new 0 0 47.9 96.9;" xml:space="preserve">
<style type="text/css">
	.st0{fill:#FFFFFF;}
	.st1{fill:#E6E7E7;}
	.st2{fill:#B3B3B3;}
	.st3{fill:#8AEADD;}
	.st4{fill:#FFFFFF;stroke:#B4B4B4;stroke-width:0.25;stroke-miterlimit:10;}
	.st5{fill:#B4B4B4;}
	.st6{clip-path:url(#SVGID_2_);}
	.st7{fill:#204C73;}
	.st8{fill:url(#SVGID_3_);}
	.st9{fill:#B44610;}
	.st10{fill:#D16626;}
	.st11{fill:#B34A11;}
	.st12{fill:#1E486D;}
	.st13{fill:#F0E4C3;}
	.st14{opacity:0.8;}
	.st15{fill:#212E3F;}
	.st16{fill:url(#SVGID_4_);}
</style>
<title>device_iphone6</title>
<path class="st0" d="M6.3,2.8c-1.9,0-3.4,1.5-3.4,3.4l0,0v84.3c0,1.9,1.5,3.4,3.4,3.4h35.3c1.9,0,3.4-1.5,3.4-3.4V6.3
	c0-1.9-1.5-3.4-3.4-3.4l0,0C41.6,2.9,6.3,2.9,6.3,2.8z"/>
<path class="st1" d="M6.3,0.6h35.3c3.2,0,5.7,2.6,5.7,5.7v84.3c0,3.2-2.6,5.7-5.7,5.7H6.3c-3.2,0-5.7-2.6-5.7-5.7V6.3
	C0.6,3.1,3.1,0.6,6.3,0.6z"/>
<path class="st2" d="M41.6,96.9H6.3c-3.5,0-6.3-2.8-6.3-6.3V6.3C0,2.8,2.8,0,6.3,0h35.3c3.5,0,6.3,2.8,6.3,6.3v84.3
	C47.9,94.1,45.1,96.9,41.6,96.9z M6.3,1.1c-2.8,0-5.1,2.3-5.1,5.1v84.3c0,2.8,2.3,5.1,5.1,5.1h35.3c2.8,0,5.1-2.3,5.1-5.1V6.3
	c0-2.8-2.3-5.1-5.1-5.1C41.6,1.1,6.3,1.1,6.3,1.1z"/>
<path class="st0" d="M6.7,1.6h34.5c2.8,0,5.1,2.3,5.1,5.1v83.4c0,2.8-2.3,5.1-5.1,5.1H6.7c-2.8,0-5.1-2.3-5.1-5.1V6.8
	C1.5,3.9,3.8,1.6,6.7,1.6z"/>
<rect x="3.5" y="11.7" class="st3" width="40.8" height="73.5"/>
<circle class="st4" cx="23.9" cy="90.7" r="3.2"/>
<circle class="st0" cx="23.9" cy="90.7" r="2.5"/>
<circle class="st5" cx="17.5" cy="6.4" r="0.7"/>
<circle class="st5" cx="23.9" cy="3.8" r="0.4"/>
<path class="st5" d="M20.9,6.1h5.9c0.2,0,0.3,0.1,0.3,0.3v0.1c0,0.2-0.1,0.3-0.3,0.3h-5.9c-0.2,0-0.3-0.1-0.3-0.3V6.4
	C20.6,6.2,20.8,6.1,20.9,6.1z"/>
<circle class="st4" cx="23.9" cy="90.7" r="2.5"/>
<g>
	<g>
		<defs>
			<rect id="SVGID_1_" x="3.5" y="11.7" width="40.8" height="73.5"/>
		</defs>
		<clipPath id="SVGID_2_">
			<use xlink:href="#SVGID_1_"  style="overflow:visible;"/>
		</clipPath>
		<g class="st6">
			<g>
				<path class="st7" d="M9.4,84.4c0.6-0.1,1,0.4,1.1,0.9l0.2,7.1c0,0.3-0.2,0.6-0.5,0.7c-0.1,0-0.2,0-0.2,0c-0.3,0-0.5-0.4-0.5-0.8
					l-0.9-7C8.5,84.9,8.9,84.4,9.4,84.4L9.4,84.4z"/>
			</g>
			<g>
				<path class="st7" d="M25.4,84.4c-0.6-0.1-1,0.4-1.1,0.9l-0.2,7.1c0,0.3,0.2,0.6,0.5,0.7c0.1,0,0.2,0,0.2,0
					c0.3,0,0.5-0.4,0.5-0.8l0.9-7C26.3,84.9,25.9,84.4,25.4,84.4L25.4,84.4z"/>
			</g>
			<g>
				<path class="st7" d="M-1.1,72.2c-0.7,0.2-1.8,0.7-2.5,1.8c-1.2,1.9,0.2,4.2,0.2,4.2c0.2,0.3,0.1,0.8-0.2,1
					c-0.1,0.1-0.3,0.1-0.4,0.1c-0.2,0-0.5-0.1-0.6-0.3c-0.1-0.1-1.9-3.1-0.2-5.8c1.1-1.7,2.7-2.3,3.6-2.5l1.4-0.2
					C0.6,70.4,1,70.8,1,71.2l0,0c0,0.4-0.3,0.7-0.6,0.7L-1.1,72.2"/>
			</g>
			<path class="st7" d="M-1.1,72.2"/>
			<g>
				<path class="st7" d="M35.7,74.3c0.5,0.2,1.2,0.7,1.7,1.7c1,2.2-0.4,4-0.5,4.1c-0.3,0.3-0.2,0.8,0.1,1c0.1,0.1,0.3,0.2,0.5,0.2
					s0.4-0.1,0.6-0.3c0.1-0.1,2.1-2.6,0.7-5.6c-0.7-1.5-1.8-2.3-2.8-2.6l-1.5-0.3c-0.4-0.1-0.9,0.2-0.9,0.7l0,0
					c0,0.3,0.2,0.6,0.5,0.7L35.7,74.3z"/>
			</g>
			<g>
				
					<radialGradient id="SVGID_3_" cx="19.4542" cy="53.0435" r="34.3722" gradientTransform="matrix(1 0 0 -1 0 98)" gradientUnits="userSpaceOnUse">
					<stop  offset="6.910052e-02" style="stop-color:#54CAE8"/>
					<stop  offset="0.7113" style="stop-color:#3686B4"/>
					<stop  offset="1" style="stop-color:#204C73"/>
				</radialGradient>
				<path class="st8" d="M35.9,72.8c0.9-7.7-1.8-16.8-5.9-26C23.8,33,19.9,29.1,19.9,29.1s-5.7,2.5-14.1,17.6c-5,9-7.3,17.2-7,24
					l0.1,1.5c0.4,3.9,1.6,7.3,3.7,10.1c1.8,2.4,4.5,4.2,7.6,5.4l1.7,0.5c4.2,1.1,8.9,1,13-0.6l1.7-0.7c1.8-0.9,3.5-2.1,4.9-3.7
					c2.3-2.6,3.6-5.5,4.2-8.8L35.9,72.8z"/>
			</g>
			<g>
				<path class="st9" d="M36,71.9c0.1-0.8,0.1-1.5,0.1-2.3c-1.2,2.9-5.9,11.4-18.9,12.3C7,82.6,2.3,80.1,0.3,78.2
					c0.3,0.7,0.6,1.3,0.9,1.9C3.5,81.6,7.4,83,13.7,83c1.1,0,2.2,0,3.5-0.1C28.5,82.1,33.8,75.8,36,71.9z"/>
			</g>
			<g>
				<path class="st10" d="M17.1,90C14,90,6.7,89.3,5.6,89.1c-1-0.2-2.1-1-2.7-2c-0.4-0.6-0.5-1.2-0.4-1.7c0.1-0.2,0.1-0.5,0.2-0.8
					C3,83,3.4,80.9,4.5,80c0.7-0.6,1.8-0.7,2.6-0.7c0.5,0,0.9,0.1,0.9,0.1l11,0.4h0.1c0.8,0,2.7,0.1,3.2,1.3c0.5,1.3,0,4.8-0.6,6
					c-0.6,1.4-1.4,2.6-3.7,2.8C17.7,89.9,17.4,90,17.1,90z"/>
				<path class="st11" d="M7.1,79.7c0.5,0,0.9,0.1,0.9,0.1l11,0.4c0,0,0,0,0.1,0c0.5,0,2.4,0.1,2.8,1.1c0.5,1.1-0.1,4.6-0.6,5.7
					s-1.2,2.4-3.4,2.6c-0.2,0-0.5,0-0.8,0c-3,0-10.3-0.6-11.4-0.8c-1.2-0.2-3.2-1.9-2.8-3.2c0.3-1.4,0.7-4.3,1.9-5.2
					C5.4,79.8,6.3,79.7,7.1,79.7 M7.1,79L7.1,79c-0.8,0-2,0.1-2.8,0.8c-1.2,0.9-1.6,3.2-2,4.8c-0.1,0.3-0.1,0.6-0.2,0.8
					c-0.1,0.6,0,1.3,0.4,2c0.7,1,1.9,1.9,3,2.1S14,90.3,17,90.3c0.4,0,0.6,0,0.9,0c2.5-0.2,3.4-1.6,4-3c0.5-1.1,1.2-4.9,0.6-6.3
					s-2.6-1.5-3.5-1.5h-0.1L8,79C7.9,79,7.5,79,7.1,79L7.1,79z"/>
			</g>
			<g>
				<path class="st10" d="M13.7,83.6c-0.5,0-1.1,0-1.6,0c-2.2-0.1-5.8-0.4-7.2-0.6c0,0-1.6-0.3-1.8-1c0-0.1-0.1-0.4,0.3-0.6
					c0.1-0.1,0.1-0.1,0.2-0.2c0.1-0.2,0.3-0.5,1-1.1s1.8-0.7,2.5-0.7c0.6,0,1,0.1,1,0.1l11,0.4h0.1c0.4,0,1.5,0,2.3,0.4
					c0.2,0.1,0.2,0.3,0.2,0.4c0,0.2-0.2,0.3-0.4,0.3l0,0c0,0-0.1,0-0.3,0c-0.4,0-0.8,0.1-1,0.2c-0.5,0.3-1.8,1.3-2.1,1.7
					C17.6,83.1,17.1,83.6,13.7,83.6L13.7,83.6z"/>
				<path class="st11" d="M7,79.7c0.6,0,1,0.1,1,0.1l11,0.4c0,0,0,0,0.1,0c0.3,0,1.4,0,2.1,0.4c0,0-0.1,0-0.3,0
					c-0.3,0-0.8,0-1.2,0.3c0,0-1.7,1.3-2.2,1.8c-0.4,0.4-2,0.6-3.7,0.6c-0.5,0-1.1,0-1.6,0C10,83.2,6.4,82.9,5,82.7
					c-0.5-0.2-2-0.7-1.5-1.1c0.5-0.3,0.1-0.4,1.2-1.3C5.3,79.8,6.3,79.7,7,79.7 M7,78.9L7,78.9c-0.8,0-2,0.1-2.7,0.8
					c-0.7,0.6-0.9,0.9-1,1.2c0,0,0,0,0,0.1c0,0,0,0-0.1,0c-0.4,0.3-0.5,0.6-0.4,1c0.2,1,2.1,1.3,2.1,1.3c1.5,0.2,5,0.5,7.3,0.6
					c0.5,0,1.1,0,1.6,0c3.2,0,4-0.4,4.3-0.8c0.3-0.4,1.4-1.2,2.1-1.7c0.1-0.1,0.4-0.1,0.7-0.1c0.1,0,0.2,0,0.2,0h0.1
					c0.3,0,0.6-0.2,0.7-0.5c0.1-0.4-0.1-0.7-0.4-0.9c-0.9-0.4-2-0.5-2.4-0.5H19L8,79C7.9,79,7.5,78.9,7,78.9L7,78.9z"/>
			</g>
			<path class="st12" d="M27.8,69.4c0.1,0,0.2,0,0.3,0.1c0.1,0.1,0.1,0.4,0,0.5c-0.6,0.6-2.2,1.5-3.5,0.4c-0.2-0.1-0.2-0.4-0.1-0.5
				c0.1-0.2,0.4-0.2,0.5-0.1c1.2,0.9,2.5-0.3,2.6-0.4C27.6,69.5,27.7,69.4,27.8,69.4z"/>
			<path class="st13" d="M24.9,62.5c7.9-0.5,9.5,0.7,9.8,1.8c0.2,1.1-0.7,2.9-9.3,3.6c-8.6,0.6-11.4-0.2-11.7-1.7
				S16.2,63.1,24.9,62.5z"/>
			<path d="M26.2,64.9c-0.1-1-0.3-1.8-0.5-2.4c-0.3,0-0.5,0-0.8,0c-0.1,0-0.2,0-0.3,0c-0.2,0.7-0.3,1.6-0.2,2.6
				c0.1,1.1,0.5,2.1,0.8,2.8c0.1,0,0.1,0,0.2,0c0.2,0,0.4,0,0.7-0.1C26.2,67.1,26.3,66.1,26.2,64.9z"/>
		</g>
	</g>
</g>
<g>
	<g class="st14">
		
			<image style="overflow:visible;opacity:0.15;" width="244" height="147" xlink:href="92807B8A857358AA.png"  transform="matrix(0.24 0 0 0.24 -3.2712 5.1286)">
		</image>
		<g>
			<path class="st0" d="M38.7,26.4H9.1c-1.3,0-2.4-1.1-2.4-2.4v-6.5c0-1.3,1.1-2.4,2.4-2.4h29.6c1.3,0,2.4,1.1,2.4,2.4V24
				C41.1,25.3,40,26.4,38.7,26.4z"/>
		</g>
	</g>
	<g class="st14">
		
			<image style="overflow:visible;opacity:0.15;" width="148" height="147" xlink:href="92807B8A857358AD.png"  transform="matrix(0.24 0 0 0.24 -3.2712 5.1286)">
		</image>
		<g>
			<path class="st0" d="M18.1,26.4h-9c-1.3,0-2.4-1.1-2.4-2.4v-6.5c0-1.3,1.1-2.4,2.4-2.4h9V26.4z"/>
		</g>
	</g>
	<g>
		<path class="st15" d="M21.1,17.2h2.7c1.2,0,2,0.7,2,1.8c0,0.9-0.5,1.4-1.2,1.6v0c1,0.1,1.6,0.8,1.6,1.8c0,1.3-1,2-2.5,2h-2.6V17.2
			z M21.9,20.4h1.2c1.2,0,1.8-0.4,1.8-1.3c0-0.8-0.6-1.2-1.3-1.2h-1.7V20.4z M21.9,23.8h1.4c1.2,0,2.1-0.2,2.1-1.3
			c0-0.9-0.7-1.4-1.6-1.4h-1.9V23.8z"/>
		<path class="st15" d="M27.6,16.8h0.8v7.7h-0.8V16.8z"/>
		<path class="st15" d="M34.5,24.5h-0.8v-0.8h0c-0.2,0.5-0.7,0.9-1.6,0.9c-1.2,0-2-0.7-2-1.9v-3.8h0.8v3.5c0,1.1,0.6,1.4,1.4,1.4
			c0.9,0,1.5-0.6,1.5-1.5v-3.5h0.8V24.5z"/>
	</g>
	<g>
		<linearGradient id="SVGID_4_" gradientUnits="userSpaceOnUse" x1="12.4064" y1="17.9566" x2="12.4064" y2="25.7108">
			<stop  offset="0.1427" style="stop-color:#66FD80"/>
			<stop  offset="1" style="stop-color:#05B621"/>
		</linearGradient>
		<path class="st16" d="M14.4,24.5h-4c-0.9,0-1.6-0.7-1.6-1.6v-4c0-0.9,0.7-1.6,1.6-1.6h4c0.9,0,1.6,0.7,1.6,1.6v4
			C16,23.8,15.3,24.5,14.4,24.5z"/>
		<g>
			<path class="st0" d="M12.5,18.7c-1.5,0-2.6,1-2.6,2.2c0,0.8,0.5,1.4,1.2,1.8c0,0.1,0.1,0.2-0.2,0.6c-0.1,0.1,0.1,0,0.1,0
				s0.4-0.1,0.6-0.3c0.1-0.1,0.1-0.1,0.2-0.1C12,23,12.2,23,12.5,23c1.5,0,2.6-1,2.6-2.2C15.1,19.7,13.9,18.7,12.5,18.7z"/>
		</g>
	</g>
</g>
</svg>
