<?xml version="1.0" encoding="utf-8"?>
<!-- Generator: Adobe Illustrator 20.0.0, SVG Export Plug-In . SVG Version: 6.00 Build 0)  -->
<svg version="1.1" id="Layer_1" xmlns="http://www.w3.org/2000/svg" xmlns:xlink="http://www.w3.org/1999/xlink" x="0px" y="0px"
	 viewBox="0 0 80 80" style="enable-background:new 0 0 80 80;" xml:space="preserve">
<style type="text/css">
	.st0{fill:#17712D;}
	.st1{fill:#22AA44;}
	.st2{fill:#4C1F1F;}
	.st3{fill:#C90202;}
	.st4{fill:#A60000;}
	.st5{fill:#DD0000;}
	.st6{opacity:0.7;fill:#EF8585;enable-background:new    ;}
	.st7{fill:#5E2626;}
</style>
<g>
	<path class="st0" d="M46.4,5.9L0,19.1C0,19.1,38.6,32.9,46.4,5.9z"/>
	<path class="st1" d="M46.4,5.9L0,19.1C0,19.1,25.6-12.9,46.4,5.9z"/>
</g>
<path class="st2" d="M44.8,6.3c-6,3.5-23.4,16-15.6,42.8l-1.9-0.3c-8.3-28.6,11.6-42.3,16-45c0.5-0.3,1.2-0.3,1.6,0.1l0,0
	C45.8,4.6,45.7,5.8,44.8,6.3z"/>
<circle class="st3" cx="27.3" cy="60.9" r="17.6"/>
<path class="st4" d="M34,60.9c0,5,2.1,9.5,5.5,12.7c3.4-3.2,5.5-7.7,5.5-12.7s-2.1-9.5-5.5-12.7C36.1,51.3,34,55.8,34,60.9z"/>
<circle class="st5" cx="57.2" cy="62.4" r="17.6"/>
<path class="st4" d="M55.4,48.4c1,1.4,0.5,3.6-1.4,4.8s-4.8,1-5.4-0.6c-0.6-1.4,1.1-1.3,3-2.5C53.5,49,54.6,47.2,55.4,48.4z"/>
<path class="st6" d="M26.4,46.8c1,1.6-2.7,1.5-5.9,3.5s-4.6,5.4-5.6,3.8c-1-1.6,0.7-4.5,3.9-6.5S25.4,45.2,26.4,46.8z"/>
<path class="st6" d="M46,54.9c2.8-0.1,0.3,3.6,0.5,8.4s3.2,8.8,0.4,8.9s-5.3-3.6-5.5-8.4S43.2,55,46,54.9z"/>
<path class="st7" d="M45.8,5.6c0.6,0.3,0.9,1,0.6,1.7c-3.1,6.7-7.8,23.2,6.2,43.2c0.3,0.4,0.3,0.5,0.1,0.7S52,51.4,52,51.4h-0.4
	c-15.7-20.2-10.7-38-7.5-45.2C44.4,5.6,45.2,5.3,45.8,5.6L45.8,5.6z"/>
<path class="st7" d="M54.3,50.3c0.3,0.6-0.1,1.6-1.2,2.3s-2.3,0.6-2.6,0s0.4-1.1,1.4-1.7C53,50.2,54,49.7,54.3,50.3z"/>
<path class="st7" d="M47.5,7.6l-6-2.8c-0.8-0.4-1.2-1.3-0.8-2.1l0.6-1.2c0.4-0.8,1.3-1.2,2.1-0.8l6,2.8c0.8,0.4,1.2,1.3,0.8,2.1
	l-0.6,1.2C49.3,7.7,48.3,8,47.5,7.6z"/>
</svg>
