<?xml version="1.0" encoding="utf-8"?>
<!-- Generator: Adobe Illustrator 20.0.0, SVG Export Plug-In . SVG Version: 6.00 Build 0)  -->
<svg version="1.1" id="Layer_1" xmlns="http://www.w3.org/2000/svg" xmlns:xlink="http://www.w3.org/1999/xlink" x="0px" y="0px"
	 viewBox="0 0 36.3 51.4" style="enable-background:new 0 0 36.3 51.4;" xml:space="preserve">
<style type="text/css">
	.st0{fill:#172C2D;}
	.st1{fill:#D9DDDE;}
	.st2{fill:#A1ABAD;}
</style>
<g id="rightPincher">
	<g>
		<path class="st0" d="M21.7,15.1c0.2-0.4,0.3-0.9,0.3-1.4c0-2.1-1.7-3.8-3.8-3.8s-3.8,1.7-3.8,3.8s1.7,3.8,3.8,3.8
			c0.9,0,1.7-0.3,2.3-0.8c2.4,2.5,3.8,5.8,3.8,9.3c0,7.3-5.9,13.3-13.3,13.3c-0.6,0-1,0.5-1,1s0.5,1,1,1c8.4,0,15.3-6.9,15.3-15.3
			C26.3,22,24.6,18,21.7,15.1z M18.2,15.5c-1,0-1.7-0.8-1.7-1.7s0.8-1.7,1.7-1.7s1.7,0.8,1.7,1.7S19.1,15.5,18.2,15.5z"/>
		<g>
			<circle class="st1" cx="18.2" cy="13.6" r="2.2"/>
			<circle class="st2" cx="18.2" cy="13.8" r="2.2"/>
			<g>
				<polygon class="st1" points="16.7,14 16.7,13.7 19.7,13.8 19.7,14.1 				"/>
			</g>
			<g>
				<polygon class="st1" points="18.4,15.3 18.1,15.3 18.2,12.3 18.5,12.3 				"/>
			</g>
			<polygon class="st0" points="18,12.3 17.9,15.3 18.2,15.3 18.3,12.3 			"/>
			<polygon class="st0" points="19.7,13.6 16.7,13.5 16.7,13.8 19.7,13.9 			"/>
		</g>
	</g>
</g>
</svg>
