<?xml version="1.0" encoding="utf-8"?>
<!-- Generator: Adobe Illustrator 20.0.0, SVG Export Plug-In . SVG Version: 6.00 Build 0)  -->
<svg version="1.1" id="Layer_1" xmlns="http://www.w3.org/2000/svg" xmlns:xlink="http://www.w3.org/1999/xlink" x="0px" y="0px"
	 viewBox="0 0 50.4 52.9" style="enable-background:new 0 0 50.4 52.9;" xml:space="preserve">
<style type="text/css">
	.st0{fill:#637377;}
	.st1{fill:#35474C;}
	.st2{fill:#172C2D;}
	.st3{fill:#5D6C70;}
	.st4{fill:#A1ABAD;}
</style>
<g id="robotClaw">
	<path class="st0" d="M40,39.3l-7.7-15.5c-0.4-0.8-1.3-1.4-2.2-1.4h-2.8h-4.1h-2.8c-0.9,0-1.8,0.5-2.2,1.4l-7.7,15.5
		c-0.4,0.8-0.3,1.7,0.1,2.4c0.4,0.7,1.2,1.2,2.1,1.2h10.6h4.1H38c0.9,0,1.6-0.4,2.1-1.2C40.3,41,40.4,40.1,40,39.3z M23.2,38.8h-7.9
		l5.3-10.6c0.5-1,1.5-1.6,2.6-1.6l0,0C23.2,26.6,23.2,38.8,23.2,38.8z M27.3,38.8V26.6l0,0c1.1,0,2.1,0.6,2.6,1.6l5.3,10.6
		C35.2,38.8,27.3,38.8,27.3,38.8z"/>
	<path class="st1" d="M31.1,12.3c0.2,0,0.4-0.2,0.4-0.4v-1.5c0-0.2-0.2-0.4-0.4-0.4h-0.4H19.8h-0.4c-0.2,0-0.4,0.2-0.4,0.4v1.5
		c0,0.2,0.2,0.4,0.4,0.4h0.4V17h-0.4c-0.2,0-0.4,0.2-0.4,0.4V19c0,0.2,0.2,0.4,0.4,0.4h0.4h10.9h0.4c0.2,0,0.4-0.2,0.4-0.4v-1.5
		c0-0.2-0.2-0.4-0.4-0.4h-0.4v-4.7h0.4V12.3z"/>
	<rect x="23.1" y="19.4" class="st0" width="4.2" height="3.1"/>
	<rect x="23.1" y="19.4" class="st2" width="4.2" height="1.1"/>
	<rect x="19.8" y="12.3" class="st2" width="10.9" height="1.1"/>
	<rect x="19.8" y="13.4" class="st3" width="3" height="3.6"/>
	<rect x="23.2" y="26.6" class="st2" width="4.1" height="12.2"/>
	<g>
		<path class="st4" d="M39.8,40.8H10.6c-0.3,0-0.6-0.3-0.6-0.6s0.3-0.6,0.6-0.6h29.2c0.3,0,0.6,0.3,0.6,0.6
			C40.4,40.6,40.2,40.8,39.8,40.8z"/>
	</g>
	<g>
		<path class="st4" d="M30.6,24.5H20.1c-0.3,0-0.6-0.3-0.6-0.6c0-0.3,0.3-0.6,0.6-0.6h10.5c0.3,0,0.6,0.3,0.6,0.6
			S30.9,24.5,30.6,24.5z"/>
	</g>
</g>
</svg>
