<?xml version="1.0" encoding="utf-8"?>
<!-- Generator: Adobe Illustrator 20.0.0, SVG Export Plug-In . SVG Version: 6.00 Build 0)  -->
<svg version="1.1" id="Layer_1" xmlns="http://www.w3.org/2000/svg" xmlns:xlink="http://www.w3.org/1999/xlink" x="0px" y="0px"
	 viewBox="0 0 79.3 61" style="enable-background:new 0 0 79.3 61;" xml:space="preserve">
<style type="text/css">
	.st0{fill:#29ABE2;}
	.st1{fill:#8CC63F;}
	.st2{fill:#FFFFFF;}
	.st3{fill:#F15A24;}
	.st4{fill:#F2DB7C;}
	.st5{fill:#FF73E0;}
</style>
<g>
	<path class="st0" d="M32.7,27.2l-0.8,9.1c-0.1,0.7-0.7,1.3-1.4,1.2l0,0c-0.7-0.1-1.3-0.7-1.2-1.4l0.8-9.1c0.1-0.7,0.7-1.3,1.4-1.2
		l0,0C32.2,25.8,32.7,26.4,32.7,27.2z"/>
	<path class="st1" d="M19.9,22.2l-1.4,9c-0.1,0.7-0.8,1.2-1.5,1.1l0,0c-0.7-0.1-1.2-0.8-1.1-1.5l1.4-9c0.1-0.7,0.8-1.2,1.5-1.1l0,0
		C19.5,20.7,20,21.4,19.9,22.2z"/>
	<path class="st2" d="M36.2,33.7l0.7,9.1c0.1,0.7-0.5,1.4-1.2,1.4l0,0c-0.7,0.1-1.4-0.5-1.4-1.2l-0.7-9.1c-0.1-0.7,0.5-1.4,1.2-1.4
		l0,0C35.5,32.4,36.1,32.9,36.2,33.7z"/>
	<path class="st3" d="M39.2,35.3l-4.9-7.7c-0.4-0.6-0.2-1.4,0.4-1.8l0,0c0.6-0.4,1.4-0.2,1.8,0.4l4.9,7.7c0.4,0.6,0.2,1.4-0.4,1.8
		l0,0C40.4,36.1,39.6,35.9,39.2,35.3z"/>
	<path class="st4" d="M25.7,19.2l-4.4,8c-0.4,0.6-1.2,0.9-1.8,0.5l0,0c-0.6-0.4-0.9-1.2-0.5-1.8l4.4-8c0.4-0.6,1.2-0.9,1.8-0.5l0,0
		C25.8,17.7,26,18.5,25.7,19.2z"/>
	<path class="st5" d="M25.7,29.8l-4.4,8c-0.4,0.6-1.2,0.9-1.8,0.5l0,0c-0.6-0.4-0.9-1.2-0.5-1.8l4.4-8c0.4-0.6,1.2-0.9,1.8-0.5l0,0
		C25.8,28.4,26,29.2,25.7,29.8z"/>
	
		<ellipse transform="matrix(8.641714e-02 -0.9963 0.9963 8.641714e-02 -1.5079 48.8855)" class="st0" cx="25.9" cy="25.3" rx="2.4" ry="2.4"/>
	<path class="st3" d="M10.5,34.5l7.3-5.5c0.6-0.4,1.4-0.3,1.9,0.3l0,0c0.4,0.6,0.3,1.4-0.3,1.9l-7.3,5.5c-0.6,0.4-1.4,0.3-1.9-0.3
		l0,0C9.8,35.8,9.9,35,10.5,34.5z"/>
	<path class="st4" d="M62.1,36.3l-8.4-3.7c-0.7-0.3-1-1.1-0.7-1.8l0,0c0.3-0.7,1.1-1,1.8-0.7l8.4,3.7c0.7,0.3,1,1.1,0.7,1.8l0,0
		C63.6,36.3,62.8,36.6,62.1,36.3z"/>
	<circle class="st0" cx="66.9" cy="31.3" r="2.4"/>
	<circle class="st2" cx="49.6" cy="37.9" r="2.4"/>
	<path class="st0" d="M57.3,29.6h-9.1c-0.7,0-1.3-0.6-1.3-1.3l0,0c0-0.7,0.6-1.3,1.3-1.3h9.1c0.7,0,1.3,0.6,1.3,1.3l0,0
		C58.6,29,58,29.6,57.3,29.6z"/>
	<path class="st1" d="M64.4,25.5l-9.1-0.6c-0.7,0-1.3-0.7-1.2-1.4l0,0c0-0.7,0.7-1.3,1.4-1.2l9.1,0.6c0.7,0,1.3,0.7,1.2,1.4l0,0
		C65.7,25,65.1,25.6,64.4,25.5z"/>
	<path class="st3" d="M46,26.4l7.3-5.5c0.6-0.4,1.4-0.3,1.9,0.3l0,0c0.4,0.6,0.3,1.4-0.3,1.9l-7.3,5.5c-0.6,0.4-1.4,0.3-1.9-0.3l0,0
		C45.3,27.7,45.4,26.8,46,26.4z"/>
	<path class="st0" d="M49.3,20.4h-9.1c-0.7,0-1.3-0.6-1.3-1.3l0,0c0-0.7,0.6-1.3,1.3-1.3h9.1c0.7,0,1.3,0.6,1.3,1.3l0,0
		C50.6,19.8,50,20.4,49.3,20.4z"/>
	<path class="st3" d="M35.7,16.4l8.8-2.4c0.7-0.1,1.4,0.2,1.6,1l0,0c0.1,0.7-0.2,1.4-1,1.6L36.3,19c-0.7,0.1-1.4-0.2-1.6-1l0,0
		C34.6,17.3,35,16.6,35.7,16.4z"/>
	<path class="st4" d="M43.2,25.1l-8.4-3.7c-0.7-0.3-1-1.1-0.7-1.8l0,0c0.3-0.7,1.1-1,1.8-0.7l8.4,3.7c0.7,0.3,1,1.1,0.7,1.8l0,0
		C44.7,25.1,43.9,25.4,43.2,25.1z"/>
	<path class="st5" d="M50.9,36.3l-8.4-3.7c-0.7-0.3-1-1.1-0.7-1.8l0,0c0.3-0.7,1.1-1,1.8-0.7l8.4,3.7c0.7,0.3,1,1.1,0.7,1.8l0,0
		C52.4,36.3,51.6,36.6,50.9,36.3z"/>
	<circle class="st0" cx="30" cy="17.2" r="2.4"/>
	<circle class="st2" cx="53.3" cy="18.2" r="2.4"/>
	<circle class="st2" cx="36" cy="24.7" r="2.4"/>
</g>
</svg>
