<?xml version="1.0" encoding="utf-8"?>
<!-- Generator: Adobe Illustrator 20.0.0, SVG Export Plug-In . SVG Version: 6.00 Build 0)  -->
<svg version="1.1" id="Layer_1" xmlns="http://www.w3.org/2000/svg" xmlns:xlink="http://www.w3.org/1999/xlink" x="0px" y="0px"
	 viewBox="0 0 425.7 286.6" style="enable-background:new 0 0 425.7 286.6;" xml:space="preserve">
<style type="text/css">
	.st0{fill:#35474C;}
	.st1{fill:#263235;}
	.st2{fill:#35474C;stroke:#637377;stroke-width:2;stroke-miterlimit:10;}
	.st3{fill:#637377;}
	.st4{fill:none;stroke:#637377;stroke-miterlimit:10;}
	.st5{fill:#263235;stroke:#263235;stroke-miterlimit:10;}
	.st6{clip-path:url(#SVGID_2_);}
	.st7{fill:none;stroke:#637377;stroke-width:0.75;stroke-miterlimit:10;}
	.st8{clip-path:url(#SVGID_4_);}
	.st9{clip-path:url(#SVGID_6_);}
	.st10{clip-path:url(#SVGID_8_);}
</style>
<ellipse class="st0" cx="40.1" cy="63.9" rx="23.8" ry="15.2"/>
<ellipse class="st0" cx="385.4" cy="63.9" rx="23.8" ry="15.2"/>
<ellipse class="st0" cx="30.9" cy="180.9" rx="26" ry="16.6"/>
<g>
	<path class="st1" d="M293.9,226c-2.5,0-4.5-2-4.5-4.5c-0.1-14.4-4.5-24.7-13.1-30.5c-11-7.4-27.2-6.8-38.8-5c-13,2.1-23.3,6-23.4,6
		c-2.3,0.9-4.9-0.3-5.8-2.6c-0.9-2.3,0.3-4.9,2.6-5.8c1.8-0.7,45.3-17.3,70.6-0.1c11.2,7.6,16.9,20.3,17.1,37.9
		C298.4,223.9,296.4,226,293.9,226L293.9,226z"/>
</g>
<g>
	<path class="st1" d="M125.3,226L125.3,226c-2.5,0-4.5-2.1-4.5-4.5c0.2-17.6,5.9-30.3,17.1-37.9c25.2-17.1,68.7-0.6,70.6,0.1
		c2.3,0.9,3.5,3.5,2.6,5.8s-3.5,3.5-5.8,2.6l0,0c-0.4-0.2-41-15.6-62.3-1.1c-8.6,5.8-13,16.1-13.1,30.5
		C129.8,224,127.8,226,125.3,226z"/>
</g>
<path class="st2" d="M267.6,180.7c0,10.6-24.4,19.1-54.6,19.1s-54.6-8.6-54.6-19.1v-18.2h109.1v18.2H267.6z"/>
<path class="st3" d="M158.4,162.5l24.3,4.8"/>
<path class="st1" d="M267.4,168.9c0,10.5-25.2,18.9-55,18.9s-54-8.5-54-18.9v-8.2h109V168.9z"/>
<path class="st3" d="M152.4,111.6L30.1,63.4c-1.3-0.5-2.1-1.8-2.1-3.1v-1.7l19.2-1l40.6,12.5c16,4.3,32.5,6.5,49.1,6.5H219l3.6,35
	l-62.5,11.2L152.4,111.6z"/>
<path class="st2" d="M293.8,106.6c-0.2-5.5-1.1-10.6-3.1-14c-7.2-12-58.3-15.9-58.3-15.9h-16.2h-7.7h-16.2c0,0-51.1,4-58.3,15.9
	c-2,3.4-2.9,8.5-3.1,14c-0.7,17.4,5.7,34.4,17.2,47.5l10.7,12.1c3.2,9.3,26,16.6,53.6,16.6c29.6,0,54.9-8.3,55.3-18.6l8.9-10.1
	C288.2,141,294.6,124.1,293.8,106.6z"/>
<path class="st3" d="M273.3,111.6l122.3-48.2c1.3-0.5,2.1-1.8,2.1-3.1v-1.7l-19.2-1l-40.6,12.5c-16,4.3-32.5,6.5-49.1,6.5h-82.2
	l-3.6,35l62.5,11.2L273.3,111.6z"/>
<path class="st0" d="M397.7,60.3v-1.7l-61.9,23.6c-9.6,3.7-19.8,5.8-30.1,6.3L270,90.2v24l125.6-50.7
	C396.9,62.9,397.7,61.7,397.7,60.3z"/>
<path class="st4" d="M210.5,170.6"/>
<path class="st4" d="M211.8,170.6h-0.5c-4.7,0-9.3,1.8-12.7,5l0,0c-26.3-3.1-38.4-16.2-43.7-25.2l6.2-4.3
	c5.8-4.1,9.7-10.4,10.7-17.4l0,0c0,0,17.8,3.3,39.8,3.3"/>
<path class="st4" d="M211.6,170.6h0.5c4.7,0,9.3,1.8,12.7,5l0,0c26.3-3.1,38.4-16.2,43.7-25.2l-6.2-4.3c-5.8-4.1-9.7-10.4-10.7-17.4
	l0,0c0,0-18,3.3-40,3.3"/>
<path class="st0" d="M28,60.3v-1.7l61.9,23.6c9.6,3.7,19.8,5.8,30.1,6.3l35.7,1.7v24L30.1,63.5C28.8,62.9,28,61.7,28,60.3z"/>
<path class="st1" d="M127.3,103.8c0,13.8,38.4,24.9,85.7,24.9s85.7-11.1,85.7-24.9V94H127.3V103.8z"/>
<path class="st0" d="M127.3,98.8c0,13.8,38.4,24.9,85.7,24.9s85.7-11.1,85.7-24.9V89H127.3V98.8z"/>
<ellipse class="st3" cx="213" cy="91.8" rx="85.7" ry="24.9"/>
<g>
	<path class="st1" d="M284.8,276.1c-0.2,0-0.4,0-0.6,0c-2.7-0.3-4.7-2.8-4.4-5.5c2.9-24.8,0.5-44.3-7-57.9
		c-9.5-17.1-23.9-18.6-24.5-18.6c-2.7-0.2-4.8-2.7-4.6-5.4s2.6-4.8,5.3-4.6c0.8,0.1,20.3,1.8,32.5,23.8c8.6,15.4,11.3,36.9,8.2,63.9
		C289.5,274.3,287.3,276.1,284.8,276.1z"/>
</g>
<g>
	<path class="st1" d="M130.8,276.1c-2.5,0-4.7-1.9-5-4.4c-3.1-27,0-48.6,9.4-64c13.3-21.9,34-23.5,34.9-23.6
		c2.7-0.2,5.1,1.9,5.3,4.6c0.2,2.7-1.9,5.1-4.6,5.3c-0.7,0.1-16.6,1.6-27,18.8c-8.2,13.5-10.9,32.9-8,57.7c0.3,2.7-1.6,5.2-4.4,5.5
		C131.2,276.1,131,276.1,130.8,276.1z"/>
</g>
<path class="st3" d="M141.2,89.7l-7.9-0.2c-17.5-0.4-34.9-3.8-51.2-10.1L28,58.6l19.2-1l40.6,12.5c9.6,2.6,22.3,4.4,34.5,5.5
	c11.9,1,26.2-1.2,38.4-3.6c2.7-0.5,5.4-1,8.1-1.4l17.5-2.5L191,80l-17.5,9L141.2,89.7z"/>
<path class="st3" d="M252.7,89l-17.5-9l4.6-11.9l17.5,2.5c2.7,0.4,5.4,0.9,8.1,1.4c12.2,2.4,26.6,4.6,38.4,3.6
	c12.2-1.1,24.9-2.9,34.5-5.5L379,57.6l18.7,1l-53.5,20.9c-16.4,6.3-33.7,9.7-51.2,10.1l-7.9,0.2L252.7,89z"/>
<ellipse class="st2" cx="385.4" cy="62.7" rx="22.5" ry="10.4"/>
<ellipse class="st2" cx="40.1" cy="62.7" rx="22.5" ry="10.4"/>
<ellipse class="st3" cx="385.4" cy="59.1" rx="22.5" ry="10.4"/>
<ellipse class="st3" cx="40.1" cy="59.1" rx="22.5" ry="10.4"/>
<path class="st5" d="M35.5,57.6V13.7c0-1.8,1.5-3.2,3.2-3.2h2.9c1.8,0,3.2,1.5,3.2,3.2v43.8l0,0C42,59.5,38.3,59.5,35.5,57.6
	L35.5,57.6z"/>
<path class="st3" d="M259.5,111.6c-0.7,19.9,11.8,37.8,30.7,43.9l100.4,28.6l22.4-5.4l2.6-3.1l-76.3-25.1
	c-15.8-5.2-30.2-13.9-42.2-25.5l-13.9-13.4H259.5L259.5,111.6z"/>
<path class="st0" d="M395.1,180.9c-3.2,0.8-5.8-0.2-9-1.1c-16.8-4.9-71.1-22.5-85.8-30.1c-17.2-8.9-22.7-30.9-48.2-35.5
	c0,17.3,11.1,32.6,27.6,37.9l103.2,33.4c4.7,1.5,9.8,1.6,14.6,0.3l13-3.6c3-0.8,5-3.5,5-6.6l0,0L395.1,180.9z"/>
<path class="st3" d="M415.6,175.6L330.1,147c-5.9-1.9-11.5-4.9-16.6-8.4c-10.6-7.2-19.4-16.8-25.8-27.8c-0.2-0.3-0.3-0.7-0.4-1.1
	c-0.7-3.9-2.2-7.6-4.7-10.6c-0.8-0.9-1.4-1.9-1.7-2.7l-2.5-6.9l-20,1.7l-8.2,0.6c-0.1,3.1,3.5,10.4,6.3,15.5c2,3.7,3,7.8,3.1,11.9
	v0.1c9.3,14,25.4,27.6,47.5,35.3l79,26.2c2.7,0.9,5.6,1,8.4,0.3L415.6,175.6z"/>
<g>
	<g>
		<g>
			<g>
				<defs>
					<path id="SVGID_1_" d="M38.7,11.2h2.9c2,0,3.7,1.6,3.7,3.7v44c0,2-1.6,3.7-3.7,3.7h-2.9c-2,0-3.7-1.6-3.7-3.7v-44
						C35,12.9,36.7,11.2,38.7,11.2z"/>
				</defs>
				<clipPath id="SVGID_2_">
					<use xlink:href="#SVGID_1_"  style="overflow:visible;"/>
				</clipPath>
				<g class="st6">
					<path class="st7" d="M34.6,50.4c0,1.2,2.5,2.1,5.6,2.1s5.6-1,5.6-2.1"/>
					<path class="st7" d="M34.6,48.1c0,1.2,2.5,2.1,5.6,2.1s5.6-1,5.6-2.1"/>
					<path class="st7" d="M34.6,45.7c0,1.2,2.5,2.1,5.6,2.1s5.6-1,5.6-2.1"/>
					<path class="st7" d="M34.6,43.4c0,1.2,2.5,2.1,5.6,2.1s5.6-1,5.6-2.1"/>
					<path class="st7" d="M34.6,41.1c0,1.2,2.5,2.1,5.6,2.1s5.6-1,5.6-2.1"/>
					<path class="st7" d="M34.6,38.7c0,1.2,2.5,2.1,5.6,2.1s5.6-1,5.6-2.1"/>
				</g>
			</g>
		</g>
	</g>
</g>
<path class="st3" d="M166.1,111.6h-23.7L128.5,125c-12,11.6-26.4,20.3-42.2,25.5L10,175.6l2.6,3.1l22.4,5.4l100.4-28.6
	C154.3,149.4,166.8,131.5,166.1,111.6L166.1,111.6z"/>
<path class="st0" d="M30.5,180.9c3.2,0.8,7.6-1,10.8-1.9c16.8-4.9,70.7-21.5,84-31.2c15.7-11.4,22.7-29,48.2-33.6
	c0,17.3-11.1,32.6-27.6,37.9L42.7,185.5c-4.7,1.5-9.8,1.6-14.6,0.3l-13-3.6c-3-0.8-5-3.5-5-6.6l0,0L30.5,180.9z"/>
<path class="st3" d="M31.2,181.1c2.8,0.7,5.7,0.6,8.4-0.3l79-26.2c22.1-7.7,38.2-21.3,47.5-35.3v-0.1c0-4.2,1.1-8.3,3.1-11.9
	c2.8-5.1,6.4-12.4,6.3-15.5l-8.2-0.6l-20-1.7l-2.5,6.9c-0.3,0.8-0.9,1.8-1.7,2.7c-2.5,3-4,6.7-4.7,10.6c-0.1,0.4-0.2,0.8-0.4,1.1
	c-6.4,11-15.1,20.6-25.8,27.8c-5.1,3.5-10.7,6.5-16.6,8.4L10,175.6L31.2,181.1z"/>
<ellipse class="st3" cx="213" cy="91.8" rx="85.7" ry="24.9"/>
<ellipse class="st0" cx="213" cy="84.7" rx="71.8" ry="20.9"/>
<ellipse class="st0" cx="213" cy="81.7" rx="71.8" ry="20.9"/>
<ellipse class="st3" cx="213" cy="81.7" rx="71.8" ry="20.9"/>
<ellipse class="st0" cx="395.1" cy="180.9" rx="26" ry="16.6"/>
<ellipse class="st2" cx="395.1" cy="179.7" rx="24.5" ry="11.4"/>
<ellipse class="st2" cx="30.9" cy="179.7" rx="24.5" ry="11.4"/>
<ellipse class="st3" cx="395.1" cy="175.7" rx="24.5" ry="11.4"/>
<ellipse class="st3" cx="30.9" cy="175.7" rx="24.5" ry="11.4"/>
<path class="st5" d="M388.9,172.1v-53.9c0-2.2,1.8-4,4-4h3.6c2.2,0,4,1.8,4,4v53.9l0,0C397,174.5,392.4,174.5,388.9,172.1
	L388.9,172.1z"/>
<g>
	<g>
		<g>
			<g>
				<defs>
					<path id="SVGID_3_" d="M392.9,113.7h3.6c2.5,0,4.5,2,4.5,4.5v53.9c0,2.5-2,4.5-4.5,4.5h-3.6c-2.5,0-4.5-2-4.5-4.5v-53.9
						C388.4,115.7,390.4,113.7,392.9,113.7z"/>
				</defs>
				<clipPath id="SVGID_4_">
					<use xlink:href="#SVGID_3_"  style="overflow:visible;"/>
				</clipPath>
				<g class="st8">
					<path class="st4" d="M387.9,161.7c0,1.4,3,2.6,6.8,2.6s6.8-1.2,6.8-2.6"/>
					<path class="st4" d="M387.9,158.8c0,1.4,3,2.6,6.8,2.6s6.8-1.2,6.8-2.6"/>
					<path class="st4" d="M387.9,156c0,1.4,3,2.6,6.8,2.6s6.8-1.2,6.8-2.6"/>
					<path class="st4" d="M387.9,153.1c0,1.4,3,2.6,6.8,2.6s6.8-1.2,6.8-2.6"/>
					<path class="st4" d="M387.9,150.2c0,1.4,3,2.6,6.8,2.6s6.8-1.2,6.8-2.6"/>
					<path class="st4" d="M387.9,147.4c0,1.4,3,2.6,6.8,2.6s6.8-1.2,6.8-2.6"/>
				</g>
			</g>
		</g>
	</g>
</g>
<path class="st5" d="M380.8,57.6V13.7c0-1.8,1.5-3.2,3.2-3.2h2.9c1.8,0,3.2,1.5,3.2,3.2v43.8l0,0C387.3,59.5,383.6,59.5,380.8,57.6
	L380.8,57.6z"/>
<g>
	<g>
		<g>
			<g>
				<defs>
					<path id="SVGID_5_" d="M384,11.2h2.9c2,0,3.7,1.6,3.7,3.7v44c0,2-1.6,3.7-3.7,3.7H384c-2,0-3.7-1.6-3.7-3.7v-44
						C380.3,12.9,382,11.2,384,11.2z"/>
				</defs>
				<clipPath id="SVGID_6_">
					<use xlink:href="#SVGID_5_"  style="overflow:visible;"/>
				</clipPath>
				<g class="st9">
					<path class="st7" d="M379.9,50.4c0,1.2,2.5,2.1,5.6,2.1s5.6-1,5.6-2.1"/>
					<path class="st7" d="M379.9,48.1c0,1.2,2.5,2.1,5.6,2.1s5.6-1,5.6-2.1"/>
					<path class="st7" d="M379.9,45.7c0,1.2,2.5,2.1,5.6,2.1s5.6-1,5.6-2.1"/>
					<path class="st7" d="M379.9,43.4c0,1.2,2.5,2.1,5.6,2.1s5.6-1,5.6-2.1"/>
					<path class="st7" d="M379.9,41.1c0,1.2,2.5,2.1,5.6,2.1s5.6-1,5.6-2.1"/>
					<path class="st7" d="M379.9,38.7c0,1.2,2.5,2.1,5.6,2.1s5.6-1,5.6-2.1"/>
				</g>
			</g>
		</g>
	</g>
</g>
<path class="st5" d="M25.1,172.1v-53.9c0-2.2,1.8-4,4-4h3.6c2.2,0,4,1.8,4,4v53.9l0,0C33.2,174.5,28.6,174.5,25.1,172.1L25.1,172.1z
	"/>
<g>
	<g>
		<g>
			<g>
				<defs>
					<path id="SVGID_7_" d="M29.1,113.7h3.6c2.5,0,4.5,2,4.5,4.5v53.9c0,2.5-2,4.5-4.5,4.5h-3.6c-2.5,0-4.5-2-4.5-4.5v-53.9
						C24.6,115.7,26.6,113.7,29.1,113.7z"/>
				</defs>
				<clipPath id="SVGID_8_">
					<use xlink:href="#SVGID_7_"  style="overflow:visible;"/>
				</clipPath>
				<g class="st10">
					<path class="st4" d="M24.1,161.7c0,1.4,3,2.6,6.8,2.6s6.8-1.2,6.8-2.6"/>
					<path class="st4" d="M24.1,158.8c0,1.4,3,2.6,6.8,2.6s6.8-1.2,6.8-2.6"/>
					<path class="st4" d="M24.1,156c0,1.4,3,2.6,6.8,2.6s6.8-1.2,6.8-2.6"/>
					<path class="st4" d="M24.1,153.1c0,1.4,3,2.6,6.8,2.6s6.8-1.2,6.8-2.6"/>
					<path class="st4" d="M24.1,150.2c0,1.4,3,2.6,6.8,2.6s6.8-1.2,6.8-2.6"/>
					<path class="st4" d="M24.1,147.4c0,1.4,3,2.6,6.8,2.6s6.8-1.2,6.8-2.6"/>
				</g>
			</g>
		</g>
	</g>
</g>
</svg>
