<svg id="herHouse" xmlns="http://www.w3.org/2000/svg" viewBox="0 0 122.99 29.36"><defs><style>.cls-1{fill:#fff;}.cls-2{fill:#163d4a;}</style></defs><title>prop_Still</title><path class="cls-1" d="M110.71,6.57L70.8,12.5,85.85,2.1C78.65,1.39,70.77,1,62.5,1,54.56,1,47,1.36,40,2L55.2,12.5l-40.58-6C6.1,9,1,12.19,1,15.68c0,3.16,4.19,6.08,11.29,8.47L53.2,18.07l-15.91,11A238,238,0,0,0,62.5,30.36a238,238,0,0,0,25.21-1.29l-15.91-11,40.91,6.08c7.1-2.39,11.29-5.31,11.29-8.47C124,12.24,119,9.07,110.71,6.57Z" transform="translate(-1 -1)"/><path class="cls-2" d="M52.2,18.07a10.3,10.3,0,0,1,20.6,0h0a35.78,35.78,0,0,1-20.6,0h0Z" transform="translate(-1 -1)"/></svg>