<svg id="bassoLeftLeg" xmlns="http://www.w3.org/2000/svg" xmlns:xlink="http://www.w3.org/1999/xlink" viewBox="0 0 17.02 61.16"><defs><style>.cls-1{fill:url(#linear-gradient);}.cls-2{fill:url(#linear-gradient-2);}.cls-3{fill:url(#linear-gradient-3);}</style><linearGradient id="linear-gradient" x1="-1.36" y1="82.33" x2="13.51" y2="-7.18" gradientUnits="userSpaceOnUse"><stop offset="0.23" stop-color="#f58323"/><stop offset="0.76" stop-color="#a84022"/><stop offset="1" stop-color="#8a2521"/></linearGradient><linearGradient id="linear-gradient-2" x1="3.44" y1="50.86" x2="7.5" y2="36.83" gradientUnits="userSpaceOnUse"><stop offset="0" stop-color="#72c9bf"/><stop offset="1" stop-color="#44a1a2"/></linearGradient><linearGradient id="linear-gradient-3" x1="8.57" y1="53.25" x2="5.14" y2="57.62" gradientUnits="userSpaceOnUse"><stop offset="0" stop-color="#657947"/><stop offset="1" stop-color="#59894c"/></linearGradient></defs><title>basso_leftLeg</title><path class="cls-1" d="M9.51,1A8.51,8.51,0,0,0,1,9.88l2.1,47.76a4.73,4.73,0,0,0,4.72,4.51h0A4.73,4.73,0,0,0,12.54,58L18,10.48A8.51,8.51,0,0,0,9.51,1h0Z" transform="translate(-1 -1)"/><polygon class="cls-2" points="0.98 31.93 1.62 45.83 12.8 45.93 14.4 31.93 0.98 31.93"/><path class="cls-3" d="M2.75,49.75l0.36,7.9a4.73,4.73,0,0,0,9.42.32l1-8.56Z" transform="translate(-1 -1)"/></svg>