<svg id="bassoRightleg" xmlns="http://www.w3.org/2000/svg" xmlns:xlink="http://www.w3.org/1999/xlink" viewBox="0 0 16.79 61.16"><defs><style>.cls-1{fill:url(#linear-gradient);}.cls-2{fill:url(#linear-gradient-2);}.cls-3{fill:url(#linear-gradient-3);}</style><linearGradient id="linear-gradient" x1="9.39" y1="67.88" x2="9.39" y2="-3.87" gradientUnits="userSpaceOnUse"><stop offset="0.17" stop-color="#f58323"/><stop offset="0.38" stop-color="#d36522"/><stop offset="0.65" stop-color="#ab4222"/><stop offset="0.87" stop-color="#932d21"/><stop offset="1" stop-color="#8a2521"/></linearGradient><linearGradient id="linear-gradient-2" x1="-12.24" y1="85.08" x2="10.49" y2="35.51" gradientUnits="userSpaceOnUse"><stop offset="0" stop-color="#72c9bf"/><stop offset="1" stop-color="#44a1a2"/></linearGradient><linearGradient id="linear-gradient-3" x1="12.01" y1="51.65" x2="6.87" y2="56.8" gradientUnits="userSpaceOnUse"><stop offset="0" stop-color="#657947"/><stop offset="1" stop-color="#59894c"/></linearGradient></defs><title>basso_rightLeg</title><path class="cls-1" d="M9.39,1A8.39,8.39,0,0,0,1,10.14L5.3,57.65A4.73,4.73,0,0,0,10,62.16h0A4.73,4.73,0,0,0,14.72,58l3.05-48A8.39,8.39,0,0,0,9.39,1h0Z" transform="translate(-1 -1)"/><polygon class="cls-2" points="2.3 34.36 3.33 45.83 14.42 45.93 15.16 34.36 2.3 34.36"/><path class="cls-3" d="M4.5,48.7l0.8,8.95a4.73,4.73,0,0,0,9.42.32l0.59-9.27H4.5Z" transform="translate(-1 -1)"/></svg>