<svg id="wood" xmlns="http://www.w3.org/2000/svg" xmlns:xlink="http://www.w3.org/1999/xlink" viewBox="0 0 413.6 193.48"><defs><style>.cls-1{fill:none;}.cls-2{fill:#e2a350;}.cls-3{fill:#fcc97c;}.cls-4{clip-path:url(#clip-path);}.cls-5{fill:#efb26a;}</style><clipPath id="clip-path" transform="translate(11.71 13.51)"><polygon class="cls-1" points="184.89 127.69 388.89 127.69 388.89 4.83 98.89 11.2 97.89 23.62 86.89 11.2 1.89 11.2 3.89 127.69 169.89 127.69 184.89 127.69"/></clipPath></defs><title>board</title><polygon class="cls-2" points="14.46 49.57 13.46 17.59 400.6 15.59 400.6 49.57 229.11 100.57 14.46 49.57"/><polygon class="cls-3" points="196.6 141.19 400.6 141.19 400.6 18.34 110.6 24.7 109.6 37.12 98.6 24.7 13.6 24.7 15.6 141.19 181.6 141.19 196.6 141.19"/><g class="cls-4"><path class="cls-5" d="M389.9,89.52c-10,2.78-22.56-3.93-31.14,4.4-2.92,2.83-3.36,6.23-3.67,10.09-0.07.9,0.14,2.59-.37,3.4-1.4,2.22-4.86,1.51-6.93,1.39-3.22-.19-6.48-0.54-9.71-0.55-5.64,0-8,4.21-13.25,5.29-4.93,1-9.29,1.41-13.23,4.87-8.43,7.39-9,19.59-15.53,28.22-1.95,2.56,2.39,5.06,4.32,2.52,6.22-8.18,6.67-20.43,14.74-27.21,4.23-3.55,9.62-2.56,14.42-4.56,2.64-1.1,4.76-3.72,7.67-4.17s6.67,0.35,9.68.53c3.86,0.23,8.65,1.22,11.35-2.31,2.23-2.92,1.41-6.74,2.07-10.09,1.17-6,8.09-7.12,13.25-6.85,6,0.31,11.71,1.5,17.65-.15,3.1-.86,1.78-5.68-1.33-4.82h0Z" transform="translate(11.71 13.51)"/><path class="cls-5" d="M388.55,60.47c-12.93,6.87-27.95-1.59-41-4-11.51-2.14-23.46,0-32.49,7.8-4.71,4.09-7.07,9.17-9.69,14.69-3.64,7.69-9.67,9.47-17.08,12.32-12,4.61-21.63,13.26-29,23.63-9.75,13.68-15,29.92-20.23,45.73-1,3.06,3.82,4.38,4.82,1.33,5.86-17.88,11.94-36.55,24.75-50.82a56.1,56.1,0,0,1,21.69-15.31c6.41-2.44,13-4.26,17.08-10.21,2.27-3.3,3.41-7.18,5.35-10.66a26.6,26.6,0,0,1,8.76-9.32c7.4-4.83,16.15-5.92,24.72-4.35,14.8,2.7,30.18,11.31,44.85,3.51,2.84-1.51.32-5.83-2.52-4.32h0Z" transform="translate(11.71 13.51)"/><path class="cls-5" d="M398.28,25.66a376.09,376.09,0,0,0-61-6.68q-15.5-.4-31,0.54c-8.61.53-17.45,1.37-25.58,4.46-8.3,3.15-14.75,8.47-20.41,15.22-6.55,7.8-12.76,15.91-19.11,23.87q-4.9,6.13-9.8,12.27c-1.14,1.42-2.5,3.74-4.11,4.7-2.15,1.29-5.09.61-7.43,0.45-10.48-.71-20.95-1.47-31.42-2.21C184,78,182,83.86,184.9,86.8c5.31,5.47,12.9,15,2.86,19.77-6.6,3.17-14.13,3.92-20.81,7.1-14,6.65-24.47,18.84-29.9,33.18-2.28,6,7.38,8.63,9.64,2.66a49.62,49.62,0,0,1,15.36-21c7-5.64,14.84-8,23.32-10.49,7.16-2.09,14.53-5.61,16.88-13.3,2.95-9.66-4-18.46-10.28-25l-3.54,8.54c10.47,0.74,20.95,1.5,31.42,2.21,4.32,0.29,8.64.56,12.47-1.82,3.57-2.21,6-6.12,8.58-9.33l18.37-23c5.76-7.2,11.31-15.69,19.43-20.43,7.79-4.56,17.1-5.67,25.94-6.27,9.57-.66,19.18-0.86,28.76-0.72a359.57,359.57,0,0,1,62.21,6.4c6.29,1.2,9-8.43,2.66-9.64h0Z" transform="translate(11.71 13.51)"/><path class="cls-5" d="M222.55-8.08A43.65,43.65,0,0,0,199,20.23a43.13,43.13,0,0,0-1.34,9.1c-0.13,3.15.58,6.87-1.34,9.6-2.72,3.84-9,5.12-13.09,6.89C178.11,48,173.69,51,171,56c-1.55,2.83-2.59,5.71-4.85,8.08a30.15,30.15,0,0,1-7.68,5.4c-5.49,3-11.41,5.19-16.55,8.8A49.31,49.31,0,0,0,129,91.65c-8.29,12.58-11.35,27.94-13.95,42.53-1.12,6.29,8.51,9,9.64,2.66,2.21-12.41,4.59-25.37,10.76-36.53a39.59,39.59,0,0,1,12-13.83c5-3.39,10.68-5.54,16-8.39,4.88-2.63,9.41-5.93,12.61-10.51,1.83-2.62,2.66-5.9,4.62-8.4,1.48-1.89,3.78-3,5.91-4,9.68-4.53,19.91-7.22,20.87-19.74,0.57-7.42.56-13.87,4.36-20.59A34.1,34.1,0,0,1,227.6.55c5.84-2.68.77-11.31-5-8.63h0Z" transform="translate(11.71 13.51)"/><path class="cls-5" d="M179.33-13.49c-18,1.14-36.48,7.33-50.23,19.33-7.59,6.63-9,15.32-9.44,24.9-0.33,7.54-2.43,14.15-8.1,19.4S98.4,56,91.49,58.68C82.93,62,79.34,67.83,75,75.49c-4.5,7.93-10.79,14.57-14.75,22.86a81.38,81.38,0,0,0-7.18,23.14,83.69,83.69,0,0,0,10.21,54.87c4.89,8.32,17.86.78,13-7.57a68.34,68.34,0,0,1-8.89-41.47,66.31,66.31,0,0,1,5.21-20c3.31-7.52,8.46-13.66,13-20.42,4-5.9,5.34-12.32,12.62-14.73,6.6-2.18,13.35-3.48,19.16-7.55a40.05,40.05,0,0,0,13.85-16.74c3.21-7.34,2.9-14.52,3.76-22.29,1-9,10.21-13.49,17.58-17.11a71.38,71.38,0,0,1,26.82-7c9.59-.61,9.66-15.61,0-15h0Z" transform="translate(11.71 13.51)"/><path class="cls-5" d="M123.34,3.54c-15.12,0-17.51,17.26-20.8,28.31-2.59,8.69-8.18,15-16.07,19.33-6.4,3.5-14,4.35-20.17,8.18C60.65,62.85,58,68.69,55.36,74.5,51.94,81.94,47,87.31,41.51,93.29,30.83,104.94,29.4,118.79,29.17,134a1.5,1.5,0,0,0,3,0c0.11-7.43.22-15,2.14-22.21,2.08-7.83,6.57-13.49,12-19.25,4.46-4.7,8.22-9.29,11-15.18,3.33-7.06,6-13.73,13.67-17,5.86-2.5,12-3.77,17.62-6.95a36.9,36.9,0,0,0,12.46-11.11c7-10.3,5.27-35.79,22.26-35.75a1.5,1.5,0,0,0,0-3h0Z" transform="translate(11.71 13.51)"/><path class="cls-5" d="M98.52,5.6q-22.05,17-44.11,34C42,49.23,30.21,59.23,21.23,72.2A115.2,115.2,0,0,0,2.08,153.57c0.27,1.9,3.16,1.09,2.89-.8A112.12,112.12,0,0,1,24.72,72.44c9.39-13.12,21.88-23,34.54-32.77L100,8.19c1.51-1.16,0-3.77-1.51-2.59h0Z" transform="translate(11.71 13.51)"/><path class="cls-5" d="M56.6,5.18C47.44,4.11,36.74,11.93,30,17.34A91.88,91.88,0,0,0,9.84,40.17c-13,20.5-18.11,44.71-21.53,68.4-0.27,1.89,2.62,2.7,2.89.8C-5.63,87.43-1.07,65.12,10,45.67A93,93,0,0,1,28,23,74,74,0,0,1,40,14c4.78-2.85,10.95-6.51,16.63-5.85,1.91,0.22,1.9-2.78,0-3h0Z" transform="translate(11.71 13.51)"/><path class="cls-5" d="M398.75,49.5c-13.36,12.81-33.3,4-48.52.47-14.89-3.44-27.79-1-39.13,9.41-10.69,9.83-18.37,22.51-31.12,30-7.11,4.2-14.71,7.43-21,12.86a60.51,60.51,0,0,0-12.82,15.8c-8.39,14.56-11.93,31.37-15.09,47.69-0.37,1.89,2.53,2.69,2.89.8,2.84-14.68,5.95-29.69,12.73-43.14A61.53,61.53,0,0,1,260,105.35c6.36-5.77,14.2-9,21.51-13.35,12.18-7.2,19.9-18.89,29.78-28.64,5-4.93,10.7-9.27,17.57-11.11,9.89-2.66,20.06.33,29.6,3,13.88,3.88,30.82,7.5,42.42-3.62,1.4-1.34-.73-3.46-2.12-2.12h0Z" transform="translate(11.71 13.51)"/><path class="cls-5" d="M392,81.74l-21.4,3c-5.07.7-10.66,1.08-15.18,3.74-4.79,2.82-5.17,9-9.68,11.68-4.93,2.91-11.69,1.6-17.17,2.37-23,3.25-37,24.05-44.19,44.32-0.65,1.82,2.25,2.61,2.89.8,4-11.27,9.59-22.26,18.46-30.51,9.16-8.53,19.42-11.5,31.62-12.17,3.76-.21,7.85-0.6,11-2.93C352,99.3,352.4,94.45,356,91.71c4.41-3.35,11.12-3.52,16.38-4.25l20.43-2.83c1.9-.26,1.09-3.15-0.8-2.89h0Z" transform="translate(11.71 13.51)"/></g></svg>