<svg id="hammer" xmlns="http://www.w3.org/2000/svg" viewBox="0 0 270.09 578.14"><defs><style>.cls-1{fill:#4c4e51;}.cls-2{fill:#bf530a;}.cls-3{fill:#a04608;}.cls-4{fill:none;stroke:#818284;stroke-linecap:round;stroke-linejoin:round;stroke-width:2px;}.cls-5{fill:#2d3033;}</style></defs><title>hammer</title><path class="cls-1" d="M271.09,107.49h0c-10.39-59.3-50-104.65-137.88-106.42-0.9,0-1.8-.06-2.72-0.06h-2.68l0,0c-20.43.41-30.17,5.46-30.17,5.46A56.24,56.24,0,0,1,62.49,18.78,56.24,56.24,0,0,1,27.32,6.49H1v66H27.47c7.41-7.41,16.56-13.59,35-13.59A56.22,56.22,0,0,1,93.17,68s17.7,9.93,17.7,50.68h54.37c0-48.06,14.1-53.54,23-55.48,40.84-8.87,59.36,17.16,66.51,32.37A21.39,21.39,0,0,0,271.09,107.49Z" transform="translate(-1 -1)"/><path class="cls-2" d="M155.8,579.14H119.46c-14.54,0-26.16-12.09-23-26.62l11.94-432.15a4.34,4.34,0,0,1,4.34-4.22h49.81a4.34,4.34,0,0,1,4.34,4.22l11.94,432.15C182,567.05,170.34,579.14,155.8,579.14Z" transform="translate(-1 -1)"/><path class="cls-3" d="M126.12,230.81l-6,118.88-3,59.19q-0.38,7.46-.76,14.92c-0.18,3.59-.2,7,2.32,9.8s5.82,4.23,8.33,6.81a24.29,24.29,0,0,1,5.86,10.11c1.19,4.08,1.51,8.76-.29,12.72-2.24,4.93-6.78,5.59-11.1,2.6-3.54-2.45-7.91-6.72-7.39-11.43,0.21-1.92,1.3-4.23,3.3-4.83,2.35-.7,5.15,1.6,4.31,4-0.63,1.83,2.27,2.62,2.89.8,1.09-3.18-1-6.34-4-7.5-3.19-1.24-6.45.32-8.17,3.14-4.45,7.31,2.48,15.46,8.58,19.05,7.51,4.43,14.21-1,15.52-8.73,1.38-8.13-2.11-17-8-22.63-2.82-2.72-8-4.61-9.09-8.64-0.71-2.56-.13-5.69,0-8.3l0.45-9,1.74-34.32,3.51-69.14,3.94-77.59c0.1-1.93-2.9-1.92-3,0h0Z" transform="translate(-1 -1)"/><path class="cls-3" d="M140.9,466.66c0.77,6.48-3.21,13.21-9.64,15s-13.66-2-16.09-8.17a1.51,1.51,0,0,0-2.95.4l-1.41,54.57c0,1.93,3,1.93,3,0l1.41-54.57-2.95.4c3,7.46,11.15,12.23,19.12,10.43s13.45-10.09,12.5-18.08c-0.23-1.89-3.23-1.92-3,0h0Z" transform="translate(-1 -1)"/><path class="cls-3" d="M141.82,175.74q-1.9,51.53-1.49,103.11,0.12,14.7.43,29.39c0,1.93,3,1.93,3,0q-1.08-51.55.16-103.12,0.36-14.69.9-29.38c0.07-1.93-2.93-1.93-3,0h0Z" transform="translate(-1 -1)"/><path class="cls-3" d="M150.49,326.23a43.75,43.75,0,0,0-7.84,19.6c-0.79,5.74-1.11,13.43,2.18,18.55a7.27,7.27,0,0,0,12.17.51c4.05-5.54.33-12.3-3.9-16.4A1.5,1.5,0,0,0,151,350.6c3.17,3.08,7.45,9.59,2.78,13.41-5.14,4.19-7.82-3.81-8.26-7.53a41.11,41.11,0,0,1,7.59-28.74c1.13-1.57-1.47-3.07-2.59-1.51h0Z" transform="translate(-1 -1)"/><path class="cls-3" d="M135.71,342.25c-4.47,12.48-1.33,28.15,11.17,34.78a16.54,16.54,0,0,0,2.87,1.22c1.73,0.53,3.93.34,5.33,1.58,1.56,1.39,1.45,4,1.61,5.89q0.28,3.46.53,6.91c0.69,9.22,1.32,18.45,2,27.67,0.71,10.3,1.42,20.61,2.26,30.9,0.15,1.91,3.16,1.93,3,0-1.47-18.18-2.59-36.38-3.92-54.57-0.31-4.25-.58-8.51-1-12.75-0.34-3.52-1.4-6.68-5.11-7.74-2.61-.74-4.8-0.9-7.15-2.36a22,22,0,0,1-6.28-6.06c-5.17-7.39-5.36-16.39-2.39-24.69,0.65-1.82-2.25-2.61-2.89-.8h0Z" transform="translate(-1 -1)"/><path class="cls-3" d="M146.43,507.83v65.38a1.5,1.5,0,0,0,3,0V507.83a1.5,1.5,0,0,0-3,0h0Z" transform="translate(-1 -1)"/><path class="cls-3" d="M129.85,499.23v41.29a1.5,1.5,0,0,0,3,0V499.23a1.5,1.5,0,0,0-3,0h0Z" transform="translate(-1 -1)"/><path class="cls-3" d="M123.43,118.37q0.46,34.47-2,68.88c-0.14,1.93,2.86,1.92,3,0q2.5-34.38,2-68.88a1.5,1.5,0,0,0-3,0h0Z" transform="translate(-1 -1)"/><line class="cls-4" x1="26.25" y1="14.57" x2="26.25" y2="59.51"/><path class="cls-4" d="M157.37,11.25s-41.43-4.72-54,0c0,0-6.39,14.44-42.52,14.44" transform="translate(-1 -1)"/><path class="cls-3" d="M140.06,118.65h21.8a3.51,3.51,0,0,1,3.51,3.51l1.53,84.27Z" transform="translate(-1 -1)"/><path class="cls-5" d="M225,59.82s-67.78-31-67.78,48.36H118.16s3.5-44-27-53C91.16,55.18,135.07-3.15,225,59.82Z" transform="translate(-1 -1)"/></svg>