<svg id="road_2" xmlns="http://www.w3.org/2000/svg" xmlns:xlink="http://www.w3.org/1999/xlink" viewBox="0 0 590.97 868.16"><defs><style>.cls-1,.cls-10,.cls-6,.cls-7,.cls-8,.cls-9{fill:none;}.cls-2{clip-path:url(#clip-path);}.cls-3{clip-path:url(#clip-path-2);}.cls-4{fill:#818284;}.cls-5{fill:#45aa1f;}.cls-6{stroke:#aeaeaf;stroke-width:30px;}.cls-10,.cls-6,.cls-7,.cls-8,.cls-9{stroke-miterlimit:10;}.cls-7{stroke:#818284;stroke-width:14px;}.cls-8{stroke:#dbdbdb;stroke-width:13px;stroke-dasharray:24 1;}.cls-10,.cls-9{stroke:#fff;}.cls-9{stroke-width:5px;}.cls-10{stroke-width:3px;stroke-dasharray:24 20;}.cls-11{fill:#aa4500;}.cls-12{fill:#d8bb73;}.cls-13{fill:#af9656;}.cls-14{fill:#f9e1a5;}.cls-15{fill:#c9570a;}.cls-16{fill:#53b7b4;}.cls-17{fill:#3f1b03;}</style><clipPath id="clip-path" transform="translate(-57.46 -40)"><rect class="cls-1" x="50" y="34" width="602.87" height="720.64"/></clipPath><clipPath id="clip-path-2" transform="translate(-57.46 -40)"><rect class="cls-1" x="18" y="-24" width="694" height="801"/></clipPath></defs><title>algorithms_backGround</title><g class="cls-2"><g class="cls-3"><rect class="cls-4" x="72.11" y="38.03" width="438.52" height="763.46"/><rect class="cls-5" x="148.54" y="124" width="253.17" height="744.16" rx="71.11" ry="71.11"/><path class="cls-6" d="M423.16,130.49" transform="translate(-57.46 -40)"/><path class="cls-4" d="M213.31,754.64H57.46V201.26A161.26,161.26,0,0,1,218.73,40h111V175.21H213.31V754.64Z" transform="translate(-57.46 -40)"/><path class="cls-4" d="M648.44,754.64H490.59V175.21H320.45V40H487.17A161.26,161.26,0,0,1,648.44,201.26V754.64Z" transform="translate(-57.46 -40)"/><path class="cls-7" d="M208.4,837.37V214.82a46.08,46.08,0,0,1,46.08-46.08h73" transform="translate(-57.46 -40)"/><path class="cls-7" d="M459.44,838.37V215.82a46.08,46.08,0,0,0-46.08-46.08h-73" transform="translate(-57.46 -40)"/><path class="cls-8" d="M208.4,838.37V215.82a46.08,46.08,0,0,1,46.08-46.08h78" transform="translate(-57.46 -40)"/><path class="cls-8" d="M458.44,838.37V215.82a46.08,46.08,0,0,0-46.08-46.08h-79" transform="translate(-57.46 -40)"/><line class="cls-9" x1="462.54" y1="364.39" x2="412.24" y2="364.39"/><line class="cls-9" x1="462.54" y1="483.73" x2="412.24" y2="483.73"/><line class="cls-9" x1="462.54" y1="603.06" x2="412.24" y2="603.06"/><line class="cls-9" x1="462.54" y1="245.06" x2="412.24" y2="245.06"/><path class="cls-10" d="M129.23,785.26V218.72A110.72,110.72,0,0,1,240,108H330.8" transform="translate(-57.46 -40)"/><path class="cls-10" d="M570.89,785.26V218.72A110.72,110.72,0,0,0,460.17,108H338.7" transform="translate(-57.46 -40)"/></g></g><path class="cls-8" d="M328.47,280.24c0,3.25,9.89,41.76,9.89,41.76H451.69" transform="translate(-57.46 -40)"/><rect class="cls-11" x="176.12" y="136.71" width="203.62" height="116.98"/><rect class="cls-12" x="180.93" y="141.46" width="193.26" height="101.26"/><rect class="cls-12" x="187.58" y="132.76" width="56.78" height="3.95"/><rect class="cls-12" x="307.81" y="132.76" width="56.78" height="3.95"/><rect class="cls-12" x="410.79" y="228.13" width="56.78" height="3.95" transform="translate(611.81 -249.07) rotate(90)"/><rect class="cls-12" x="203.22" y="228.13" width="56.78" height="3.95" transform="translate(404.25 -41.51) rotate(90)"/><rect class="cls-13" x="190.54" y="150.93" width="174.05" height="84.51"/><polygon class="cls-14" points="348.96 228.7 206.16 228.7 200.7 220.83 200.7 174.02 354.42 174.02 354.42 220.87 348.96 228.7"/><rect class="cls-12" x="200.7" y="161.71" width="153.72" height="58.94"/><polygon class="cls-15" points="176.12 253.69 190.53 265.53 364.59 265.53 379.74 253.69 176.12 253.69"/><polygon class="cls-14" points="316.14 261.58 359.88 261.58 359.88 257.64 316.71 257.64 316.14 261.58"/><polygon class="cls-14" points="359.88 261.58 356.59 268.08 315.57 268.08 316.14 261.58 359.88 261.58"/><polygon class="cls-16" points="356.8 261.58 354.83 265.53 318.62 265.53 319.23 261.58 356.8 261.58"/><polygon class="cls-14" points="339.06 259.61 338.22 266.81 335.83 266.81 336.59 259.61 339.06 259.61"/><polygon class="cls-14" points="279.76 258.32 279.76 258.21 278.66 258.26 277.56 258.21 277.56 258.32 256.79 259.4 258.47 268.08 277.56 268.08 279.76 268.08 298.85 268.08 300.54 259.4 279.76 258.32"/><polygon class="cls-14" points="241.16 261.58 197.42 261.58 197.42 257.64 240.59 257.64 241.16 261.58"/><polygon class="cls-14" points="197.42 261.58 200.71 268.08 241.74 268.08 241.16 261.58 197.42 261.58"/><polygon class="cls-16" points="200.51 261.58 202.47 265.53 238.68 265.53 238.07 261.58 200.51 261.58"/><polygon class="cls-14" points="218.24 259.61 219.08 266.81 221.47 266.81 220.72 259.61 218.24 259.61"/><rect class="cls-14" x="256.78" y="255.45" width="43.73" height="3.95"/><polygon class="cls-17" points="261.33 268.08 260.03 259.61 297 259.61 295.91 268.08 261.33 268.08"/></svg>