<?xml version="1.0" encoding="utf-8"?>
<!-- Generator: Adobe Illustrator 19.2.1, SVG Export Plug-In . SVG Version: 6.00 Build 0)  -->
<svg version="1.1" id="bassoRightleg" xmlns="http://www.w3.org/2000/svg" xmlns:xlink="http://www.w3.org/1999/xlink" x="0px"
	 y="0px" viewBox="0 0 152 200" style="enable-background:new 0 0 152 200;" xml:space="preserve">
<style type="text/css">
	.st0{fill:url(#SVGID_1_);}
	.st1{fill:url(#SVGID_2_);}
	.st2{fill:url(#SVGID_3_);}
	.st3{fill:#E06326;}
	.st4{fill:#E07D35;}
	.st5{fill:url(#SVGID_4_);}
	.st6{fill:url(#SVGID_5_);}
	.st7{fill:url(#SVGID_6_);}
	.st8{fill:url(#SVGID_7_);}
	.st9{fill:url(#SVGID_8_);}
	.st10{clip-path:url(#SVGID_10_);}
	.st11{fill:url(#SVGID_11_);}
	.st12{fill:#F1EABE;}
	.st13{fill:url(#SVGID_12_);}
	.st14{fill:url(#SVGID_13_);}
	.st15{fill:url(#SVGID_14_);}
	.st16{fill:#1A1412;}
	.st17{fill:url(#SVGID_15_);}
	.st18{fill:#8C3841;}
</style>
<title>byte</title>
<linearGradient id="SVGID_1_" gradientUnits="userSpaceOnUse" x1="91.3562" y1="5.13" x2="91.3562" y2="25.44" gradientTransform="matrix(1 0 0 -1 -4 195.22)">
	<stop  offset="0.1" style="stop-color:#F58323"/>
	<stop  offset="0.17" style="stop-color:#E97924"/>
	<stop  offset="0.4" style="stop-color:#CA5E26"/>
	<stop  offset="0.6" style="stop-color:#B74E28"/>
	<stop  offset="0.73" style="stop-color:#B04828"/>
</linearGradient>
<path class="st0" d="M87.3,151.6c-3,0-6.3,2.6-6.1,5.5l3.6,40.2c0.1,1.5,1.3,2.7,2.9,2.7l0,0c1.5,0,2.7-1.1,2.8-2.5l2.8-40.5
	C93.6,154,90.3,151.6,87.3,151.6L87.3,151.6L87.3,151.6z"/>
<linearGradient id="SVGID_2_" gradientUnits="userSpaceOnUse" x1="74.8494" y1="-14.5697" x2="88.6394" y2="15.5303" gradientTransform="matrix(1 0 0 -1 0 200)">
	<stop  offset="0" style="stop-color:#72C9BF"/>
	<stop  offset="1" style="stop-color:#44A1A2"/>
</linearGradient>
<polygon class="st1" points="83.7,183.8 84.3,190.7 91,190.8 91.5,183.8 "/>
<linearGradient id="SVGID_3_" gradientUnits="userSpaceOnUse" x1="92.9445" y1="1.5756" x2="89.8244" y2="-1.5444" gradientTransform="matrix(1 0 0 -1 -4 195.22)">
	<stop  offset="0" style="stop-color:#657947"/>
	<stop  offset="1" style="stop-color:#59894C"/>
</linearGradient>
<path class="st2" d="M84.4,191.9l0.5,5.4c0.1,1.6,1.4,2.8,3,2.7c1.4-0.1,2.6-1.1,2.7-2.5l0.4-5.6H84.4z"/>
<path class="st3" d="M104.5,135.9c-1.8-0.9-2.7-3-2.3-4.9l0.3-1.5l0,0c0.5-2.4,2.8-4,5.2-3.5c0.4,0.1,0.8,0.2,1.2,0.4
	c8,4.3,22.1,16.9,20.9,52l0,0c0,0,0.1,7.6-1.6,8s-1.6-1.4-1.6-1.6s-0.2,1.3-1.3,1.3s-1.7-1.3-1.6-3c0,0-0.3,1.8-1.6,1.8
	c-1.7,0-1.7-1.9-1.7-1.9v-4.4C121.7,148.6,110.2,138.9,104.5,135.9z"/>
<path class="st4" d="M34.8,135.9c1.8-1,2.7-3,2.2-4.9l-0.3-1.5l0,0c-0.5-2.4-2.8-4-5.2-3.5c-0.4,0.1-0.8,0.2-1.2,0.4
	c-8,4.3-22.1,16.9-20.9,52l0,0c0,0-0.1,7.6,1.6,8s1.6-1.4,1.6-1.6s0.2,1.3,1.3,1.3s1.7-1.3,1.6-3c0,0,0.3,1.8,1.6,1.8
	c1.7,0,1.7-1.9,1.7-1.9v-4.4C17.5,148.6,29.1,138.9,34.8,135.9z"/>
<linearGradient id="SVGID_4_" gradientUnits="userSpaceOnUse" x1="30.251" y1="9.3192" x2="47.631" y2="29.8192" gradientTransform="matrix(1 0 0 -1 -4 195.22)">
	<stop  offset="0.1" style="stop-color:#F58323"/>
	<stop  offset="0.17" style="stop-color:#E97924"/>
	<stop  offset="0.4" style="stop-color:#CA5E26"/>
	<stop  offset="0.6" style="stop-color:#B74E28"/>
	<stop  offset="0.73" style="stop-color:#B04828"/>
</linearGradient>
<path class="st5" d="M36.2,151.4c-2.9,0-6.3,2.4-6.1,5.4l2.3,40.5c0.1,1.5,1.3,2.7,2.9,2.7l0,0c1.5,0,2.7-1.1,2.8-2.5l4.3-40.3
	C42.7,154.2,39.3,151.5,36.2,151.4L36.2,151.4L36.2,151.4z"/>
<linearGradient id="SVGID_5_" gradientUnits="userSpaceOnUse" x1="33.0576" y1="6.2407" x2="35.5076" y2="14.7107" gradientTransform="matrix(1 0 0 -1 0 200)">
	<stop  offset="0" style="stop-color:#72C9BF"/>
	<stop  offset="1" style="stop-color:#44A1A2"/>
</linearGradient>
<polygon class="st6" points="31.5,182.3 32,190.7 38.8,190.8 39.7,182.3 "/>
<linearGradient id="SVGID_6_" gradientUnits="userSpaceOnUse" x1="39.632" y1="0.5984" x2="37.562" y2="-2.0316" gradientTransform="matrix(1 0 0 -1 -4 195.22)">
	<stop  offset="0" style="stop-color:#657947"/>
	<stop  offset="1" style="stop-color:#59894C"/>
</linearGradient>
<path class="st7" d="M32.1,192.5l0.3,4.8c0.1,1.6,1.4,2.8,3,2.7c1.4-0.1,2.6-1.1,2.7-2.5l0.5-5.2L32.1,192.5z"/>
<linearGradient id="SVGID_7_" gradientUnits="userSpaceOnUse" x1="61.2944" y1="139.5052" x2="68.0644" y2="160.3152" gradientTransform="matrix(1 0 0 -1 -4 195.22)">
	<stop  offset="0" style="stop-color:#F58323"/>
	<stop  offset="0.46" style="stop-color:#EA7225"/>
	<stop  offset="1" style="stop-color:#E06326"/>
</linearGradient>
<path class="st8" d="M36.3,94.2c12.7,0,25.2,0.1,36.8-5.7l4.4-2.4c4.1-2.1,6.1-6.9,4.5-11.3c-0.8-2.4-5.8-12.3-6.4-14.5
	c-2-6.9-3.3-14-4.1-21.2c-0.6-4-4.4-6.7-8.4-6.1l-29.9,5c-3.5,0.6-6.1,6.9-6.1,10.5L27.5,85C27.6,89.9,31.4,94,36.3,94.2L36.3,94.2z
	"/>
<radialGradient id="SVGID_8_" cx="39.8088" cy="-34.6157" r="106.47" fx="9.8719" fy="-34.6157" gradientTransform="matrix(8.000000e-02 1 1.14 -9.000000e-02 99.59 63.61)" gradientUnits="userSpaceOnUse">
	<stop  offset="0.29" style="stop-color:#F58323"/>
	<stop  offset="0.59" style="stop-color:#C25622"/>
	<stop  offset="0.86" style="stop-color:#9A3321"/>
	<stop  offset="1" style="stop-color:#8A2521"/>
</radialGradient>
<path class="st9" d="M28.3,125.4l1.2,29.8c0.5,10.9,9.4,19.5,20.3,19.5h31.9c0,0,36.1-1.3,36.1-42.1S86.4,72.4,86.4,72.4l0,0
	c-10.7-6.7-23.4-9.5-35.9-7.7l-12.4,1.7c-6.2,0.9-10.8,6.3-10.7,12.5L28.3,125.4z"/>
<g>
	<defs>
		<path id="SVGID_9_" d="M28.3,125.4l1.7,40.4c0.2,4.9,4.3,8.8,9.2,8.8h42.6c0,0,36.1-1.3,36.1-42.1S86.4,72.4,86.4,72.4l0,0
			c-10.7-6.7-23.4-9.5-35.9-7.7l-12.4,1.7c-6.2,0.9-10.8,6.2-10.6,12.5L28.3,125.4z"/>
	</defs>
	<clipPath id="SVGID_10_">
		<use xlink:href="#SVGID_9_"  style="overflow:visible;"/>
	</clipPath>
	<g class="st10">
		
			<image style="overflow:visible;enable-background:new    ;" width="152" height="144" xlink:href="3CEB562EA98A282D.png"  transform="matrix(1 0 0 1 0 48.22)">
		</image>
	</g>
</g>
<linearGradient id="SVGID_11_" gradientUnits="userSpaceOnUse" x1="39.67" y1="35.9052" x2="120.48" y2="35.9052" gradientTransform="matrix(1 0 0 -1 -4 195.22)">
	<stop  offset="4.000000e-02" style="stop-color:#EDC944"/>
	<stop  offset="8.000000e-02" style="stop-color:#E9C238"/>
	<stop  offset="0.15" style="stop-color:#E4BA2D"/>
	<stop  offset="0.24" style="stop-color:#E2B626"/>
	<stop  offset="0.52" style="stop-color:#E1B524"/>
	<stop  offset="0.73" style="stop-color:#E2B626"/>
	<stop  offset="0.81" style="stop-color:#E4BA2D"/>
	<stop  offset="0.86" style="stop-color:#E9C238"/>
	<stop  offset="0.89" style="stop-color:#EDC944"/>
</linearGradient>
<path class="st11" d="M114.8,151.4H29.2c-0.2,0-0.3,0.2-0.3,0.4l0,0v3.1c0,0.2,0.2,0.4,0.3,0.4h0h22.2l3.8,7.8c0,0,0.9,4.2,8.7,4.2
	h28.6c0,0,5.3,0,7.2-4.2c1.2-2.7,2.3-5.9,3-7.8h10.8c0.1,0,0.3-0.1,0.3-0.2l1.4-3.1c0.1-0.2,0-0.4-0.2-0.4
	C114.9,151.4,114.9,151.4,114.8,151.4z"/>
<path class="st12" d="M59.6,155.8h35.7h0.3c1.5,0.1,3.7,0.8,4.3,2.9c0.1-0.1,0.1-0.3,0.2-0.4c0-3.1-3.1-3.9-4.8-4H59.6
	c-2.5,0-4.5,2-4.6,4.5c0,0.2,0.1,0.4,0.2,0.5C55.7,157.2,57.5,155.8,59.6,155.8z"/>
<linearGradient id="SVGID_12_" gradientUnits="userSpaceOnUse" x1="50.7937" y1="181.1112" x2="70.4143" y2="148.2006" gradientTransform="matrix(1 0 0 -1 -4 195.22)">
	<stop  offset="0" style="stop-color:#72C9BF"/>
	<stop  offset="1" style="stop-color:#44A1A2"/>
</linearGradient>
<path class="st13" d="M72,0c0,0-21.9,1.7-32.2,7.2s-12.9,23-12.6,41.5l44.7-7.5l-1.5-16.8l8.8-2.9c3-1,4.8-4.1,4.1-7.2
	c0,0-1.4-4.1-1.6-5s-0.7-4.8-0.7-4.8C80.3,1.8,78.1,0,75.5,0C75.5,0,72,0,72,0z"/>
<linearGradient id="SVGID_13_" gradientUnits="userSpaceOnUse" x1="67.3923" y1="173.5928" x2="57.4023" y2="159.0828" gradientTransform="matrix(1 0 0 -1 -4 195.22)">
	<stop  offset="0" style="stop-color:#44A1A2"/>
	<stop  offset="1" style="stop-color:#44A1A2;stop-opacity:0"/>
</linearGradient>
<path class="st14" d="M70.3,24.3c0,0-21,5.8-30.8,6c0,0-7.8,1.4-7.8,7.8v9.7l40.2-6.7L70.3,24.3z"/>
<linearGradient id="SVGID_14_" gradientUnits="userSpaceOnUse" x1="64.6409" y1="180.7575" x2="66.4009" y2="174.4775" gradientTransform="matrix(1 0 0 -1 -4 195.22)">
	<stop  offset="0" style="stop-color:#F8EDC8"/>
	<stop  offset="0.33" style="stop-color:#EEE4C1"/>
	<stop  offset="1" style="stop-color:#DFD6B6"/>
</linearGradient>
<path class="st15" d="M78.1,9.2c-0.1-0.7-0.4-1.4-0.8-2C76.3,5.9,71.7,3.4,59.4,7C45.4,11.1,42,14.7,43.4,20.5
	c1.3,5.5,12.3,3.3,17.2,2C70.8,19.8,79.4,16.5,78.1,9.2z"/>
<path class="st16" d="M64.4,13.7c0.9,3.6,1.6,6.5-0.6,7.1c-2,0.5-3-2.4-3.9-6s-1.6-6.5,0.6-7.1C62.4,7.3,63.5,10.1,64.4,13.7z"/>
<linearGradient id="SVGID_15_" gradientUnits="userSpaceOnUse" x1="65.1543" y1="-8.3809" x2="107.8243" y2="-8.3809" gradientTransform="matrix(1 -4.000000e-02 4.000000e-02 1 -5.3 125.87)">
	<stop  offset="0" style="stop-color:#561022"/>
	<stop  offset="1" style="stop-color:#8A2521"/>
</linearGradient>
<path class="st17" d="M79.7,117.2c-11.1,0.4-22.2,0.2-33.2-0.8c-1.7,0-3.3-0.4-4.9-1c-0.5-0.3-0.7-0.9-0.4-1.3c0,0,0,0,0,0
	c0.4-0.6,1-1.1,1.8-1.3c1.4-0.4,2.9-0.6,4.4-0.6c17.9-0.9,36,0.4,53.8-1.2c1.8-0.2,3.6-0.3,5.4-0.3c1,0,2.4,0.5,2.2,1.6
	c-0.3,0.6-0.8,1.1-1.5,1.2c-6.8,2.1-13.9,3.3-21.1,3.4C84.1,116.9,81.9,117.2,79.7,117.2z"/>
<path class="st18" d="M55.5,115.8c6.5,1.2,13.1,1.2,19.5-0.3C68.6,113.9,61.8,114,55.5,115.8z"/>
</svg>
