<svg id="eye" xmlns="http://www.w3.org/2000/svg" viewBox="0 0 43.45 11.69"><defs><style>.cls-1{fill:#f0e4c3;}</style></defs><title>carmine_Eye</title><path class="cls-1" d="M24.22,1.25c16.33-1.06,19.67,1.5,20.17,3.67s-1.5,6-19.17,7.33-23.5-.5-24.17-3.5S6.22,2.41,24.22,1.25Z" transform="translate(-1 -1)"/><path d="M26.88,6.08a19.09,19.09,0,0,0-1-4.93l-1.69.1-0.57,0a14.31,14.31,0,0,0-.43,5.29,18.83,18.83,0,0,0,1.58,5.7l0.42,0,1.38-.11A26.51,26.51,0,0,0,26.88,6.08Z" transform="translate(-1 -1)"/></svg>