<?xml version="1.0" encoding="utf-8"?>
<!-- Generator: Adobe Illustrator 20.0.0, SVG Export Plug-In . SVG Version: 6.00 Build 0)  -->
<svg version="1.1" id="Layer_1" xmlns="http://www.w3.org/2000/svg" xmlns:xlink="http://www.w3.org/1999/xlink" x="0px" y="0px"
	 viewBox="0 0 99 99.7" style="enable-background:new 0 0 99 99.7;" xml:space="preserve">
<style type="text/css">
	.st0{fill:#637377;}
	.st1{fill:#965A36;}
	.st2{fill:#AD7D54;}
	.st3{fill:#7F4532;}
	.st4{fill:none;stroke:#5E2626;stroke-width:2;stroke-miterlimit:10;}
	.st5{fill:#CE5829;}
	.st6{fill:#993714;}
	.st7{fill:#EA8C6C;}
	.st8{fill:#919191;}
	.st9{fill:#494C4C;}
	.st10{fill:#DCDCDC;}
</style>
<rect x="27.8" y="45.2" class="st0" width="48.7" height="43.8"/>
<rect x="27.8" y="12.5" class="st1" width="48.7" height="73.1"/>
<polygon class="st2" points="54.6,29.5 54.6,14.2 76.5,14.2 76.5,12.5 53,12.5 53,29.5 "/>
<polygon class="st3" points="51.4,49.8 49,49.8 49,32.9 51.4,31.1 "/>
<polygon class="st3" points="51.4,29.5 49,29.5 49,14.2 51.4,12.5 "/>
<rect x="74.1" y="31.1" class="st3" width="2.4" height="18.7"/>
<polygon class="st2" points="29.4,29.5 29.4,14.2 49,14.2 51.4,12.5 27.8,12.5 27.8,29.5 "/>
<polygon class="st2" points="54.6,49.8 54.6,32.9 74.1,32.9 76.5,31.1 53,31.1 53,49.8 "/>
<polygon class="st2" points="29.4,49.8 29.4,32.9 49,32.9 51.4,31.1 27.8,31.1 27.8,49.8 "/>
<polygon class="st3" points="51.4,68.4 49,68.4 49,51.6 51.4,49.8 "/>
<polygon class="st2" points="29.4,68.4 29.4,51.5 49,51.5 51.4,49.8 27.8,49.8 27.8,68.4 "/>
<polygon class="st2" points="54.5,68.4 54.5,51.5 76.5,51.5 76.5,49.8 52.9,49.8 52.9,68.4 "/>
<polygon class="st2" points="49.8,85.5 49.8,70.2 27.8,70.2 27.8,68.4 51.4,68.4 51.4,85.5 "/>
<polygon class="st2" points="74.9,85.5 74.9,70.2 52.9,70.2 52.9,68.4 76.5,68.4 76.5,85.5 "/>
<g>
	<g>
		<line class="st4" x1="27.8" y1="30.3" x2="76.5" y2="30.3"/>
		<line class="st4" x1="27.8" y1="49" x2="76.5" y2="49"/>
		<line class="st4" x1="27.8" y1="67.7" x2="76.5" y2="67.7"/>
	</g>
	<line class="st4" x1="52.2" y1="85.5" x2="52.2" y2="12.5"/>
</g>
<polygon class="st5" points="76.5,42.8 27.8,62.7 27.8,86.6 76.5,86.6 "/>
<polygon class="st6" points="74.1,43.8 74.1,86.6 76.5,86.6 76.5,42.8 "/>
<rect x="27.8" y="62.7" class="st7" width="1.6" height="23.9"/>
<rect x="27.8" y="86.6" class="st8" width="1.6" height="2.4"/>
<rect x="74.1" y="86.6" class="st9" width="2.4" height="2.4"/>
<path class="st6" d="M41,73.9c0,0-7.7-2.3-10-10.4c0,0,9.7-10.6,45.5-20.7C76.5,42.8,47,55,41,73.9z"/>
<path class="st10" d="M37.8,73.1c0,0-7.7-2.3-10-10.4c0,0,12.9-9.8,48.7-19.9C76.5,42.8,43.8,54.2,37.8,73.1z"/>
<polygon class="st3" points="76.5,29.5 74.1,29.5 74.1,14.2 76.5,12.5 "/>
</svg>
