<?xml version="1.0" encoding="utf-8"?>
<!-- Generator: Adobe Illustrator 20.0.0, SVG Export Plug-In . SVG Version: 6.00 Build 0)  -->
<svg version="1.1" id="Layer_1" xmlns="http://www.w3.org/2000/svg" xmlns:xlink="http://www.w3.org/1999/xlink" x="0px" y="0px"
	 viewBox="0 0 92 104.8" style="enable-background:new 0 0 92 104.8;" xml:space="preserve">
<style type="text/css">
	.st0{fill:#F484D4;}
	.st1{fill:#B7639F;}
	.st2{fill:#FFFFFF;}
	.st3{opacity:0.2;fill:#3B4650;enable-background:new    ;}
	.st4{fill:#D687C4;}
	.st5{fill:#F9A5E5;}
	.st6{fill:#FFB666;}
	.st7{fill:#E26AC6;}
	.st8{opacity:0.2;fill:#7A4650;enable-background:new    ;}
</style>
<g id="iceCream">
	<path class="st0" d="M45.8,34.2H14.7L20,88c0,0,5,6.9,25.8,6.9S71.6,88,71.6,88L77,34.2H45.8z"/>
	<ellipse class="st0" cx="46" cy="17" rx="36" ry="7"/>
	<path class="st1" d="M45.8,31.2H14.7L20,85c0,0,5,6.9,25.8,6.9S71.6,85,71.6,85L77,31.2H45.8z"/>
	<path class="st2" d="M45.8,26.2l-33.3-1.5l5.8,58.9c0,0,5.3,7.3,27.5,7.3s27.5-7.3,27.5-7.3l5.8-58.9L45.8,26.2z"/>
	<path class="st1" d="M45.7,43.5c-8.7,0-17-0.8-24.6-2.2l3.6,36.5c0,0,4.1,5.7,21.2,5.7s21.2-5.7,21.2-5.7l3.6-36.5
		C63,42.7,54.5,43.5,45.7,43.5z"/>
	<path class="st3" d="M79.2,24.6l-33.3,1.5l-33.3-1.5l0.4,4.1c8.5,5.4,21,7,32.8,7c7.9,0,10.9,0,18-1.1c0.3,1.8-2.4,47.8-4.5,55.2
		c8.5-1.5,12.8-4.4,14.2-6.3L79.2,24.6z"/>
	<path class="st0" d="M10,25.7c0,1,0.7,1.9,1.7,2.3c9.1,3.1,21.1,5,34.3,5c13.1,0,25.1-1.9,34.2-5c1.1-0.4,1.9-1.4,1.9-2.6v-7.7
		c0-1.4-1.1-2.6-2.6-2.6H45.8H12.6c-1.4,0-2.6,1.1-2.6,2.6V25.7z"/>
	<path class="st3" d="M46,33c13.1,0,25.1-1.9,34.2-5c1.1-0.4,1.9-1.4,1.9-2.6v-7.7c0-1.4-1.1-2.6-2.6-2.6H45.8L46,33z"/>
	<path class="st0" d="M45.9,73.1"/>
	<path class="st4" d="M29,42.5c-2.7-0.3-5.4-0.7-8-1.2l3.6,36.5c0,0,1.5,2.1,6.5,3.7L29,42.5z"/>
	<ellipse class="st5" cx="46" cy="17" rx="36" ry="7"/>
	<g>
		<path class="st6" d="M54.7,64.1l-20.9,15c-0.4,0.3-0.9-0.1-0.7-0.6L43.6,55L54.7,64.1z"/>
	</g>
	<ellipse class="st1" cx="45.9" cy="16.5" rx="32" ry="4.5"/>
	<ellipse class="st7" cx="45.8" cy="17.2" rx="31.1" ry="3.8"/>
</g>
<g>
	<g>
		<ellipse transform="matrix(0.5896 -0.8077 0.8077 0.5896 -24.5309 64.947)" class="st2" cx="51.6" cy="56.6" rx="9.9" ry="9.9"/>
		<path class="st2" d="M39.8,53.5c-0.9,0.9-0.7,2.7,0.3,3.5c-1.2,1.6-0.7,4.2,1,5.2c0.3,0.2,0.6,0.3,0.7,0.6
			c0.1,0.3,0.1,0.6,0.1,0.9c-0.1,1.9,1.7,3.7,3.6,3.5c0.4,0,0.8-0.1,1.2,0c0.3,0.2,0.5,0.5,0.7,0.8c1.2,1.6,3.7,2.1,5.4,0.9
			c0.2-0.2,0.5-0.4,0.8-0.5c0.4-0.1,0.8-0.1,1.2-0.1c1.2-0.1,2-1.2,3-1.8c0.3-0.2,0.7-0.3,1-0.6c0.7-0.8,0-2.1-1-2.5
			s-2.1-0.2-3.1-0.3c-2.3-0.1-4.4-1.1-6.4-2.4c-1.5-1-3-2.2-3.7-3.9C43.9,55.5,41.9,51.4,39.8,53.5z"/>
	</g>
	<g>
		<path class="st8" d="M56.9,50.9L56.9,50.9C56.9,51,56.9,51,56.9,50.9z"/>
		<path class="st8" d="M49.9,67.3C49.8,67.3,49.8,67.3,49.9,67.3C49.8,67.3,49.8,67.3,49.9,67.3z"/>
		<path class="st8" d="M49.1,68.9c0.1,0.1,0.3,0,0.4,0c-0.1,0-0.1,0-0.2,0C49.3,68.9,49.2,68.9,49.1,68.9z"/>
		<g>
			<path class="st8" d="M57.3,51c0-0.1-0.3-0.3-0.3-0.3c-0.2,0,0.3,0.5,0.3,0.5C57.3,51.1,57.3,51.1,57.3,51z"/>
			<path class="st8" d="M56.4,58.9c0-0.1,0.1-0.1,0.1-0.2C56.5,58.7,56.4,58.8,56.4,58.9z"/>
			<path class="st8" d="M57.5,48.5c-0.5-0.3-1-0.6-1.5-0.9c0.5,0.5,1.1,0.9,1.6,1.4c0.5,0.5,0.9,1.1,1.2,1.8c0.7,1.3,1,2.8,1,4.3
				c-0.1,2.3-1.5,6.6-4.4,6.6c0.2,0,0.6-0.3,0.6-0.5c-0.2,0-0.5,0.1-0.7,0.2c-0.2,0.1-1.2,0.4-1.4,0.2c0.2,0,0.4-0.2,0.4-0.4
				c-0.2,0-0.4,0.3-0.6,0.3c-0.4,0.1-0.6-0.2-1,0c0.1-0.1,0.6-0.3,0.6-0.4c-0.3,0.2-1.6,0.4-1.9,0.1c0.4-0.4,1.1-0.1,1.7-0.3
				c0.4-0.1,0.5-0.3,0.9-0.2c0.4,0.1,0.5,0.4,1,0.4c0.8-0.1,1.8-1.1,2.3-1.8c0.3-0.4,0.1-0.5,0.2-0.8c0.1-0.3,0.4-0.4,0.6-0.7
				c0.4-0.6,0.7-1.4,0.8-2.1c0.1-0.6,0.6-3.3-0.4-3.3c-0.1,0,0.1,0.5,0.1,0.6c0,0.2-0.1,0.5-0.2,0.7c-0.2-0.2,0-0.5-0.2-0.7
				c-0.5,0.4-0.4-0.2-0.5-0.5c-0.1-0.3-0.2-0.6-0.3-0.9c-0.1-0.1-0.3-0.2-0.3-0.3c0,0.2,0.2,0.5,0.2,0.6c0.1,0.5,0.1,1,0.1,1.5
				c0,0.2-0.3,2.1-0.5,2.1c0.4,0,0.7-0.5,0.8-0.7c0.1-0.3,0.1-1,0.3-1c0.1,0.3,0.2,0.5,0.1,0.9c-0.1,0.5-0.3,1.1-0.6,1.6
				c-0.1,0.2-0.2,0.4-0.4,0.6c0,0-0.4,0.2-0.4,0.2c-0.1,0.3,0.5-0.1,0.6-0.1c0.1,0,0.7-0.8,0.5-0.9c0.1,0.1,0.2,0,0.2-0.1
				c0,0.5,0,0.8-0.2,1.3c-0.1,0.3-0.3,0.7-0.5,0.9c0-0.2,0,0-0.1-0.1c0,0.3-0.3,0.5-0.5,0.7c-0.3,0.5-0.8,1-1.2,1.4
				c-0.3,0.2-1.2,0.7-0.6,0.1c0.4-0.4,1-0.9,1.2-1.4c-0.1,0.2-1.7,1.5-1.7,1.1c0.4-0.2,0.7-0.6,0.9-1c0-0.1,0.5-1.2,0.3-1.2
				c-0.3,1-1.2,1.8-2.1,2.2c-0.3,0.2-0.7,0.4-1.1,0.5c-0.3,0.1-0.8,0.2-1.1,0.2c0.1,0,0.2,0,0.2,0.1c-0.2,0-1.6,0.1-1.6-0.2
				c0,0.5,1.2,0.5,1.4,0.6c-0.3,0-1-0.1-1.3,0C50,61.4,50.3,61.8,50,62c-0.1,0.1-0.4-0.1-0.6-0.1c0,0,0.1,0.1,0.1,0.1
				c-0.3,0-1.3-0.9-1.2-1.2c0.1-0.1,0.2,0.3,0.3,0.3c0.4,0.1,0.8,0.1,1.2,0.1c-0.3,0-0.7-0.3-0.9-0.4c-0.3-0.2-0.8-0.4-1.1-0.6
				c-0.4-0.2-0.7-0.9-1-1c-0.6-0.3,0.4,1.4,0.6,1.4c0,0,0,0.1,0,0.1c-0.4-0.2-0.7-0.6-1.1-0.8c-0.2-0.1-0.5-0.2-0.7-0.2
				c-0.5-0.1-1-0.2-1.4-0.5c-0.2-0.1-0.3-0.4-0.5-0.5c-0.2-0.2-0.2-0.1-0.3-0.4c-0.1-0.1-0.1-0.5-0.2-0.7c-0.3-0.5-0.5-1.1-0.5-1.8
				c-0.1,0-0.2,0.1-0.2,0.2c-0.2-1.6,0.1-3.3,0.8-4.8c-1.6,2.5-2.1,5.7-1.2,8.5c0.4,1.4,1.2,2.7,2.2,3.8c0.2,0.2,1.5,1.1,1.6,1.4
				c0,0.5-0.8-0.1-0.9-0.3c0.3,0.6,0.8,0.8,1.4,1c0.3,0.1,0.4-0.1,0.4,0.4c0-0.1-0.3-0.1-0.4-0.2c-0.2,0.6-1.1,0.6-1.7,0.6
				c0.3,0.1,0.9,0.1,1.2,0.2c0.2,0,0.6-0.1,0.8-0.1c0.3,0.1,0.1,0.1,0.3,0.3c0.1,0.2,0.2,0.4,0.3,0.6c0.1,0.1,0.3,0.1,0.5,0.2
				c-0.5-0.3-0.5-2,0.4-1c0.4,0.5,0.9,0.6,1.6,0.6c-0.3,0-0.7-0.2-0.9-0.4c0,0-0.4-0.7-0.3-0.7c0.5,0.2,0.7,0.4,1.2,0.4
				c0.4,0,0.8,0,1.2-0.1c0,0.2-0.2,0.4-0.2,0.5c0.1,0.1,0.1,0.2,0.1,0.3c-0.1,0.1-0.1,0.2-0.1,0.3c-0.2,0.6-0.6,0.7-1,1.1
				c0.3,0,0.8-0.2,1-0.4c0.3-0.2,0.2-0.5,0.3-0.8c0.2-0.3,0.8-0.5,0.4-1c0.4,0,0.4,0,0.6,0.3c0.1,0.2,0.1,0.5,0.1,0.6
				c0,0.1-0.2,0.2-0.2,0.2c-0.1,0.2,0,0.5-0.2,0.8c-0.3,0.4-0.7,0.3-1,0.6c1.5,0,2.7-1.3,1.3-2.4c0.4,0.1,0.9-0.2,1.3-0.2
				c0.2,0,0.5,0,0.7-0.1c0.1,0,0.5-0.4,0.5-0.4c-0.2,0.4-0.5,1-1,1c0.8,0,1.4-0.5,2-1c0.4-0.4,0.6-0.5,1.2-0.7
				c0.6-0.2,0.8-0.3,1.1-1c0.3,0.9,0.1,1.2-0.7,1.3c-0.1,0-0.3-0.1-0.3-0.1c-0.2,0.1,0,0.2-0.1,0.3c0,0-0.6,0.7-0.6,0.2
				c0,1.2-0.7,1.7-1.9,1.7c0.3,0.3,1.4,0,1.7-0.2c0.4-0.2,0.6-0.5,0.8-0.8c0.2-0.3,0.6-0.5,0.9-0.6c0.4-0.1,0.8,0,1-0.5
				c0.2,0.3,0.3-1,0.2-1.4c-0.1-0.1-0.4-0.3-0.3-0.4c0-0.2,0.9-0.9,1.1-1.2c1.1-1.4,1.8-3.1,2-4.9C62,54.2,60.4,50.6,57.5,48.5
				C57,48.2,62,51.8,57.5,48.5z M49.4,63.6c-0.8,0-1.3-0.9-2-1.2c0.2-0.1-1.6-1.3-1.8-1.5c0.4,0.4,1.6,0.9,1.9,0.2
				c0,0.3,0.4,0.3,0.4,0.6c-0.7,0,0.1,0.5,0.2,0.6c0.1,0.1,0.1,0.2,0.3,0.3c0.2,0.1,0.5,0.1,0.7,0.2c0.9,0.3,1.7,0.9,2.8,0.9
				C51.1,63.8,50.2,63.8,49.4,63.6C49.3,63.6,50.2,63.8,49.4,63.6z M53.2,63.4c-0.8,0-1.5,0-2.2-0.4c-0.2-0.1-0.5-0.1-0.5-0.5
				c0.5,0.6,1.7,0,2.2,0.2c0.1,0,0.3,0.2,0.4,0.2c0.2,0.1,0.2,0.1,0.4,0.1c0.2,0,0.4,0.1,0.7,0.1C53.9,63.2,53.5,63.3,53.2,63.4
				C53.1,63.4,53.5,63.3,53.2,63.4z"/>
			<path class="st8" d="M44.9,64.7C44.9,64.7,44.9,64.6,44.9,64.7C44.9,64.6,44.9,64.7,44.9,64.7z"/>
			<path class="st8" d="M57.7,58.9c0.1-0.1,0.1-0.2,0.1-0.3C57.7,58.7,57.7,58.8,57.7,58.9z"/>
			<path class="st8" d="M57.4,59.4c-0.6,0.5-0.8,1.4-1.7,1.5c0.1,0.1,0.2,0.1,0.3,0c-0.1,0.3,0.5,0.2,0.6,0.2
				c0.1-0.1,0.4-0.4,0.5-0.5c0.3-0.3,0.4-0.5,0.5-0.8c0.1-0.3,0.3-0.6,0.3-1C57.7,59,57.7,59.1,57.4,59.4z"/>
			<path class="st8" d="M56.8,61.1c0,0,0.1,0,0.1-0.1C56.9,61,56.8,61.1,56.8,61.1z"/>
			<path class="st8" d="M56.5,61.2c-0.1,0.1-0.3,0.1-0.3,0.3c0.2-0.2,0.4-0.3,0.6-0.4C56.6,61.1,56.6,61.1,56.5,61.2z"/>
		</g>
		<path class="st8" d="M49.8,67.4c0,0-0.1,0-0.2,0C49.7,67.4,49.7,67.4,49.8,67.4L49.8,67.4z"/>
		<path class="st8" d="M44.5,66.6c-0.1,0-0.1-0.1-0.2-0.1C44.3,66.6,44.4,66.6,44.5,66.6z"/>
	</g>
</g>
</svg>
