<?xml version="1.0" encoding="utf-8"?>
<!-- Generator: Adobe Illustrator 20.0.0, SVG Export Plug-In . SVG Version: 6.00 Build 0)  -->
<svg version="1.1" id="Layer_1" xmlns="http://www.w3.org/2000/svg" xmlns:xlink="http://www.w3.org/1999/xlink" x="0px" y="0px"
	 viewBox="0 0 36.3 51.4" style="enable-background:new 0 0 36.3 51.4;" xml:space="preserve">
<style type="text/css">
	.st0{fill:#172C2D;}
	.st1{fill:#D9DDDE;}
	.st2{fill:#A1ABAD;}
</style>
<g id="leftPincher">
	<g>
		<path class="st0" d="M25.3,39.4c-7.3,0-13.3-6-13.3-13.3c0-3.5,1.4-6.8,3.8-9.3c0.6,0.5,1.4,0.8,2.3,0.8c2.1,0,3.8-1.7,3.8-3.8
			S20.2,10,18.1,10s-3.8,1.7-3.8,3.8c0,0.5,0.1,1,0.3,1.4C11.7,18.1,10,22,10,26.1c0,8.4,6.9,15.3,15.3,15.3c0.6,0,1-0.5,1-1
			S25.9,39.4,25.3,39.4z M18.1,12c1,0,1.7,0.8,1.7,1.7s-0.8,1.7-1.7,1.7s-1.7-0.8-1.7-1.7S17.1,12,18.1,12z"/>
		<g>
			<circle class="st1" cx="18.1" cy="13.6" r="2.2"/>
			<circle class="st2" cx="18.1" cy="13.8" r="2.2"/>
			<g>
				<polygon class="st1" points="16.6,14 16.6,13.7 19.7,13.8 19.7,14.1 				"/>
			</g>
			<g>
				<polygon class="st1" points="18.4,15.3 18,15.3 18.1,12.3 18.4,12.3 				"/>
			</g>
			<polygon class="st0" points="18,12.3 17.9,15.3 18.2,15.3 18.3,12.3 			"/>
			<polygon class="st0" points="19.7,13.6 16.6,13.5 16.6,13.8 19.7,13.9 			"/>
		</g>
	</g>
</g>
</svg>
