<?xml version="1.0" encoding="utf-8"?>
<!-- Generator: Adobe Illustrator 20.0.0, SVG Export Plug-In . SVG Version: 6.00 Build 0)  -->
<svg version="1.1" id="Layer_1" xmlns="http://www.w3.org/2000/svg" xmlns:xlink="http://www.w3.org/1999/xlink" x="0px" y="0px"
	 viewBox="0 0 72.2 94.5" style="enable-background:new 0 0 72.2 94.5;" xml:space="preserve">
<style type="text/css">
	.st0{fill:#DD0000;}
	.st1{opacity:0.4;fill:#FFFFFF;enable-background:new    ;}
	.st2{fill:#D3C13D;}
	.st3{opacity:0.4;fill:#3B4650;enable-background:new    ;}
	.st4{fill:#17712D;}
	.st5{fill:#22AA44;}
	.st6{fill:#4EBB69;}
</style>
<g id="StrawBerry">
	<path class="st0" d="M61.8,49.1c0,8.9-7.4,17-11.4,23.3c-4.7,7.4-6.7,12.1-14.5,12.1c-7.6,0-9.4-4.4-14.1-11.5
		C17.6,66.7,10,58.3,10,49.1c0-19.6,11.6-20.4,25.9-20.4S61.8,29.6,61.8,49.1z"/>
	<path class="st1" d="M25.6,48.8c0.6,0,1.1-0.5,1.4-1c0.2-0.6,0.3-1.2,0.3-1.8c0-0.2,0-0.4,0-0.6c1.9-2.7,4.7-5,5.6-8.2
		c0.3-1,0.3-2.1,0.1-3.2l-1-0.6c-3.4-3.7-9.5-3.8-13.7-1.1S11.8,40,11.4,45c-0.4,3.8,0.2,7.6,1.6,11.1c1.3,3.2,3.2,6,4.8,9.1
		c0.6,0.8,1.2,1.5,1.7,2.3c0.3,0.2,0.6,0.5,0.9,0.8c1,1.1,1.2,2.8,2.4,3.8c0.7,0.6,1.8,0.9,2.4,1.7c0.4,0.6,0.5,1.3,0.8,1.9
		s0.8,1.1,1.4,1.5c0.1,0.4,0.2,0.8,0.3,1.2c0.2,0.9,0.3,1.9,0.9,2.6s1.9,0.9,2.4,0.1c0.4-0.6,0.1-1.3-0.2-2c-0.2-0.5-0.4-1-0.6-1.5
		c0.9,0,1.5-0.8,1.7-1.7c0.2-0.9-0.1-1.7-0.4-2.5c-0.1-0.4-0.3-0.8-0.7-1c-0.2-0.1-0.5,0-0.7,0c-0.1-0.2-0.2-0.3-0.3-0.5
		c-0.1-0.1-0.1-0.3-0.2-0.4c-0.1-0.2-0.2-0.4-0.4-0.6c0.2-0.3,0.5-0.6,0.7-1c0.4-0.8,0.2-2-0.6-2.4c-0.5-0.3-1.1-0.2-1.5,0.1
		c-0.1-0.2-0.2-0.5-0.2-0.7c0.6,0,1.1-0.3,1.3-0.9c0.2-0.5,0.3-1.4,0.9-1.4s1,1,1.5,0.7c0.2-0.1,0.3-0.4,0.3-0.6
		c0.2-1.1,0.4-2.2-0.1-3.2c-0.5-0.9-2.1-1.3-2.7-0.4c0.1-0.5-0.5-0.8-1-0.7s-0.8,0.4-1.2,0.7c-0.2,0.1-0.4,0.2-0.6,0.2
		c-0.2-0.6-0.3-1.2-0.4-1.8c0-0.1,0.1-0.1,0.1-0.2c0.6-1.2,0.4-2.7-0.5-3.6h-0.1c0-0.3,0-0.6-0.1-0.9c0.9-0.4,1.6-1.3,1.6-2.3
		c0.1-1-0.4-1.9-1.3-2.4C25.2,49.7,25.3,49.2,25.6,48.8C25.5,48.8,25.5,48.8,25.6,48.8z"/>
	<g>
		<g>
			<path class="st2" d="M29.5,79.2c0.1,0.7-0.3,1.3-0.3,1.3s-0.7-0.4-0.9-1c-0.2-0.6-0.1-1.2,0.3-1.3C29,78.1,29.4,78.6,29.5,79.2z"
				/>
		</g>
		<g>
			<path class="st2" d="M31.7,78.9c0.1,0.7-0.4,1.3-0.4,1.3s-0.6-0.5-0.8-1.1c-0.1-0.7,0.1-1.2,0.4-1.3
				C31.3,77.7,31.7,78.2,31.7,78.9z"/>
		</g>
		<g>
			<path class="st2" d="M34,78.8c0,0.7-0.5,1.2-0.5,1.2s-0.6-0.5-0.6-1.2c-0.1-0.7,0.2-1.2,0.5-1.2C33.7,77.5,34,78.1,34,78.8z"/>
		</g>
		<g>
			<path class="st2" d="M36.2,78.8c-0.1,0.7-0.6,1.2-0.6,1.2S35,79.4,35,78.8c0-0.7,0.3-1.2,0.6-1.2C36,77.6,36.3,78.1,36.2,78.8z"
				/>
		</g>
		<g>
			<path class="st2" d="M38.4,79.1c-0.1,0.7-0.7,1.1-0.7,1.1s-0.5-0.6-0.4-1.3c0.1-0.7,0.4-1.2,0.7-1.1
				C38.4,77.8,38.6,78.4,38.4,79.1z"/>
		</g>
		<g>
			<path class="st2" d="M40.6,79.6c-0.2,0.6-0.8,1-0.8,1s-0.4-0.7-0.3-1.3c0.1-0.7,0.5-1.1,0.9-1.1C40.7,78.3,40.8,78.9,40.6,79.6z"
				/>
		</g>
		<g>
			<path class="st2" d="M42.8,80.2c-0.2,0.6-0.9,1-0.9,1s-0.4-0.7-0.2-1.3c0.2-0.6,0.6-1.1,0.9-1C42.9,79,43,79.6,42.8,80.2z"/>
		</g>
	</g>
	<g>
		<g>
			<path class="st2" d="M21,64.8c0.2,0.6-0.3,1.3-0.3,1.3s-0.7-0.4-0.9-1c-0.2-0.6-0.1-1.2,0.3-1.3C20.4,63.7,20.8,64.2,21,64.8z"/>
		</g>
		<g>
			<path class="st2" d="M23.3,64.2c0.2,0.6-0.3,1.3-0.3,1.3s-0.7-0.4-0.9-1c-0.2-0.6,0-1.2,0.3-1.3C22.7,63.1,23.1,63.6,23.3,64.2z"
				/>
		</g>
		<g>
			<path class="st2" d="M25.5,63.7c0.2,0.7-0.3,1.3-0.3,1.3s-0.7-0.4-0.9-1c-0.2-0.6,0-1.2,0.3-1.3C25,62.6,25.4,63,25.5,63.7z"/>
		</g>
		<g>
			<path class="st2" d="M27.8,63.2c0.1,0.7-0.3,1.3-0.3,1.3s-0.7-0.4-0.9-1.1c-0.1-0.7,0-1.2,0.3-1.3C27.3,62.1,27.6,62.5,27.8,63.2
				z"/>
		</g>
		<g>
			<path class="st2" d="M30.1,62.8c0.1,0.7-0.4,1.3-0.4,1.3S29,63.7,28.9,63s0-1.3,0.4-1.3C29.6,61.6,30,62.1,30.1,62.8z"/>
		</g>
		<g>
			<path class="st2" d="M32.4,62.5c0.1,0.7-0.5,1.3-0.5,1.3s-0.7-0.5-0.8-1.1c-0.1-0.7,0.1-1.2,0.4-1.3
				C31.9,61.3,32.3,61.8,32.4,62.5z"/>
		</g>
		<g>
			<path class="st2" d="M34.7,62.3c0,0.7-0.5,1.3-0.5,1.3s-0.6-0.5-0.7-1.2c-0.1-0.7,0.2-1.2,0.5-1.3C34.3,61.1,34.6,61.6,34.7,62.3
				z"/>
		</g>
		<g>
			<path class="st2" d="M37,62.2c0,0.7-0.6,1.2-0.6,1.2s-0.6-0.5-0.6-1.2S36,61,36.4,61C36.7,61,37,61.6,37,62.2z"/>
		</g>
		<g>
			<path class="st2" d="M39.3,62.3c0,0.7-0.6,1.2-0.6,1.2s-0.6-0.5-0.6-1.2s0.3-1.2,0.6-1.2C39.1,61.1,39.3,61.6,39.3,62.3z"/>
		</g>
		<g>
			<path class="st2" d="M41.6,62.4c0,0.7-0.6,1.2-0.6,1.2s-0.6-0.6-0.6-1.2c0-0.7,0.3-1.2,0.6-1.2C41.4,61.1,41.6,61.7,41.6,62.4z"
				/>
		</g>
		<g>
			<path class="st2" d="M43.9,62.5c0,0.7-0.7,1.2-0.7,1.2s-0.6-0.6-0.6-1.2c0-0.7,0.3-1.2,0.7-1.2C43.7,61.2,44,61.8,43.9,62.5z"/>
		</g>
		<g>
			<path class="st2" d="M46.2,62.7c-0.1,0.7-0.8,1.1-0.8,1.1S45,63.3,45,62.6c0.1-0.7,0.4-1.2,0.8-1.1
				C46.1,61.5,46.3,62.1,46.2,62.7z"/>
		</g>
		<g>
			<path class="st2" d="M48.5,63.2c-0.2,0.7-0.8,1.1-0.8,1.1s-0.5-0.6-0.3-1.3c0.1-0.7,0.5-1.1,0.8-1.1C48.5,62,48.7,62.5,48.5,63.2
				z"/>
		</g>
		<g>
			<path class="st2" d="M50.7,63.8c-0.2,0.6-0.9,1-0.9,1s-0.4-0.7-0.2-1.3c0.2-0.6,0.6-1.1,0.9-1C50.9,62.6,51,63.2,50.7,63.8z"/>
		</g>
		<g>
			<path class="st2" d="M52.9,64.7c-0.3,0.6-1,0.9-1,0.9s-0.3-0.7-0.1-1.3c0.2-0.6,0.7-1,1-0.9C53.1,63.5,53.2,64.1,52.9,64.7z"/>
		</g>
	</g>
	<g>
		<g>
			<path class="st2" d="M24.1,70.3c0.3,0.6,0.1,1.4,0.1,1.4S23.4,71.6,23,71s-0.4-1.2-0.1-1.4C23.2,69.4,23.8,69.8,24.1,70.3z"/>
		</g>
		<g>
			<path class="st2" d="M26.3,69.5c0.1,0.7-0.3,1.3-0.3,1.3s-0.6-0.4-0.9-1s-0.2-1.2,0.3-1.4C25.8,68.4,26.1,68.9,26.3,69.5z"/>
		</g>
		<g>
			<path class="st2" d="M28.6,69.1c0.1,0.7-0.4,1.3-0.4,1.3s-0.7-0.4-0.8-1.1c-0.1-0.7,0-1.2,0.4-1.3C28.1,67.9,28.5,68.4,28.6,69.1
				z"/>
		</g>
		<g>
			<path class="st2" d="M31,68.7c0.1,0.7-0.5,1.3-0.5,1.3s-0.7-0.4-0.8-1.1c-0.1-0.7,0.1-1.2,0.4-1.3C30.6,67.5,30.9,68.1,31,68.7z"
				/>
		</g>
		<g>
			<path class="st2" d="M33.4,68.5c0,0.7-0.5,1.3-0.5,1.3s-0.7-0.5-0.7-1.2c-0.1-0.7,0.2-1.2,0.5-1.3C33,67.3,33.3,67.8,33.4,68.5z"
				/>
		</g>
		<g>
			<path class="st2" d="M35.7,68.5c0,0.7-0.6,1.2-0.6,1.2s-0.6-0.5-0.6-1.2s0.2-1.2,0.6-1.2C35.4,67.2,35.7,67.8,35.7,68.5z"/>
		</g>
		<g>
			<path class="st2" d="M38.1,68.5c0,0.7-0.7,1.2-0.7,1.2s-0.6-0.6-0.6-1.2c0-0.7,0.3-1.2,0.7-1.2S38.1,67.9,38.1,68.5z"/>
		</g>
		<g>
			<path class="st2" d="M40.5,68.7c-0.1,0.7-0.7,1.1-0.7,1.1s-0.6-0.6-0.5-1.3c0.1-0.7,0.4-1.2,0.7-1.2
				C40.3,67.5,40.5,68.1,40.5,68.7z"/>
		</g>
		<g>
			<path class="st2" d="M42.8,69.1c-0.1,0.7-0.8,1.1-0.8,1.1s-0.5-0.6-0.4-1.3c0.1-0.7,0.4-1.2,0.8-1.1
				C42.7,67.8,42.9,68.4,42.8,69.1z"/>
		</g>
		<g>
			<path class="st2" d="M45.2,69.5c-0.1,0.7-0.8,1.1-0.8,1.1s-0.5-0.7-0.4-1.3c0.1-0.7,0.5-1.1,0.8-1.1S45.3,68.8,45.2,69.5z"/>
		</g>
		<g>
			<path class="st2" d="M47.5,70c-0.1,0.7-0.9,1.1-0.9,1.1s-0.5-0.7-0.4-1.3c0.1-0.7,0.5-1.1,0.9-1.1S47.6,69.3,47.5,70z"/>
		</g>
		<g>
			<path class="st2" d="M49.8,70.6c-0.2,0.7-0.9,1-0.9,1s-0.5-0.7-0.3-1.3c0.2-0.7,0.6-1.1,0.9-1C49.8,69.3,50,69.9,49.8,70.6z"/>
		</g>
	</g>
	<g>
		<g>
			<path class="st2" d="M27.9,75.1c0.2,0.6-0.2,1.3-0.2,1.3s-0.7-0.3-1-0.9c-0.2-0.6-0.2-1.2,0.2-1.4C27.2,74.1,27.7,74.5,27.9,75.1
				z"/>
		</g>
		<g>
			<path class="st2" d="M30.2,74.5c0.1,0.7-0.3,1.3-0.3,1.3s-0.7-0.4-0.9-1c-0.2-0.6-0.1-1.2,0.3-1.3C29.6,73.4,30,73.9,30.2,74.5z"
				/>
		</g>
		<g>
			<path class="st2" d="M32.5,74.1c0.1,0.7-0.4,1.3-0.4,1.3s-0.7-0.4-0.8-1.1c-0.1-0.7,0.1-1.2,0.4-1.3
				C32.1,72.9,32.4,73.4,32.5,74.1z"/>
		</g>
		<g>
			<path class="st2" d="M34.9,73.8c0,0.7-0.5,1.3-0.5,1.3s-0.7-0.5-0.7-1.2c-0.1-0.7,0.2-1.2,0.5-1.3C34.5,72.6,34.9,73.2,34.9,73.8
				z"/>
		</g>
		<g>
			<path class="st2" d="M37.3,73.8c0,0.7-0.6,1.2-0.6,1.2s-0.6-0.5-0.6-1.2s0.3-1.2,0.6-1.2C37,72.6,37.3,73.1,37.3,73.8z"/>
		</g>
		<g>
			<path class="st2" d="M39.7,74c-0.1,0.7-0.7,1.2-0.7,1.2s-0.6-0.6-0.5-1.3c0-0.7,0.4-1.2,0.7-1.2S39.7,73.3,39.7,74z"/>
		</g>
		<g>
			<path class="st2" d="M42,74.3c-0.1,0.7-0.8,1.1-0.8,1.1s-0.5-0.6-0.4-1.3c0.1-0.7,0.5-1.2,0.8-1.1C42,73.1,42.2,73.7,42,74.3z"/>
		</g>
		<g>
			<path class="st2" d="M44.3,74.9c-0.2,0.6-0.9,1-0.9,1s-0.5-0.7-0.3-1.3c0.1-0.6,0.6-1.1,0.9-1C44.4,73.6,44.5,74.2,44.3,74.9z"/>
		</g>
		<g>
			<path class="st2" d="M46.6,75.6c-0.2,0.6-1,0.9-1,0.9s-0.4-0.7-0.2-1.3c0.2-0.6,0.6-1.1,1-1C46.8,74.4,46.8,75,46.6,75.6z"/>
		</g>
	</g>
	<g>
		<g>
			<path class="st2" d="M17.7,59.3c0.2,0.6-0.2,1.3-0.2,1.3s-0.7-0.3-0.9-1c-0.2-0.6-0.1-1.2,0.2-1.3C17.1,58.2,17.5,58.7,17.7,59.3
				z"/>
		</g>
		<g>
			<path class="st2" d="M19.9,58.7c0.2,0.6-0.2,1.3-0.2,1.3s-0.7-0.4-0.9-1c-0.2-0.6-0.1-1.2,0.2-1.3C19.3,57.6,19.7,58,19.9,58.7z"
				/>
		</g>
		<g>
			<path class="st2" d="M22.1,58.1c0.2,0.7-0.3,1.3-0.3,1.3s-0.7-0.4-0.9-1c-0.2-0.6-0.1-1.2,0.3-1.3C21.5,57,21.9,57.4,22.1,58.1z"
				/>
		</g>
		<g>
			<path class="st2" d="M24.3,57.6c0.1,0.7-0.3,1.3-0.3,1.3s-0.7-0.4-0.8-1.1c-0.2-0.7,0-1.2,0.3-1.3C23.8,56.5,24.1,56.9,24.3,57.6
				z"/>
		</g>
		<g>
			<path class="st2" d="M26.5,57.2c0.1,0.7-0.4,1.3-0.4,1.3s-0.7-0.4-0.8-1.1c-0.1-0.7,0.1-1.2,0.4-1.3C26,56.1,26.4,56.6,26.5,57.2
				z"/>
		</g>
		<g>
			<path class="st2" d="M28.7,57c0.1,0.7-0.4,1.3-0.4,1.3s-0.6-0.5-0.7-1.1c-0.1-0.7,0.1-1.2,0.4-1.3C28.3,55.8,28.6,56.3,28.7,57z"
				/>
		</g>
		<g>
			<path class="st2" d="M30.9,56.8c0,0.7-0.5,1.3-0.5,1.3s-0.6-0.5-0.7-1.2s0.2-1.2,0.5-1.3C30.6,55.6,30.9,56.1,30.9,56.8z"/>
		</g>
		<g>
			<path class="st2" d="M33.2,56.7c0,0.7-0.5,1.2-0.5,1.2S32,57.4,32,56.7s0.2-1.2,0.5-1.2C32.9,55.5,33.2,56,33.2,56.7z"/>
		</g>
		<g>
			<path class="st2" d="M35.4,56.6c0,0.7-0.6,1.2-0.6,1.2s-0.6-0.5-0.6-1.2s0.2-1.2,0.6-1.2C35.1,55.4,35.4,56,35.4,56.6z"/>
		</g>
		<g>
			<path class="st2" d="M37.7,56.6c0,0.7-0.6,1.2-0.6,1.2s-0.6-0.5-0.6-1.2s0.2-1.2,0.6-1.2C37.4,55.4,37.7,55.9,37.7,56.6z"/>
		</g>
		<g>
			<path class="st2" d="M39.9,56.6c0,0.7-0.6,1.2-0.6,1.2s-0.6-0.5-0.6-1.2s0.3-1.2,0.6-1.2C39.6,55.4,39.9,55.9,39.9,56.6z"/>
		</g>
		<g>
			<path class="st2" d="M42.2,56.7c0,0.7-0.6,1.2-0.6,1.2S41,57.3,41,56.6s0.3-1.2,0.6-1.2C41.9,55.4,42.2,56,42.2,56.7z"/>
		</g>
		<g>
			<path class="st2" d="M44.4,56.8c-0.1,0.7-0.7,1.2-0.7,1.2s-0.5-0.6-0.5-1.2c0-0.7,0.3-1.2,0.7-1.2C44.2,55.6,44.4,56.1,44.4,56.8
				z"/>
		</g>
		<g>
			<path class="st2" d="M46.6,57c-0.1,0.7-0.7,1.1-0.7,1.1s-0.5-0.6-0.5-1.3c0.1-0.7,0.4-1.2,0.7-1.2C46.5,55.8,46.7,56.4,46.6,57z"
				/>
		</g>
		<g>
			<path class="st2" d="M48.9,57.3c-0.1,0.7-0.7,1.1-0.7,1.1s-0.5-0.6-0.4-1.3s0.4-1.2,0.7-1.1C48.8,56.1,49,56.7,48.9,57.3z"/>
		</g>
		<g>
			<path class="st2" d="M51.1,57.7c-0.1,0.7-0.8,1.1-0.8,1.1s-0.5-0.6-0.4-1.3s0.5-1.2,0.8-1.1C51,56.5,51.2,57,51.1,57.7z"/>
		</g>
		<g>
			<path class="st2" d="M53.3,58.2c-0.2,0.6-0.8,1.1-0.8,1.1s-0.4-0.7-0.3-1.3c0.1-0.7,0.5-1.1,0.8-1.1S53.4,57.5,53.3,58.2z"/>
		</g>
		<g>
			<path class="st2" d="M55.4,58.8c-0.2,0.6-0.9,1-0.9,1s-0.4-0.7-0.2-1.3s0.6-1.1,0.9-1C55.5,57.6,55.6,58.2,55.4,58.8z"/>
		</g>
		<g>
			<path class="st2" d="M57.5,59.6c-0.3,0.6-1,0.9-1,0.9s-0.3-0.7-0.1-1.3s0.7-1,1-0.9C57.7,58.3,57.8,59,57.5,59.6z"/>
		</g>
	</g>
	<g>
		<g>
			<path class="st2" d="M16.1,54.6c0.3,0.6,0.1,1.3,0.1,1.3s-0.8-0.2-1.1-0.7c-0.4-0.6-0.4-1.2-0.1-1.4
				C15.3,53.7,15.8,54.1,16.1,54.6z"/>
		</g>
		<g>
			<path class="st2" d="M18.2,53.6c0.3,0.6,0,1.4,0,1.4s-0.8-0.2-1.1-0.8c-0.3-0.6-0.3-1.2,0-1.4C17.5,52.6,17.9,53,18.2,53.6z"/>
		</g>
		<g>
			<path class="st2" d="M20.4,52.8c0.2,0.6-0.2,1.3-0.2,1.3s-0.7-0.3-1-0.9C19,52.6,19,52,19.4,51.8C19.7,51.7,20.2,52.2,20.4,52.8z
				"/>
		</g>
		<g>
			<path class="st2" d="M22.6,52.2c0.2,0.6-0.3,1.3-0.3,1.3s-0.7-0.4-0.9-1c-0.2-0.6-0.1-1.2,0.3-1.3C22,51.1,22.4,51.5,22.6,52.2z"
				/>
		</g>
		<g>
			<path class="st2" d="M24.9,51.6c0.1,0.7-0.3,1.3-0.3,1.3s-0.7-0.4-0.9-1c-0.2-0.7,0-1.2,0.3-1.3C24.4,50.5,24.7,51,24.9,51.6z"/>
		</g>
		<g>
			<path class="st2" d="M27.2,51.2c0.1,0.7-0.4,1.3-0.4,1.3s-0.7-0.4-0.8-1.1c-0.1-0.7,0-1.2,0.4-1.3C26.7,50.1,27.1,50.6,27.2,51.2
				z"/>
		</g>
		<g>
			<path class="st2" d="M29.5,50.9c0.1,0.7-0.4,1.3-0.4,1.3s-0.7-0.5-0.8-1.1c-0.1-0.7,0.1-1.2,0.4-1.3C29,49.7,29.4,50.2,29.5,50.9
				z"/>
		</g>
		<g>
			<path class="st2" d="M31.8,50.6c0.1,0.7-0.5,1.3-0.5,1.3s-0.7-0.5-0.7-1.1c-0.1-0.7,0.1-1.2,0.5-1.3
				C31.4,49.4,31.7,49.9,31.8,50.6z"/>
		</g>
		<g>
			<path class="st2" d="M34.1,50.4c0,0.7-0.5,1.2-0.5,1.2s-0.6-0.5-0.7-1.2c-0.1-0.7,0.2-1.2,0.5-1.3C33.7,49.3,34.1,49.8,34.1,50.4
				z"/>
		</g>
		<g>
			<path class="st2" d="M36.4,50.4c0,0.7-0.6,1.2-0.6,1.2s-0.6-0.5-0.7-1.2c0-0.7,0.2-1.2,0.6-1.2S36.4,49.7,36.4,50.4z"/>
		</g>
		<g>
			<path class="st2" d="M38.7,50.4c0,0.7-0.6,1.2-0.6,1.2s-0.6-0.5-0.6-1.2s0.3-1.2,0.6-1.2C38.5,49.2,38.8,49.7,38.7,50.4z"/>
		</g>
		<g>
			<path class="st2" d="M41.1,50.5c0,0.7-0.7,1.2-0.7,1.2s-0.6-0.6-0.6-1.2c0-0.7,0.3-1.2,0.7-1.2C40.9,49.2,41.1,49.8,41.1,50.5z"
				/>
		</g>
		<g>
			<path class="st2" d="M43.4,50.6c-0.1,0.7-0.7,1.2-0.7,1.2s-0.6-0.6-0.5-1.3c0-0.7,0.4-1.2,0.7-1.2C43.2,49.4,43.4,50,43.4,50.6z"
				/>
		</g>
		<g>
			<path class="st2" d="M45.7,50.9C45.6,51.6,45,52,45,52s-0.5-0.6-0.5-1.3c0.1-0.7,0.4-1.2,0.7-1.1C45.6,49.7,45.8,50.2,45.7,50.9z
				"/>
		</g>
		<g>
			<path class="st2" d="M48,51.3c-0.1,0.7-0.8,1.1-0.8,1.1s-0.5-0.6-0.4-1.3s0.4-1.2,0.8-1.1C47.9,50,48.1,50.6,48,51.3z"/>
		</g>
		<g>
			<path class="st2" d="M50.3,51.7c-0.1,0.7-0.8,1.1-0.8,1.1s-0.5-0.7-0.4-1.3c0.1-0.7,0.5-1.1,0.8-1.1C50.2,50.5,50.4,51,50.3,51.7
				z"/>
		</g>
		<g>
			<path class="st2" d="M52.5,52.2c-0.2,0.7-0.9,1-0.9,1s-0.5-0.7-0.3-1.3c0.1-0.7,0.5-1.1,0.9-1C52.6,51,52.7,51.6,52.5,52.2z"/>
		</g>
		<g>
			<path class="st2" d="M54.8,52.9c-0.2,0.6-0.9,1-0.9,1s-0.4-0.7-0.2-1.3s0.6-1.1,0.9-1C54.9,51.6,55,52.2,54.8,52.9z"/>
		</g>
		<g>
			<path class="st2" d="M56.9,53.7c-0.3,0.6-1,0.8-1,0.8s-0.3-0.7-0.1-1.3s0.7-1,1.1-0.9C57.2,52.5,57.2,53.1,56.9,53.7z"/>
		</g>
		<g>
			<path class="st2" d="M58.8,55c-0.2,0.2-0.5,0.4-0.8,0.5c-0.2,0.1-0.4,0.1-0.4,0.1s0-0.2,0-0.4c0-0.3,0.1-0.6,0.2-0.9
				c0.4-0.6,0.9-0.9,1.2-0.6C59.4,53.9,59.3,54.5,58.8,55z"/>
		</g>
	</g>
	<g>
		<g>
			<path class="st2" d="M13.3,50.4c0.4,0.5,0.3,1.3,0.3,1.3s-0.8-0.1-1.2-0.6s-0.6-1.1-0.3-1.3C12.4,49.6,12.9,49.9,13.3,50.4z"/>
		</g>
		<g>
			<path class="st2" d="M15.2,49.2c0.3,0.6,0.1,1.3,0.1,1.3s-0.8-0.2-1.1-0.7c-0.4-0.6-0.4-1.2-0.2-1.3
				C14.4,48.3,14.9,48.6,15.2,49.2z"/>
		</g>
		<g>
			<path class="st2" d="M17.2,48.1c0.3,0.6,0,1.3,0,1.3s-0.8-0.2-1.1-0.8c-0.3-0.6-0.4-1.2-0.1-1.4C16.4,47.2,16.9,47.5,17.2,48.1z"
				/>
		</g>
		<g>
			<path class="st2" d="M19.2,47.2c0.3,0.6,0,1.3,0,1.3s-0.7-0.3-1-0.9c-0.3-0.6-0.3-1.2,0-1.4C18.5,46.2,19,46.6,19.2,47.2z"/>
		</g>
		<g>
			<path class="st2" d="M21.3,46.4c0.2,0.6-0.1,1.3-0.1,1.3s-0.7-0.3-1-0.9c-0.2-0.6-0.2-1.2,0.1-1.3C20.7,45.3,21.1,45.8,21.3,46.4
				z"/>
		</g>
		<g>
			<path class="st2" d="M23.5,45.7c0.2,0.6-0.2,1.3-0.2,1.3s-0.7-0.3-0.9-1c-0.2-0.6-0.1-1.2,0.2-1.3C22.9,44.6,23.3,45.1,23.5,45.7
				z"/>
		</g>
		<g>
			<path class="st2" d="M25.7,45.2c0.1,0.7-0.3,1.3-0.3,1.3s-0.7-0.4-0.9-1c-0.2-0.6,0-1.2,0.3-1.3C25.1,44.1,25.5,44.5,25.7,45.2z"
				/>
		</g>
		<g>
			<path class="st2" d="M27.9,44.8c0.1,0.7-0.4,1.3-0.4,1.3s-0.7-0.4-0.8-1.1c-0.1-0.7,0-1.2,0.4-1.3C27.4,43.6,27.8,44.1,27.9,44.8
				z"/>
		</g>
		<g>
			<path class="st2" d="M30.1,44.5c0.1,0.7-0.4,1.3-0.4,1.3s-0.6-0.5-0.7-1.1c-0.1-0.7,0.1-1.2,0.4-1.3C29.7,43.3,30,43.8,30.1,44.5
				z"/>
		</g>
		<g>
			<path class="st2" d="M32.4,44.3c0,0.7-0.5,1.3-0.5,1.3s-0.6-0.5-0.7-1.2s0.2-1.2,0.5-1.3C32,43.1,32.3,43.6,32.4,44.3z"/>
		</g>
		<g>
			<path class="st2" d="M34.6,44.2c0,0.7-0.6,1.2-0.6,1.2s-0.6-0.5-0.6-1.2S33.6,43,34,43C34.3,43,34.6,43.5,34.6,44.2z"/>
		</g>
		<g>
			<path class="st2" d="M36.9,44.2c0,0.7-0.6,1.2-0.6,1.2s-0.6-0.6-0.6-1.2c0-0.7,0.3-1.2,0.6-1.2C36.6,43,36.9,43.6,36.9,44.2z"/>
		</g>
		<g>
			<path class="st2" d="M39.1,44.4c0,0.7-0.7,1.2-0.7,1.2s-0.5-0.6-0.5-1.2c0-0.7,0.3-1.2,0.7-1.2C38.9,43.1,39.1,43.7,39.1,44.4z"
				/>
		</g>
		<g>
			<path class="st2" d="M41.3,44.6c-0.1,0.7-0.7,1.1-0.7,1.1s-0.5-0.6-0.5-1.3c0.1-0.7,0.4-1.2,0.7-1.2
				C41.2,43.3,41.4,43.9,41.3,44.6z"/>
		</g>
		<g>
			<path class="st2" d="M43.6,44.9c-0.1,0.7-0.7,1.1-0.7,1.1s-0.5-0.6-0.4-1.3s0.4-1.2,0.7-1.1C43.5,43.6,43.7,44.2,43.6,44.9z"/>
		</g>
		<g>
			<path class="st2" d="M45.8,45.2c-0.1,0.7-0.8,1.1-0.8,1.1s-0.5-0.6-0.4-1.3s0.5-1.2,0.8-1.1C45.7,44,45.9,44.6,45.8,45.2z"/>
		</g>
		<g>
			<path class="st2" d="M48,45.7c-0.1,0.7-0.8,1.1-0.8,1.1s-0.5-0.6-0.3-1.3c0.1-0.7,0.5-1.1,0.8-1.1S48.1,45,48,45.7z"/>
		</g>
		<g>
			<path class="st2" d="M50.2,46.2c-0.2,0.7-0.8,1-0.8,1s-0.5-0.7-0.3-1.3c0.1-0.7,0.5-1.1,0.8-1.1C50.2,44.9,50.3,45.5,50.2,46.2z"
				/>
		</g>
		<g>
			<path class="st2" d="M52.4,46.7c-0.2,0.6-0.9,1-0.9,1s-0.4-0.7-0.3-1.3c0.2-0.7,0.5-1.1,0.9-1C52.4,45.5,52.5,46.1,52.4,46.7z"/>
		</g>
		<g>
			<path class="st2" d="M54.5,47.3c-0.2,0.6-0.9,1-0.9,1s-0.4-0.7-0.2-1.3s0.6-1.1,0.9-1C54.6,46.1,54.7,46.7,54.5,47.3z"/>
		</g>
		<g>
			<path class="st2" d="M56.7,48c-0.2,0.6-0.9,1-0.9,1s-0.4-0.7-0.2-1.3s0.6-1.1,0.9-1C56.8,46.7,56.9,47.3,56.7,48z"/>
		</g>
		<g>
			<path class="st2" d="M58.8,48.8c-0.3,0.6-1,0.9-1,0.9s-0.3-0.7-0.1-1.3s0.7-1.1,1-0.9C59,47.5,59.1,48.1,58.8,48.8z"/>
		</g>
		<g>
			<path class="st2" d="M60.8,49.8c-0.4,0.6-1.1,0.7-1.1,0.7s-0.2-0.7,0.1-1.3s0.8-1,1.1-0.8C61.2,48.6,61.2,49.2,60.8,49.8z"/>
		</g>
	</g>
	<g>
		<g>
			<path class="st2" d="M13.5,44c0.3,0.6,0,1.3,0,1.3s-0.8-0.2-1.1-0.8s-0.3-1.2,0-1.4C12.7,43,13.2,43.4,13.5,44z"/>
		</g>
		<g>
			<path class="st2" d="M15.5,43c0.3,0.6,0,1.4,0,1.4s-0.8-0.2-1-0.8c-0.3-0.6-0.3-1.2,0-1.4S15.2,42.4,15.5,43z"/>
		</g>
		<g>
			<path class="st2" d="M17.6,42.1c0.3,0.6-0.1,1.3-0.1,1.3s-0.7-0.3-1-0.9c-0.3-0.6-0.3-1.2,0.1-1.4C16.9,41.1,17.3,41.5,17.6,42.1
				z"/>
		</g>
		<g>
			<path class="st2" d="M19.7,41.3c0.2,0.6-0.1,1.3-0.1,1.3s-0.7-0.3-1-0.9c-0.3-0.6-0.2-1.2,0.1-1.4C19,40.3,19.4,40.7,19.7,41.3z"
				/>
		</g>
		<g>
			<path class="st2" d="M21.8,40.6c0.2,0.6-0.2,1.3-0.2,1.3s-0.7-0.3-0.9-1c-0.2-0.6-0.1-1.2,0.2-1.3S21.6,40,21.8,40.6z"/>
		</g>
		<g>
			<path class="st2" d="M24,40c0.2,0.6-0.3,1.3-0.3,1.3s-0.7-0.4-0.9-1c-0.2-0.6-0.1-1.2,0.2-1.3C23.4,38.9,23.8,39.4,24,40z"/>
		</g>
		<g>
			<path class="st2" d="M26.2,39.5c0.1,0.7-0.3,1.3-0.3,1.3s-0.7-0.4-0.8-1.1c-0.2-0.7,0-1.2,0.3-1.3C25.6,38.4,26,38.9,26.2,39.5z"
				/>
		</g>
		<g>
			<path class="st2" d="M28.4,39.2c0.1,0.7-0.4,1.3-0.4,1.3s-0.7-0.4-0.8-1.1c-0.1-0.7,0.1-1.2,0.4-1.3C27.9,38,28.3,38.5,28.4,39.2
				z"/>
		</g>
		<g>
			<path class="st2" d="M30.6,38.9c0.1,0.7-0.4,1.3-0.4,1.3s-0.6-0.5-0.7-1.1c-0.1-0.7,0.1-1.2,0.4-1.3
				C30.2,37.7,30.5,38.2,30.6,38.9z"/>
		</g>
		<g>
			<path class="st2" d="M32.8,38.7c0,0.7-0.5,1.3-0.5,1.3s-0.6-0.5-0.7-1.2s0.2-1.2,0.5-1.3C32.5,37.5,32.8,38,32.8,38.7z"/>
		</g>
		<g>
			<path class="st2" d="M35.1,38.6c0,0.7-0.5,1.2-0.5,1.2s-0.6-0.5-0.7-1.2c0-0.7,0.2-1.2,0.5-1.2C34.7,37.4,35,37.9,35.1,38.6z"/>
		</g>
		<g>
			<path class="st2" d="M37.3,38.5c0,0.7-0.6,1.2-0.6,1.2s-0.6-0.5-0.6-1.2s0.2-1.2,0.6-1.2C37,37.3,37.3,37.9,37.3,38.5z"/>
		</g>
		<g>
			<path class="st2" d="M39.6,38.6c0,0.7-0.6,1.2-0.6,1.2s-0.6-0.6-0.6-1.2c0-0.7,0.3-1.2,0.6-1.2C39.3,37.4,39.6,37.9,39.6,38.6z"
				/>
		</g>
		<g>
			<path class="st2" d="M41.8,38.7c0,0.7-0.7,1.2-0.7,1.2s-0.5-0.6-0.5-1.2c0-0.7,0.3-1.2,0.7-1.2C41.6,37.5,41.8,38,41.8,38.7z"/>
		</g>
		<g>
			<path class="st2" d="M44,38.9c-0.1,0.7-0.7,1.1-0.7,1.1s-0.5-0.6-0.5-1.3c0.1-0.7,0.4-1.2,0.7-1.2C43.9,37.7,44.1,38.3,44,38.9z"
				/>
		</g>
		<g>
			<path class="st2" d="M46.2,39.2c-0.1,0.7-0.8,1.1-0.8,1.1S44.9,39.7,45,39s0.4-1.2,0.8-1.1C46.2,38,46.4,38.6,46.2,39.2z"/>
		</g>
		<g>
			<path class="st2" d="M48.4,39.7c-0.1,0.7-0.8,1.1-0.8,1.1s-0.5-0.6-0.3-1.3c0.1-0.7,0.5-1.1,0.8-1.1S48.6,39,48.4,39.7z"/>
		</g>
		<g>
			<path class="st2" d="M50.6,40.2c-0.2,0.6-0.9,1-0.9,1s-0.4-0.7-0.3-1.3c0.2-0.7,0.5-1.1,0.9-1S50.8,39.6,50.6,40.2z"/>
		</g>
		<g>
			<path class="st2" d="M52.8,40.9c-0.2,0.6-0.9,1-0.9,1s-0.4-0.7-0.2-1.3s0.6-1.1,0.9-1S53,40.3,52.8,40.9z"/>
		</g>
		<g>
			<path class="st2" d="M54.8,41.7c-0.3,0.6-1,0.9-1,0.9s-0.3-0.7-0.1-1.3s0.7-1,1-0.9C55.1,40.5,55.1,41.1,54.8,41.7z"/>
		</g>
		<g>
			<path class="st2" d="M56.9,42.7c-0.3,0.6-1.1,0.8-1.1,0.8s-0.3-0.7,0-1.3s0.7-1,1.1-0.8C57.2,41.5,57.2,42.1,56.9,42.7z"/>
		</g>
		<g>
			<path class="st2" d="M58.8,43.8c-0.4,0.5-1.1,0.7-1.1,0.7s-0.2-0.7,0.2-1.3c0.3-0.6,0.9-0.9,1.2-0.7
				C59.3,42.7,59.2,43.3,58.8,43.8z"/>
		</g>
	</g>
	<g>
		<g>
			<path class="st2" d="M14.9,37c0.4,0.6,0.2,1.3,0.2,1.3s-0.2,0-0.4-0.1s-0.6-0.2-0.8-0.5c-0.4-0.5-0.5-1.1-0.3-1.4
				C13.9,36.2,14.5,36.5,14.9,37z"/>
		</g>
		<g>
			<path class="st2" d="M16.9,35.8c0.3,0.6,0.1,1.3,0.1,1.3s-0.8-0.2-1.1-0.7c-0.4-0.6-0.4-1.2-0.1-1.4C16,34.9,16.6,35.2,16.9,35.8
				z"/>
		</g>
		<g>
			<path class="st2" d="M19,34.8c0.3,0.6,0,1.4,0,1.4s-0.8-0.2-1.1-0.8c-0.3-0.6-0.3-1.2,0-1.4C18.2,33.8,18.7,34.2,19,34.8z"/>
		</g>
		<g>
			<path class="st2" d="M21.2,33.9c0.2,0.6-0.1,1.3-0.1,1.3s-0.8-0.3-1-0.9c-0.3-0.6-0.2-1.2,0.1-1.4C20.5,32.9,20.9,33.3,21.2,33.9
				z"/>
		</g>
		<g>
			<path class="st2" d="M23.4,33.2c0.2,0.6-0.2,1.3-0.2,1.3s-0.7-0.3-0.9-1c-0.2-0.6-0.1-1.2,0.2-1.3C22.8,32.1,23.2,32.6,23.4,33.2
				z"/>
		</g>
		<g>
			<path class="st2" d="M25.6,32.7c0.2,0.7-0.3,1.3-0.3,1.3s-0.7-0.4-0.9-1c-0.2-0.7,0-1.2,0.3-1.3C25.1,31.5,25.5,32,25.6,32.7z"/>
		</g>
		<g>
			<path class="st2" d="M27.9,32.2c0.1,0.7-0.4,1.3-0.4,1.3s-0.7-0.4-0.8-1.1c-0.1-0.7,0-1.2,0.4-1.3C27.4,31.1,27.8,31.5,27.9,32.2
				z"/>
		</g>
		<g>
			<path class="st2" d="M30.2,31.8c0.1,0.7-0.4,1.3-0.4,1.3S29.1,32.7,29,32s0.1-1.2,0.4-1.3C29.8,30.7,30.1,31.2,30.2,31.8z"/>
		</g>
		<g>
			<path class="st2" d="M32.6,31.6c0.1,0.7-0.5,1.3-0.5,1.3s-0.7-0.5-0.8-1.1c-0.1-0.7,0.1-1.2,0.5-1.3
				C32.2,30.4,32.5,30.9,32.6,31.6z"/>
		</g>
		<g>
			<path class="st2" d="M34.9,31.4c0,0.7-0.5,1.3-0.5,1.3s-0.6-0.5-0.7-1.2c-0.1-0.7,0.2-1.2,0.5-1.3C34.5,30.2,34.9,30.7,34.9,31.4
				z"/>
		</g>
		<g>
			<path class="st2" d="M37.2,31.3c0,0.7-0.6,1.2-0.6,1.2S36,32,36,31.3s0.3-1.2,0.6-1.2C37,30.1,37.3,30.7,37.2,31.3z"/>
		</g>
		<g>
			<path class="st2" d="M39.6,31.5c-0.1,0.7-0.7,1.2-0.7,1.2s-0.5-0.6-0.5-1.3s0.4-1.2,0.7-1.2C39.4,30.3,39.6,30.8,39.6,31.5z"/>
		</g>
		<g>
			<path class="st2" d="M41.9,31.8c-0.1,0.7-0.8,1.1-0.8,1.1s-0.5-0.6-0.4-1.3s0.4-1.2,0.8-1.1C41.8,30.6,42,31.2,41.9,31.8z"/>
		</g>
		<g>
			<path class="st2" d="M44.2,32.2c-0.1,0.7-0.8,1.1-0.8,1.1S42.9,32.7,43,32s0.5-1.2,0.8-1.1S44.3,31.6,44.2,32.2z"/>
		</g>
		<g>
			<path class="st2" d="M46.5,32.7c-0.1,0.7-0.8,1.1-0.8,1.1s-0.5-0.7-0.4-1.3c0.1-0.7,0.5-1.1,0.8-1.1C46.4,31.5,46.6,32,46.5,32.7
				z"/>
		</g>
		<g>
			<path class="st2" d="M48.8,33.2c-0.2,0.6-0.8,1.1-0.8,1.1s-0.1-0.2-0.2-0.4c-0.1-0.2-0.2-0.6-0.1-0.9c0.1-0.7,0.5-1.1,0.8-1.1
				C48.8,31.9,48.9,32.5,48.8,33.2z"/>
		</g>
		<g>
			<path class="st2" d="M51,33.9c-0.2,0.6-1,0.9-1,0.9s-0.4-0.7-0.2-1.3s0.6-1.1,1-1C51.1,32.6,51.2,33.2,51,33.9z"/>
		</g>
		<g>
			<path class="st2" d="M53.1,34.8c-0.3,0.6-1.1,0.9-1.1,0.9s-0.3-0.7-0.1-1.4c0.3-0.6,0.7-1,1.1-0.9C53.4,33.6,53.4,34.2,53.1,34.8
				z"/>
		</g>
		<g>
			<path class="st2" d="M55.2,35.9c-0.3,0.6-1.1,0.8-1.1,0.8s-0.3-0.8,0-1.4c0.3-0.6,0.8-1,1.1-0.8S55.5,35.3,55.2,35.9z"/>
		</g>
		<g>
			<path class="st2" d="M57.2,37c-0.3,0.6-1.1,0.7-1.1,0.7s-0.3-0.8,0.1-1.4c0.3-0.6,0.8-0.9,1.1-0.7S57.6,36.5,57.2,37z"/>
		</g>
	</g>
	<path class="st3" d="M22.3,31.8l-5.8,0.4c0,0-2.9,1.8-4.7,5.8c0,0,10.8-0.4,15.8-4.1S22.3,31.8,22.3,31.8z"/>
	<g>
		<path class="st4" d="M37.7,25.6l-26.3,5.1C11.3,30.7,32.1,40.1,37.7,25.6z"/>
		<path class="st5" d="M37.7,25.6l-26.3,5.1C11.3,30.7,27,14.2,37.7,25.6z"/>
	</g>
	<path class="st3" d="M35.9,84.5c7.8,0,9.8-4.7,14.5-12.1c4-6.2,11.4-14.4,11.4-23.3c0-13.8-5.8-18.3-14.3-19.8l-11.8,0.9
		c0,0-11.4,10.4-12,15.4c0,0,10.4,0.2,18.1-7c0,0,1.5,4.1,7.7,4.6C49.4,43.3,55.5,69.8,35.9,84.5z"/>
	<g>
		<path class="st5" d="M37.5,25.7l24.7,6.7C62.2,32.4,48.4,15.6,37.5,25.7z"/>
		<path class="st4" d="M37.5,25.7l24.7,6.7C62.2,32.4,41.8,40,37.5,25.7z"/>
	</g>
	<path class="st4" d="M35.7,25.7c0,0,0.7-7.2-2.7-11s2.5-4.7,2.5-4.7s5.4,5.5,2.9,15.7S35.7,25.7,35.7,25.7z"/>
	<path class="st6" d="M35.5,10c0,0-5.8,0.8-2.5,4.7C33.1,14.7,35.6,15,35.5,10z"/>
	<g>
		<path class="st4" d="M41.3,26.2L20.8,41.5C20.8,41.5,42.5,41,41.3,26.2z"/>
		<path class="st5" d="M41.3,26.2L20.8,41.5C20.8,41.5,27.4,20.8,41.3,26.2z"/>
	</g>
</g>
</svg>
