<?xml version="1.0" encoding="utf-8"?>
<!-- Generator: Adobe Illustrator 20.0.0, SVG Export Plug-In . SVG Version: 6.00 Build 0)  -->
<svg version="1.1" id="Layer_1" xmlns="http://www.w3.org/2000/svg" xmlns:xlink="http://www.w3.org/1999/xlink" x="0px" y="0px"
	 viewBox="0 0 463 368" style="enable-background:new 0 0 463 368;" xml:space="preserve">
<style type="text/css">
	.st0{fill:#A66327;}
	.st1{fill:#663712;}
	.st2{fill:#65C13E;}
	.st3{fill:#D8823A;}
	.st4{fill:#895021;}
	.st5{opacity:0.5;fill:#853F13;enable-background:new    ;}
	.st6{opacity:0.5;fill:#D8823A;enable-background:new    ;}
	.st7{opacity:0.4;fill:#D8823A;enable-background:new    ;}
	.st8{opacity:0.5;fill:#275116;enable-background:new    ;}
	.st9{fill:#A7E557;}
	.st10{fill:#A0BA2C;}
	.st11{fill:#79891B;}
</style>
<title>worldBuilding_island</title>
<g>
	<g id="world">
		<polygon class="st0" points="0,113.4 12,217.4 27,237.4 41,243.9 50,230.4 56,225.4 62,236.4 62,274.4 69,294.4 82,317.4 
			100,324.4 166,347.4 177,347.4 214,323.4 231.5,294.4 259,256.4 269,255.4 270,263.4 285.6,268.1 309.2,249.9 333,230.4 
			339,208.4 339,189.4 402,151.4 430,126.4 444,104.4 455,84.4 463,74 463,63 373,63 		"/>
		<polygon class="st1" points="168,243.9 173.5,278.4 173.5,306.4 166,368 190,355.6 214,323.4 214,281.4 203.5,250.4 206.5,205.2 
					"/>
		<path class="st2" d="M136.5,58L0,113.4l168,130.5l95-59l0,0c4.5,6.2,13.1,7.9,19.6,3.9l29.4-17.9c0,0,13-5,20-28l131-80L335,9.5
			L211.3,58.4L136.5,58z"/>
		<path class="st3" d="M0,113.4l12,104l15,20c0,0,3.5-46,0-49s1.6-52.8,1.6-52.8L0,113.4z"/>
		<polygon class="st3" points="68.4,166.6 62,236.4 62,274.4 69,294.4 82,317.4 109.5,276.3 100.8,191.8 		"/>
		<polygon class="st4" points="82,317.4 109.5,276.3 122.8,332.4 		"/>
		<polygon class="st3" points="131.3,215.4 122.8,276.3 122.8,353 166,368 173.5,306.4 173.5,278.4 168,243.9 		"/>
		<polygon class="st0" points="100.8,191.8 85.8,243.9 82,317.4 109.5,276.3 		"/>
		<path class="st1" d="M100.8,191.8l8.7,84.6l13.3,56.1c0,0-1.1-58,0-61s8.5-56,8.5-56L100.8,191.8z"/>
		<polygon class="st3" points="263,184.9 263,215.4 270.5,232.4 275.5,191.8 		"/>
		<polygon class="st3" points="270.5,232.4 275.5,248.4 285.6,268.1 270,263.4 269,255.4 263,237.4 263,208.7 		"/>
		<polygon class="st1" points="332,142.9 339,189.4 359.3,177.2 371.7,118.7 		"/>
		<polygon class="st3" points="299.2,257.4 287.3,228.9 293.2,205.2 309.2,197.9 298.2,208.9 298.2,228.9 307.2,260.4 		"/>
		<polygon class="st1" points="263,184.9 241.9,198.1 247.5,236.1 259,256.4 269,255.4 263,237.4 		"/>
		<polygon class="st4" points="205.5,220.7 241.9,198.1 247.5,236.1 259,256.4 214,323.4 212.3,276.3 203.5,250.4 		"/>
		<polygon class="st4" points="371.7,118.7 463,63 463,74 455,84.4 430,126.4 402,151.4 385.2,161.6 		"/>
		<polygon class="st1" points="68.4,166.6 52.3,154.1 56,225.4 62,236.4 		"/>
		<polygon class="st5" points="339.3,189 344.5,166.6 362.6,161.6 382.8,154.1 403.5,134.4 421.5,113.4 449.5,94.4 463,74 
			417.3,106.4 398.3,126.4 365.5,147.7 334.6,160.5 		"/>
		<polygon class="st5" points="262.5,228.9 246.2,227.6 207.9,263.4 173.5,278.4 173.5,306.4 212.8,290.4 250.9,242.1 265.8,245.7 
			263,237.4 		"/>
		<polygon class="st6" points="173.5,278.4 125.8,254.6 109.5,242 85.8,243.9 63.9,215.4 62,247.3 84.1,276.3 109.5,263.4 
			122.8,276.3 173.5,306.4 		"/>
		<polygon class="st6" points="53.3,173.1 25.8,175.4 4.7,154.1 7.2,175.4 28.6,191.8 54.2,190.2 		"/>
		<polygon class="st0" points="307.2,260.4 329.8,239.4 319.5,200.4 309.2,197.9 298.2,208.9 298.2,228.9 		"/>
		<polygon class="st7" points="265.8,245.7 272.9,238.9 294.2,236.1 301,236.1 339.3,189 334.6,160.5 332,184.4 319.5,200.4 
			297.5,219.9 274.3,220.7 262.5,228.9 263,237.4 		"/>
		<polygon class="st8" points="275.5,79.7 321.9,59.8 360,77.9 336.3,91.3 		"/>
		<polygon class="st3" points="263.3,62.5 263.3,94.8 297.1,113 336.3,91.3 336.3,64.8 		"/>
		<polygon class="st1" points="303.7,73 299.8,96.2 299.8,103.9 297.1,113 318.6,102.1 336.3,91.3 336.5,70.3 330.5,65.8 		"/>
		<polygon class="st9" points="302.7,77.6 299.8,65.8 289.9,74.8 291.5,87 294.8,80.9 297.6,90.8 302.1,84.7 303.5,94.8 306.9,84.2 
			309,93.7 312.6,81.2 314.9,89.1 317.6,72.3 		"/>
		<polygon class="st10" points="336.3,64.8 338.3,65.8 336.3,81.2 334,69.3 332.1,77.8 330.5,65.8 		"/>
		<polygon class="st9" points="295.1,50.3 263.3,62.5 303.5,81.2 336.3,64.8 		"/>
		<polygon class="st11" points="313.5,73 307.2,74.4 302.2,77.9 302.1,84.7 303.5,94.8 306.9,84.2 309,93.7 312.6,81.2 314.9,89.1 
			317.6,72.3 		"/>
		<polygon class="st11" points="317.6,72.3 330.5,65.8 338.3,65.8 336.3,81.2 334,69.3 332.1,77.8 330.5,68.8 315.2,76.5 		"/>
		<polygon class="st11" points="302.2,77.9 300.8,80.8 299.9,87.8 303.7,83.5 		"/>
		<polygon class="st8" points="187,58.4 251.2,89.4 193.3,116.6 139,94.6 128.8,58.4 		"/>
		<polygon class="st3" points="27.4,64.3 32.2,100.2 116.1,151.9 204.2,111.6 204.7,81.2 107.7,90.2 		"/>
		<polygon class="st9" points="107.7,42.8 27.4,64.3 115.2,116.6 204.7,81.2 		"/>
		<polygon class="st1" points="115.2,116.6 116.1,151.9 204.2,111.6 204.7,81.2 		"/>
		<polygon class="st8" points="351.8,33 340.3,40.2 381.6,62.4 420.4,45.2 395.9,35 		"/>
		<polygon class="st3" points="340.5,13 340.5,39 383.5,62 418.5,46 418.5,15.5 		"/>
		<polygon class="st1" points="383.7,24.2 379.5,49 379.5,57.3 383.5,62 418.5,46 418.7,21.3 412.4,16.5 		"/>
		<polygon class="st9" points="382.6,29.2 379.5,16.5 368.9,26.2 370.7,39.2 374.2,32.7 377.2,43.2 382,36.7 383.5,47.5 387.1,36.3 
			389.4,46.3 393.2,33 395.6,41.5 398.5,23.5 		"/>
		<polygon class="st10" points="418.5,15.5 420.7,16.5 418.5,33 416,20.3 414,29.3 412.4,16.5 		"/>
		<polygon class="st9" points="374.5,0 340.5,13 383.5,33 418.5,15.5 		"/>
		<polygon class="st11" points="394.2,24.2 387.4,25.8 382.1,29.5 382,36.7 383.5,47.5 387.1,36.3 389.4,46.3 393.2,33 395.6,41.5 
			398.5,23.5 		"/>
		<polygon class="st11" points="398.5,23.5 412.4,16.5 420.7,16.5 418.5,33 416,20.3 414,29.3 412.4,19.8 395.9,28 		"/>
		<polygon class="st11" points="382.1,29.5 380.6,32.6 379.6,40 383.7,35.5 		"/>
		<polygon class="st11" points="115.2,116.6 116.1,136.6 120.5,121.1 125.1,136.6 128.8,116.6 131.3,125.1 134.4,112.3 138.6,124.4 
			145,108.1 151.9,113.4 159.9,101.1 169,101.1 176.2,92.5 		"/>
		<polygon class="st9" points="94,104 95.8,114.5 99,109.2 103.8,125.1 107.7,116.6 107.7,134.1 111.2,119 116.1,136.6 115.2,114.7 
					"/>
		<polygon class="st9" points="0,113.4 131.3,215.4 168,243.9 263,184.9 228.8,198.1 241.9,184.9 219.6,191.8 224,184.9 214,187.9 
			214,181.6 199.3,184.8 228.8,169.6 173.5,184.8 196,172.9 153.3,180.5 173.5,172.9 131.5,178.7 145.7,172.9 122.8,172.9 
			142.7,166.6 115.2,170.2 134.7,160.5 115.2,163.7 128.8,154.1 109.5,157.2 116.1,151.9 32.2,100.2 		"/>
		<polygon class="st9" points="131.5,251.2 131.3,215.4 132.8,213.3 168.3,240.7 166,264.2 163.7,247.2 161.7,260.4 159.9,283.9 
			157.7,254.6 157.7,243.9 155.7,247.2 154.3,272.2 149.6,247.9 149.6,239.9 145.7,246.9 144.3,260.9 140.7,232.4 138,243.9 
			135,229.1 		"/>
		<polygon class="st11" points="168,243.9 171.1,263.5 173.5,245.7 176.2,260.9 178.3,242 181.3,249.7 183.1,234.6 		"/>
		<polygon class="st9" points="263,184.9 263.3,205.2 265.8,191.8 269,209.6 269.2,193.8 273.9,205.2 275.5,191 		"/>
		<polygon class="st11" points="273.9,205.2 279.2,191.8 282,201.3 283.5,191.8 285.6,197.3 287.3,189 289,191.8 289.9,184.4 
			275.5,191 		"/>
	</g>
</g>
</svg>
