<svg id="trafficLight_off" xmlns="http://www.w3.org/2000/svg" xmlns:xlink="http://www.w3.org/1999/xlink" viewBox="0 0 76.03 242.9"><defs><style>.cls-1{fill:#89611a;}.cls-2{fill:#af750e;}.cls-3{fill:#e8bb2e;}.cls-4{fill:url(#linear-gradient);}.cls-5{fill:#ffe650;}.cls-6{fill:#30240e;}.cls-7{fill:#c43130;}.cls-8{fill:#eddb35;}.cls-9{fill:#d4ae26;}.cls-10{fill:#a2bf28;}.cls-11{fill:#8fab20;}.cls-12{fill:#ead32d;}</style><linearGradient id="linear-gradient" x1="28.45" y1="200.03" x2="38.45" y2="200.69" gradientUnits="userSpaceOnUse"><stop offset="0" stop-color="#a6b29a"/><stop offset="1" stop-color="#708372"/></linearGradient></defs><title>trafficLight_off</title><path class="cls-1" d="M69.33,22.73s-3.71,1.79-3.71,1.73-0.21-3.59-.21-3.59Z" transform="translate(-1 -1)"/><polygon class="cls-2" points="1.39 21.55 6.14 23.48 6.14 20.07 1.39 21.55"/><path class="cls-3" d="M5.12,17.31h0a8.36,8.36,0,0,1,6.1-8l28.29-8a8.36,8.36,0,0,1,5.75.45l17.41,8a8.32,8.32,0,0,1,4.79,8.33L67,23.5Z" transform="translate(-1 -1)"/><path class="cls-2" d="M40.87,10.1s3.62-.71,2.58-5.37l19.25,7.5s4.83,1.92,4.83,4.75Z" transform="translate(-1 -1)"/><path class="cls-4" d="M30.54,161.4L33.09,240a4,4,0,0,0,4,3.85h0a4,4,0,0,0,4-4l0.37-82.36Z" transform="translate(-1 -1)"/><polygon class="cls-3" points="3.95 15.62 16.24 166.98 37.53 170.65 41.75 7.98 3.95 15.62"/><polygon class="cls-2" points="41.75 7.98 66.53 15.98 54.57 164.41 37.53 170.65 41.75 7.98"/><path class="cls-5" d="M15.24,53.22S0.54,51.41,1,39.05s20.23-13.35,29.85-4.22S35.65,57.2,35.65,57.2l-1.27.13Z" transform="translate(-1 -1)"/><path class="cls-6" d="M14.61,54.66A14.94,14.94,0,0,1,5,41.54C4.19,28.23,25,30.36,32,39.05A20.58,20.58,0,0,1,35.65,57.2l-2,.18Z" transform="translate(-1 -1)"/><path class="cls-7" d="M33.89,44.56C38.25,52.77,35.82,62.39,29,66s-15.81-.14-20.17-8.35S6.47,39.85,13.24,36.25,29.53,36.35,33.89,44.56Z" transform="translate(-1 -1)"/><path class="cls-2" d="M45.14,58.8s-3.63-20.09,9.93-24.57c9.85-3.25,17.25-.7,20.57.94a2.51,2.51,0,0,1,1.12,3.4c-1.17,2.31-4,6.27-11,11.52Z" transform="translate(-1 -1)"/><path class="cls-6" d="M45.14,58.8S48,36,72.2,37.14c3,0.27-1.41,9.81-11.16,15.57S45.14,58.8,45.14,58.8Z" transform="translate(-1 -1)"/><path class="cls-7" d="M67.88,37.49s-9.63-1.2-17.84,9.2-4.22,19.2-1,20.66S69.79,62.17,67.88,37.49Z" transform="translate(-1 -1)"/><path class="cls-5" d="M19.6,103.59S8.56,102.23,8.92,93s15.68-10,22.9-3.16,2.84,16.78,2.84,16.78l-0.7.1Z" transform="translate(-1 -1)"/><path class="cls-6" d="M19.13,104.67a11.21,11.21,0,0,1-7.24-9.84c-0.58-10,15.5-8.39,20.76-1.87,5.13,6.35,2,13.62,2,13.62l-1.28.13Z" transform="translate(-1 -1)"/><path class="cls-8" d="M33.59,97.17c3.25,6.12,1.3,13.16-3.86,15.9s-12,0-15.22-6.11-1.71-13.29,3.45-16S30.34,91.06,33.59,97.17Z" transform="translate(-1 -1)"/><path class="cls-2" d="M42.57,106.78s-1.74-16.12,9.26-18.9a21.36,21.36,0,0,1,16.24,1.91,2,2,0,0,1,.69,2.75c-1.05,1.76-3.54,4.74-9.38,8.5Z" transform="translate(-1 -1)"/><path class="cls-6" d="M42.57,106.78s3.58-17.92,22.67-15.63c2.33,0.38-1.68,7.69-9.72,11.71S42.57,106.78,42.57,106.78Z" transform="translate(-1 -1)"/><path class="cls-9" d="M61.8,91.18s-7.56-1.49-14.66,6.28-4.43,15-1.94,16.32S61.91,110.84,61.8,91.18Z" transform="translate(-1 -1)"/><path class="cls-5" d="M21.81,147.28S11.29,146,11.63,137.15s15-9.55,21.93-3,2.57,16,2.57,16l-0.62.09Z" transform="translate(-1 -1)"/><path class="cls-6" d="M21.36,148.31a10.69,10.69,0,0,1-6.9-9.39c-0.56-9.52,14.87-8,19.88-1.78,4.89,6.06,1.78,13,1.78,13l-1.18.13Z" transform="translate(-1 -1)"/><path class="cls-10" d="M35.33,141c3.19,6,1.31,13.41-3.68,16.07S20,157,16.84,151s-1.73-13,3.26-15.67S32.14,135,35.33,141Z" transform="translate(-1 -1)"/><path class="cls-2" d="M44.48,151.63s-2.77-14.29,6.86-17.6a19.18,19.18,0,0,1,14.67.49,1.79,1.79,0,0,1,.83,2.41c-0.81,1.65-2.81,4.51-7.75,8.31Z" transform="translate(-1 -1)"/><path class="cls-6" d="M44.48,151.63s1.86-16.3,19.1-15.69c2.11,0.17-.92,7-7.82,11.2S44.48,151.63,44.48,151.63Z" transform="translate(-1 -1)"/><path class="cls-11" d="M60.51,136.24s-6.87-.77-12.64,6.72S45,156.68,47.36,157.7,62.09,153.81,60.51,136.24Z" transform="translate(-1 -1)"/><path class="cls-12" d="M65.89,32.71s-19.95-2-20.76,18.41C45.14,51.12,48.09,35.81,65.89,32.71Z" transform="translate(-1 -1)"/><path class="cls-12" d="M61.74,87.35s-17.32-3.26-19.61,14.51C42.12,101.87,45.9,88.69,61.74,87.35Z" transform="translate(-1 -1)"/><path class="cls-12" d="M58.45,132.83s-16.72-.22-16,16.77C42.48,149.6,43.86,136.66,58.45,132.83Z" transform="translate(-1 -1)"/><polygon class="cls-2" points="4.12 17.73 41.75 9.98 41.66 16.23 4.46 22.32 4.12 17.73"/><polygon class="cls-1" points="41.66 16.23 66.04 22.51 66.37 18.02 41.66 11.23 41.66 16.23"/><path class="cls-2" d="M42.75,9l-0.09,6.25,26.67,7.5,0.2-4.35a1,1,0,0,0-.69-1Z" transform="translate(-1 -1)"/><path class="cls-5" d="M3,17L42.75,9l-0.09,6.25L2.39,22.55,2.22,18A1,1,0,0,1,3,17Z" transform="translate(-1 -1)"/><polygon class="cls-5" points="37.53 168.48 12.15 164.15 12.15 169.98 37.53 175.15 37.53 168.48"/><polygon class="cls-2" points="57.6 163.31 37.53 168.48 37.53 175.15 57.6 168.65 57.6 163.31"/><polygon class="cls-1" points="37.53 168.48 57.6 163.31 54.69 163.04 37.53 167.48 37.53 168.48"/><polygon class="cls-2" points="12.15 164.15 15.97 163.72 37.53 167.48 37.53 168.48 12.15 164.15"/><path class="cls-5" d="M6.91,13.48S7.41,10.4,13.25,9s25.94-7.11,26-7.12a0.45,0.45,0,0,1,.59.48A3.1,3.1,0,0,1,38,5.11,58.66,58.66,0,0,1,28,8.39c-3.61,1-7.24,1.89-10.88,2.76q-4.16,1-8.33,1.92Z" transform="translate(-1 -1)"/></svg>