<svg id="bassoLeftLeg" xmlns="http://www.w3.org/2000/svg" xmlns:xlink="http://www.w3.org/1999/xlink" viewBox="0 0 12.28 48.56"><defs><style>.cls-1{fill:url(#linear-gradient);}.cls-2{fill:url(#linear-gradient-2);}.cls-3{fill:url(#linear-gradient-3);}</style><linearGradient id="linear-gradient" x1="-2.83" y1="35.45" x2="14.55" y2="14.95" gradientUnits="userSpaceOnUse"><stop offset="0.1" stop-color="#f58323"/><stop offset="0.17" stop-color="#e97924"/><stop offset="0.4" stop-color="#ca5e26"/><stop offset="0.6" stop-color="#b74e28"/><stop offset="0.73" stop-color="#b04828"/></linearGradient><linearGradient id="linear-gradient-2" x1="2.98" y1="42.32" x2="5.43" y2="33.84" gradientUnits="userSpaceOnUse"><stop offset="0" stop-color="#72c9bf"/><stop offset="1" stop-color="#44a1a2"/></linearGradient><linearGradient id="linear-gradient-3" x1="6.55" y1="44.17" x2="4.48" y2="46.8" gradientUnits="userSpaceOnUse"><stop offset="0" stop-color="#657947"/><stop offset="1" stop-color="#59894c"/></linearGradient></defs><title>byte_leftLeg</title><path class="cls-1" d="M7.14,1C4.21,1,.87,3.44,1,6.37L3.28,46.83a2.86,2.86,0,0,0,2.86,2.73h0A2.86,2.86,0,0,0,9,47L13.25,6.73C13.6,3.68,10.22,1,7.14,1h0Z" transform="translate(-1 -1)"/><polygon class="cls-2" points="1.44 30.88 1.91 39.29 8.68 39.35 9.58 30.88 1.44 30.88"/><path class="cls-3" d="M3,42.05l0.27,4.77A2.86,2.86,0,0,0,9,47l0.55-5.18Z" transform="translate(-1 -1)"/></svg>