<svg id="iPad" xmlns="http://www.w3.org/2000/svg" viewBox="0 0 115.15 149.72"><defs><style>.cls-1{fill:#010101;}.cls-2{fill:#b3b3b3;}.cls-3{fill:#414142;}.cls-4{stroke:#b3b3b3;stroke-miterlimit:10;stroke-width:0.5px;}</style></defs><title>device_iPad</title><path class="cls-1" d="M7.28,150a5.8,5.8,0,0,1-5.77-5.8V7.51A5.8,5.8,0,0,1,7.28,1.7H109.86a5.8,5.8,0,0,1,5.78,5.81v136.7a5.8,5.8,0,0,1-5.78,5.8H7.28Z" transform="translate(-1 -1)"/><path class="cls-2" d="M110.45,150.72H6.7A5.72,5.72,0,0,1,1,145V6.73A5.72,5.72,0,0,1,6.7,1H110.45a5.72,5.72,0,0,1,5.7,5.73V145A5.72,5.72,0,0,1,110.45,150.72ZM6.7,3A3.72,3.72,0,0,0,3,6.73V145a3.72,3.72,0,0,0,3.7,3.73H110.45a3.72,3.72,0,0,0,3.7-3.73V6.73A3.72,3.72,0,0,0,110.45,3H6.7Z" transform="translate(-1 -1)"/><rect class="cls-3" x="12.3" y="14.19" width="90.57" height="121.24"/><path class="cls-4" d="M62.45,142.88a3.85,3.85,0,1,0-3.85,3.88,3.86,3.86,0,0,0,3.85-3.88" transform="translate(-1 -1)"/><circle class="cls-2" cx="57.5" cy="7.81" r="1.19"/></svg>