<?xml version="1.0" encoding="utf-8"?>
<!-- Generator: Adobe Illustrator 20.0.0, SVG Export Plug-In . SVG Version: 6.00 Build 0)  -->
<svg version="1.1" id="hammer" xmlns="http://www.w3.org/2000/svg" xmlns:xlink="http://www.w3.org/1999/xlink" x="0px" y="0px"
	 viewBox="0 0 270.1 578.1" style="enable-background:new 0 0 270.1 578.1;" xml:space="preserve">
<style type="text/css">
	.st0{fill:#4C4E51;}
	.st1{fill:#BF530A;}
	.st2{fill:#C96928;}
	.st3{fill:#E88846;}
	.st4{fill:#A04608;}
	.st5{fill:none;stroke:#818284;stroke-width:2;stroke-linecap:round;stroke-linejoin:round;}
	.st6{fill:#2D3033;}
</style>
<title>hammer</title>
<path class="st0" d="M270.1,106.5L270.1,106.5C259.7,47.2,220.1,1.8,132.2,0.1c-0.9,0-1.8-0.1-2.7-0.1h-2.7l0,0
	c-20.4,0.4-30.2,5.5-30.2,5.5c-10,8-22.4,12.3-35.1,12.3c-12.8,0-25.2-4.3-35.2-12.3H0v66h26.5c7.4-7.4,16.6-13.6,35-13.6
	c10.9,0,21.6,3.2,30.7,9.1c0,0,17.7,9.9,17.7,50.7h54.4c0-48.1,14.1-53.5,23-55.5c40.8-8.9,59.4,17.2,66.5,32.4
	C256.9,101,263,105.5,270.1,106.5z"/>
<path class="st1" d="M154.8,578.1h-36.3c-14.5,0-26.2-12.1-23-26.6l11.9-432.1c0.1-2.3,2-4.2,4.3-4.2h49.8c2.4,0,4.3,1.9,4.3,4.2
	l11.9,432.1C181,566,169.3,578.1,154.8,578.1z"/>
<path class="st2" d="M143.2,551.5l-9.5-432.2c0.1-2.3,2-4.2,4.3-4.2h-20.3c-2.4,0-4.3,1.9-4.3,4.2l-11.9,432.2
	c-3.2,14.5,8.5,26.6,23,26.6h36.3c0.9,0,1.8,0,2.7-0.1C150.2,576.6,140.2,565.1,143.2,551.5z"/>
<path class="st3" d="M103.5,551.5l11.9-432.2c0.1-2.3,2-4.2,4.3-4.2h-8c-2.4,0-4.3,1.9-4.3,4.2L95.5,551.5
	c-3.2,14.5,8.5,26.6,23,26.6h8C111.9,578.1,100.3,566,103.5,551.5z"/>
<path class="st1" d="M127.3,211.8l-3.1,119l-1.6,59.2c-0.1,5-0.3,10-0.4,14.9c-0.1,3.6,0,7,2.6,9.7c2.6,2.7,5.9,4.1,8.5,6.6
	c2.8,2.8,4.9,6.2,6.1,10c1.3,4.1,1.7,8.7,0,12.7c-2.1,5-6.6,5.8-11,2.9c-3.6-2.4-8.1-6.5-7.7-11.2c0.2-1.9,1.2-4.3,3.2-4.9
	c2.3-0.8,5.2,1.5,4.4,3.9c-0.6,1.8,2.3,2.6,2.9,0.7c1-3.2-1.2-6.3-4.2-7.4c-3.2-1.2-6.4,0.5-8.1,3.3c-4.3,7.4,2.9,15.4,9,18.8
	c7.6,4.2,14.2-1.3,15.3-9.1c1.2-8.2-2.5-16.9-8.5-22.4c-2.9-2.7-8.1-4.4-9.3-8.4c-0.8-2.5-0.3-5.7-0.2-8.3l0.2-9l0.9-34.4l1.9-69.2
	l2.1-77.7C130.3,209.7,127.3,209.8,127.3,211.8L127.3,211.8L127.3,211.8z"/>
<path class="st1" d="M141.9,445.7c0.8,6.5-3.2,13.2-9.6,15s-13.7-2-16.1-8.2c-0.2-0.8-1.1-1.2-1.9-1c-0.6,0.2-1,0.7-1.1,1.4
	l-1.4,54.6c0,1.9,3,1.9,3,0l1.4-54.6l-2.9,0.4c3,7.5,11.2,12.2,19.1,10.4s13.4-10.1,12.5-18.1C144.7,443.7,141.7,443.7,141.9,445.7
	L141.9,445.7L141.9,445.7z"/>
<path class="st4" d="M142.7,125.3c-1.3,34.4-1.8,68.7-1.5,103.1c0.1,9.8,0.2,19.6,0.4,29.4c0,1.9,3,1.9,3,0
	c-0.7-34.4-0.7-68.7,0.2-103.1c0.2-9.8,0.5-19.6,0.9-29.4C145.7,123.3,142.7,123.3,142.7,125.3L142.7,125.3L142.7,125.3z"/>
<path class="st4" d="M150.1,273.4L150.1,273.4c-1.1-1.2-3.2,0.3-2.1,1.5c5.9,6.6,9.1,15.2,8.9,24c-0.1,3.2-1.7,10.3-6.5,7.2
	c-4.3-2.9-1.2-8.8,1.3-11.7c0.3-0.5,0.3-1.2-0.2-1.6c-0.5-0.5-1.3-0.5-1.8-0.1c-3.3,3.9-5.9,10-2,14.4c0.6,0.7,1.3,1.2,2.1,1.6
	c3.1,1.5,6.9,0.1,8.3-3c2.4-4.7,1.5-11.2,0.3-16.1C157.1,283.6,154.2,278,150.1,273.4L150.1,273.4z"/>
<path class="st4" d="M164.2,285.9L164.2,285.9c-0.7-1.5-3.1-0.6-2.4,0.9c3.3,6.9,3.8,14.6,0,21.4c-1.2,2.2-2.9,4.2-4.9,5.7
	c-1.9,1.5-3.8,1.8-5.9,2.6c-3.1,1.2-3.7,4-3.7,7.1c0,3.7,0.1,7.4,0.2,11c0.4,15.7,1,31.4,1.2,47.2c0,1.7,2.6,1.4,2.6-0.3
	c-0.1-8.9-0.4-17.8-0.7-26.7c-0.2-8-0.4-15.9-0.6-23.9c-0.1-2-0.1-4-0.1-6c0-1.6-0.3-3.9,0.9-5.2c1.1-1.2,3-1.2,4.4-1.8
	c0.8-0.4,1.6-0.8,2.4-1.3C167.7,310,169.1,296.2,164.2,285.9L164.2,285.9z"/>
<path class="st4" d="M156.8,452v65.4c0,0.8,0.7,1.5,1.5,1.5s1.5-0.7,1.5-1.5V452c0-0.8-0.7-1.5-1.5-1.5S156.8,451.2,156.8,452
	L156.8,452z"/>
<path class="st1" d="M128.9,498.2v41.3c0,0.8,0.7,1.5,1.5,1.5s1.5-0.7,1.5-1.5v-41.3c0-0.8-0.7-1.5-1.5-1.5S128.9,497.4,128.9,498.2
	L128.9,498.2z"/>
<path class="st3" d="M110.2,531.4v41.3c0,0.8,0.7,1.5,1.5,1.5s1.5-0.7,1.5-1.5v-41.3c0-0.8-0.7-1.5-1.5-1.5S110.2,530.6,110.2,531.4
	L110.2,531.4z"/>
<path class="st3" d="M118.4,116.7c0.3,23,1.7,45.9,0.1,68.9c-0.1,1.9,2.9,1.9,3,0c1.7-22.9,0.2-45.9-0.1-68.9c0-0.8-0.7-1.5-1.5-1.5
	S118.4,115.8,118.4,116.7L118.4,116.7z"/>
<line class="st5" x1="26.2" y1="14.6" x2="26.2" y2="59.5"/>
<path class="st5" d="M156.4,10.2c0,0-41.4-4.7-54,0c0,0-6.4,14.4-42.5,14.4"/>
<path class="st4" d="M139.1,117.7h21.8c1.9,0,3.5,1.6,3.5,3.5l1.5,84.3L139.1,117.7z"/>
<path class="st6" d="M224,58.8c0,0-67.8-31-67.8,48.4h-39.1c0,0,3.5-44-27-53C90.2,54.2,134.1-4.2,224,58.8z"/>
</svg>
