<?xml version="1.0" encoding="utf-8"?>
<!-- Generator: Adobe Illustrator 20.1.0, SVG Export Plug-In . SVG Version: 6.00 Build 0)  -->
<svg version="1.1" id="Layer_1" xmlns="http://www.w3.org/2000/svg" xmlns:xlink="http://www.w3.org/1999/xlink" x="0px" y="0px"
	 viewBox="0 0 113.9 63.7" style="enable-background:new 0 0 113.9 63.7;" xml:space="preserve">
<style type="text/css">
	.st0{fill:#51A9B6;}
</style>
<title>ring</title>
<g>
	<path class="st0" d="M9.6,46.2H9.3v4.4l-8.5,1l1-39.5l8.6-1l-1,15.2h0.3c1.2-2.7,4.4-4.6,8.2-4.6c6.4,0,10.8,4.6,10.8,13.4v2.5
		c0,8.6-4.2,13.4-10.8,13.4C13.8,51,11,49.1,9.6,46.2z M20.9,37.3v-1.9c0-5-2.3-7.7-5.6-7.7c-3.6,0-6,2.6-6,7.7v1.9
		c0,5.1,2.3,7.7,6,7.7C18.6,45,20.9,42.4,20.9,37.3z"/>
	<path class="st0" d="M57.6,51.6l-7.3-1v-4.2h-0.3C49,48.6,46.4,51,41.7,51c-5.8,0-9.7-3.4-9.7-10.1V21.1l7.6,1v16.8
		c0,4.6,2.6,5.8,5.2,5.8c3,0,5.3-2,5.3-5.8V22.1l8.5-1L57.6,51.6z"/>
	<path class="st0" d="M63.3,46.3l13.4-18V28l-13.1,2v-8.9l22.2,1v4.8L72.9,44.4v0.3l13.2-2v9.9l-22.9-2V46.3z"/>
	<path class="st0" d="M90.2,46.3l13.4-18V28l-13.1,2v-7.9h22.2v4.8L99.8,44.4v0.3l13.2-2v7.9H90.2V46.3z"/>
</g>
</svg>
