<svg xmlns="http://www.w3.org/2000/svg" viewBox="0 0 173.53 248.12"><defs><style>.cls-1{isolation:isolate;}.cls-2{fill:none;stroke:#4c4e51;stroke-linecap:round;stroke-linejoin:round;stroke-width:6px;}.cls-3{fill:#bf530a;}.cls-4{fill:#a04608;}.cls-5{fill:#4c4e51;}.cls-6{fill:#fff;stroke:#fff;stroke-miterlimit:10;}.cls-7{fill:#009548;}.cls-8{fill:#143824;opacity:0.2;mix-blend-mode:multiply;}</style></defs><title>green_roller</title><g class="cls-1"><g id="green_roller"><path class="cls-2" d="M112.05,27.25H21.33v34l76.82,18a18,18,0,0,1,13.9,17.53V114" transform="translate(-18.33 -2.21)"/><path class="cls-3" d="M116.2,250h-8.29a6,6,0,0,1-6-5.74l-2.16-49.06q-0.58-13.21,0-26.44L102.17,114h19.78l2.42,54.79q0.58,13.21,0,26.44l-2.16,49.06A6,6,0,0,1,116.2,250Z" transform="translate(-18.33 -2.21)"/><path class="cls-4" d="M122.16,244.26l2.16-49.06q0.58-13.21,0-26.44L121.9,114H105.46l9.58,7L117,181.69,112,250S122.16,252.42,122.16,244.26Z" transform="translate(-18.33 -2.21)"/><path class="cls-5" d="M181.86,15.25a10,10,0,0,1,0,20v-20Z" transform="translate(-18.33 -2.21)"/><rect class="cls-6" x="13.92" y="0.5" width="153.67" height="47.08" rx="12" ry="12"/><rect class="cls-7" x="25.92" y="0.5" width="129.67" height="47.08"/><path class="cls-8" d="M17,27H164.66a0,0,0,0,1,0,0v7.84a9.78,9.78,0,0,1-9.78,9.78h-128A9.78,9.78,0,0,1,17,34.88V27a0,0,0,0,1,0,0Z"/><rect class="cls-3" x="80.72" y="110.76" width="26" height="7"/></g></g></svg>