<svg id="bassoBody_base" xmlns="http://www.w3.org/2000/svg" xmlns:xlink="http://www.w3.org/1999/xlink" viewBox="0 0 91.87 101.17"><defs><style>.cls-1{fill:url(#linear-gradient);}</style><linearGradient id="linear-gradient" x1="50.29" y1="38.31" x2="61.48" y2="3.89" gradientUnits="userSpaceOnUse"><stop offset="0" stop-color="#f58323"/><stop offset="0.46" stop-color="#ea7225"/><stop offset="1" stop-color="#e06326"/></linearGradient></defs><title>basso_neck</title><path class="cls-1" d="M16.33,102.16c21,0,41.6.21,60.85-9.37l7.3-3.93A15.15,15.15,0,0,0,92,70.25C90.63,66.35,82.49,50,81.41,46.33a215.62,215.62,0,0,1-6.8-35.13,12.13,12.13,0,0,0-13.92-10L11.19,9.48A12.13,12.13,0,0,0,1,21.46L1.73,87a15.4,15.4,0,0,0,14.6,15.15h0Z" transform="translate(-1 -1)"/></svg>