<svg xmlns="http://www.w3.org/2000/svg" viewBox="0 0 80.37 67.41"><defs><style>.cls-1{isolation:isolate;}.cls-2{fill:#275116;}.cls-10,.cls-11,.cls-2{opacity:0.5;}.cls-10,.cls-3{fill:#d8823a;}.cls-4{fill:#663712;}.cls-5{fill:#a7e557;}.cls-6{fill:#a0ba2c;}.cls-7{fill:#a66327;}.cls-8{fill:#895021;}.cls-9{fill:#79891b;}.cls-10{mix-blend-mode:screen;}.cls-11{fill:#853f13;mix-blend-mode:multiply;}</style></defs><title>worldBuilding_block</title><g class="cls-1"><g id="block"><polygon class="cls-2" points="11.71 38.01 0.19 45.15 41.49 67.41 78.17 46 55.8 39.96 11.71 38.01"/><polygon class="cls-3" points="0.17 13 0.17 44 43.17 67 78.17 46 78.17 15.5 0.17 13"/><polygon class="cls-4" points="43.37 24.25 39.17 49 39.17 57.33 43.17 67 78.17 46 78.37 21.33 72.03 16.5 43.37 24.25"/><polygon class="cls-5" points="42.25 29.2 39.17 16.5 28.54 26.2 30.37 39.17 33.87 32.69 36.87 43.25 41.67 36.74 43.17 47.5 46.81 36.26 49.03 46.33 52.87 33 55.3 41.5 58.2 23.5 42.25 29.2"/><polygon class="cls-6" points="78.17 15.5 80.37 16.5 78.17 33 75.7 20.33 73.7 29.33 72.03 16.5 78.17 15.5"/><polygon class="cls-5" points="34.17 0 0.17 13 43.17 33 78.17 15.5 34.17 0"/><polygon class="cls-7" points="58.2 63.67 52.68 61.29 52.68 49.33 58.77 41.75 62.7 41.75 57.69 50.33 58.2 63.67"/><polygon class="cls-8" points="62.7 41.75 69.37 41.75 72.03 49.68 72.03 52.71 58.2 63.67 57.69 50.33 62.7 41.75"/><polygon class="cls-9" points="53.87 24.25 47.12 25.75 38.12 29.5 41.67 36.74 43.17 47.5 46.81 36.26 49.03 46.33 52.87 33 55.3 41.5 58.2 23.5 53.87 24.25"/><polygon class="cls-9" points="58.2 23.5 72.03 16.5 80.37 16.5 78.17 33 75.7 20.33 73.7 29.33 72.03 19.75 55.62 28 58.2 23.5"/><polygon class="cls-9" points="38.12 29.5 37.12 35.5 37.62 38 43.37 35.5 38.12 29.5"/><polygon class="cls-10" points="0 23.5 9.48 33.75 22.22 33.75 39.17 49 39.17 57.33 24.62 41.75 9.98 41.75 0 35.5 0 23.5"/><polygon class="cls-11" points="39.17 49 50.31 49 58.77 41.75 52.68 49.33 52.68 55.95 39.17 57.33 39.17 49"/><polygon class="cls-11" points="69.37 41.75 78.17 33 78.17 40.42 71.3 47.5 69.37 41.75"/></g></g></svg>