<svg id="leftArm" xmlns="http://www.w3.org/2000/svg" xmlns:xlink="http://www.w3.org/1999/xlink" viewBox="0 0 14.09 16.88"><defs><style>.cls-1{fill:url(#linear-gradient);}</style><linearGradient id="linear-gradient" x1="-3.65" y1="21.38" x2="9.85" y2="9.13" gradientUnits="userSpaceOnUse"><stop offset="0.09" stop-color="#7d122c"/><stop offset="0.2" stop-color="#85132f"/><stop offset="0.37" stop-color="#9b1736"/><stop offset="0.59" stop-color="#c01e42"/><stop offset="0.8" stop-color="#eb2550"/></linearGradient></defs><title>carmine_RA</title><path class="cls-1" d="M1,13.91c1.9,1.56,5.33,4,8.39,4A5,5,0,0,0,11,17.63a5.82,5.82,0,0,0,3.73-3.78c1-2.89.09-6.72-2.35-10.25h0A6.14,6.14,0,0,0,12,3C10.85,1.18,8.8.53,7.32,1.34c-2.11,1.16-1.82,3.29-.42,5,1.73,2.09,3.39,2.17,4.81,1.26a2.62,2.62,0,0,0,.41-0.33,7.44,7.44,0,0,1,.76,6.27,2.47,2.47,0,0,1-2.25,1.56C8.71,15.31,4.26,12.22,1.8,10" transform="translate(-1 -1)"/></svg>