<svg id="routes" xmlns="http://www.w3.org/2000/svg" viewBox="0 0 37.62 33.81"><defs><style>.cls-1{fill:#e40d00;}</style></defs><title>algorithms_hazardIcon</title><path class="cls-1" d="M19.81,4L35.62,31.81H4L19.81,4m0-3A3,3,0,0,0,17.2,2.52L1.39,30.33A3,3,0,0,0,4,34.81H35.62a3,3,0,0,0,2.61-4.48L22.42,2.52A3,3,0,0,0,19.81,1h0Z" transform="translate(-1 -1)"/><path class="cls-1" d="M19.81,25.34a1.66,1.66,0,1,1,0,3.3A1.66,1.66,0,1,1,19.81,25.34ZM21.55,13L21.18,23.71H18.43L18.07,13h3.48Z" transform="translate(-1 -1)"/></svg>