<svg id="whiteCar" xmlns="http://www.w3.org/2000/svg" viewBox="0 0 64.86 103.72"><defs><style>.cls-1{fill:#fff;}.cls-2{fill:#53b7b4;}.cls-3{fill:none;stroke:#d9dbdb;stroke-linecap:round;stroke-miterlimit:10;stroke-width:2px;}.cls-4{fill:#c90;}</style></defs><title>algorithms_whiteCar</title><path class="cls-1" d="M60.79,62.65H6L6.2,87A17.82,17.82,0,0,0,24,104.72h18.8A17.82,17.82,0,0,0,60.65,87Z" transform="translate(-1 -1)"/><path class="cls-1" d="M22.38,2.14L23,2a50.69,50.69,0,0,1,20.74.13h0c5,0,9.19,3.49,12.12,7.11a22.36,22.36,0,0,1,4.95,14.09V60.86c0,15.15-12.28,41.9-27.43,41.9h0C18.24,102.76,6,76,6,60.86v-38A22.16,22.16,0,0,1,10.21,9.72C13,5.94,17.11,2.14,22.38,2.14Z" transform="translate(-1 -1)"/><path class="cls-2" d="M48.44,56.72l-0.61.16c-11.79,3.1-17.66,3-29.43-.16h0L11.87,71.41h0c7.44,6.2,35.26,6.2,42.45,0h0Z" transform="translate(-1 -1)"/><polygon class="cls-2" points="50.06 51.8 50.06 31.56 55.93 27.31 55.93 66.17 50.06 51.8"/><polygon class="cls-2" points="14.14 51.8 14.14 31.56 8.26 27.31 8.26 66.17 14.14 51.8"/><path class="cls-2" d="M49.06,29.62H17.72L18.13,25a6.81,6.81,0,0,1,6.78-6.19H41.87A6.81,6.81,0,0,1,48.65,25Z" transform="translate(-1 -1)"/><line class="cls-3" x1="36.34" y1="100.56" x2="28.51" y2="100.56"/><ellipse class="cls-4" cx="47.95" cy="99.49" rx="5.71" ry="1.63" transform="translate(-36.43 26.06) rotate(-23.29)"/><ellipse class="cls-4" cx="18.44" cy="99" rx="1.63" ry="5.71" transform="translate(-80.79 75.8) rotate(-66.71)"/><path class="cls-3" d="M54,75.06S52.36,91,40.94,94.59v7.51" transform="translate(-1 -1)"/><path class="cls-3" d="M12.78,75.06S14.42,91,25.84,94.59v7.51" transform="translate(-1 -1)"/><path class="cls-3" d="M51.6,9.7l-5.44,4.9H20.72L15.14,9.7h0a36,36,0,0,1,36.05-.23Z" transform="translate(-1 -1)"/><path class="cls-3" d="M38.54,8.07a29.79,29.79,0,0,0-10.34,0" transform="translate(-1 -1)"/><path class="cls-1" d="M65.58,67.75a4.62,4.62,0,0,1-8.69,3.16Z" transform="translate(-1 -1)"/><path class="cls-1" d="M10,70.87a4.62,4.62,0,1,1-8.69-3.16Z" transform="translate(-1 -1)"/></svg>