<svg id="portalOutside" xmlns="http://www.w3.org/2000/svg" viewBox="0 0 113.81 118.94"><defs><style>.cls-1,.cls-3{fill:#ededee;}.cls-2,.cls-3{opacity:0.5;}</style></defs><title>portalOutside</title><path class="cls-1" d="M75.17,60h16a35.72,35.72,0,0,0-9.6-23.9L70,47.14A19.76,19.76,0,0,1,75.17,60Z" transform="translate(-1 -1)"/><path class="cls-1" d="M75.17,61a19.79,19.79,0,0,1-5.55,13.24L80.94,85.54A35.74,35.74,0,0,0,91.18,61h-16Z" transform="translate(-1 -1)"/><path class="cls-1" d="M90.17,46.69a37.33,37.33,0,0,1,.74,25.52l20.88,6.9a59.25,59.25,0,0,0-1.29-40.8Z" transform="translate(-1 -1)"/><path class="cls-1" d="M74.63,28.37A37.71,37.71,0,0,1,89.79,45.76l20.35-8.37a59.84,59.84,0,0,0-24.43-28Z" transform="translate(-1 -1)"/><path class="cls-1" d="M90.59,73.16a37.67,37.67,0,0,1-16,19.43l11.07,19a59.77,59.77,0,0,0,25.79-31.52Z" transform="translate(-1 -1)"/><path class="cls-1" d="M84.84,8.87A59.08,59.08,0,0,0,55.33,1V6.14s-2.42,0-4.29,0V17.56h4.29l0,5.45a37.23,37.23,0,0,1,18.39,4.87Z" transform="translate(-1 -1)"/><path class="cls-1" d="M55.33,97.94h0v5.86H51.67l-0.25,10.63h3.91v5.51h0a59.09,59.09,0,0,0,29.49-7.86l-11.07-19A37.23,37.23,0,0,1,55.33,97.94Z" transform="translate(-1 -1)"/><path class="cls-1" d="M69.33,46.4L80.89,35.35a35.75,35.75,0,0,0-25.5-10.74l0,3.57H53.23V38.32h2.94v2.33A19.79,19.79,0,0,1,69.33,46.4Z" transform="translate(-1 -1)"/><path class="cls-1" d="M68.91,74.92a19.74,19.74,0,0,1-12.75,5.37v2.14h-2.5l-0.5,10.75h2.17v3.15h0a35.72,35.72,0,0,0,24.9-10.09Z" transform="translate(-1 -1)"/><g class="cls-2"><path class="cls-1" d="M17.58,60.47a37.66,37.66,0,0,1,1.08-8.94l-16-4.35A54.09,54.09,0,0,0,4.66,80l15.46-6A37.55,37.55,0,0,1,17.58,60.47Z" transform="translate(-1 -1)"/><path class="cls-1" d="M18.9,50.56a37.81,37.81,0,0,1,10.93-17.9l-11-12.37A54.41,54.41,0,0,0,2.9,46.21Z" transform="translate(-1 -1)"/><path class="cls-1" d="M20.5,75L5,81A54.65,54.65,0,0,0,25.11,105.6L34.2,91.74A38,38,0,0,1,20.5,75Z" transform="translate(-1 -1)"/></g><g class="cls-2"><path class="cls-1" d="M51,23V6.32A54.11,54.11,0,0,0,19.55,19.64L30.59,32A37.61,37.61,0,0,1,51,23Z" transform="translate(-1 -1)"/><path class="cls-1" d="M51,98a37.53,37.53,0,0,1-16-5.67L26,106.14A54,54,0,0,0,51,114.63V98Z" transform="translate(-1 -1)"/></g><path class="cls-3" d="M41.17,74.81L29.92,85.63A35.69,35.69,0,0,0,51,96V80.17A20.16,20.16,0,0,1,41.17,74.81Z" transform="translate(-1 -1)"/><path class="cls-3" d="M35.47,63.83L20,66.05a35.68,35.68,0,0,0,9.24,18.85L40.49,74.07A20.14,20.14,0,0,1,35.47,63.83Z" transform="translate(-1 -1)"/><path class="cls-3" d="M35.17,60.47a20.09,20.09,0,0,1,.55-4.6L20.6,51.92a35.34,35.34,0,0,0-.74,13.14l15.46-2.22A20,20,0,0,1,35.17,60.47Z" transform="translate(-1 -1)"/><path class="cls-3" d="M36,54.9A20.14,20.14,0,0,1,38.81,49L26.22,39.72A35.64,35.64,0,0,0,20.85,51Z" transform="translate(-1 -1)"/><path class="cls-3" d="M39.41,48.16A20.18,20.18,0,0,1,51,40.78V25A35.78,35.78,0,0,0,26.81,38.91Z" transform="translate(-1 -1)"/></svg>