<?xml version="1.0" encoding="utf-8"?>
<!-- Generator: Adobe Illustrator 20.0.0, SVG Export Plug-In . SVG Version: 6.00 Build 0)  -->
<svg version="1.1" id="Layer_1" xmlns="http://www.w3.org/2000/svg" xmlns:xlink="http://www.w3.org/1999/xlink" x="0px" y="0px"
	 viewBox="0 0 170.1 155.4" style="enable-background:new 0 0 170.1 155.4;" xml:space="preserve">
<style type="text/css">
	.st0{fill:#698AA8;}
	.st1{fill:#D7EAFF;}
	.st2{fill:#FFFFFF;}
	.st3{fill:#D7EAFF;stroke:#FFFFFF;stroke-width:2;stroke-miterlimit:10;}
	.st4{fill:#A3BFD8;}
	.st5{fill:url(#SVGID_1_);}
	.st6{fill:none;stroke:#D7EAFF;stroke-width:2;stroke-linecap:round;stroke-miterlimit:10;}
	.st7{fill:none;stroke:#FFFFFF;stroke-width:2;stroke-miterlimit:10;}
</style>
<g id="sundaeBowl">
	<ellipse class="st0" cx="97.2" cy="118.4" rx="52" ry="27.1"/>
	<g>
		<path class="st1" d="M87.3,144.4c-23.1,0-41.8-10.6-41.8-23.7c0-1.8-0.2-5.7-0.2-7.5c5.1,0,27.7-0.1,44.7-0.1
			c16.8,0,34.7-0.6,39.1-0.8c0,2,0.1,6.6,0.1,8.4C129.1,133.8,110.3,144.4,87.3,144.4z"/>
		<path class="st2" d="M128,113.3c0,2.3,0.1,5.8,0.1,7.4c0,5.8-4.1,11.4-11.5,15.7c-7.8,4.5-18.2,7-29.3,7s-21.5-2.5-29.3-7
			c-7.4-4.3-11.5-9.9-11.5-15.7c0-1.6-0.1-4.5-0.2-6.5c6.6,0,27.6-0.1,43.7-0.1C105.6,114.1,122.3,113.5,128,113.3 M130,111.3
			c0,0-20.6,0.8-40.1,0.8c-19.4,0-45.7,0.1-45.7,0.1s0.3,6.1,0.3,8.5c0,13.6,19.2,24.7,42.8,24.7s42.8-11,42.8-24.7
			C130.1,118.3,130,111.3,130,111.3L130,111.3z"/>
	</g>
	<ellipse class="st3" cx="87.3" cy="113.7" rx="42" ry="24.2"/>
	<ellipse class="st4" cx="87.3" cy="116.7" rx="16.8" ry="9.7"/>
	<ellipse class="st3" cx="87.3" cy="113.7" rx="16.8" ry="9.7"/>
	<ellipse class="st4" cx="87.3" cy="106.6" rx="15" ry="9.5"/>
	<ellipse class="st3" cx="85.1" cy="62.9" rx="68.6" ry="47.1"/>
	<ellipse class="st3" cx="85.1" cy="57.2" rx="74.1" ry="45.2"/>
	
		<radialGradient id="SVGID_1_" cx="93.7088" cy="404.975" r="79.5142" gradientTransform="matrix(1.035340e-13 1 1.9121 -1.979634e-13 -687.6472 -7.765)" gradientUnits="userSpaceOnUse">
		<stop  offset="0" style="stop-color:#D7EAFF"/>
		<stop  offset="1" style="stop-color:#A3BFD8"/>
	</radialGradient>
	<ellipse class="st5" cx="85.1" cy="53.1" rx="67.3" ry="41.1"/>
	<path class="st6" d="M37.2,82.3c0-16.1,21.4-29.2,47.9-29.2S133,66.2,133,82.3"/>
	<ellipse class="st7" cx="85.1" cy="53.1" rx="69.1" ry="42.1"/>
</g>
</svg>
