<?xml version="1.0" encoding="utf-8"?>
<!-- Generator: Adobe Illustrator 20.0.0, SVG Export Plug-In . SVG Version: 6.00 Build 0)  -->
<svg version="1.1" id="Layer_1" xmlns="http://www.w3.org/2000/svg" xmlns:xlink="http://www.w3.org/1999/xlink" x="0px" y="0px"
	 viewBox="0 0 133.7 76.3" style="enable-background:new 0 0 133.7 76.3;" xml:space="preserve">
<style type="text/css">
	.st0{fill:#E5D16E;}
	.st1{fill:#FFF4C0;}
</style>
<g id="sunBananaBack">
	<g>
		<path class="st0" d="M106.6,20.6c-2.2,2.1-5.8,4.2-8.4,5.8c-6.7,3.9-13.7,7.3-21.2,9s-15.6,1.7-22.8-1.1
			c-9.9-3.9-18.1-12.2-28-16.1c-4.3-1.8-8-2.8-12.5-3.5c0,0-0.1,0-0.1,0.1c-0.1,0.1-0.2,0.3-0.3,0.4c-0.2,0.2-0.6,0.3-0.9,0.4
			c-0.2,0.1-0.4,0.4-0.6,0.6c-0.3,0.3-0.6,0.4-0.9,0.7c-0.1,0-0.1,0.1-0.1,0.2c-3.8,16,8,30.3,21.4,39.1
			c13.9,9.1,31.4,11.6,47.8,9.4c9.2-1.2,20-4,27.6-9.3s13.6-13.3,15-22.5c0.9-5.6,1.6-10.6,0.4-16.1c0,0-0.4-6.9-4.5-7.6
			C114.4,9.3,111.9,15.5,106.6,20.6z"/>
		<path class="st1" d="M118.5,10.1c-4.1-0.7-6.7,5.4-12,10.5c-2.2,2.1-5.8,4.2-8.4,5.8c-6.7,3.9-13.7,7.3-21.2,9
			c-7.5,1.7-15.6,1.7-22.8-1.1c-9.9-3.9-18.1-12.2-28-16.1c-3.6-1.4-6.7-2.4-10.2-3.1c4.2,6.1,10.1,11.4,16.3,15.5
			C46.1,39.7,63.6,42.2,80,40c9.2-1.2,20-4,27.6-9.3c6.4-4.4,11.6-10.8,14-18.1C120.9,11.3,120,10.3,118.5,10.1z"/>
	</g>
</g>
</svg>
