<svg id="loop" xmlns="http://www.w3.org/2000/svg" viewBox="0 0 89.33 133.07"><defs><style>.cls-1,.cls-7{fill:#fff;}.cls-2{fill:#172c2d;}.cls-3{fill:#3c4444;}.cls-4,.cls-5,.cls-6,.cls-8,.cls-9{fill:none;}.cls-4,.cls-5,.cls-6{stroke:#4c4e51;}.cls-4,.cls-6,.cls-7,.cls-9{stroke-miterlimit:10;}.cls-5,.cls-7,.cls-8{stroke-linecap:round;}.cls-5,.cls-8{stroke-linejoin:round;}.cls-6,.cls-9{stroke-width:2px;}.cls-7,.cls-8{stroke:#818284;stroke-width:3px;}.cls-9{stroke:#a7a9ac;}.cls-10{fill:#f58323;}</style></defs><title>byteShoe-loop</title><path class="cls-1" d="M53.1,1C48.66,1,14.74,8,32.81,83.37H54.13l19.29,1C91.49,9,57.88,1,53.59,1H53.1Z" transform="translate(-1 -1)"/><path class="cls-2" d="M52.74,4c-4.34.59-23.6,5.19-23.6,39.92,0,33.34,4.89,31.37,3.74,48.35-1.13,16.71,1.93,41,19.86,41.76v0l0.43,0,0.43,0v0c17.93-.76,21-25,19.86-41.76-1.15-17,3.74-9.21,3.74-48.35C77.2,9.19,57.94,4.6,53.6,4H52.74Z" transform="translate(-1 -1)"/><path class="cls-3" d="M53.59,129.62c5.89,0,11.61-3.17,14.09-15.92a37.93,37.93,0,0,0-3.3-23.3h-22a37.93,37.93,0,0,0-3.3,23.3c2.48,12.75,8.2,15.92,14.09,15.92" transform="translate(-1 -1)"/><path class="cls-2" d="M48.08,67.89l-0.37,9.66L41,93.76s11.23,7.93,25.68,0L58.37,77.27V67.89S54.46,63.74,48.08,67.89Z" transform="translate(-1 -1)"/><path class="cls-4" d="M66.88,118a34.35,34.35,0,0,0-2-27.6l-4.59-8.79a15.52,15.52,0,0,1-1.87-7.39V67.89s-4.31-4-10.3,0v6.34a15.52,15.52,0,0,1-1.87,7.39l-4.37,10a38.34,38.34,0,0,0-2.33,24.14c1.68,7.09,5.45,13.84,13.67,13.84C60.53,129.62,64.61,124.22,66.88,118Z" transform="translate(-1 -1)"/><path class="cls-1" d="M30.68,26.22s4.77-22.4,22.74-22.4c14.08,0,20.72,16.83,21.67,22.4H67.74a33.34,33.34,0,0,1-3.66-.2c-2.65-.29-7.59-0.8-10-0.8s-6.51.49-8.81,0.78a26.54,26.54,0,0,1-3.36.22H30.68Z" transform="translate(-1 -1)"/><path class="cls-5" d="M48,68.71S46.28,42,41.69,36a45.86,45.86,0,0,0-10.44-9.73S38.1,4,52.74,4,75,26.33,75,26.33A44.94,44.94,0,0,0,64.66,36c-4.59,6-6.29,32.75-6.29,32.75" transform="translate(-1 -1)"/><circle class="cls-6" cx="39.98" cy="62.24" r="2.47"/><circle class="cls-6" cx="38.62" cy="50.23" r="2.47"/><circle class="cls-6" cx="65.06" cy="62.24" r="2.47"/><line class="cls-7" x1="40.59" y1="62.24" x2="65.67" y2="76.27"/><line class="cls-7" x1="64.89" y1="61.95" x2="40.15" y2="76.56"/><circle class="cls-6" cx="66.42" cy="50.23" r="2.47"/><polyline class="cls-8" points="64.89 61.95 38.62 50.23 66.42 50.23 40.59 62.24"/><circle class="cls-9" cx="40.23" cy="77.08" r="2.47"/><circle class="cls-9" cx="64.86" cy="77.08" r="2.47"/><path class="cls-1" d="M26.05,73.5C31.89,69.41,39.91,67.64,46.2,71a6.07,6.07,0,0,0-2.63,2c-2.35-1.77-5.63-1.64-8.47-.88C26.24,74.52,13.21,88.09,8.42,95.92c-0.86,1.4-2,3-3.62,3-1.87,0,1.46-4.11,1.66-4.34C7.92,93,9,90.86,10.33,89.11,13,85.57,22.4,76.06,26.05,73.5Z" transform="translate(-1 -1)"/><path class="cls-1" d="M61.42,74.22A3.37,3.37,0,0,1,63,75.87a16.88,16.88,0,0,0,2.77,3.52,1.31,1.31,0,0,0,1.8-.61,2.23,2.23,0,0,0-.23-2.05,8.75,8.75,0,0,0-1.42-1.61c-0.89-.89-2.15-2.63-3.09-3.38C62.62,72,61.11,74.18,61.42,74.22Z" transform="translate(-1 -1)"/><path class="cls-10" d="M45.59,71.17c2.66-1.38,6.12-1.89,8.54-.12l-2.69,1.71a2.1,2.1,0,0,0-2-.46,12.5,12.5,0,0,0-2.8,1.82A17,17,0,0,0,43,77.92C41.49,80,39,79.4,40,76.7,40.85,74.31,43.41,72.3,45.59,71.17Z" transform="translate(-1 -1)"/><path class="cls-10" d="M86.85,92a0.57,0.57,0,0,1-.27,0A4.51,4.51,0,0,1,85,91.06c-1.6-2.67-4.6-5.38-5.48-8.37-2.35-7.93.54-16.06,1-24,0.29-5.34-1.8-11.44-8.07-11.58-3.61-.08-8.26,2.37-9.84,5.48-3,5.9,2.51,12.57.57,18.7A6.17,6.17,0,0,1,60.33,75c-2.1,1.08-4.65.21-6.74-.89,0.83-1.08,2.31-1.37,3.64-1.63s2.82-.67,3.5-1.85a4.29,4.29,0,0,0,.4-2.34q0-.33,0-0.66c-0.39-4.45-2.48-8.78-1.87-13.2,1.19-8.63,12.15-12.6,19.1-7.86,2.73,1.86,3.8,4.79,4.47,8,0.81,3.94-.2,8.29-0.89,12.15-0.76,4.29-1.72,9.36-.81,13.63C82,84.42,85,87.66,88,90.59A0.8,0.8,0,0,1,87.58,92Z" transform="translate(-1 -1)"/><path class="cls-1" d="M52,75.06c1.16-.52,2.1-1.44,3.23-2a4,4,0,0,1,2.18-.47,3.08,3.08,0,0,0,3.24-1.82l0-.11c-1.57-1.24-4.63-1.48-6.21-.24-4.81,3.8-6,2.34-6,2.34l-1.21.85-0.13.1-1.5,1.22S50.71,75.66,52,75.06Z" transform="translate(-1 -1)"/><polygon class="cls-10" points="84.48 89.91 88.31 95.87 89.33 94.26 86.02 89.4 84.48 89.91"/><polygon class="cls-1" points="5.66 94.31 0 100.64 2.83 102.4 6.46 95.12 5.66 94.31"/></svg>