<?xml version="1.0" encoding="utf-8"?>
<!-- Generator: Adobe Illustrator 19.2.1, SVG Export Plug-In . SVG Version: 6.00 Build 0)  -->
<svg version="1.1" id="yellowCar" xmlns="http://www.w3.org/2000/svg" xmlns:xlink="http://www.w3.org/1999/xlink" x="0px" y="0px"
	 viewBox="0 0 79.6 133" style="enable-background:new 0 0 79.6 133;" xml:space="preserve">
<style type="text/css">
	.st0{fill:#FFFFFF;}
	.st1{fill:#53B7B4;}
	.st2{fill:#FFCE00;}
	.st3{fill:none;stroke:#BCBEC1;stroke-width:2;stroke-miterlimit:10;}
	.st4{fill:none;stroke:#BCBEC1;stroke-width:2;stroke-linecap:round;stroke-miterlimit:10;}
</style>
<title>yellowCar</title>
<path class="st0" d="M6.2,58.3h67.3l-0.3-32c0,0-9.9-26.3-21.9-26.3H28.3C16.2,0,6.4,26.4,6.4,26.4L6.2,58.3z"/>
<path class="st0" d="M70.3,81.3H9.4l-2.9,38.9c0,0,8.4,12.6,19.2,12.8c0.9,0,1.8-2.4,2.7-4h23.1c0.8,1.6,1.5,4,2.3,4
	c11-0.1,19.6-12.8,19.6-12.8L70.3,81.3z"/>
<path class="st0" d="M7.8,106.6l0.8-7.8L6.2,60.5c0-18.6,15.1-51.5,33.7-51.5l0,0c18.6,0,33.7,32.8,33.7,51.5l-2.4,38.3l0.8,8.4
	L7.8,106.6z"/>
<path class="st1" d="M21.4,65.6l0.8-0.2c14.5-3.8,21.7-3.7,36.1,0.2l0,0l8-18l0,0C57.1,40,23,40,14.2,47.6l0,0L21.4,65.6z"/>
<polygon class="st1" points="18.2,70.4 18.2,80.4 11,85.7 11,52.8 "/>
<polygon class="st1" points="62.3,70.4 62.3,83.1 69.5,88.3 69.5,52.8 "/>
<ellipse transform="matrix(0.6597 -0.7515 0.7515 0.6597 14.1344 46.7935)" class="st2" cx="58.7" cy="7.8" rx="1.8" ry="6.8"/>
<ellipse transform="matrix(0.7071 -0.7071 0.7071 0.7071 0.6065 17.0263)" class="st2" cx="20.9" cy="7.8" rx="6.8" ry="1.8"/>
<path class="st0" d="M0.3,52c-1.3-2.9,0-6.2,2.9-7.5c2.9-1.3,6.2,0,7.5,2.9c0.1,0.2,0.2,0.5,0.3,0.8L0.3,52z"/>
<path class="st0" d="M68.6,48.2c1.1-2.9,4.4-4.4,7.4-3.2c2.8,1.1,4.3,4.2,3.3,7.1L68.6,48.2z"/>
<path class="st1" d="M20.6,83l8.4,1.6c7.2,1.3,14.6,1.3,21.8,0l8.8-1.6l2.8,9l0,0c-14.5,5.4-30.4,5.4-44.8,0l0,0L20.6,83z"/>
<path class="st3" d="M17.6,96.1l-3.3,21.8l0,0c16.8,4.9,34.6,4.9,51.3-0.2l0.7-0.2l-4.2-21.8C62.2,95.7,42.9,105,17.6,96.1z"/>
<path class="st3" d="M18.2,114.7c0,0,17.7,7.4,45,0"/>
<path class="st3" d="M19.9,111.5c0,0,16.3,6.8,41.5,0"/>
<line class="st3" x1="27.5" y1="98.8" x2="15.6" y2="117.1"/>
<line class="st3" x1="54" y1="98.8" x2="65.9" y2="117.1"/>
<path class="st3" d="M14.6,43C14.7,18.4,30.5,7.5,30.5,7.5H50c0,0,13.2,7.4,13.2,34.3"/>
<line class="st4" x1="30.5" y1="2.8" x2="50" y2="2.8"/>
</svg>
