<svg id="bluePrint" xmlns="http://www.w3.org/2000/svg" viewBox="0 0 145 195"><defs><style>.cls-1{fill:#0f64ed;}.cls-2,.cls-3,.cls-4,.cls-5,.cls-7,.cls-9{fill:none;stroke-miterlimit:10;}.cls-2,.cls-5,.cls-7{stroke:#fff;}.cls-2,.cls-3{stroke-width:2px;}.cls-3,.cls-4,.cls-9{stroke:#ededee;}.cls-3,.cls-4,.cls-8,.cls-9{opacity:0.4;}.cls-5,.cls-9{stroke-width:0.5px;}.cls-6{fill:#fff;}.cls-7{stroke-width:0.25px;}.cls-8{fill:#ededee;}</style></defs><title>bluePrint</title><rect class="cls-1" width="145" height="195"/><polyline class="cls-2" points="68.03 141.46 78.33 141.46 78.33 135.79 87.67 135.79"/><polyline class="cls-2" points="12.33 123.71 12.33 135.79 44.67 135.79 44.67 141.46 56.17 141.46"/><line class="cls-2" x1="12.33" y1="90.38" x2="12.33" y2="111.21"/><polyline class="cls-2" points="19.5 63.84 12.33 63.84 12.33 77.88"/><line class="cls-2" x1="51.17" y1="63.84" x2="32" y2="63.84"/><line class="cls-2" x1="102.17" y1="63.84" x2="63.67" y2="63.84"/><polyline class="cls-2" points="121.33 135.79 128.67 135.79 128.67 63.84 121.61 63.84"/><line class="cls-3" x1="121.61" y1="135.79" x2="87.12" y2="135.79"/><line class="cls-4" x1="12.33" y1="123.71" x2="12.33" y2="111.21"/><line class="cls-4" x1="12.33" y1="90.38" x2="12.33" y2="77.88"/><line class="cls-4" x1="19.5" y1="63.84" x2="32" y2="63.84"/><line class="cls-4" x1="51.17" y1="63.84" x2="63.67" y2="63.84"/><line class="cls-4" x1="102.17" y1="63.84" x2="121.58" y2="63.84"/><line class="cls-5" x1="15.1" y1="56.21" x2="124.9" y2="56.21"/><polygon class="cls-6" points="13.33 56.21 15.82 57.23 15.23 56.21 15.82 55.2 13.33 56.21"/><polygon class="cls-6" points="126.67 56.21 124.18 57.23 124.77 56.21 124.18 55.2 126.67 56.21"/><line class="cls-5" x1="135.33" y1="66.6" x2="135.33" y2="132.65"/><polygon class="cls-6" points="135.33 64.84 134.32 67.32 135.33 66.73 136.35 67.32 135.33 64.84"/><polygon class="cls-6" points="135.33 134.42 134.32 131.93 135.33 132.52 136.35 131.93 135.33 134.42"/><line class="cls-7" x1="11.33" y1="58.71" x2="11.33" y2="53.71"/><line class="cls-7" x1="11.33" y1="150.55" x2="11.33" y2="145.55"/><line class="cls-7" x1="43.52" y1="150.55" x2="43.52" y2="145.55"/><line class="cls-7" x1="128.67" y1="58.71" x2="128.67" y2="53.71"/><line class="cls-7" x1="132.83" y1="62.84" x2="137.83" y2="62.84"/><line class="cls-7" x1="132.83" y1="136.42" x2="137.83" y2="136.42"/><polyline class="cls-2" points="12.33 100.33 45 100.33 45 123.12"/><line class="cls-2" x1="78.33" y1="135.79" x2="78.33" y2="64.98"/><polyline class="cls-2" points="56.16 123.12 56.16 100.13 63.67 100.13"/><line class="cls-5" x1="45" y1="122.8" x2="56.17" y2="122.8"/><line class="cls-5" x1="45" y1="118.27" x2="56.17" y2="118.27"/><line class="cls-5" x1="45" y1="113.73" x2="56.17" y2="113.73"/><line class="cls-5" x1="45" y1="109.2" x2="56.17" y2="109.2"/><line class="cls-5" x1="45" y1="104.66" x2="56.17" y2="104.66"/><line class="cls-5" x1="45" y1="100.13" x2="56.17" y2="100.13"/><path class="cls-5" d="M44.52,83.92c-4.85,0-10.25,5-10.25,12.28" transform="translate(-1 -1)"/><line class="cls-2" x1="45" y1="95.47" x2="45" y2="104.38"/><path class="cls-2" d="M33.86,96.47" transform="translate(-1 -1)"/><line class="cls-2" x1="43.52" y1="83.16" x2="43.52" y2="63.84"/><rect class="cls-6" x="32.86" y="94.97" width="13.14" height="1"/><path class="cls-5" d="M69.3,141.62c0-5-5-10.84-12.28-10.84" transform="translate(-1 -1)"/><path class="cls-2" d="M57,130.38" transform="translate(-1 -1)"/><rect class="cls-6" x="55.24" y="129.38" width="1" height="13.14"/><line class="cls-5" x1="15.1" y1="148.05" x2="39.76" y2="148.05"/><polygon class="cls-6" points="13.33 148.05 15.82 149.06 15.23 148.05 15.82 147.03 13.33 148.05"/><polygon class="cls-6" points="41.52 148.05 39.03 149.06 39.62 148.05 39.03 147.03 41.52 148.05"/><rect class="cls-8" x="98" y="164.64" width="34.67" height="3.08"/><rect class="cls-8" x="98" y="171.98" width="34.67" height="3.08"/><rect class="cls-8" x="42.08" y="14.8" width="34.67" height="3.08"/><rect class="cls-8" x="42.08" y="22.13" width="34.67" height="3.08"/><rect class="cls-8" x="42.08" y="29.62" width="15.16" height="3.08"/><rect class="cls-8" x="98" y="179.31" width="34.67" height="3.08"/><circle class="cls-8" cx="24.67" cy="26.38" r="11.58"/><rect class="cls-9" x="2.67" y="2.71" width="140" height="189.67"/></svg>