<?xml version="1.0" encoding="utf-8"?>
<!-- Generator: Adobe Illustrator 20.0.0, SVG Export Plug-In . SVG Version: 6.00 Build 0)  -->
<svg version="1.1" id="Layer_1" xmlns="http://www.w3.org/2000/svg" xmlns:xlink="http://www.w3.org/1999/xlink" x="0px" y="0px"
	 viewBox="0 0 67.8 102" style="enable-background:new 0 0 67.8 102;" xml:space="preserve">
<style type="text/css">
	.st0{fill:#D7EAFF;stroke:#FFFFFF;stroke-width:2;stroke-miterlimit:10;}
	.st1{fill:#DD0000;}
	.st2{fill:#29ABE2;}
	.st3{fill:#FFFFFF;}
	.st4{fill:#FF73E0;}
	.st5{fill:#F15A24;}
	.st6{fill:#F2DB7C;}
	.st7{fill:#8CC63F;}
	.st8{fill:#E85E60;}
	.st9{fill:#35474C;}
	.st10{opacity:0.4;fill:#D7EAFF;}
</style>
<path class="st0" d="M49,91H18.7c-4.2,0-7.7-3.5-7.7-7.7V34.8c0-0.9,0.4-1.7,1-2.3c1.8-1.6,3.2-3.5,4.2-5.6l0-0.1h35.3l0,0
	c1,2.2,2.5,4.1,4.3,5.9c0.6,0.5,0.9,1.3,0.9,2.1v48.5C56.8,87.5,53.3,91,49,91z"/>
<path class="st1" d="M53.5,25.8H14.3c-0.6,0-1-0.5-1-1V11.4c0-0.7,0.6-1.4,1.4-1.4h38.5c0.7,0,1.4,0.6,1.4,1.4v13.4
	C54.5,25.3,54.1,25.8,53.5,25.8z"/>
<path class="st2" d="M39,44v10.2c0,0.8-0.7,1.5-1.5,1.5h0c-0.8,0-1.5-0.7-1.5-1.5V44c0-0.8,0.7-1.5,1.5-1.5h0
	C38.3,42.5,39,43.1,39,44z"/>
<path class="st3" d="M26.8,45.5l7.2-7.2c0.6-0.6,1.5-0.6,2.1,0l0,0c0.6,0.6,0.6,1.5,0,2.1l-7.2,7.2c-0.6,0.6-1.5,0.6-2.1,0l0,0
	C26.3,47,26.3,46.1,26.8,45.5z"/>
<path class="st4" d="M20.7,47.4l6-8.3c0.5-0.7,1.4-0.8,2.1-0.3h0c0.7,0.5,0.8,1.4,0.3,2.1l-6,8.3c-0.5,0.7-1.4,0.8-2.1,0.3h0
	C20.3,49,20.2,48,20.7,47.4z"/>
<ellipse transform="matrix(0.2088 -0.978 0.978 0.2088 -3.7193 69.1124)" class="st3" cx="40.9" cy="36.9" rx="2.7" ry="2.7"/>
<path class="st5" d="M47.3,42l-10.1-1.3c-0.8-0.1-1.4-0.8-1.3-1.7v0c0.1-0.8,0.8-1.4,1.7-1.3l10.1,1.3c0.8,0.1,1.4,0.8,1.3,1.7v0
	C48.9,41.5,48.1,42.1,47.3,42z"/>
<path class="st6" d="M30.9,36.3l7.9,6.5c0.6,0.5,0.7,1.5,0.2,2.1v0c-0.5,0.6-1.5,0.7-2.1,0.2L29,38.6c-0.6-0.5-0.7-1.5-0.2-2.1h0
	C29.3,35.9,30.2,35.8,30.9,36.3z"/>
<path class="st4" d="M48,35.7l3.8,9.5c0.3,0.8-0.1,1.6-0.8,1.9h0c-0.8,0.3-1.6-0.1-1.9-0.8l-3.8-9.5c-0.3-0.8,0.1-1.6,0.8-1.9l0,0
	C46.8,34.6,47.7,34.9,48,35.7z"/>
<ellipse transform="matrix(0.6986 -0.7155 0.7155 0.6986 -23.5278 46.8266)" class="st3" cx="43.8" cy="51.3" rx="2.7" ry="2.7"/>
<ellipse transform="matrix(0.6986 -0.7155 0.7155 0.6986 -19.9572 26.3305)" class="st3" cx="21.3" cy="36.9" rx="2.7" ry="2.7"/>
<path class="st2" d="M38.8,82.2l1.5-10.1c0.1-0.8,0.9-1.4,1.7-1.2h0c0.8,0.1,1.4,0.9,1.2,1.7l-1.5,10.1c-0.1,0.8-0.9,1.4-1.7,1.2h0
	C39.2,83.8,38.6,83,38.8,82.2z"/>
<path class="st5" d="M37.1,70.1l4.9,9c0.4,0.7,0.1,1.6-0.6,2h0c-0.7,0.4-1.6,0.1-2-0.6l-4.9-9c-0.4-0.7-0.1-1.6,0.6-2h0
	C35.8,69.1,36.7,69.3,37.1,70.1z"/>
<path class="st4" d="M26.7,80.3l5.5-8.6c0.4-0.7,1.4-0.9,2.1-0.5h0c0.7,0.4,0.9,1.4,0.5,2.1l-5.5,8.6c-0.4,0.7-1.4,0.9-2.1,0.5h0
	C26.5,81.9,26.3,81,26.7,80.3z"/>
<ellipse transform="matrix(0.1519 -0.9884 0.9884 0.1519 -59.5652 95.69)" class="st2" cx="26" cy="82.6" rx="2.7" ry="2.7"/>
<path class="st5" d="M47.4,73.7l4.9,9c0.4,0.7,0.1,1.6-0.6,2h0c-0.7,0.4-1.6,0.1-2-0.6l-4.9-9c-0.4-0.7-0.1-1.6,0.6-2h0
	C46.1,72.7,47,73,47.4,73.7z"/>
<ellipse transform="matrix(0.1519 -0.9884 0.9884 0.1519 -42.5827 116.2262)" class="st2" cx="46.4" cy="82.9" rx="2.7" ry="2.7"/>
<path class="st7" d="M24,72.8l-2.6,9.9c-0.2,0.8-1,1.3-1.8,1.1h0c-0.8-0.2-1.3-1-1.1-1.8l2.6-9.9c0.2-0.8,1-1.3,1.8-1.1h0
	C23.7,71.2,24.2,72,24,72.8z"/>
<path class="st5" d="M36.3,82.6l-7.9-6.5c-0.6-0.5-0.7-1.5-0.2-2.1l0,0c0.5-0.6,1.5-0.7,2.1-0.2l7.9,6.5c0.6,0.5,0.7,1.5,0.2,2.1
	l0,0C37.9,83,36.9,83.1,36.3,82.6z"/>
<ellipse transform="matrix(0.1906 -0.9817 0.9817 0.1906 -52.3207 101.6509)" class="st6" cx="35.5" cy="82.6" rx="2.7" ry="2.7"/>
<ellipse transform="matrix(0.1906 -0.9817 0.9817 0.1906 -64.937 86.3491)" class="st3" cx="19.9" cy="82.6" rx="2.7" ry="2.7"/>
<path class="st5" d="M19.1,72.9l8.1-6.2c0.7-0.5,1.6-0.4,2.1,0.3l0,0c0.5,0.7,0.4,1.6-0.3,2.1l-8.1,6.2c-0.7,0.5-1.6,0.4-2.1-0.3
	l0,0C18.4,74.3,18.5,73.4,19.1,72.9z"/>
<path class="st7" d="M23.1,63.5L33,66c0.8,0.2,1.3,1,1.1,1.8l0,0c-0.2,0.8-1,1.3-1.8,1.1l-9.9-2.6c-0.8-0.2-1.3-1-1.1-1.8l0,0
	C21.5,63.7,22.3,63.3,23.1,63.5z"/>
<path class="st4" d="M25.9,78.7l-9.3-4.1c-0.7-0.3-1.1-1.2-0.8-2l0,0c0.3-0.7,1.2-1.1,2-0.8l9.3,4.1c0.7,0.3,1.1,1.2,0.8,2h0
	C27.5,78.7,26.6,79.1,25.9,78.7z"/>
<circle class="st3" cx="19.7" cy="68.1" r="2.7"/>
<path class="st6" d="M42.5,69.9l-9.3-4.1c-0.7-0.3-1.1-1.2-0.8-2l0,0c0.3-0.7,1.2-1.1,2-0.8l9.3,4.1c0.7,0.3,1.1,1.2,0.8,2v0
	C44.2,69.9,43.3,70.2,42.5,69.9z"/>
<path class="st2" d="M26.7,54.3H16.5c-0.8,0-1.5-0.7-1.5-1.5v0c0-0.8,0.7-1.5,1.5-1.5h10.2c0.8,0,1.5,0.7,1.5,1.5v0
	C28.2,53.6,27.5,54.3,26.7,54.3z"/>
<path class="st7" d="M28,50.5l-10.2-0.7c-0.8-0.1-1.4-0.8-1.4-1.6v0c0.1-0.8,0.8-1.4,1.6-1.4l10.2,0.7c0.8,0.1,1.4,0.8,1.4,1.6l0,0
	C29.6,49.9,28.8,50.5,28,50.5z"/>
<path class="st5" d="M19.4,56.7l8.1-6.2c0.7-0.5,1.6-0.4,2.1,0.3l0,0c0.5,0.7,0.4,1.6-0.3,2.1l-8.1,6.2c-0.7,0.5-1.6,0.4-2.1-0.3
	l0,0C18.6,58.1,18.8,57.2,19.4,56.7z"/>
<circle class="st6" cx="18.8" cy="62.9" r="2.7"/>
<circle class="st3" cx="31.3" cy="70.8" r="2.7"/>
<path class="st7" d="M40.3,69l10.1,1.3c0.8,0.1,1.4,0.9,1.3,1.7l0,0c-0.1,0.8-0.9,1.4-1.7,1.3L40,72c-0.8-0.1-1.4-0.9-1.3-1.7l0,0
	C38.8,69.5,39.5,68.9,40.3,69z"/>
<path class="st5" d="M50.9,65.9l-8.5,5.7c-0.7,0.5-1.6,0.3-2.1-0.4l0,0c-0.5-0.7-0.3-1.6,0.4-2.1l8.5-5.7c0.7-0.5,1.6-0.3,2.1,0.4h0
	C51.8,64.5,51.6,65.4,50.9,65.9z"/>
<ellipse transform="matrix(6.096044e-02 -0.9981 0.9981 6.096044e-02 -18.9725 100.3002)" class="st6" cx="43.8" cy="60.2" rx="2.7" ry="2.7"/>
<ellipse transform="matrix(6.096044e-02 -0.9981 0.9981 6.096044e-02 -28.5384 122.1229)" class="st3" cx="50.6" cy="76.2" rx="2.7" ry="2.7"/>
<path class="st7" d="M30.2,53.4l10.1,1.2c0.8,0.1,1.4,0.8,1.3,1.7l0,0c-0.1,0.8-0.8,1.4-1.7,1.3l-10.1-1.2c-0.8-0.1-1.4-0.8-1.3-1.7
	v0C28.7,53.9,29.4,53.3,30.2,53.4z"/>
<path class="st5" d="M51.5,53.4l-8.4,5.7c-0.7,0.5-1.6,0.3-2.1-0.4l0,0c-0.5-0.7-0.3-1.6,0.4-2.1l8.4-5.7c0.7-0.5,1.6-0.3,2.1,0.4v0
	C52.3,52,52.2,53,51.5,53.4z"/>
<path class="st6" d="M32.7,44.3l5.7,8.4c0.5,0.7,0.3,1.6-0.4,2.1v0c-0.7,0.5-1.6,0.3-2.1-0.4L30.3,46c-0.5-0.7-0.3-1.6,0.4-2.1h0
	C31.3,43.5,32.3,43.7,32.7,44.3z"/>
<ellipse transform="matrix(0.1182 -0.993 0.993 0.1182 -27.3068 87.8161)" class="st2" cx="35.8" cy="59.3" rx="2.7" ry="2.7"/>
<ellipse transform="matrix(5.373082e-02 -0.9986 0.9986 5.373082e-02 -5.873 84.6962)" class="st6" cx="41.8" cy="45.4" rx="2.7" ry="2.7"/>
<path class="st3" d="M32.1,62.8l-10.1,1.4c-0.8,0.1-1.6-0.5-1.7-1.3h0c-0.1-0.8,0.5-1.6,1.3-1.7l10.1-1.4c0.8-0.1,1.6,0.5,1.7,1.3v0
	C33.4,61.9,32.9,62.6,32.1,62.8z"/>
<path class="st4" d="M33.4,63.3l-9.2-4.3c-0.7-0.3-1.1-1.2-0.7-2l0,0c0.3-0.7,1.2-1.1,2-0.7l9.2,4.3c0.7,0.3,1.1,1.2,0.7,2v0
	C35,63.3,34.1,63.6,33.4,63.3z"/>
<ellipse transform="matrix(2.543150e-02 -0.9997 0.9997 2.543150e-02 -28.3459 62.1402)" class="st3" cx="17.7" cy="45.6" rx="2.7" ry="2.7"/>
<path class="st7" d="M50.5,51.1L43.2,44c-0.6-0.6-0.6-1.5,0-2.1l0,0c0.6-0.6,1.5-0.6,2.1,0l7.3,7.1c0.6,0.6,0.6,1.5,0,2.1h0
	C52,51.7,51.1,51.7,50.5,51.1z"/>
<path class="st6" d="M27.7,38.9L18.9,44c-0.7,0.4-1.6,0.2-2-0.5l0,0c-0.4-0.7-0.2-1.6,0.5-2l8.8-5.1c0.7-0.4,1.6-0.2,2,0.5h0
	C28.7,37.6,28.4,38.5,27.7,38.9z"/>
<circle class="st2" cx="48.5" cy="61.1" r="2.7"/>
<circle class="st6" cx="45" cy="77.4" r="2.7"/>
<circle class="st3" cx="41.8" cy="65.6" r="2.7"/>
<path class="st8" d="M29.1,25.8H14.3c-0.6,0-1-0.5-1-1V11.4c0-0.7,0.6-1.4,1.4-1.4h14.4V25.8z"/>
<g>
	<path class="st9" d="M53.3,28H14.5c1.7-2.9-1.3-0.8-1.3-1.9s0.8-1.9,1.9-1.9h37.2c1,0,0.5,0.8,0.5,1.9S53,27.4,53.3,28z"/>
</g>
<g>
	<path class="st1" d="M53.7,27.1H13.7c-1.1,0-2-0.9-2-2s0.9-2,2-2h39.9c1.1,0,2,0.9,2,2S54.8,27.1,53.7,27.1z"/>
</g>
<g>
	<path class="st8" d="M36.6,27.1H13.7c-1.1,0-2-0.9-2-2s0.9-2,2-2h22.9V27.1z"/>
</g>
<path class="st10" d="M46.4,30.2c1.6,0,3.1,0.8,4.1,2.2c0.7,1,1.6,2,2.5,2.9c0.5,0.5,0.8,1.1,0.8,1.9v46.9c0,2.4-2,4.3-4.3,4.3h-31
	c-2.4,0-4.3-2-4.3-4.3V37.1c0-0.9,0.5-1.7,1.2-2.2c0.5-0.3,0.9-0.9,1.3-1.4c1.4-2,3.6-3.3,6.1-3.3L46.4,30.2z"/>
</svg>
