<svg id="routes" xmlns="http://www.w3.org/2000/svg" viewBox="0 0 94.65 49.18"><defs><style>.cls-1{fill:#fff;stroke:#d9d1c5;stroke-miterlimit:10;}</style></defs><title>25min_bubble</title><path class="cls-1" d="M89.51,1.5H19.05a5.64,5.64,0,0,0-5.64,5.64V30.59L2.47,48.71,20.59,37.76H89.51a5.64,5.64,0,0,0,5.64-5.64v-25A5.64,5.64,0,0,0,89.51,1.5Z" transform="translate(-1 -1)"/><path d="M26.79,16.94v0a3.82,3.82,0,0,1,4.11-3.84c2.47,0,4,1.57,4,3.62,0,1.62-1,2.74-2.22,4.18L28.9,25.35v0h6.31v1.3H26.86V25.73l5-5.87a4.87,4.87,0,0,0,1.56-3.11,2.38,2.38,0,0,0-2.59-2.41,2.51,2.51,0,0,0-2.66,2.55v0H26.79Z" transform="translate(-1 -1)"/><path d="M39.1,23.36a2.73,2.73,0,0,0,3,2.3,3.17,3.17,0,0,0,3.12-3.27,3,3,0,0,0-3.09-3.23,3.17,3.17,0,0,0-3,1.84H37.85l0.76-7.68H45.7v1.3H39.85l-0.5,4.47h0a3.9,3.9,0,0,1,2.93-1.2,4.33,4.33,0,0,1,4.39,4.47A4.51,4.51,0,0,1,42,26.95c-2.73,0-4.18-1.73-4.31-3.58H39.1Z" transform="translate(-1 -1)"/><path d="M53.38,16.44h1.44v1.28h0.07a2.81,2.81,0,0,1,2.61-1.45,2.88,2.88,0,0,1,3,1.69h0.06a3.24,3.24,0,0,1,3.14-1.69,3.18,3.18,0,0,1,3.44,3.44v7H65.67V20a2.18,2.18,0,0,0-2.31-2.38A2.32,2.32,0,0,0,61,20.13v6.53H59.52V20.13a2.22,2.22,0,0,0-2.33-2.54,2.32,2.32,0,0,0-2.37,2.54v6.53H53.38V16.44Z" transform="translate(-1 -1)"/><path d="M71,13a1,1,0,1,1-1,1A1,1,0,0,1,71,13Zm-0.71,3.47h1.44V26.67H70.24V16.44Z" transform="translate(-1 -1)"/><path d="M74.88,16.44h1.44v1.4h0a3.33,3.33,0,0,1,3-1.56,3.5,3.5,0,0,1,3.68,3.82v6.57H81.62V20.31A2.45,2.45,0,0,0,79,17.59a2.56,2.56,0,0,0-2.68,2.81v6.26H74.88V16.44Z" transform="translate(-1 -1)"/></svg>