<?xml version="1.0" encoding="utf-8"?>
<!-- Generator: Adobe Illustrator 19.2.1, SVG Export Plug-In . SVG Version: 6.00 Build 0)  -->
<svg version="1.1" id="Art" xmlns="http://www.w3.org/2000/svg" xmlns:xlink="http://www.w3.org/1999/xlink" x="0px" y="0px"
	 viewBox="0 0 109.3 140.8" style="enable-background:new 0 0 109.3 140.8;" xml:space="preserve">
<style type="text/css">
	.st0{fill:#00CAFF;}
	.st1{fill:url(#SVGID_1_);}
	.st2{fill:url(#SVGID_2_);}
	.st3{fill:url(#SVGID_3_);}
	.st4{fill:url(#SVGID_4_);}
	.st5{fill:#FF9E3E;}
</style>
<title>carmine_Body</title>
<path class="st0" d="M5.8,50.3c-0.7-2.4-0.3-4.9,0.9-7c1.2-1.8,3.1-3.1,5.2-3.6l0.4,2l-0.2-1l0.2,1c-1.6,0.4-3,1.4-4,2.7
	c-0.9,1.7-1.2,3.6-0.6,5.4L5.8,50.3z"/>
<linearGradient id="SVGID_1_" gradientUnits="userSpaceOnUse" x1="20.5858" y1="24.513" x2="7.8493" y2="59.5308" gradientTransform="matrix(1 0 0 -1 -1 141)">
	<stop  offset="3.000000e-02" style="stop-color:#555061"/>
	<stop  offset="0.14" style="stop-color:#5C5769"/>
	<stop  offset="0.32" style="stop-color:#70697F"/>
	<stop  offset="0.5" style="stop-color:#8A819D"/>
</linearGradient>
<path class="st1" d="M14,80.2c0,0-10.3,1.2-12.1,3.6s-3,5.5,0,17.5s4.5,15.2,10.4,15.2c5.3,0.2,10.6-0.9,15.4-3.2l-8.6-34L14,80.2z"
	/>
<linearGradient id="SVGID_2_" gradientUnits="userSpaceOnUse" x1="32.0692" y1="29.5811" x2="-1.8508" y2="88.3311" gradientTransform="matrix(1 0 0 -1 -1 141)">
	<stop  offset="3.000000e-02" style="stop-color:#797F85"/>
	<stop  offset="0.1" style="stop-color:#81878D"/>
	<stop  offset="0.21" style="stop-color:#979DA2"/>
	<stop  offset="0.34" style="stop-color:#BBC0C5"/>
</linearGradient>
<path class="st2" d="M25.6,114.2L13,46.3c0,0-6.6,0.4-9.8,5.5s-0.8,15.4,1,24.9c1.4,7.4,7.6,30.3,10.3,39.8
	C18.4,116.5,22.1,115.7,25.6,114.2z"/>
<radialGradient id="SVGID_3_" cx="-32.5491" cy="525.9717" r="82.31" gradientTransform="matrix(9.000000e-02 1 0.69 -6.000000e-02 -299.01 142.24)" gradientUnits="userSpaceOnUse">
	<stop  offset="9.000000e-02" style="stop-color:#7D122C"/>
	<stop  offset="0.2" style="stop-color:#85132F"/>
	<stop  offset="0.37" style="stop-color:#9B1736"/>
	<stop  offset="0.59" style="stop-color:#C01E42"/>
	<stop  offset="0.8" style="stop-color:#EB2550"/>
</radialGradient>
<path class="st3" d="M70.3,140.2c15.2-0.2,16.4,0.2,18.7-1.7c1.5-1.2,6.4-21.5,10.9-43.3l0.8-3.9c3.2-15.9,6.2-32.1,7.4-41.7
	c3-23.5-0.2-41.2-11-42.8s-16.8,16-16.8,16S74.9,0.3,60.6,0S38.1,21.7,38.1,21.7S29.4,5.7,20.9,8S6.7,21.7,14.2,65.7
	c1.1,6.4,2.2,12.5,3.3,18.2c-2.5,0.7-4.9,1.7-7.1,3c-2.9,2-3.9,5.1-4.6,7.9c-0.3,1.4-0.4,2.8-0.4,4.3c0,0.5,0,1,0.1,1.5
	c0.4,2.2,2.1,3.5,3.7,3.3c2.4-0.3,2.9-2.4,2.2-4.5c-0.8-2.5-2.2-3.2-3.8-3c0-0.4,0.1-0.9,0.2-1.3c0.5-2.4,2-4.5,4.1-5.7
	c2-0.9,4-1.5,6.1-2c6,31.5,11.5,51.2,13.6,52.5s5.7,1.1,21.6,0.7"/>
<radialGradient id="SVGID_4_" cx="-31.7491" cy="463.8318" r="4.12" gradientTransform="matrix(9.000000e-02 1 0.69 -6.000000e-02 -255.57 199.59)" gradientUnits="userSpaceOnUse">
	<stop  offset="9.000000e-02" style="stop-color:#7D122C"/>
	<stop  offset="0.2" style="stop-color:#85132F"/>
	<stop  offset="0.37" style="stop-color:#9B1736"/>
	<stop  offset="0.59" style="stop-color:#C01E42"/>
	<stop  offset="0.8" style="stop-color:#EB2550"/>
</radialGradient>
<path class="st4" d="M57.6,140.4l4.3-0.1l4.2-0.1"/>
<path class="st5" d="M69.6,69.4c0.4,0,0.7,0.3,0.7,0.8c0,0.2-0.1,0.4-0.2,0.5c-1.3,1.2-4.5,3-7.3,0.9c-0.3-0.2-0.4-0.7-0.2-1
	c0.2-0.3,0.7-0.4,1-0.2c0,0,0.1,0,0.1,0.1c2.4,1.9,5.2-0.7,5.4-0.8C69.2,69.5,69.4,69.4,69.6,69.4z"/>
<path class="st0" d="M90.4,90.8c0,5.8,2.7,11.4,7.3,14.9l0.5-2.2c-3.9-3.3-6.1-8.3-5.8-13.4c0.3-7.1,7.3-10.4,11-11.7l0.4-2.2
	c-2,0.6-3.9,1.4-5.7,2.5c-4.4,2.6-7,6-7.6,10.1L90.4,90.8z"/>
<path class="st0" d="M37.5,89.8c-0.9-5.1-4.9-8.7-11.6-10.4c-3.1-0.7-6.2-1.1-9.4-1l0.4,2c3.7,0,17.4,0.5,18.7,10
	c1.3,9.2-9.9,14.2-13.6,15.7l0.4,2c2.7-1,5.2-2.3,7.6-3.9c5.1-3.5,7.7-7.7,7.7-12.4L37.5,89.8z"/>
</svg>
