<svg id="planet-UL" xmlns="http://www.w3.org/2000/svg" xmlns:xlink="http://www.w3.org/1999/xlink" viewBox="0 0 60.14 77.47"><defs><style>.cls-1{fill:url(#linear-gradient);}.cls-2{fill:#a98929;}.cls-15,.cls-17,.cls-18,.cls-3,.cls-7{opacity:0.5;}.cls-3{fill:url(#linear-gradient-2);}.cls-4{fill:url(#linear-gradient-3);}.cls-5{fill:url(#radial-gradient);}.cls-6{fill:#e1b736;}.cls-7{fill:url(#radial-gradient-2);}.cls-8{fill:url(#linear-gradient-4);}.cls-9{fill:url(#linear-gradient-5);}.cls-10{fill:url(#linear-gradient-6);}.cls-11{fill:url(#linear-gradient-7);}.cls-12{fill:url(#linear-gradient-8);}.cls-13{fill:url(#linear-gradient-9);}.cls-14{opacity:0.8;fill:url(#radial-gradient-3);}.cls-15{fill:url(#linear-gradient-10);}.cls-16{fill:url(#linear-gradient-11);}.cls-17{fill:url(#radial-gradient-4);}.cls-18{fill:url(#radial-gradient-5);}.cls-19{fill:url(#linear-gradient-12);}.cls-20{fill:url(#linear-gradient-13);}.cls-21{fill:url(#linear-gradient-14);}.cls-22{fill:url(#linear-gradient-15);}.cls-23{fill:url(#linear-gradient-16);}.cls-24{fill:url(#linear-gradient-17);}.cls-25{fill:#1a0621;opacity:0.2;}</style><linearGradient id="linear-gradient" x1="44.2" y1="12.44" x2="47.67" y2="19.15" gradientUnits="userSpaceOnUse"><stop offset="0" stop-color="#e1ffb6"/><stop offset="1" stop-color="#e1b736"/></linearGradient><linearGradient id="linear-gradient-2" x1="69.92" y1="53.25" x2="80.32" y2="53.25" gradientUnits="userSpaceOnUse"><stop offset="0" stop-color="#1a0621"/><stop offset="1" stop-color="#1a0621" stop-opacity="0"/></linearGradient><linearGradient id="linear-gradient-3" x1="18.33" y1="49.58" x2="27.86" y2="50.35" xlink:href="#linear-gradient"/><radialGradient id="radial-gradient" cx="68.98" cy="25.48" r="30.91" gradientTransform="translate(-42.7 -2.72) scale(0.9 0.9)" xlink:href="#linear-gradient"/><radialGradient id="radial-gradient-2" cx="98.87" cy="69.09" r="5.79" gradientTransform="translate(-22.52 10.54) scale(0.9 0.9)" gradientUnits="userSpaceOnUse"><stop offset="0" stop-color="#1a0621" stop-opacity="0"/><stop offset="1" stop-color="#1a0621"/></radialGradient><linearGradient id="linear-gradient-4" x1="37.06" y1="39.53" x2="34.38" y2="35.5" gradientUnits="userSpaceOnUse"><stop offset="0" stop-color="#a98929"/><stop offset="0.26" stop-color="#ad8d2a"/><stop offset="0.54" stop-color="#ba972d"/><stop offset="0.82" stop-color="#d0a932"/><stop offset="1" stop-color="#e1b736"/></linearGradient><linearGradient id="linear-gradient-5" x1="50.15" y1="54.76" x2="46.1" y2="48.41" gradientUnits="userSpaceOnUse"><stop offset="0" stop-color="#876e29"/><stop offset="0.2" stop-color="#8b722a"/><stop offset="0.42" stop-color="#987c2b"/><stop offset="0.64" stop-color="#ae8d2f"/><stop offset="0.87" stop-color="#cca633"/><stop offset="1" stop-color="#e1b736"/></linearGradient><linearGradient id="linear-gradient-6" x1="62.52" y1="46.95" x2="54.82" y2="35.79" xlink:href="#linear-gradient-5"/><linearGradient id="linear-gradient-7" x1="46.54" y1="50.38" x2="48.56" y2="54.68" gradientUnits="userSpaceOnUse"><stop offset="0" stop-color="#1a0621"/><stop offset="1" stop-color="#947515"/></linearGradient><linearGradient id="linear-gradient-8" x1="30.98" y1="37.8" x2="36.81" y2="37.8" xlink:href="#linear-gradient-7"/><linearGradient id="linear-gradient-9" x1="59.27" y1="39.96" x2="64.58" y2="39.96" xlink:href="#linear-gradient-7"/><radialGradient id="radial-gradient-3" cx="67.91" cy="18.06" r="52.4" gradientTransform="translate(-42.7 -2.72) scale(0.9 0.9)" gradientUnits="userSpaceOnUse"><stop offset="0" stop-color="#1a0621" stop-opacity="0"/><stop offset="0.38" stop-color="#1a0621" stop-opacity="0.27"/><stop offset="1" stop-color="#1a0621" stop-opacity="0.99"/><stop offset="1" stop-color="#1a0621"/></radialGradient><linearGradient id="linear-gradient-10" x1="36.77" y1="91.18" x2="38.42" y2="96.11" xlink:href="#linear-gradient-2"/><linearGradient id="linear-gradient-11" x1="15.31" y1="58.87" x2="17.64" y2="52.68" gradientUnits="userSpaceOnUse"><stop offset="0" stop-color="#e1b736"/><stop offset="1" stop-color="#e1ff6f"/></linearGradient><radialGradient id="radial-gradient-4" cx="60.19" cy="70.34" r="12.14" gradientTransform="translate(-22.52 10.54) scale(0.9 0.9)" xlink:href="#radial-gradient-3"/><radialGradient id="radial-gradient-5" cx="63.52" cy="64.27" r="19.5" gradientTransform="translate(-42.7 -2.72) scale(0.9 0.9)" gradientUnits="userSpaceOnUse"><stop offset="0" stop-color="#1a0621" stop-opacity="0"/><stop offset="1" stop-color="#1a0621" stop-opacity="0.97"/></radialGradient><linearGradient id="linear-gradient-12" x1="40.4" y1="75.03" x2="39.04" y2="72.07" xlink:href="#linear-gradient-5"/><linearGradient id="linear-gradient-13" x1="42.08" y1="70.51" x2="39.62" y2="73.43" xlink:href="#linear-gradient-7"/><linearGradient id="linear-gradient-14" x1="37.69" y1="78.24" x2="36.87" y2="76.44" xlink:href="#linear-gradient-5"/><linearGradient id="linear-gradient-15" x1="37.31" y1="75.99" x2="37.31" y2="75.99" xlink:href="#linear-gradient-7"/><linearGradient id="linear-gradient-16" x1="37.84" y1="76.09" x2="36.55" y2="77.63" xlink:href="#linear-gradient-7"/><linearGradient id="linear-gradient-17" x1="38.66" y1="75.67" x2="38.12" y2="76.31" xlink:href="#linear-gradient-7"/></defs><title>planet_E</title><path class="cls-1" d="M38.37,21.81l-.17,0c.11-.91,1.25-2.24,1.61-3.13.07-.17.43-1.23.48-1.29C41,16.69,43.14,16.27,44,16a30.84,30.84,0,0,1,4.85-.92c2.08-.28,6.85-.9,8.08,1.18.34.58.7,1.58,1,2.08A19.87,19.87,0,0,1,59.24,21c-2-.8-3.8-.27-5.9-.37a41,41,0,0,0-5.74.09c-2.95.28-6.5,1.07-9.13,1.07q.31,0-.09,0C38.31,21.8,38.91,21.81,38.37,21.81Z" transform="translate(-20.18 -13.27)"/><path class="cls-2" d="M74.95,43.29c.79,2.2,4,2.28,5,3.91s-.13,5.3-.37,7-.53,4.15-1.75,5.37c-1.47,1.48-5.81,3.12-7.88,3.6-.25-.61,1.51-3.34,1.78-3.95A30.66,30.66,0,0,0,74,52.94a50.39,50.39,0,0,0,.91-9.64C75.07,43.64,75,44.25,74.95,43.29Z" transform="translate(-20.18 -13.27)"/><path class="cls-3" d="M74.95,43.29c.79,2.2,4,2.28,5,3.91s-.13,5.3-.37,7-.53,4.15-1.75,5.37c-1.47,1.48-5.81,3.12-7.88,3.6-.25-.61,1.51-3.34,1.78-3.95A30.66,30.66,0,0,0,74,52.94a50.39,50.39,0,0,0,.91-9.64C75.07,43.64,75,44.25,74.95,43.29Z" transform="translate(-20.18 -13.27)"/><path class="cls-4" d="M25.79,38.84c-.44,0-.87.13-1.31.15s-.79-.13-1.2-.12a2.27,2.27,0,0,0-1.9,1.35,17,17,0,0,0-1,4.29,16.14,16.14,0,0,0,0,2.64c0,1.11-.19,2.19-.19,3.31,0,.82.14,1.56.2,2.36a17.19,17.19,0,0,0,.29,2.91c.36,1.51.77,4.06,2.25,4.91a10,10,0,0,0,2,.79,2.54,2.54,0,0,0,2.12-.54c.49-.47.19-1.08,0-1.63-.29-.89-.31-1.84-.61-2.73-.67-2-1.63-3.89-1.67-6s0-4.49.05-6.73a12,12,0,0,1,1-4.93C25.11,38.84,25.3,39.86,25.79,38.84Z" transform="translate(-20.18 -13.27)"/><circle class="cls-5" cx="29.16" cy="32.48" r="27.48"/><path class="cls-6" d="M64.88,71.36A5.79,5.79,0,0,0,63,73a5.16,5.16,0,0,0-.66,3.31A6.45,6.45,0,0,0,62.86,78a4.83,4.83,0,0,0,1.25,1.27,5.08,5.08,0,0,0,2.75,1,4.66,4.66,0,0,0,3.52-1.09A5.71,5.71,0,0,0,71.67,77a5.36,5.36,0,0,0-.2-2.53A4.86,4.86,0,0,0,70,72.51c-.16-.13-.33-.17-.49-.28s-.23-.29-.38-.4a3.35,3.35,0,0,0-1.06-.49c-.48-.1-1,0-1.46-.09S65.85,71.45,64.88,71.36Z" transform="translate(-20.18 -13.27)"/><path class="cls-7" d="M64.88,71.36A5.79,5.79,0,0,0,63,73a5.16,5.16,0,0,0-.66,3.31A6.45,6.45,0,0,0,62.86,78a4.83,4.83,0,0,0,1.25,1.27,5.08,5.08,0,0,0,2.75,1,4.66,4.66,0,0,0,3.52-1.09A5.71,5.71,0,0,0,71.67,77a5.36,5.36,0,0,0-.2-2.53A4.86,4.86,0,0,0,70,72.51c-.16-.13-.33-.17-.49-.28s-.23-.29-.38-.4a3.35,3.35,0,0,0-1.06-.49c-.48-.1-1,0-1.46-.09S65.85,71.45,64.88,71.36Z" transform="translate(-20.18 -13.27)"/><path class="cls-8" d="M37.6,28.78c-5.2,0-9.71,5.34-9.68,10.55,0,2.17.43,4.59,2,6.16.84.82,1.91,1.31,2.76,2.11s1.36,1.48,2.85,1.51c1.78,0,4.33-1,5.16-2.59.17-.33.18-1.23.38-1.45s1.29-.44,1.7-.71a5.08,5.08,0,0,0,2-3,10.22,10.22,0,0,0-1.42-9.18,8.32,8.32,0,0,0-2.74-2.67c-1-.56-2.16-.26-3.07-.78C36.32,28.78,38.19,29.11,37.6,28.78Z" transform="translate(-20.18 -13.27)"/><path class="cls-9" d="M51.92,46c-1.35-.43-1.64-1.22-3.07-.89-.83.19-1.44.61-2.24.73-.3,0-.72-.06-1.07,0a5.43,5.43,0,0,0-4.25,2.95,3.32,3.32,0,0,0-.81,2.17c0,.36.36.68.39.94,0,.41-.17.73-.17,1.29,0,1.12.38,1.28.72,2.18s.26,1.55.58,2.32c.86,2.05,2.6,1.91,4.52,2.07,1.71.14,3.23.71,4.9-.16a6.2,6.2,0,0,0,3-5.76c.79,1.25,2.68.09,3.31-.73,1-1.33.56-1.48-.45-2.32S55.06,48.82,53.92,48a7.63,7.63,0,0,1-1.18-.81c-.28-.28-.34-1.13-.82-1.17S52.24,46,51.92,46Z" transform="translate(-20.18 -13.27)"/><path class="cls-10" d="M61.59,31.87c-.36.11-1.33-.56-1.82-.59a11.21,11.21,0,0,0-3.56.61c-2.24.76-4.15,3.25-5,5.4a10.52,10.52,0,0,0,3.3,11.76,6.78,6.78,0,0,0,10.77-3.32,15.13,15.13,0,0,0,0-8.78,6.34,6.34,0,0,0-1.68-2.87,17.21,17.21,0,0,1-2-2.2C61.26,32,61.47,32.22,61.59,31.87Z" transform="translate(-20.18 -13.27)"/><path class="cls-2" d="M69.38,13.27c-1.08,1-2.76,2.08-1.32,3.79a2.55,2.55,0,0,0,3.72.14,2.43,2.43,0,0,0-.33-3.35c-.66-.5-1.32-.35-2.07-.58C69.2,13.43,70.09,13.49,69.38,13.27Z" transform="translate(-20.18 -13.27)"/><path class="cls-11" d="M47.85,49.78a2.41,2.41,0,0,0-2.34,1.35c-.59,1-1,2.51.41,3.29,3.14,1.77,6-4.22,1.93-4.65C47.6,49.78,48.17,49.81,47.85,49.78Z" transform="translate(-20.18 -13.27)"/><path class="cls-12" d="M34.21,34.49c-3.67,0-4.75,6.85-.36,6.62C35.93,41,37,38.92,36.77,37a2.59,2.59,0,0,0-1.11-2.11c-.2-.11-1.4-.24-1.45-.39C33.92,34.49,34.3,34.79,34.21,34.49Z" transform="translate(-20.18 -13.27)"/><path class="cls-13" d="M63.34,36.13c-.46-2.05-3.53,1.58-3.73,2.2-.54,1.64-.55,4.46,1,5.66s3.22-.47,3.69-2a7.18,7.18,0,0,0,.14-3.31c-.16-.89-1-1.8-1.12-2.55C63.28,35.9,63.38,36.51,63.34,36.13Z" transform="translate(-20.18 -13.27)"/><circle class="cls-14" cx="29.16" cy="32.48" r="27.48"/><path class="cls-2" d="M29.91,89.17a.14.14,0,0,1-.07.13c.1.08.1.3.16.42a4.22,4.22,0,0,0,.26.39c.14.2.25.15.43.22a3.62,3.62,0,0,0,.54.23c.2,0,.41,0,.62,0s.31.11.51.13a5.73,5.73,0,0,0,.65,0,4,4,0,0,0,.64-.13,2.32,2.32,0,0,0,.39,0c.1,0,.15-.12.27-.11s.14.11.24.15.19,0,.27,0a2.46,2.46,0,0,0,.64.1,4.27,4.27,0,0,0,.64-.13,8.67,8.67,0,0,1,1.16-.13,2.74,2.74,0,0,0,1.17-.35l1.06-.52c.37-.18.78-.24,1.13-.42a4.41,4.41,0,0,1,.52-.23,2.14,2.14,0,0,0,.49-.18,3.48,3.48,0,0,0,0-1.4s-.18-.51-.16-.49S41.11,87,41,87c-.54.26-1.1.35-1.65.62a5.17,5.17,0,0,1-1.84.52,6.37,6.37,0,0,0-.87.13c-.12,0-.21.08-.32.1-.28.06-.56,0-.84.06a12.84,12.84,0,0,1-2.19.1,4.56,4.56,0,0,1-1.71-.25c-.24-.09-.33-.19-.61-.1a5.69,5.69,0,0,0-.58.2c-.13.06-1.07.62-.48.81C29.91,89.23,29.32,89,29.91,89.17Z" transform="translate(-20.18 -13.27)"/><path class="cls-15" d="M29.91,88.84c0,1.46,2.2,1.66,3.33,1.52a7.94,7.94,0,0,1,.8-.13.74.74,0,0,1,.27-.11,1.11,1.11,0,0,1,.24.15,7.41,7.41,0,0,0,2-.07,6.29,6.29,0,0,0,2.16-.54c.72-.35,1.44-.63,2.18-.93s.84-.23.84-1c0-.21,0-1.07-.21-1.21S40.27,87,40,87c-.58.2-1.12.49-1.72.64a20.28,20.28,0,0,1-3.54.5,14.37,14.37,0,0,1-2,0c-.52,0-1.06-.36-1.55-.37-.25,0-2,.8-1.29,1C29.91,88.9,29.32,88.66,29.91,88.84Z" transform="translate(-20.18 -13.27)"/><circle class="cls-16" cx="13.68" cy="63.22" r="13.55"/><path class="cls-17" d="M27.82,73.58c-.27,0-.45-.15-.72-.08a3.37,3.37,0,0,0-.8.45,2.71,2.71,0,0,0-.67.4,3.77,3.77,0,0,0-.53.88,2.89,2.89,0,0,0-.27.68,3.33,3.33,0,0,0,0,1.45,2.57,2.57,0,0,0,1.58,1.91c.32.12.63.11,1,.22a1.8,1.8,0,0,0,1.27,0,2.52,2.52,0,0,0,.61-.25,4.79,4.79,0,0,0,.46-.4,3.06,3.06,0,0,0,.75-3.68,6.59,6.59,0,0,0-.53-.87,1.13,1.13,0,0,0-.43-.46,1.58,1.58,0,0,0-.66-.22A2.6,2.6,0,0,0,27.82,73.58Z" transform="translate(-20.18 -13.27)"/><circle class="cls-18" cx="13.68" cy="63.22" r="13.55"/><circle class="cls-18" cx="13.68" cy="63.22" r="13.55"/><path class="cls-19" d="M40.31,69.42c-4.22-2.11-6.71,8.54-.59,6.88,3.5-1,4.74-6.16.59-6.88C40,69.27,40.7,69.49,40.31,69.42Z" transform="translate(-20.18 -13.27)"/><path class="cls-20" d="M41,70.48c-2.09.07-2.21,4.11.12,3.1,1.16-.5,1.4-3.22-.12-3.2" transform="translate(-20.18 -13.27)"/><path class="cls-21" d="M37.6,74.73c-.72-.36-1.26.08-1.82.56s-.82.61-.86,1.31a2.28,2.28,0,0,0,.38,1.88,1.7,1.7,0,0,0,2.07.5,2.81,2.81,0,0,0,1.95-2.25,1.9,1.9,0,0,0-1.72-2C37.41,74.63,37.85,74.77,37.6,74.73Z" transform="translate(-20.18 -13.27)"/><path class="cls-22" d="M37.31,76" transform="translate(-20.18 -13.27)"/><path class="cls-23" d="M37.31,76c-.45,0-1.2.73-1,1.22a.89.89,0,0,0,1.11.41,1.13,1.13,0,0,0,.59-1.1C37.9,76.28,37.63,76.21,37.31,76Z" transform="translate(-20.18 -13.27)"/><path class="cls-24" d="M38.29,75.65c-.34.25-.39.83.15.63S38.78,75.62,38.29,75.65Z" transform="translate(-20.18 -13.27)"/><path class="cls-25" d="M41.8,82.1c-.35,1.46-2.26,1.76-3.41,2.27-.48.21-1.29.56-1.27,1.19,0,.18.32.47.19.63s-1.06-.11-1.26-.12a2.21,2.21,0,0,0-1.71.62c-.31.49.12,1.28.58,1.55a2.81,2.81,0,0,0,2.22,0c.35-.16,1.14-1.1.69-1.51.25.47,1.51.09,1.87,0a2.43,2.43,0,0,0,1.14-.54c.39-.36.41-.85.72-1.24.51-.66,1.39-.92,1.61-1.82A1.21,1.21,0,0,0,43,82.06c-.39-.4-.76,0-1.21,0C41.79,82.17,42.16,82.08,41.8,82.1Z" transform="translate(-20.18 -13.27)"/><path class="cls-25" d="M66.84,56.81c-.53.13-1.72.91-1.39,1.66-2-1.19-4.34.88-5.37,2.47-1.38-2.32-5-1.69-6.46.16-2.24,2.85-.15,7.4,3.81,6.4-1,.54-2.22,1.8-3,1.34-.59-.35-.52-1.26-1.47-1.52-.35-.1-.91.18-1.23,0s-.37-.51-.81-.89c-1.37-1.2-3.06-.55-3.5,1.42-.62,2.77,2.29,2.45,4.09,2.46-1.24-.2-.2,1,.46,1.19,1.17.32,3-.43,4.09-.7A21.13,21.13,0,0,0,67.92,62.7c.83-1.23,2.41-6.78-1.08-5.89Z" transform="translate(-20.18 -13.27)"/><path class="cls-25" d="M64.09,53.46c-.45,1.84,1,1.89,2.47,1,1-.59,2.1-2.7,0-2.62,1,.11,1.44-1.68.63-2.15-.65-.38-.89.17-1.45.34-1.6.49-3.86,1.89-1.69,3.39C64,53.62,63.78,53.25,64.09,53.46Z" transform="translate(-20.18 -13.27)"/><path class="cls-25" d="M33.39,83.36v0l.24.11Z" transform="translate(-20.18 -13.27)"/><path class="cls-25" d="M33.78,83.64c-.38,0-.61-.37-1.07-.4a4.44,4.44,0,0,0-1.4.1.89.89,0,0,0-.43,1.46c.41.4,1.39.32,1.89.24s1.89-.77,1-1.4C33.7,83.64,34,83.78,33.78,83.64Z" transform="translate(-20.18 -13.27)"/><path class="cls-25" d="M27.87,85.52c-.36,1,1,1.26,1.72,1-.73.56-.06,1.17.68.94,1-.32.67-1.33-.31-1.26.35-.27.87-.17,0,0,.51-.41-.54-1.27-1.16-1.46S27.87,85.52,27.87,85.52Z" transform="translate(-20.18 -13.27)"/><path class="cls-25" d="M74.67,43.6c-.2-1-.25-6.12-2.51-5.81-1.45.2-.47,2-.19,2.75.59,1.63,1.34,1.6,2.33,2.81-2.57-.34-3.24,2.77-3.49,4.55-.08.57-.25,1.07-.31,1.64,0,.34.5.92.47,1.06-.32,1.37-1.55,1.85-1.19,3.63.88,4.37,3.4-1.06,3.69-2.71.26-1.46.12-2.61.71-4s1.35-2.56.5-3.95C74.66,43.54,75.44,44.85,74.67,43.6Z" transform="translate(-20.18 -13.27)"/><path class="cls-25" d="M48.34,64c-.19-1.27-1.47-1.46-2.52-1.55a4.36,4.36,0,0,0-1.85,0c-.15.1-1,.6-.32.7l.06-.23c-1,1.56,5,3.36,4.62,1Z" transform="translate(-20.18 -13.27)"/></svg>