<svg id="planet-BL" xmlns="http://www.w3.org/2000/svg" xmlns:xlink="http://www.w3.org/1999/xlink" viewBox="0 0 134.65 123.34"><defs><style>.cls-1,.cls-8{fill:none;}.cls-2{fill:#dc1d49;}.cls-3{clip-path:url(#clip-path);}.cls-4{fill:#f45b83;}.cls-5{fill:#f985a9;}.cls-6{fill:#a0153a;}.cls-7{fill:#f98fb0;}.cls-8{stroke:#f985a9;stroke-miterlimit:10;}.cls-9{opacity:0.8;fill:url(#radial-gradient);}.cls-10{fill:#fff;}.cls-11,.cls-12,.cls-13,.cls-14,.cls-15{opacity:0.5;}.cls-11{fill:url(#radial-gradient-2);}.cls-12{fill:url(#radial-gradient-3);}.cls-13{fill:url(#radial-gradient-4);}.cls-14{fill:url(#radial-gradient-5);}.cls-15{fill:url(#radial-gradient-6);}</style><clipPath id="clip-path" transform="translate(-1.68 -3.42)"><circle class="cls-1" cx="62.91" cy="61.48" r="58.06"/></clipPath><radialGradient id="radial-gradient" cx="39.07" cy="33.1" r="84.44" gradientUnits="userSpaceOnUse"><stop offset="0" stop-color="#1a0621" stop-opacity="0"/><stop offset="0.38" stop-color="#1a0621" stop-opacity="0.27"/><stop offset="1" stop-color="#1a0621" stop-opacity="0.99"/><stop offset="1" stop-color="#1a0621"/></radialGradient><radialGradient id="radial-gradient-2" cx="116.25" cy="92.94" r="26.24" xlink:href="#radial-gradient"/><radialGradient id="radial-gradient-3" cx="129.22" cy="122.76" r="4.05" xlink:href="#radial-gradient"/><radialGradient id="radial-gradient-4" cx="216.73" cy="346.19" r="4.82" gradientTransform="translate(-89.22 -231.46)" xlink:href="#radial-gradient"/><radialGradient id="radial-gradient-5" cx="107.15" cy="571.96" r="3.48" gradientTransform="translate(-449.43 223.65) rotate(-90)" xlink:href="#radial-gradient"/><radialGradient id="radial-gradient-6" cx="113.41" cy="121.2" r="3.38" gradientTransform="translate(123.38 -44.42) rotate(47.04)" xlink:href="#radial-gradient"/></defs><title>planet_B</title><circle class="cls-2" cx="61.22" cy="58.06" r="58.06"/><g class="cls-3"><path class="cls-4" d="M8.49,69.5a4.79,4.79,0,0,0,1.71-2.15C13.9,55.7,20.62,46,36.11,46.07c12.6,0,14.59,19.34,20.62,17.81,3.54-.9,1.82-7.59,5.05-9.19,8.15-4,9.76,6.25,17.41,2.66.23-.11,10.16-10.09,10-9.88,7-8.83,13.81-36.46,30.6-19.7,5,5,8.7,19.05,2,24.24-5.26,4.07-12.87,1.23-19.39,5.17-2.32,1.4-3.41,5.23-5.73,6.69-7.44,4.7-13.78.68-21,4.1-10,4.75-9.58,14.08-13,23.08-22.51,59.49-74.7.3-57.58-16.38A12.91,12.91,0,0,0,8,70.25,1.86,1.86,0,0,1,8.49,69.5Z" transform="translate(-1.68 -3.42)"/><path class="cls-5" d="M6.86,80.89C8,69.26,18.92,55.37,31.4,55.89c13.47.55,7.56,26.26,19.16,24.64,6.32-.88,6.7-11.61,10.38-15.12,4.91-4.69,12.93-2.23,19.1-3.34C94.43,59.5,95.39,49.37,99,37.87c1.68-5.39,5-11.77,11.25-12.72,8-1.22,10.89,5.78,10.12,12.48s-3.72,9.92-10.27,11.79c-6.05,1.73-9.14,2.46-13.58,7.08-9.59,10-13.56,6.61-25.35,7.91-4.53.5-7.1,2.4-9.4,6.25C60,73.57,59.34,77,57.33,79.89c-2.21,3.18-5.23,5.63-7.3,8.9C44.2,98,38.45,113.9,23.9,108.17c-5.82-2.29-10.15-8.44-12.56-14-.62-1.4-3.51-14.66-4.47-13.33C7,79.06,7.74,79.67,6.86,80.89Z" transform="translate(-1.68 -3.42)"/><path class="cls-6" d="M12.87,92.67c.11-.39-.28-1.08-.38-1.48-.33-1.35-.25-2.89-.48-4.28a20.93,20.93,0,0,1,.57-8.76,18,18,0,0,1,2.2-5,13.45,13.45,0,0,1,5.43-5.19c3-1.29,6.49-1,9.48-.09a7.92,7.92,0,0,1,2.64,1.83,10.3,10.3,0,0,1,1.55,1.63,15.19,15.19,0,0,1,1.22,2.3c1.84,3.24,3.64,7.16,3.74,11A36.69,36.69,0,0,1,38,95.34a13.82,13.82,0,0,1-1.53,3.44,12.22,12.22,0,0,1-3.33,3.34,15.88,15.88,0,0,1-3.92,2.11c-1.81.67-3.17.07-4.89-.4-3.49-1-6.64-3.68-8.77-6.49-.71-.94-1.23-2.16-2-3C12.51,93.12,12.48,92.34,12.87,92.67Z" transform="translate(-1.68 -3.42)"/></g><path class="cls-4" d="M22.28,73c4.63-3.1,5.43,4,6.14,8.23a1.36,1.36,0,0,0,2.48.5c.54-.8,1.15-1.3,2.3-.67,2.65,1.45,1,10.57-.07,12.31-1.89,3.17-6.79,5.25-10.43,4a4.5,4.5,0,0,1-.7-.33,10.38,10.38,0,0,1-4.85-11.88l2-7.05C19.82,75.57,20.81,74,22.28,73Z" transform="translate(-1.68 -3.42)"/><path class="cls-6" d="M26.05,80.94c-4.05-3.22-6.94,2.55-7.29,6s3,13,8.06,7.9c1.58-1.6.45-3,.26-4.76-.27-2.49,1.23-7.17-1-9.11Z" transform="translate(-1.68 -3.42)"/><path class="cls-6" d="M29.45,86.48l0-.08c-1.4-.49-1.63,9.76,1.3,3.29,1.31.31.59,1.17,1.77-.39.38-.51.48-3.09-.06-3.36-1.66-.86-1,2.57-1.68,2.59s-.54-2.38-1.31-2C29.44,86.45,29.73,86.36,29.45,86.48Z" transform="translate(-1.68 -3.42)"/><path class="cls-7" d="M22.46,84.73c-2.85-.82-2,5.75-1.07,6.53,2.7,2.22,1.35-3.08,1.82-4q.9-.13.83,1c.38.2,1.63-2.79.32-3.09a11.69,11.69,0,0,0-1.89-.39C22.33,84.69,22.72,84.72,22.46,84.73Z" transform="translate(-1.68 -3.42)"/><path class="cls-6" d="M88.88,78.28C80.49,72.22,74.3,85.22,76.22,92c2.63,9.31,10.22,14.42,18.53,7.25,4.51-3.89,10.17-16.92,2.69-20.44-2.18-1-6.64.93-8.56-.56C87.53,77.31,89.83,79,88.88,78.28Z" transform="translate(-1.68 -3.42)"/><path class="cls-4" d="M92.17,81.72c-.67-.41-3.89.95-4.72,1-3.38.4-4.14-2.36-6.15,1.92-1.18,2.52,1.77,11.19,4.25,12.64,7.66,4.48,13.05-11.06,6.63-15.6C91.69,81.43,92.66,82.07,92.17,81.72Z" transform="translate(-1.68 -3.42)"/><path class="cls-5" d="M88.78,86.59c-.11.51-3.84,1-4.33,1.89-2,3.7,2.57,6.12,4.14,1.78,2.06.22,4.26,1.13,4.39-2.59.16-4.76-4.4-1.33-4.2-1.08C88.69,87,88.84,86.66,88.78,86.59Z" transform="translate(-1.68 -3.42)"/><path class="cls-4" d="M72.58,10c-.43-3.06-7.18.41-8.14.92-4.08,2.17-8,6.16-8.1,11.22-.17,6.18,7.86,12,13.19,12.79,6.47.94,14.36-3.87,15-11.17.3-3.43-10.7-16.72-12-13.76C72.39,8.69,73.13,8.76,72.58,10Z" transform="translate(-1.68 -3.42)"/><path class="cls-5" d="M75.91,16.11c-5.27-6.54-17.17,0-13.47,7.58,3.18,6.5,17.8,9.12,14.45-2.11,5.83,4.14,1.31-10.31-1-5.47C75.75,15.91,75.77,16.41,75.91,16.11Z" transform="translate(-1.68 -3.42)"/><path class="cls-8" d="M123.92,82.48" transform="translate(-1.68 -3.42)"/><circle class="cls-9" cx="61.22" cy="58.06" r="58.06"/><circle class="cls-10" cx="120.65" cy="109.34" r="14"/><circle class="cls-11" cx="120.65" cy="109.34" r="14"/><path class="cls-12" d="M128.54,118.95a1.56,1.56,0,0,0-1.42,2.21.94.94,0,0,0-.75.91,1,1,0,1,0,1.91,0v0l.26,0a1.56,1.56,0,0,0,0-3.12Z" transform="translate(-1.68 -3.42)"/><circle class="cls-13" cx="130.1" cy="114.33" r="3.41" transform="translate(-44.42 122.06) rotate(-45)"/><circle class="cls-14" cx="122.23" cy="114.63" r="2.46"/><ellipse class="cls-15" cx="112.72" cy="119.54" rx="0.94" ry="1.61" transform="translate(-53.26 117.15) rotate(-47.04)"/></svg>