<?xml version="1.0" encoding="utf-8"?>
<!-- Generator: Adobe Illustrator 20.0.0, SVG Export Plug-In . SVG Version: 6.00 Build 0)  -->
<svg version="1.1" id="Layer_1" xmlns="http://www.w3.org/2000/svg" xmlns:xlink="http://www.w3.org/1999/xlink" x="0px" y="0px"
	 viewBox="0 0 90.2 118" style="enable-background:new 0 0 90.2 118;" xml:space="preserve">
<style type="text/css">
	.st0{fill:#5D6C70;}
	.st1{fill:#35474C;}
	.st2{fill:none;stroke:#35474C;stroke-miterlimit:10;}
	.st3{fill:#172C2D;}
	.st4{fill:none;stroke:#172C2D;stroke-width:0.5;stroke-miterlimit:10;}
	.st5{fill:#A1ABAD;}
	.st6{fill:none;stroke:#5D6C70;stroke-width:0.25;stroke-miterlimit:10;}
</style>
<g id="robotBase">
	<path class="st0" d="M75.4,107.9L13.2,91.1c-1.5-0.4-2.4-2-2-3.5l0,0c0.4-1.5,2-2.4,3.5-2l62.2,16.8c1.5,0.4,2.4,2,2,3.5l0,0
		C78.5,107.4,77,108.3,75.4,107.9z"/>
	<path class="st1" d="M75.4,107.9L13.2,91.1c-1.5-0.4-2.4-2-2-3.5l0,0c0.4-1.5,2-2.4,3.5-2l62.2,16.8c1.5,0.4,2.4,2,2,3.5l0,0
		C78.5,107.4,77,108.3,75.4,107.9z"/>
	<path class="st0" d="M14.7,107.9l62.2-16.8c1.5-0.4,2.4-2,2-3.5l0,0c-0.4-1.5-2-2.4-3.5-2l-62.2,16.8c-1.5,0.4-2.4,2-2,3.5l0,0
		C11.6,107.4,13.2,108.3,14.7,107.9z"/>
	<g>
		<line class="st2" x1="40" y1="16.9" x2="49.3" y2="16.9"/>
	</g>
	<path class="st1" d="M54.2,13.8c0.4,0,0.7-0.3,0.7-0.7v-2.5c0-0.4-0.3-0.7-0.7-0.7h-0.7H35.8h-0.7c-0.4,0-0.7,0.3-0.7,0.7v2.5
		c0,0.4,0.3,0.7,0.7,0.7h0.7v25.5h-0.7c-0.4,0-0.7,0.3-0.7,0.7v2.5c0,0.4,0.3,0.7,0.7,0.7h0.7h17.7h0.7c0.4,0,0.7-0.3,0.7-0.7V40
		c0-0.4-0.3-0.7-0.7-0.7h-0.7V13.8H54.2z"/>
	<rect x="35.8" y="13.8" class="st3" width="17.7" height="1.7"/>
	<path class="st1" d="M77.6,90.9c1.1-0.6,1.8-2,1.4-3.3c-0.4-1.5-2-2.4-3.5-2l-19.6,5.3H77.6z"/>
	<rect x="35.8" y="15.5" class="st0" width="4.9" height="23.8"/>
	<path class="st3" d="M80.2,89.3H10V65c0-3.5,2.8-6.3,6.3-6.3h57.5c3.5,0,6.3,2.8,6.3,6.3L80.2,89.3L80.2,89.3z"/>
	<polygon class="st3" points="71.3,89.3 19.5,89.3 19.5,52.1 28.4,43.2 62.3,43.2 71.3,52.1 	"/>
	<path class="st2" d="M63.2,82.5H27.6c-1.6,0-2.9-1.3-2.9-2.9V59l7.1-7.1h27L66,59v20.7C66,81.2,64.8,82.5,63.2,82.5z"/>
	<g>
		<polygon class="st1" points="58.1,56.3 45.9,56.3 45.5,56.3 33.2,56.3 31,58.7 45.5,58.7 45.9,58.7 60.3,58.7 		"/>
		<polygon class="st1" points="58.1,60.3 45.9,60.3 45.5,60.3 33.2,60.3 31,62.7 45.5,62.7 45.9,62.7 60.3,62.7 		"/>
		<polygon class="st1" points="58.1,64.3 45.9,64.3 45.5,64.3 33.2,64.3 31,66.7 45.5,66.7 45.9,66.7 60.3,66.7 		"/>
		<polygon class="st1" points="58.1,68.3 45.9,68.3 45.5,68.3 33.2,68.3 31,70.7 45.5,70.7 45.9,70.7 60.3,70.7 		"/>
	</g>
	<rect x="31.4" y="73.7" class="st1" width="27.8" height="6.2"/>
	<circle class="st3" cx="33.6" cy="76.7" r="0.8"/>
	<circle class="st3" cx="57.3" cy="76.7" r="0.8"/>
	<line class="st4" x1="33.6" y1="76.7" x2="57.3" y2="76.7"/>
	<circle class="st0" cx="32.8" cy="53.9" r="0.5"/>
	<circle class="st0" cx="27" cy="59.7" r="0.5"/>
	<circle class="st0" cx="64.1" cy="59.7" r="0.5"/>
	<circle class="st0" cx="27" cy="80.3" r="0.5"/>
	<circle class="st0" cx="64.1" cy="80.3" r="0.5"/>
	<circle class="st0" cx="57.8" cy="53.9" r="0.5"/>
	<circle class="st3" cx="45.4" cy="96.8" r="1.4"/>
	<circle class="st5" cx="45.4" cy="96.6" r="1.4"/>
	<g>
		<rect x="44.3" y="96.4" class="st3" width="2.3" height="0.2"/>
	</g>
	<line class="st6" x1="44.3" y1="96.8" x2="46.6" y2="96.8"/>
	<polygon class="st3" points="45.1,99.7 56.1,96.7 59.3,97.6 48.5,100.6 	"/>
</g>
</svg>
