<?xml version="1.0" encoding="utf-8"?>
<!-- Generator: Adobe Illustrator 20.0.0, SVG Export Plug-In . SVG Version: 6.00 Build 0)  -->
<svg version="1.1" id="Layer_1" xmlns="http://www.w3.org/2000/svg" xmlns:xlink="http://www.w3.org/1999/xlink" x="0px" y="0px"
	 viewBox="0 0 38.3 58.6" style="enable-background:new 0 0 38.3 58.6;" xml:space="preserve">
<style type="text/css">
	.st0{fill:#DD0000;}
	.st1{fill:#A60000;}
	.st2{fill:#E56565;}
	.st3{fill:#5E2626;}
</style>
<g id="sunCherryOnTop">
	<g>
		<circle class="st0" cx="19.1" cy="39.5" r="9.1"/>
		<path class="st1" d="M18.2,32.2c0.5,0.7,0.3,1.9-0.7,2.5s-2.5,0.5-2.8-0.3c-0.3-0.7,0.6-0.7,1.6-1.3
			C17.2,32.5,17.8,31.6,18.2,32.2z"/>
		<path class="st2" d="M13.3,35.6c1.5-0.1,0.1,1.9,0.3,4.4s1.6,4.6,0.2,4.6s-2.7-1.9-2.9-4.4C10.8,37.7,11.9,35.7,13.3,35.6z"/>
		<path class="st3" d="M13.2,10.1c0.3,0.2,0.5,0.5,0.3,0.9c-1.6,3.5-4,12,3.2,22.4c0.1,0.2,0.2,0.3,0,0.4s-0.4,0.1-0.4,0.1h-0.2
			C8,23.4,10.6,14.2,12.2,10.5C12.5,10.1,12.9,9.9,13.2,10.1L13.2,10.1z"/>
		<path class="st3" d="M17.6,33.2c0.2,0.3-0.1,0.8-0.6,1.2c-0.5,0.3-1.2,0.3-1.4,0s0.2-0.6,0.7-0.9C16.9,33.1,17.5,32.9,17.6,33.2z"
			/>
	</g>
</g>
</svg>
