<?xml version="1.0" encoding="utf-8"?>
<!-- Generator: Adobe Illustrator 20.0.0, SVG Export Plug-In . SVG Version: 6.00 Build 0)  -->
<svg version="1.1" id="Layer_1" xmlns="http://www.w3.org/2000/svg" xmlns:xlink="http://www.w3.org/1999/xlink" x="0px" y="0px"
	 viewBox="0 0 133.1 78.9" style="enable-background:new 0 0 133.1 78.9;" xml:space="preserve">
<style type="text/css">
	.st0{fill:#F7EA9E;}
	.st1{fill:#FFF4C0;}
	.st2{fill:#E5D16E;}
</style>
<g id="sunBananaFront">
	<g>
		<path class="st0" d="M106.3,27.5c-2.5,1.8-6.3,3.5-9.1,4.7c-7.1,3-14.5,5.5-22.2,6.3s-15.7-0.3-22.5-4c-9.3-5-16.4-14.3-25.7-19.5
			c-4.1-2.3-7.6-3.8-12-5h-0.1c-0.1,0.1-0.2,0.2-0.3,0.3c-0.2,0.2-0.6,0.2-0.9,0.3c-0.3,0.1-0.4,0.3-0.7,0.5s-0.6,0.4-1,0.6
			c-0.1,0-0.1,0.1-0.2,0.1C5.8,27.5,15.8,43.1,28,53.5C40.7,64.3,57.8,69,74.3,68.9c9.3-0.1,20.3-1.5,28.6-5.7
			c8.2-4.3,15.1-11.5,17.7-20.4c1.6-5.5,2.9-10.3,2.4-16c0,0,0.5-6.9-3.5-8.2C115.5,17.4,112.2,23.2,106.3,27.5z"/>
		<path class="st1" d="M119.5,18.6c-4-1.2-7.3,4.6-13.2,8.9c-2.5,1.8-6.3,3.5-9.1,4.7c-7.1,3-14.5,5.5-22.2,6.3s-15.7-0.3-22.5-4
			c-9.3-5-16.4-14.3-25.7-19.5c-3.4-1.9-6.4-3.2-9.7-4.3c3.4,6.6,8.5,12.6,14.2,17.4C44,38.8,61,43.5,77.6,43.4
			c9.3-0.1,20.3-1.5,28.6-5.7c6.9-3.6,12.9-9.3,16.1-16.2C121.7,20.2,120.9,19.1,119.5,18.6z"/>
		<path class="st2" d="M121.5,35.6C119,44.5,112,51.7,103.8,56s-19.3,5.7-28.6,5.7C58.7,61.8,41.7,57.1,29,46.4
			c-9.7-8.3-18-19.8-18.1-32.1c-4,14.8,5.6,29.4,17.2,39.3C40.7,64.3,57.8,69,74.3,68.9c9.3-0.1,20.3-1.5,28.6-5.7
			s15.1-11.5,17.7-20.4c1.3-4.6,2.4-8.7,2.5-13.2C122.7,31.5,122.1,33.5,121.5,35.6z"/>
	</g>
</g>
</svg>
