<?xml version="1.0" encoding="utf-8"?>
<!-- Generator: Adobe Illustrator 20.0.0, SVG Export Plug-In . SVG Version: 6.00 Build 0)  -->
<svg version="1.1" id="Layer_1" xmlns="http://www.w3.org/2000/svg" xmlns:xlink="http://www.w3.org/1999/xlink" x="0px" y="0px"
	 viewBox="0 0 153.4 134.5" style="enable-background:new 0 0 153.4 134.5;" xml:space="preserve">
<style type="text/css">
	.st0{fill:#FFE3FB;}
	.st1{opacity:0.2;fill:#7A4650;enable-background:new    ;}
	.st2{opacity:0.5;fill:#7A4650;enable-background:new    ;}
	.st3{fill:#56381D;}
	.st4{opacity:0.2;fill:#331E0D;enable-background:new    ;}
	.st5{fill:#331E0D;}
	.st6{fill:#FFFFFF;}
</style>
<g id="sunIceCreamScoops">
	<g>
		<g>
			<g>
				
					<ellipse transform="matrix(0.109 -0.994 0.994 0.109 14.2655 181.2653)" class="st0" cx="108.2" cy="82.7" rx="32.4" ry="32.4"/>
				<path class="st0" d="M69.5,93.2c-1.1,4.1,2.4,8.6,6.6,9.3c-0.9,6.5,4.8,13.1,11.4,13.2c1,0,2.1-0.1,2.9,0.5
					c0.8,0.5,1.2,1.5,1.6,2.4c2.8,5.6,10.8,7.7,15.9,4.1c1.1-0.8,2.2-1.8,3.5-1.9c1.2-0.1,2.2,0.6,3.3,1.1c6,2.8,13.9-0.1,16.7-6.1
					c0.4-0.9,0.7-1.8,1.4-2.6c0.9-1,2.2-1.4,3.2-2.2c3.1-2.3,3.6-6.6,5.5-9.9c0.7-1.1,1.5-2.2,1.8-3.4c0.7-3.4-3.4-6-6.8-5.6
					s-6.2,2.7-9.3,4.3c-6.6,3.6-14.4,4.1-21.9,3.7c-5.9-0.3-12.1-1.3-16.8-5C84.5,92.2,72,83.8,69.5,93.2z"/>
			</g>
			<g>
				<path class="st1" d="M113.9,58.2L113.9,58.2C113.9,58.3,113.9,58.2,113.9,58.2z"/>
				<path class="st1" d="M122.3,62.4c-0.3-0.5-1.5-1.4-1.5-0.2c0.1-0.2-0.4,0-0.6-0.1c-0.2-0.1-0.5-0.8-0.7-1
					c-0.7-1-1.4-1.6-2.5-2.2c-0.4-0.2-0.8-0.4-1.2-0.5c-0.3-0.1-0.6-0.1-0.8-0.3c-0.4-0.3-1.1-1.4-1.8-1c-0.8,0.4,0.3,0.9,0.6,1
					c0.9,0.3,1.3,1.1,2,1.7c1.7,1.7,2.9,3.9,3.7,6.2c0.4,1,0.7,2.1,0.8,3.2c0,0.4-0.1,2.4,0.5,1.7c0.2-0.2,0.3-0.6,0.4-0.8
					c0.1-0.4,0.4-0.7,0.5-1.1c0.1-0.5,0.1-1-0.1-1.5c-0.1-0.3-0.2-0.6-0.2-0.9c0-0.3,0.2-0.4,0.1-0.7c-0.1-0.5-1.6-1.4-0.4-1.7
					c0.5-0.1,1.2,0.2,1.5,0.6c1.1,1.6,1.1,4.2,1.3,6.1c0.1,0.7,0.2,1.4,0,2.1c-0.1,0.3-0.7,1.3-0.6,1.6c0.1,0.6,1.1-0.8,1.2-1.1
					c0.1-0.2,0-0.4,0-0.6c0-0.1,0.1-0.2,0.2-0.3c0.2-0.6,0.3-0.9,0.2-1.5c0-0.3-0.3-1-0.2-1.3c0-0.1,0.5-0.6,0.3-0.7
					c0.3,0.3,0.6,0.3,0.8,0.7c0.2,0.3,0.2,0.8,0.3,1.1c0.3,0.9,0.3,1.8,0.4,2.8c0.1,0.5,0.1,0.9,0.1,1.3c0,0.4,0.2,0.8,0.2,1.2
					c0,0.7-0.7,1.8-0.5,2.5c0.7,0,1.3-3,1.4-3.5c0.2-1.4,0-2.8,0.1-4.2c0-0.7,0.1-1.3-0.3-1.9c-0.4-0.7-0.2-1.2-0.4-1.9
					c-0.2-1.1-1.3-1.7-1.1-2.7c0.1-1-1-2.2-1.6-3.1c-0.4-0.6-0.8-0.9-1.3-1.4c-0.4-0.4-0.8-0.9-1.3-1.2c-0.3-0.2-1.4-0.4-0.9,0.3
					c0.1,0.1,0.5,0.2,0.6,0.3c0.2,0.2,0.2,0.3,0.3,0.5c0.4,0.5,0.4,0.5,0.5,1.1c0.1,0.3,0.2,0.5,0.2,0.8c0,0.2-0.1,0.6-0.1,0.7
					C122.4,62.5,122.3,62.5,122.3,62.4C122.2,62.2,122.4,62.5,122.3,62.4z"/>
				<path class="st1" d="M120.7,116.1c-0.1,0-0.1,0.1-0.2,0.2C120.6,116.2,120.7,116.1,120.7,116.1z"/>
				<path class="st1" d="M121.2,121.7c0.5,0,1-0.4,1.2-0.8C122,121.1,121.6,121.5,121.2,121.7C121.6,121.7,121.4,121.6,121.2,121.7z
					"/>
				<path class="st1" d="M143.3,96.5c-0.3-1.1-0.8-2.3-1.7-3.1c-0.5-0.4-0.8-0.4-1.4-0.6c-0.4-0.1-0.8-0.6-1.2-0.6
					c2.5-8,1.8-16.7-2-24.2c-3.5-6.8-9.3-12.3-16.3-15.3c-4.6-2-9.6-2.7-14.6-2.5c4.2,0,8.7,1.6,12.3,3.7c3.6,2.1,6.7,4.9,9.1,8.3
					c2.4,3.4,4,7.3,4.8,11.4c0.4,2.2,0.5,4.4,0.4,6.6c-0.1,2.5-0.3,5.5-1.8,7.5c-0.1,0.2-1,1.7-1.3,1.6c-0.5-0.1,0-0.9,0.1-1.2
					c0.2-0.6,0.1-1.2,0.3-1.8c0.2-0.7,0.5-1.2,0.6-1.9c0.1-0.6,0.1-1.2,0-1.9c0-0.4,0.1-0.8,0-1.2c-0.1-0.8-0.7-1.6-0.7-2.4
					c0,0.2-0.1,0.7-0.3,0.8c-0.1-0.1-0.1-0.1-0.1-0.2c-0.4,0.4-0.7-1.3-0.8-1.4c-0.7-0.9-0.2,1.2-0.2,1.3c0,0.2-0.2,0.2-0.2,0.4
					c0,0.2,0.1,0.7,0.1,0.8c0,0.6-0.1,1.2-0.2,1.8c-0.2,1.1-0.3,2.4-0.7,3.5c-0.4,1.2-0.8,2.2-1.5,3.3c-0.2,0.3-0.6,0.9-0.9,0.9
					c-0.7,0-0.2-0.8-0.1-1c0.3-0.4,0.6-0.9,0.6-1.4c0.1-0.5-0.1-0.9,0.1-1.4c0.2-0.6,0.3-1.4,0.3-2c0-0.2,0-1.4-0.3-1.6
					c0.1,1.6-0.4,3.7-1.1,5.1c-0.2,0.5-0.7,1.4-1.2,1.7c-0.6,0.4,0-0.8,0.1-1c0.4-1.3,0.5-2.8,0.5-4.2c0-0.2-0.1-3.2-0.9-2.9
					c0,0.3,0.2,0.7,0.3,1c0.1,0.4,0,0.8,0,1.2c0,0.9,0,1.7-0.3,2.6c-0.3,0.8-0.6,1.6-1,2.4c-0.3,0.6-0.4,1.5-0.8,2
					c-0.5,0.7-1,1.2-1.5,2c-0.3,0.6-0.7,1.2-1.2,1.6c-0.5,0.4-1,0.7-1.5,1.2c-0.3,0.3-1.1,1.3-1.6,1.3c0.3,0,0.7-0.2,1-0.2
					c0.6-0.1,1.1-0.3,1.7-0.6c0.9-0.4,2.1-1,2.6-1.8c0.1-0.2,0.1-0.5,0.2-0.7c0.2-0.2,0.5-0.3,0.7-0.5c0.1-0.1,0.3-0.5,0.4-0.5
					c0.1,0,0.3,0.1,0.4,0.1c0.4,0,0.8,0.1,1-0.4c0.5,0.2,1,0.7,1.5,0.5c0.4-0.2,0.9-0.5,1.2-0.7c0.8-0.7,1.3-1.8,1.7-2.8
					c1.1-2.5,1.7-4.9,1.7-7.7c0.4,0.4,0.4,1.6,0.4,2.1c0,1-0.2,1.9-0.4,2.8c-0.1,0.5-0.3,0.9-0.4,1.4c-0.2,0.5-0.1,0.9-0.2,1.4
					c-0.1,0.5-0.4,0.8-0.7,1.2c-0.1,0.2-0.9,1.1-0.9,1.2c0.3,0,0.5-0.3,0.7-0.3c0,0,0.2,0.2,0.3,0.2c0.2,0,0.4,0,0.5-0.1
					c0.8-0.1,1.3-0.5,1.8-1.1c-0.7,1.6-1.7,3.9-3.4,4.8c-0.2-0.3,0.5-1.4,0.6-1.7c0.1-0.3,0.2-0.6,0.3-0.9c0.2-0.4,0.2-0.4,0.2-0.7
					c-0.3,0-0.8,0.9-1,1.1c-0.3,0.5-0.6,0.9-1,1.3c-0.5,0.5-1,0.9-1.6,1.3c-0.3,0.2-1,1-1.5,0.8c0-0.1,0.3-0.4,0.3-0.5
					c0.1-0.3,0.2-0.8,0.2-1.2c-0.3,0.2-0.6,0.7-0.9,1c-0.4,0.4-0.8,1-1.4,1.2c-0.2,0.1-0.5,0-0.7,0c-0.2,0.1-0.5,0.2-0.7,0.4
					c-0.4,0.3-0.7,1-1.3,1c0.3-0.6,1.1-0.8,1.5-1.4c0.3-0.5,0.8-1.3,0.8-2c-0.1,0-0.5,0.6-0.7,0.7c-0.1,0.1-0.2,0.1-0.2,0
					c-0.1,0.1-0.1,0.1-0.2,0.2c-0.3,0.1-0.6,0.3-0.8,0.5c-0.4,0.3-0.7,0.7-1.1,1c-0.2,0.1-1.4,1-1.7,0.7c0-0.4,0.8-0.8,0.8-1.2
					c-0.4,0-0.9,0.7-1.2,0.9c-0.4,0.3-0.9,0.5-1.3,0.8c-0.7,0.4-1.9,0.9-2.7,0.9c0.1,0.1,0.8,0.3,0.9,0.4c0.3,0.1,0.8,0.1,1.1,0
					c0.9-0.2,1.7-0.7,2.6-1c0,0.5-1.2,0.5-1.5,0.7c-0.2,0.1-0.3,0.5-0.5,0.6c-0.2,0.2-0.5,0.2-0.7,0.4c-0.6,0.4-1,0.7-1.7,0.7
					c-0.6,0-1.3,0.1-1.8,0.6c0.1,0,0.2,0.1,0.3,0.1c-0.6,0.1-1.2-0.1-1.8-0.2c-0.6-0.1-1.1-0.2-1.7-0.3c-0.3-0.1-2.3-0.7-1.7-1.3
					c0.2-0.2,0.7,0.2,0.9,0.3c0.4,0.2,0.8,0,1.3-0.1c0.5-0.1,2.4-0.6,2.6-1.1c-0.7,0.3-1.9,0.4-2.7,0.4c-0.6,0-1.1-0.2-1.7-0.2
					c-0.6,0-1.1,0.2-1.7,0.2c-0.4,0.1-0.8,0.2-1.2,0.2c-0.4,0-0.8-0.1-1.2-0.2c-0.9-0.1-1.9-0.3-2.7-0.6c-0.4-0.2-1.7-1-2-0.5
					c-0.3,0.5,1.1,1.3,1.4,1.5c0.7,0.3,1.3,0.6,2,0.8c0.5,0.2,1,0.6,1.5,0.6c-0.8-0.1-1.6-0.2-2.3-0.4c-0.6-0.2-1.1-0.5-1.7-0.3
					c-0.5,0.1-1,0.3-1.5,0.5c-0.6,0.2-1.1,0.2-1.6,0.5c-0.4,0.2-0.7,0.6-1.2,0.4c-0.2-0.1-0.2-0.2-0.4-0.3c-0.3-0.1-0.6,0-0.8,0.1
					c-0.6,0.3-0.8,0.5-1.5,0.4c-0.3,0-0.8,0.1-1.1,0.1c-0.4-0.1-0.5-0.5-0.9-0.6c-0.5-0.2-1.1,0-1.6-0.2c-0.5-0.2-0.5-0.7-0.7-1.1
					c-0.3-0.5-0.8-0.7-1.3-0.9c-0.4-0.1-1.1-0.2-1.4-0.5c-0.4-0.3-0.4-0.9-0.7-1.3c-0.3-0.4-0.9-0.7-1.2-1c-0.6-0.5-0.9-0.8-1.1-1.6
					c-0.2,0-0.1,0.7-0.1,0.8c-3.2-4.4-5.1-9.6-5.5-15c-1,15.4,9.4,29.7,24.4,33.4c1,0.3,2.1,0.5,3.2,0.6c0.5,0.1,1,0.1,1.5,0.2
					c0.5,0.1,1,0,0.6,0.6c-0.4,0.6-2.8,0.7-3.3,0.1c0.5,0.5,1.2,0.5,1.8,0.8c0.9,0.4,1.5,0.7,2.5,0.5c0.7-0.1,1.5-0.6,2.2-0.6
					c0.6-0.1,0.9,0.4,0.8,1.1c-0.1,0.8-0.8,0.4-1.1,0.8c-0.1,0.2,0,0.6,0,0.8c0,0.4-0.1,0.7-0.3,1c-0.4,0.6-1.2,1.3-1.8,1.8
					c-0.4,0.3-1.5,1.2-1.9,1.2c0.7,0,1.4-0.5,2.1-0.8c0.2-0.1,0.4-0.2,0.6-0.3c0.3-0.2,0.5-0.5,0.7-0.7c0.5-0.2,0.9-0.1,1.4-0.5
					c0.3-0.2,0.5-0.6,0.8-0.9c0.3-0.2,0.6-0.3,0.9-0.6c0.4,0.7,1.1,1.1,1.8,1.4c0.4,0.2,0.7,0.4,1.1,0.4c0.5,0,0.8-0.2,1.3-0.2
					c-1.2,0.2-2.3-1.2-2.6-2.3c-0.1-0.4-0.4-1.2,0.1-1.3c0.4-0.1,1,0.5,1.4,0.5c0.2,0,0.3-0.2,0.4-0.2c0.3,0,0.2,0,0.5,0.1
					c0.7,0.2,0.9,0.2,1.6-0.1c1.1-0.4,2.6-0.1,3.5-1c-1,0.2-1.8,0.5-2.8,0.5c-0.8,0-2.3-0.4-2.7-1.3c-0.1-0.4,0-0.5,0.5-0.5
					c0.5-0.1,0.9,0.1,1.4,0c1-0.2,2.1-0.8,3-1.3c0.4-0.2,1-0.2,1.3-0.5c0.2-0.1,0.4-0.7,0.7-0.7c0.4,0.1,0.4,0.8,0.5,1.1
					c0,0.1,0.2,0.6,0.2,0.7c0.1,0.1,0.4,0.1,0.5,0.3c0.2,0.3,0.2,0.9,0.3,1.2c0.2,0.5,0.3,1,0.4,1.5c0.1,1.4-0.5,2.2-1.1,3.4
					c0.8-0.8,1.4-1.5,2.1-2.4c0.6-0.9,0.5-1.8,0.1-2.8c-0.1-0.2-0.5-0.6-0.5-0.8c0-0.3,0.6-0.7,0.7-1c0.2-0.4,0.2-0.8,0-1.2
					c-0.1-0.2-0.6-0.5-0.9-0.4c0.6-0.3,1-0.8,1.7-0.6c0.4,0.1,0.7,0.5,1.1,0.7c0.5,0.3,0.9,0.6,0.8,1.3c0,0.2-0.4,0.5-0.4,0.6
					c0,0.3,0.1,0.1,0.2,0.3c0.4,0.7,0.5,1.6,0.3,2.4c-0.1,0.6-0.4,1.2-0.7,1.7c-0.3,0.5-1,0.7-1.2,1.2c1.7-1.1,3.6-2.7,3.9-4.9
					c0.1-1,0-2.4-0.6-3.1c-0.9-1.1-2.2-0.5-3.3-1.1c0-0.2,0.6-0.4,0.7-0.5c0.3-0.2,0.4-0.5,0.7-0.8c0.3-0.3,0.7-0.4,1.1-0.7
					c0.4-0.3,0.6-0.6,0.9-0.9c0.5-0.5,1.2-0.6,1.8-1.2c0.2-0.3,0.6-0.6,0.7-1c0-0.2-0.2-0.8,0-0.8c0.2,0.8,0.3,1.8-0.1,2.6
					c-0.4,0.8-1,1.4-1.6,2c0.6,0,1.5-0.7,1.9-1c0.8-0.5,1.2-1.1,1.6-2c0.3-0.6,0.3-1.4,0.6-2c0.4-0.8,0.8-1.4,0.9-2.3
					c0.1-1,0.4-1.2,1.1-1.8c0.6-0.6,0.7-1.2,1-1.9c0.2-0.4,0.4-0.3,0.7-0.5c0.3-0.2,0.5-0.6,0.6-0.9c0.3-0.8,0.3-1.8,0.1-2.7
					c0.6,0.8,1.5,1.6,1.9,2.7c0.3,1.2-0.6,1.2-1.2,2c-0.1,0.2-0.2,0.4-0.4,0.5c-0.2,0.1-0.6,0.1-0.8,0.2c-0.3,0.3-0.1,0.5,0,0.9
					c0.1,0.5,0.2,1,0,1.5c-0.2,0.3-0.7,0.9-1.1,0.4c0.2,0.4,0.4,0.8,0.6,1.3c0.1,0.3,0.2,0.4,0.4,0.7c0.5,0.8,0.1,1.8-0.2,2.5
					c-0.4,1-1,1.9-1.8,2.6c-0.3,0.2-0.6,0.5-1,0.6c-0.2,0.1-0.8,0.1-0.9,0.3c0.9,0,1.3-0.4,2-0.9c0.7-0.5,1.6-0.9,2.1-1.6
					c1-1.3,1.2-2.8,1.5-4.3c0.2-0.7,0.3-1.5,0.7-2.1c0.2-0.3,0.5-0.5,0.7-0.8c0.1-0.2,0.1-0.5,0.3-0.7c0.2-0.2,0.6-0.2,0.8-0.4
					c0.4-0.3,0.7-0.6,0.9-1C143.6,98.3,143.5,97.3,143.3,96.5z M129.2,80.8C129.2,80.7,129.2,80.7,129.2,80.8
					C129.2,80.7,129.2,80.7,129.2,80.8C129.3,80.7,129.3,80.7,129.2,80.8C129.2,80.7,129.3,80.7,129.2,80.8z M115.1,101.3
					c0.7,0,1.2-0.1,1.7-0.5c0.5-0.4,0.9-0.8,1.5-1c0.7-0.2,0.9-0.2,1.3-0.8c0.2-0.3,0.6-0.8,0.8-1c0.4-0.3,1,0.2,1.4,0.2
					c0.5,0,1-0.2,1.5-0.4c0.5-0.2,0.8-0.7,1.4-0.7c0.3,0,0.5,0.1,0.8,0c0.2-0.1,0.5-0.3,0.8-0.3c-1.9,2.4-4.2,4.1-7.2,4.8
					c-0.8,0.2-1.6-0.1-2.4,0c-0.5,0.1-0.8,0.2-1.3,0.2c-0.8,0-0.6-0.1-1.1-0.6C114.6,101.3,114.8,101.3,115.1,101.3z M104.9,105.6
					c-0.5-0.1-1.1,0-1.6-0.2c-0.5-0.1-1-0.4-1.6-0.4c-1.2-0.1-2,0.4-2.9-0.5c0.7,0,1.2-0.1,1.9-0.3c0.7-0.1,1.4,0,2.1-0.1
					c0.3,0,0.6-0.1,0.8-0.3c0.3-0.3,0.2-0.7,0.4-1c0.1-0.1,0.4-0.1,0.6-0.3c0.2-0.2,0.2-0.6,0.3-0.8c0.6,0.6,1.4,0.5,2.1,1
					c-0.3,0.5-1,0.8-0.2,1.1c0.2,0.1,0.7,0.2,1,0.2c0.3,0,0.6-0.3,0.9-0.2c0.2,0.1,0.2,0.3,0.5,0.4c0.2,0.1,0.7,0,0.9,0
					c0.7,0,1.5-0.1,2.1-0.5c0.3-0.2,0.5-0.3,0.9-0.4c0.3,0,0.7,0.2,1,0.2c0.8,0,1.6-0.2,2.4-0.3c0.9-0.1,1.8-0.1,2.7-0.4
					c0.8-0.3,1.6-0.7,2.4-1.2c-2.4,1.7-5.3,3.5-8.2,3.9c-0.7,0.1-1.3,0.4-2.1,0.4c-0.7,0-1.4-0.3-2-0.5c-0.7-0.2-1.6-0.3-2.3-0.2
					C106.2,105.4,105.6,105.7,104.9,105.6C104.5,105.5,105.4,105.7,104.9,105.6z"/>
				<path class="st1" d="M120.5,116.3c-0.1,0.1-0.3,0.2-0.5,0.3C120.1,116.5,120.5,116.3,120.5,116.3z"/>
				<path class="st1" d="M104.2,122.8c-0.3,0-0.5,0-0.7,0.2C103.8,123,104,122.9,104.2,122.8z"/>
			</g>
		</g>
		<path class="st2" d="M116.3,57.8c0-0.2-0.1-0.4-0.2-0.5c-0.3-0.5-0.6-1.1-1-1.5c-0.3-0.2-0.5-0.5-0.8-0.6
			c-0.1-0.1-0.3-0.1-0.5-0.2c-0.1-0.1-0.2-0.1-0.4-0.1c-0.2-0.1-0.3-0.1-0.5-0.2c-0.2-0.1-0.3-0.3-0.5-0.4l-1.1,0.1V43.3l1-5.6
			l0.6-0.1C110.1,24.5,99,14,84.9,12.5c-0.9-0.1-1.8-0.1-2.7-0.2c-0.1,0-0.1,0-0.2,0c-16.6-0.4-31,12-32.9,28.9
			c-0.1,1,0.1,1.9,0,2.9c0,0.1,0.1,0.3,0.1,0.4c0,0.4,0.1,0.8,0.1,1.3c0,0.1,0.3,0.9,0.3,1c0,0.4,0,0.2,0,0.6c0,0.1,0,0.9,0.1,1
			c0.4,0.6,0,0.9-0.1,0.9c-0.1-0.1-0.4-0.1-0.4,0c0.1,0.4,0.1,0.7,0.2,1.1c0,0.1,0,0.3,0.1,0.4c0,0.1,0.1,0.3,0.1,0.4
			c-3.1-0.5-5.9,0.3-6.9,4.2c-1.1,4.1,2.4,8.6,6.6,9.3c-0.9,6.5,4.8,13.1,11.4,13.2c1,0,2.1-0.1,2.9,0.5c0.8,0.5,1.2,1.5,1.6,2.4
			c2.8,5.6,10.8,7.7,15.9,4.1c1.1-0.8,2.2-1.8,3.5-1.9c1.2-0.1,2.2,0.6,3.3,1.1c6,2.8,13.9-0.1,16.7-6.1c0.4-0.9,0.7-1.8,1.4-2.6
			c0.9-1,2.2-1.4,3.2-2.2c0.8-0.6,1.5-1.4,2-2.3c0.1-0.1,0.2-0.2,0.3-0.3c0.5-0.6,0.8-1.3,1.1-2.1c0.1-0.3,0.2-0.6,0.3-1
			c0,0,0,0,0-0.1c0.6-1.5,1.1-2.9,1.9-4.3c0.2-0.3,0.4-0.7,0.6-1c0.1-0.1,0.2-0.2,0.3-0.2c0.6-0.5,0.9-1.3,0.9-2c0-0.4,0-0.8,0-1.2
			C116.5,58.4,116.4,58.1,116.3,57.8z"/>
		<path class="st2" d="M32.6,84.2c0,0,36,9,36.7,9.1c0.8,0.1,7.3,6.9,7.7,12.8c0.2,3.6,1.8,5.6,3,6.6c0.1-0.1,0.2-0.1,0.3-0.2
			c0.8-0.6,1.5-1.4,2-2.3c0.1-0.1,0.2-0.2,0.3-0.3c0.5-0.6,0.8-1.3,1.1-2.1c0.1-0.3,0.2-0.6,0.3-1c0,0,0,0,0-0.1
			c0.6-1.5,1.1-2.9,1.9-4.3c0.2-0.3,0.4-0.7,0.6-1c0.1-0.1,0.2-0.2,0.3-0.2c0.6-0.5,0.9-1.3,0.9-2c0-0.4,0-0.8,0-1.2
			c0-0.3-0.1-0.6-0.2-0.9c0-0.2-0.1-0.4-0.2-0.5c-0.3-0.5-0.6-1.1-1-1.5c-0.3-0.2-0.5-0.5-0.8-0.6c-0.1-0.1-0.3-0.1-0.5-0.2
			c-0.1-0.1-0.2-0.1-0.4-0.1c-0.2-0.1-0.3-0.1-0.5-0.2s-0.3-0.3-0.5-0.4c0,0-0.1,0-0.2,0l0,0c0.3-1,0.6-1.9,0.8-2.9
			c0-0.1,0-0.2,0.1-0.3c0.1-0.4,0.2-0.8,0.2-1.2c0.1-0.5,0.2-1,0.2-1.6C86.6,69.9,73.8,53.9,56,52c-0.9-0.1-1.8-0.1-2.7-0.2
			c-0.1,0-0.1,0-0.2,0c-16.6-0.4-31,12-32.9,28.9c0,0.3-0.1,0.7-0.1,1L32.6,84.2z"/>
		<g>
			<g>
				
					<ellipse transform="matrix(0.109 -0.994 0.994 0.109 -38.5993 122.3446)" class="st3" cx="48.9" cy="82.7" rx="32.4" ry="32.4"/>
				<path class="st3" d="M10.2,93.2c-1.1,4.1,2.4,8.6,6.6,9.3c-0.9,6.5,4.8,13.1,11.4,13.2c1,0,2.1-0.1,2.9,0.5
					c0.8,0.5,1.2,1.5,1.6,2.4c2.8,5.6,10.8,7.7,15.9,4.1c1.1-0.8,2.2-1.8,3.5-1.9c1.2-0.1,2.2,0.6,3.3,1.1c6,2.8,13.9-0.1,16.7-6.1
					c0.4-0.9,0.7-1.8,1.4-2.6c0.9-1,2.2-1.4,3.2-2.2c3.1-2.3,3.6-6.6,5.5-9.9c0.7-1.1,1.5-2.2,1.8-3.4c0.7-3.4-3.4-6-6.8-5.6
					s-6.2,2.7-9.3,4.3c-6.6,3.6-14.4,4.1-21.9,3.7c-5.9-0.3-12.1-1.3-16.8-5C25.3,92.2,12.7,83.8,10.2,93.2z"/>
			</g>
			<path class="st4" d="M54.6,58.2L54.6,58.2C54.6,58.3,54.6,58.2,54.6,58.2z"/>
			<path class="st4" d="M61.4,116.1c-0.1,0-0.1,0.1-0.2,0.2C61.3,116.2,61.4,116.1,61.4,116.1z"/>
			<path class="st4" d="M61.9,121.7c0.4,0,0.9-0.3,1.2-0.8c-0.2,0.1-0.4,0.2-0.6,0.3C62.3,121.4,62.1,121.6,61.9,121.7z"/>
			<g>
				<path class="st5" d="M62.6,61.9c-0.4-0.4-1-0.4-1,0.3c0.1-0.2-0.4,0-0.5-0.1c-0.2-0.1-0.5-0.8-0.6-1c-0.7-1-1.4-1.6-2.5-2.2
					c-0.4-0.2-0.8-0.4-1.2-0.6c-0.3-0.1-0.6-0.1-0.8-0.3c-0.4-0.3-1.1-1.4-1.8-1c-0.8,0.4,0.3,0.9,0.6,1c0.9,0.3,1.3,1.1,2,1.7
					c1.7,1.7,2.9,3.9,3.7,6.2c0.4,1,0.7,2.1,0.8,3.2c0,0.4-0.1,2.4,0.5,1.7c0.2-0.2,0.3-0.6,0.4-0.8c0.1-0.4,0.4-0.7,0.5-1.1
					c0.1-0.5,0.1-1-0.1-1.5c-0.1-0.3-0.2-0.6-0.2-0.9c0-0.3,0.2-0.4,0.1-0.7c-0.1-0.5-1.6-1.4-0.4-1.7c0.5-0.1,1.2,0.2,1.5,0.6
					c1.1,1.6,1.1,4.2,1.3,6.1c0.1,0.7,0.2,1.4,0,2.1c-0.1,0.3-0.7,1.3-0.6,1.6c0.1,0.6,1.1-0.8,1.2-1.1c0.1-0.2,0-0.4,0.1-0.6
					c0-0.1,0.1-0.2,0.1-0.3c0.2-0.6,0.3-0.9,0.2-1.5c0-0.3-0.3-1-0.2-1.3c0-0.1,0.5-0.6,0.3-0.7c0.3,0.3,0.6,0.3,0.8,0.7
					c0.2,0.3,0.2,0.8,0.3,1.1c0.3,0.9,0.3,1.8,0.4,2.8c0.1,0.5,0.1,0.9,0.1,1.3c0,0.4,0.2,0.8,0.2,1.2c0,0.7-0.7,1.8-0.5,2.5
					c0.7,0,1.3-3,1.4-3.5c0.2-1.4,0-2.8,0.1-4.2c0-0.7,0.1-1.3-0.3-1.9c-0.4-0.7-0.2-1.2-0.4-1.9c-0.2-1.1-1.3-1.7-1.1-2.7
					c0.1-1-1-2.2-1.6-3.1c-0.4-0.6-0.8-0.9-1.3-1.4c-0.4-0.4-0.8-0.9-1.3-1.2c-0.3-0.2-1.4-0.4-0.9,0.3c0.1,0.1,0.5,0.2,0.6,0.3
					c0.2,0.2,0.2,0.3,0.3,0.5c0.4,0.5,0.4,0.5,0.5,1.1c0.1,0.3,0.2,0.5,0.2,0.8c0,0.1,0,0.9-0.2,0.7c-0.1-0.1,0.1-0.2-0.1-0.3
					C62.9,62.2,62.7,62,62.6,61.9C62.4,61.7,62.8,62.1,62.6,61.9z"/>
				<path class="st5" d="M56.7,96.5c0.2-0.2,0.5-0.3,0.7-0.5C57,96,56.8,96.1,56.7,96.5C56.9,96.3,56.8,96,56.7,96.5z"/>
				<path class="st5" d="M56.3,96.7c0.2,0,0.3-0.1,0.4-0.2C56.6,96.5,56.4,96.7,56.3,96.7z"/>
				<path class="st5" d="M84.1,96.5c-0.3-1.1-0.8-2.3-1.7-3.1c-0.5-0.4-0.8-0.4-1.4-0.6c-0.4-0.1-0.8-0.6-1.2-0.6
					c2.5-8,1.8-16.7-2-24.2c-3.5-6.8-9.3-12.3-16.3-15.3c-4.6-2-9.6-2.7-14.6-2.5c4.2,0,8.7,1.6,12.3,3.7c3.6,2.1,6.7,4.9,9.1,8.3
					c2.4,3.4,4,7.3,4.8,11.4c0.4,2.2,0.5,4.4,0.4,6.6c-0.1,2.5-0.3,5.5-1.8,7.5c-0.1,0.2-1,1.7-1.3,1.6c-0.5-0.1,0-0.9,0.1-1.2
					c0.2-0.6,0.1-1.2,0.3-1.8c0.2-0.7,0.5-1.2,0.6-1.9c0.1-0.6,0.1-1.2,0-1.9c0-0.4,0.1-0.8,0-1.2c-0.1-0.8-0.7-1.6-0.7-2.4
					c0,0.2-0.1,0.7-0.3,0.8c-0.1-0.1-0.1-0.1-0.1-0.2c-0.4,0.4-0.7-1.3-0.8-1.4c-0.8-1-0.3,1.1-0.3,1.3c0,0.2-0.2,0.2-0.2,0.4
					c0,0.2,0.1,0.7,0.1,0.8c0,0.6-0.1,1.2-0.2,1.8c-0.2,1.1-0.3,2.4-0.7,3.5c-0.4,1.2-0.8,2.2-1.5,3.3c-0.2,0.3-0.6,0.9-0.9,0.9
					c-0.7,0-0.2-0.8-0.1-1c0.3-0.4,0.6-0.9,0.6-1.4c0.1-0.5-0.1-0.9,0.1-1.4c0.2-0.6,0.3-1.4,0.3-2c0-0.2,0-1.4-0.3-1.6
					c0.1,1.6-0.4,3.7-1.1,5.1c-0.2,0.5-0.7,1.4-1.2,1.7c-0.6,0.4,0-0.8,0.1-1c0.4-1.3,0.5-2.8,0.5-4.2c0-0.2-0.1-3.2-0.9-2.9
					c0,0.6,0.3,1.2,0.3,1.9c0,0.8,0,1.8-0.2,2.6c-0.4,1.4-1.1,2.7-1.6,4.1c-0.3,0.7-0.9,1.1-1.3,1.7c-0.4,0.6-0.7,1.3-1.2,1.9
					c-0.3,0.4-0.7,0.7-1.1,1c-0.5,0.4-0.9,0.9-1.4,1.3c1-0.2,2-0.7,2.9-1.3c0.4-0.2,0.7-0.4,1-0.8c0.2-0.3,0.3-0.5,0.4-0.8
					c0.1-0.2,0.2-0.2,0.4-0.3c0.2-0.2,0.4-0.4,0.6-0.6c0.4-0.3,0.3-0.2,0.7-0.1c0.4,0.1,0.8,0,0.9-0.5c0.5,0.2,1,0.7,1.5,0.5
					c0.4-0.2,0.9-0.5,1.2-0.7c0.8-0.7,1.3-1.8,1.7-2.8c1.1-2.5,1.7-4.9,1.7-7.7c0.4,0.4,0.4,1.6,0.4,2.1c0,1-0.2,1.9-0.4,2.9
					c-0.1,0.5-0.3,0.9-0.4,1.4c-0.2,0.5-0.1,0.9-0.2,1.4c-0.1,0.5-0.4,0.8-0.7,1.2c-0.1,0.2-0.9,1.1-0.9,1.3c0.3,0,0.5-0.3,0.7-0.3
					c0,0,0.2,0.2,0.3,0.2c0.2,0,0.4,0,0.5-0.1c0.8-0.1,1.3-0.5,1.8-1.1c-0.7,1.6-1.7,3.9-3.4,4.8c-0.2-0.3,0.5-1.4,0.6-1.7
					c0.1-0.3,0.2-0.6,0.3-0.9c0.2-0.4,0.2-0.4,0.2-0.7c-0.3,0-0.8,0.9-1,1.1c-0.3,0.5-0.6,0.9-1,1.3c-0.5,0.5-1,0.9-1.6,1.3
					c-0.3,0.2-1,1-1.5,0.8c0-0.1,0.3-0.4,0.3-0.5c0.1-0.3,0.2-0.8,0.2-1.2c-0.3,0.2-0.6,0.7-0.9,1c-0.4,0.4-0.8,1-1.4,1.2
					c-0.2,0.1-0.5,0-0.7,0c-0.2,0.1-0.5,0.2-0.7,0.4c-0.4,0.3-0.7,1-1.3,1c0.3-0.6,1.1-0.8,1.5-1.4c0.3-0.5,0.8-1.3,0.8-2
					c-0.1,0-0.5,0.6-0.7,0.7c-0.1,0.1-0.2,0.1-0.3,0c-0.1,0.1-0.1,0.1-0.2,0.2c-0.3,0.1-0.6,0.3-0.8,0.5c-0.4,0.3-0.7,0.7-1.1,1
					c-0.2,0.1-1.4,1-1.7,0.7c0-0.4,0.8-0.8,0.8-1.2c-0.4,0-0.9,0.7-1.2,0.9c-0.4,0.3-0.9,0.5-1.3,0.8c-0.7,0.4-1.9,0.9-2.7,0.9
					c0.1,0.1,0.8,0.3,0.9,0.4c0.3,0.1,0.8,0.1,1.1,0c0.9-0.2,1.7-0.7,2.6-1c0,0.5-1.2,0.5-1.5,0.7c-0.2,0.1-0.3,0.5-0.5,0.6
					c-0.2,0.2-0.5,0.2-0.7,0.4c-0.6,0.4-1,0.7-1.7,0.7c-0.6,0-1.3,0.1-1.8,0.6c0.1,0,0.2,0.1,0.3,0.1c-0.6,0.1-1.2-0.1-1.8-0.2
					c-0.6-0.1-1.1-0.2-1.7-0.3c-0.3-0.1-2.3-0.7-1.7-1.3c0.2-0.2,0.7,0.2,0.9,0.3c0.4,0.2,0.8,0,1.3-0.1c0.5-0.1,2.4-0.6,2.6-1.1
					c-0.7,0.3-1.9,0.4-2.7,0.4c-0.5,0-0.9-0.2-1.5-0.2c-0.6,0-1.1,0.1-1.7,0.2c-0.4,0.1-0.8,0.2-1.3,0.2c-0.4,0.1-0.7-0.1-1.2-0.1
					c-0.9-0.1-1.8-0.2-2.7-0.5c-0.4-0.1-1.7-1-2.1-0.6c-0.5,0.5,0.9,1.3,1.2,1.5c1.1,0.6,2.5,0.9,3.6,1.5c-0.7-0.1-1.5-0.2-2.2-0.4
					c-0.6-0.2-1.1-0.5-1.7-0.3c-0.5,0.1-1,0.3-1.5,0.5c-0.6,0.2-1.1,0.2-1.6,0.5c-0.4,0.2-0.7,0.6-1.2,0.4c-0.2-0.1-0.2-0.2-0.4-0.3
					c-0.3-0.1-0.6,0-0.8,0.1c-0.6,0.3-0.8,0.5-1.5,0.4c-0.3,0-0.8,0.1-1.1,0.1c-0.4-0.1-0.5-0.5-0.9-0.6c-0.5-0.2-1.1,0-1.6-0.2
					c-0.5-0.2-0.5-0.7-0.7-1.1c-0.3-0.5-0.8-0.7-1.3-0.9c-0.4-0.1-1.1-0.2-1.4-0.5c-0.4-0.3-0.4-0.9-0.7-1.3c-0.3-0.4-0.9-0.7-1.2-1
					c-0.6-0.5-0.9-0.8-1.1-1.6c-0.2,0-0.1,0.7-0.1,0.8c-3.2-4.4-5.1-9.6-5.5-15c-1,15.4,9.4,29.7,24.4,33.4c1,0.3,2.1,0.5,3.2,0.6
					c0.5,0.1,1,0.1,1.5,0.2c0.5,0.1,1,0,0.6,0.6c-0.4,0.6-2.8,0.7-3.3,0.1c0.5,0.5,1.2,0.5,1.8,0.8c0.9,0.4,1.5,0.7,2.5,0.5
					c0.7-0.1,1.5-0.6,2.2-0.6c0.6-0.1,0.9,0.4,0.8,1.1c-0.1,0.8-0.8,0.4-1.1,0.8c-0.1,0.2,0,0.6,0,0.8c0,0.4-0.1,0.7-0.3,1
					c-0.4,0.6-1.2,1.3-1.8,1.8c-0.4,0.3-1.5,1.2-1.9,1.2c0.7,0,1.4-0.5,2.1-0.8c0.2-0.1,0.4-0.2,0.6-0.3c0.3-0.2,0.5-0.5,0.7-0.7
					c0.5-0.2,0.9-0.1,1.4-0.5c0.3-0.2,0.5-0.6,0.8-0.9c0.3-0.2,0.6-0.3,0.9-0.6c0.4,0.7,1.1,1.1,1.8,1.4c0.4,0.2,0.7,0.4,1.1,0.4
					c0.5,0,0.8-0.2,1.3-0.2c-1.2,0.2-2.3-1.2-2.6-2.3c-0.1-0.4-0.4-1.2,0.1-1.3c0.4-0.1,1,0.5,1.4,0.5c0.2,0,0.3-0.2,0.4-0.2
					c0.3,0,0.2,0,0.5,0.1c0.7,0.2,0.9,0.2,1.6-0.1c1.1-0.4,2.6-0.1,3.5-1c-1,0.2-1.8,0.5-2.8,0.5c-0.8,0-2.3-0.4-2.7-1.3
					c-0.1-0.4,0-0.5,0.5-0.5c0.5-0.1,0.9,0.1,1.4,0c1-0.2,2.1-0.8,3-1.3c0.4-0.2,1-0.2,1.3-0.5c0.2-0.1,0.4-0.7,0.7-0.7
					c0.4,0.1,0.4,0.8,0.5,1.1c0,0.1,0.1,0.6,0.2,0.7c0.1,0.1,0.4,0.1,0.5,0.3c0.2,0.3,0.2,0.9,0.3,1.2c0.2,0.5,0.3,1,0.4,1.5
					c0.1,1.4-0.5,2.2-1.1,3.4c0.8-0.8,1.4-1.5,2.1-2.4c0.6-0.9,0.5-1.8,0.1-2.8c-0.1-0.2-0.5-0.6-0.5-0.8c0-0.3,0.6-0.7,0.7-1
					c0.2-0.4,0.2-0.8,0-1.2c-0.1-0.2-0.6-0.5-0.9-0.4c0.6-0.3,1-0.8,1.7-0.6c0.4,0.1,0.7,0.5,1.1,0.7c0.5,0.3,0.9,0.6,0.8,1.3
					c0,0.2-0.4,0.5-0.4,0.6c0,0.3,0.1,0.1,0.2,0.3c0.4,0.7,0.5,1.6,0.3,2.4c-0.1,0.6-0.4,1.2-0.7,1.7c-0.3,0.5-1,0.7-1.2,1.2
					c1.7-1.1,3.6-2.7,3.9-4.9c0.1-1,0-2.4-0.6-3.1c-0.9-1.1-2.2-0.5-3.3-1.1c0-0.2,0.6-0.4,0.7-0.5c0.3-0.2,0.4-0.5,0.7-0.8
					c0.3-0.3,0.7-0.4,1.1-0.7c0.4-0.3,0.6-0.6,0.9-0.9c0.5-0.5,1.2-0.6,1.8-1.2c0.2-0.3,0.6-0.6,0.7-1c0-0.2-0.2-0.8,0-0.8
					c0.2,0.8,0.3,1.8-0.1,2.6c-0.4,0.8-1,1.4-1.6,2c0.6,0,1.5-0.7,1.9-1c0.8-0.5,1.2-1.1,1.6-2c0.3-0.6,0.3-1.4,0.6-2
					c0.4-0.8,0.8-1.4,0.9-2.3c0.1-1,0.4-1.2,1.1-1.8c0.6-0.6,0.7-1.2,1-1.9c0.2-0.4,0.4-0.3,0.7-0.5c0.3-0.2,0.5-0.6,0.6-0.9
					c0.3-0.8,0.3-1.8,0.1-2.7c0.6,0.8,1.5,1.6,1.9,2.7c0.3,1.2-0.6,1.2-1.2,2c-0.1,0.2-0.2,0.4-0.4,0.5c-0.2,0.1-0.6,0.1-0.7,0.2
					c-0.3,0.3-0.1,0.5,0,0.9c0.1,0.5,0.2,1,0,1.5c-0.2,0.3-0.7,0.9-1.1,0.4c0.2,0.4,0.4,0.8,0.6,1.3c0.1,0.3,0.2,0.4,0.4,0.7
					c0.5,0.8,0.1,1.8-0.2,2.5c-0.4,1-1,1.9-1.8,2.6c-0.3,0.2-0.6,0.5-1,0.6c-0.2,0.1-0.8,0.1-0.9,0.3c0.9,0,1.3-0.4,2-0.9
					c0.7-0.5,1.6-0.9,2.1-1.6c1-1.3,1.2-2.8,1.5-4.3c0.2-0.7,0.3-1.5,0.7-2.1c0.2-0.3,0.5-0.5,0.7-0.8c0.1-0.2,0.1-0.5,0.3-0.7
					c0.2-0.2,0.6-0.2,0.8-0.4c0.4-0.3,0.7-0.6,0.9-1C84.1,98,84.3,97.1,84.1,96.5C84,96.1,84.2,96.9,84.1,96.5z M54.6,105.6
					c-0.6,0.2-1.3,0.2-1.9,0.3c-0.7,0.2-1.3,0.2-1.9,0c-0.7-0.2-1.4-0.5-2.1-0.6c-0.7,0-1.4,0-2.2,0.1c-1.3,0.1-2.4-0.2-3.6-0.5
					c-1.2-0.3-2.3,0.4-3.3-0.6c0.7,0,1.2-0.1,1.9-0.3c0.7-0.1,1.4,0,2.1-0.1c0.3,0,0.6-0.1,0.8-0.3c0.3-0.3,0.2-0.7,0.4-1
					c0.1-0.1,0.4-0.1,0.6-0.3c0.2-0.2,0.2-0.6,0.3-0.8c0.6,0.6,1.4,0.5,2.1,1c-0.3,0.5-1,0.8-0.2,1.1c0.2,0.1,0.7,0.2,1,0.2
					c0.2,0,0.5-0.2,0.7-0.2c0.3,0,0.3,0.3,0.5,0.4c0.2,0.1,0.6,0,0.8,0c0.7,0,1.5-0.1,2.1-0.3c0.3-0.1,0.6-0.4,0.9-0.5
					c0.4-0.1,0.8,0.1,1.1,0.1c0.7,0.1,1.4-0.1,2-0.2c1.8-0.3,3.4-0.4,5-1.4C59.4,103.5,57.1,104.7,54.6,105.6
					C54.3,105.7,57,104.8,54.6,105.6z M64.6,99.5c-1,0.7-1.8,1.4-3,1.8c-1,0.3-2.2,0.8-3.2,0.6c-0.6-0.1-1-0.2-1.6,0
					c-0.4,0.1-0.8,0.4-1.3,0.2c-0.4-0.1-0.4-0.4-0.7-0.6c0.6,0,1.3,0.1,1.9-0.1c0.6-0.2,1-0.7,1.5-1c0.6-0.3,1.3-0.3,1.8-0.7
					c0.4-0.3,0.6-0.8,0.9-1.1c0.5-0.5,0.7-0.2,1.3-0.1c0.6,0.1,1-0.1,1.6-0.3c0.5-0.2,1-0.7,1.5-0.7c0.2,0,0.4,0.1,0.6,0.1
					c0.3,0,0.6-0.4,0.9-0.4C66.2,97.9,65.4,98.7,64.6,99.5C64.3,99.7,65.4,98.7,64.6,99.5z"/>
			</g>
			<path class="st4" d="M61.2,116.3c-0.1,0.1-0.3,0.2-0.5,0.3C60.9,116.5,61,116.5,61.2,116.3L61.2,116.3z"/>
			<path class="st4" d="M44.9,122.8c-0.3,0-0.5,0-0.7,0.2C44.5,123,44.7,122.9,44.9,122.8z"/>
		</g>
		<g>
			<path class="st5" d="M79.5,69.8L48.9,54.7L48.6,51c-2.7-0.2-5,0.9-5.9,4.3c-1.1,4.1,2.4,8.6,6.6,9.3c-0.9,6.5,4.8,13.1,11.4,13.2
				c1,0,2.1-0.1,2.9,0.5c0.8,0.5,1.2,1.5,1.6,2.4c2.7,5.5,10.6,7.6,15.8,4.2L79.5,69.8z"/>
		</g>
		<g>
			<g>
				<ellipse transform="matrix(0.109 -0.994 0.994 0.109 30.3178 118.6699)" class="st6" cx="81.4" cy="42.4" rx="32.4" ry="32.4"/>
				<path class="st6" d="M42.7,53c-1.1,4.1,2.4,8.6,6.6,9.3c-0.9,6.5,4.8,13.1,11.4,13.2c1,0,2.1-0.1,2.9,0.5
					c0.8,0.5,1.2,1.5,1.6,2.4C68,83.9,76,86,81.1,82.5c1.1-0.8,2.2-1.8,3.5-1.9c1.2-0.1,2.2,0.6,3.3,1.1c6,2.8,13.9-0.1,16.7-6.1
					c0.4-0.9,0.7-1.8,1.4-2.6c0.9-1,2.2-1.4,3.2-2.2c3.1-2.3,3.6-6.6,5.5-9.9c0.7-1.1,1.5-2.2,1.8-3.4c0.7-3.4-3.4-6-6.8-5.6
					s-6.2,2.7-9.3,4.3c-6.6,3.6-14.4,4.1-21.9,3.7c-5.9-0.3-12.1-1.3-16.8-5C57.7,51.9,45.2,43.6,42.7,53z"/>
			</g>
			<g>
				<path class="st1" d="M87.1,17.9C87.1,17.9,87,17.9,87.1,17.9C87.1,18,87.1,18,87.1,17.9z"/>
				<path class="st1" d="M95.5,22.1c-0.3-0.5-1.5-1.4-1.5-0.2c0.1-0.2-0.4,0-0.6-0.1c-0.2-0.1-0.5-0.8-0.7-1c-0.7-1-1.4-1.6-2.5-2.2
					c-0.4-0.2-0.8-0.4-1.2-0.6c-0.3-0.1-0.6-0.1-0.8-0.3c-0.5-0.3-1-1.2-1.7-0.8c-0.8,0.4,0.3,0.9,0.6,1c0.9,0.3,1.3,1.1,2,1.7
					c1.7,1.7,2.9,3.9,3.7,6.2c0.4,1,0.7,2.1,0.8,3.2c0,0.4-0.1,2.4,0.5,1.7c0.2-0.2,0.3-0.6,0.4-0.8c0.1-0.4,0.4-0.7,0.5-1.1
					c0.1-0.5,0.1-1-0.1-1.5c-0.1-0.3-0.2-0.6-0.2-0.9c0-0.3,0.2-0.4,0.1-0.7c-0.1-0.5-1.6-1.4-0.4-1.7c0.5-0.1,1.2,0.2,1.5,0.6
					c1.1,1.6,1.1,4.2,1.3,6.1c0.1,0.7,0.2,1.4,0,2.1c-0.1,0.3-0.7,1.3-0.6,1.6c0.1,0.6,1.1-0.8,1.2-1.1c0.1-0.2,0-0.4,0-0.6
					c0-0.1,0.1-0.2,0.2-0.3c0.2-0.6,0.3-0.9,0.2-1.5c0-0.3-0.3-1-0.2-1.3c0-0.1,0.5-0.6,0.3-0.7c0.3,0.3,0.6,0.3,0.8,0.7
					c0.2,0.3,0.2,0.8,0.3,1.1c0.3,0.9,0.3,1.8,0.4,2.8c0.1,0.5,0.1,0.9,0.1,1.3c0,0.4,0.2,0.8,0.2,1.2c0,0.7-0.7,1.8-0.5,2.5
					c0.7,0,1.3-2.8,1.4-3.4c0.2-1.3,0-2.7,0.1-4c0-0.8,0.1-1.5-0.3-2.3c-0.3-0.6-0.3-1-0.3-1.7c-0.1-1.1-1.3-1.9-1.2-2.9
					c0.1-0.7,0-0.8-0.4-1.4c-0.4-0.6-0.7-1.1-1.1-1.7c-0.4-0.6-0.7-0.9-1.2-1.4c-0.5-0.4-0.8-0.9-1.4-1.3C95,18.8,93.8,18.3,94,19
					c0.1,0.2,0.4,0.2,0.5,0.3c0.2,0.2,0.4,0.3,0.5,0.5c0.6,0.7,0.7,1.7,0.7,2.7C95.5,22.5,95.6,22.2,95.5,22.1
					C95.4,21.9,95.6,22.2,95.5,22.1z"/>
				<path class="st1" d="M93.8,75.8c-0.1,0-0.1,0.1-0.2,0.2C93.8,75.9,93.8,75.9,93.8,75.8z"/>
				<path class="st1" d="M94.3,81.4c0.5,0,1-0.4,1.2-0.8C95.1,80.8,94.7,81.3,94.3,81.4C94.7,81.4,94.6,81.3,94.3,81.4z"/>
				<path class="st1" d="M116.5,56.3c-0.3-1.1-0.8-2.3-1.7-3.1c-0.5-0.4-0.8-0.4-1.4-0.6c-0.4-0.1-0.8-0.6-1.2-0.6
					c2.5-8,1.8-16.7-2-24.2c-3.5-6.8-9.3-12.3-16.3-15.3c-4.6-2-9.6-2.7-14.6-2.5c4.2,0,8.7,1.6,12.3,3.7c3.6,2.1,6.7,4.9,9.1,8.3
					c2.4,3.4,4,7.3,4.8,11.4c0.4,2.2,0.5,4.4,0.4,6.6c-0.1,2.5-0.3,5.5-1.8,7.5c-0.1,0.2-1,1.7-1.3,1.6c-0.5-0.1,0-0.9,0.1-1.2
					c0.2-0.6,0.1-1.2,0.3-1.8c0.2-0.7,0.5-1.2,0.6-1.9c0.1-0.6,0.1-1.2,0-1.9c0-0.4,0.1-0.8,0-1.2c-0.1-0.8-0.7-1.6-0.7-2.4
					c0,0.2-0.1,0.7-0.3,0.8c-0.1-0.1-0.1-0.1-0.1-0.2c-0.4,0.4-0.7-1.3-0.8-1.4c-0.7-0.9-0.2,1.2-0.2,1.3c0,0.2-0.2,0.2-0.2,0.4
					c0,0.2,0.1,0.7,0.1,0.8c0,0.6-0.1,1.2-0.2,1.8c-0.2,1.1-0.3,2.4-0.7,3.5c-0.4,1.2-0.8,2.2-1.5,3.3C99,49.4,98.6,50,98.3,50
					c-0.7,0-0.2-0.8-0.1-1c0.3-0.4,0.6-0.9,0.6-1.4c0.1-0.5-0.1-0.9,0.1-1.4c0.2-0.6,0.3-1.4,0.3-2c0-0.2,0-1.4-0.3-1.6
					c0.1,1.6-0.4,3.7-1.1,5.1C97.5,48,97,49,96.6,49.3c-0.6,0.4,0-0.8,0.1-1c0.4-1.3,0.5-2.8,0.5-4.2c0-0.2-0.1-3.2-0.9-2.9
					c0,0.3,0.2,0.7,0.3,1c0.1,0.4,0,0.8,0,1.2c0,0.9,0,1.7-0.3,2.6c-0.3,0.8-0.6,1.6-1,2.4c-0.3,0.6-0.4,1.5-0.8,2
					c-0.5,0.7-1,1.2-1.5,2c-0.3,0.6-0.7,1.2-1.2,1.6c-0.5,0.4-1,0.7-1.5,1.2c-0.3,0.3-1.1,1.3-1.6,1.3c0.3,0,0.7-0.2,1-0.2
					c0.6-0.1,1.1-0.3,1.7-0.6c0.9-0.4,2.1-1,2.6-1.8c0.1-0.2,0.1-0.5,0.2-0.7c0.2-0.2,0.5-0.3,0.7-0.5c0.1-0.1,0.3-0.5,0.4-0.5
					c0.1,0,0.3,0.1,0.4,0.1c0.4,0,0.8,0.1,1-0.4c0.5,0.2,1,0.7,1.5,0.5c0.4-0.2,0.9-0.5,1.2-0.7c0.8-0.7,1.3-1.8,1.7-2.8
					c1.1-2.5,1.7-4.9,1.7-7.7c0.4,0.4,0.4,1.6,0.4,2.1c0,1-0.2,1.9-0.4,2.9c-0.1,0.5-0.3,0.9-0.4,1.4c-0.2,0.5-0.1,0.9-0.2,1.4
					c-0.1,0.5-0.4,0.8-0.7,1.2c-0.1,0.2-0.9,1.1-0.9,1.2c0.3,0,0.5-0.3,0.7-0.3c0,0,0.2,0.2,0.3,0.2c0.2,0,0.4,0,0.5-0.1
					c0.8-0.1,1.3-0.5,1.8-1.1c-0.7,1.6-1.7,3.9-3.4,4.8c-0.2-0.3,0.5-1.4,0.6-1.7c0.1-0.3,0.2-0.6,0.3-0.9c0.2-0.4,0.2-0.4,0.2-0.7
					c-0.3,0-0.8,0.9-1,1.1c-0.3,0.5-0.6,0.9-1,1.3c-0.5,0.5-1,0.9-1.6,1.3c-0.3,0.2-1,1-1.5,0.8c0-0.1,0.3-0.4,0.3-0.5
					c0.1-0.3,0.2-0.8,0.2-1.2c-0.3,0.2-0.6,0.7-0.9,1c-0.4,0.4-0.8,1-1.4,1.2c-0.2,0.1-0.5,0-0.7,0c-0.2,0.1-0.5,0.2-0.7,0.4
					c-0.4,0.3-0.7,1-1.3,1c0.3-0.6,1.1-0.8,1.5-1.4c0.3-0.5,0.8-1.3,0.8-2c-0.1,0-0.5,0.6-0.7,0.7c-0.1,0.1-0.2,0.1-0.2,0
					c-0.1,0.1-0.1,0.1-0.2,0.2c-0.3,0.1-0.6,0.3-0.8,0.5c-0.4,0.3-0.7,0.7-1.1,1c-0.2,0.1-1.4,1-1.7,0.7c0-0.4,0.8-0.8,0.8-1.2
					c-0.4,0-0.9,0.7-1.2,0.9c-0.4,0.3-0.9,0.5-1.3,0.8c-0.7,0.4-1.9,0.9-2.7,0.9c0.1,0.1,0.8,0.3,0.9,0.4c0.3,0.1,0.8,0.1,1.1,0
					c0.9-0.2,1.7-0.7,2.6-1c0,0.5-1.2,0.5-1.5,0.7c-0.2,0.1-0.3,0.5-0.5,0.6c-0.2,0.2-0.5,0.2-0.7,0.4c-0.6,0.4-1,0.7-1.7,0.7
					c-0.6,0-1.3,0.1-1.8,0.6c0.1,0,0.2,0.1,0.3,0.1c-0.6,0.1-1.2-0.1-1.8-0.2c-0.6-0.1-1.1-0.2-1.7-0.3c-0.3-0.1-2.3-0.7-1.7-1.3
					c0.2-0.2,0.7,0.2,0.9,0.3c0.4,0.2,0.8,0,1.3-0.1c0.5-0.1,2.4-0.6,2.6-1.1c-0.7,0.3-1.9,0.4-2.7,0.4c-0.6,0-1.1-0.2-1.7-0.2
					c-0.6,0-1.1,0.2-1.7,0.2c-0.4,0.1-0.8,0.2-1.2,0.2c-0.4,0-0.8-0.1-1.2-0.2c-0.9-0.1-1.9-0.3-2.7-0.6c-0.4-0.2-1.7-1-2-0.5
					c-0.3,0.5,1.1,1.3,1.4,1.5c0.7,0.3,1.3,0.6,2,0.8c0.5,0.2,1,0.6,1.5,0.6c-0.8-0.1-1.6-0.2-2.3-0.4c-0.6-0.2-1.1-0.5-1.7-0.3
					c-0.5,0.1-1,0.3-1.5,0.5c-0.6,0.2-1.1,0.2-1.6,0.5c-0.4,0.2-0.7,0.6-1.2,0.4c-0.2-0.1-0.2-0.2-0.4-0.3c-0.3-0.1-0.6,0-0.8,0.1
					c-0.6,0.3-0.8,0.5-1.5,0.4c-0.3,0-0.8,0.1-1.1,0.1c-0.4-0.1-0.5-0.5-0.9-0.6c-0.5-0.2-1.1,0-1.6-0.2c-0.5-0.2-0.5-0.7-0.7-1.1
					c-0.3-0.5-0.8-0.7-1.3-0.9c-0.4-0.1-1.1-0.2-1.4-0.5c-0.4-0.3-0.4-0.9-0.7-1.3c-0.3-0.4-0.9-0.7-1.2-1c-0.6-0.5-0.9-0.8-1.1-1.6
					c-0.2,0-0.1,0.7-0.1,0.8c-3.2-4.4-5.1-9.6-5.5-15c-1,15.4,9.4,29.7,24.4,33.4c1,0.3,2.1,0.5,3.2,0.6c0.5,0.1,1,0.1,1.5,0.2
					c0.5,0.1,1,0,0.6,0.6c-0.4,0.6-2.8,0.7-3.3,0.1c0.5,0.5,1.2,0.5,1.8,0.8c0.9,0.4,1.5,0.7,2.5,0.5c0.7-0.1,1.5-0.6,2.2-0.6
					c0.6-0.1,0.9,0.4,0.8,1.1c-0.1,0.8-0.8,0.4-1.1,0.8c-0.1,0.2,0,0.6,0,0.8c0,0.4-0.1,0.7-0.3,1c-0.4,0.6-1.2,1.3-1.8,1.8
					c-0.4,0.3-1.5,1.2-1.9,1.2c0.7,0,1.4-0.5,2.1-0.8c0.2-0.1,0.4-0.2,0.6-0.3c0.3-0.2,0.5-0.5,0.7-0.7c0.5-0.2,0.9-0.1,1.4-0.5
					c0.3-0.2,0.5-0.6,0.8-0.9c0.3-0.2,0.6-0.3,0.9-0.6c0.4,0.7,1.1,1.1,1.8,1.4c0.4,0.2,0.7,0.4,1.1,0.4c0.5,0,0.8-0.2,1.3-0.2
					c-1.2,0.2-2.3-1.2-2.6-2.3c-0.1-0.4-0.4-1.2,0.1-1.3c0.4-0.1,1,0.5,1.4,0.5c0.2,0,0.3-0.2,0.4-0.2c0.3,0,0.2,0,0.5,0.1
					c0.7,0.2,0.9,0.2,1.6-0.1c1.1-0.4,2.6-0.1,3.5-1c-1,0.2-1.8,0.5-2.8,0.5c-0.8,0-2.3-0.4-2.7-1.3c-0.1-0.4,0-0.5,0.5-0.5
					c0.5-0.1,0.9,0.1,1.4,0c1-0.2,2.1-0.8,3-1.3c0.4-0.2,1-0.2,1.3-0.5c0.2-0.1,0.4-0.7,0.7-0.7c0.4,0.1,0.4,0.8,0.5,1.1
					c0,0.1,0.2,0.6,0.2,0.7c0.1,0.1,0.4,0.1,0.5,0.3c0.2,0.3,0.2,0.9,0.3,1.2c0.2,0.5,0.3,1,0.4,1.5c0.1,1.4-0.5,2.2-1.1,3.4
					c0.8-0.8,1.4-1.5,2.1-2.4c0.6-0.9,0.5-1.8,0.1-2.8c-0.1-0.2-0.5-0.6-0.5-0.8c0-0.3,0.6-0.7,0.7-1c0.2-0.4,0.2-0.8,0-1.2
					c-0.1-0.2-0.6-0.5-0.9-0.4c0.6-0.3,1-0.8,1.7-0.6c0.4,0.1,0.7,0.5,1.1,0.7c0.5,0.3,0.9,0.6,0.8,1.3c0,0.2-0.4,0.5-0.4,0.6
					c0,0.3,0.1,0.1,0.2,0.3c0.4,0.7,0.5,1.6,0.3,2.4c-0.1,0.6-0.4,1.2-0.7,1.7c-0.3,0.5-1,0.7-1.2,1.2c1.7-1.1,3.6-2.7,3.9-4.9
					c0.1-1,0-2.4-0.6-3.1c-0.9-1.1-2.2-0.5-3.3-1.1c0-0.2,0.6-0.4,0.7-0.5c0.3-0.2,0.4-0.5,0.7-0.8c0.3-0.3,0.7-0.4,1.1-0.7
					c0.4-0.3,0.6-0.6,0.9-0.9c0.5-0.5,1.2-0.6,1.8-1.2c0.2-0.3,0.6-0.6,0.7-1c0-0.2-0.2-0.8,0-0.8c0.2,0.8,0.3,1.8-0.1,2.6
					c-0.4,0.8-1,1.4-1.6,2c0.6,0,1.5-0.7,1.9-1c0.8-0.5,1.2-1.1,1.6-2c0.3-0.6,0.3-1.4,0.6-2c0.4-0.8,0.8-1.4,0.9-2.3
					c0.1-1,0.4-1.2,1.1-1.8c0.6-0.6,0.7-1.2,1-1.9c0.2-0.4,0.4-0.3,0.7-0.5c0.3-0.2,0.5-0.6,0.6-0.9c0.3-0.8,0.3-1.8,0.1-2.7
					c0.6,0.8,1.5,1.6,1.9,2.7c0.3,1.2-0.6,1.2-1.2,2c-0.1,0.2-0.2,0.4-0.4,0.5c-0.2,0.1-0.6,0.1-0.8,0.2c-0.3,0.3-0.1,0.5,0,0.9
					c0.1,0.5,0.2,1,0,1.5c-0.2,0.3-0.7,0.9-1.1,0.4c0.2,0.4,0.4,0.8,0.6,1.3c0.1,0.3,0.2,0.4,0.4,0.7c0.5,0.8,0.1,1.8-0.2,2.5
					c-0.4,1-1,1.9-1.8,2.6c-0.3,0.2-0.6,0.5-1,0.6c-0.2,0.1-0.8,0.1-0.9,0.3c0.9,0,1.4-0.5,2.1-1c0.7-0.5,1.5-0.9,2-1.5
					c1-1.3,1.2-2.9,1.6-4.4c0.2-0.7,0.3-1.5,0.7-2c0.2-0.3,0.5-0.5,0.6-0.8c0.1-0.3,0.1-0.5,0.4-0.7c0.3-0.2,0.7-0.3,1-0.5
					c0.3-0.3,0.5-0.6,0.7-0.9C116.8,58,116.7,57.1,116.5,56.3z M102.4,40.5L102.4,40.5C102.4,40.4,102.4,40.5,102.4,40.5L102.4,40.5
					z M88.3,61.1c0.7,0,1.2-0.1,1.7-0.5c0.5-0.4,0.9-0.8,1.5-1c0.7-0.2,0.9-0.2,1.3-0.8c0.2-0.3,0.6-0.8,0.8-1
					c0.4-0.3,1,0.2,1.4,0.2c0.5,0,1-0.2,1.5-0.4c0.5-0.2,0.8-0.7,1.4-0.7c0.3,0,0.5,0.1,0.8,0c0.2-0.1,0.5-0.3,0.8-0.3
					c-1.9,2.4-4.2,4.1-7.2,4.8c-0.8,0.2-1.6-0.1-2.4,0c-0.5,0.1-0.8,0.2-1.3,0.2c-0.8,0-0.6-0.1-1.1-0.6
					C87.8,61.1,88,61.1,88.3,61.1z M78.1,65.3c-0.5-0.1-1.1,0-1.6-0.2c-0.5-0.1-1-0.4-1.6-0.4c-1.2-0.1-2,0.4-2.9-0.5
					c0.7,0,1.2-0.1,1.9-0.3c0.7-0.1,1.4,0,2.1-0.1c0.3,0,0.6-0.1,0.8-0.3c0.3-0.3,0.2-0.7,0.4-1c0.1-0.1,0.4-0.1,0.6-0.3
					c0.2-0.2,0.2-0.6,0.3-0.8c0.6,0.6,1.4,0.5,2.1,1c-0.3,0.5-1,0.8-0.2,1.1c0.2,0.1,0.7,0.2,1,0.2c0.3,0,0.6-0.3,0.9-0.2
					C82,63.7,82,64,82.3,64c0.2,0.1,0.7,0,0.9,0c0.7,0,1.5-0.1,2.1-0.5c0.3-0.2,0.5-0.3,0.9-0.4c0.3,0,0.7,0.2,1,0.2
					c0.8,0,1.6-0.2,2.4-0.3c0.9-0.1,1.8-0.1,2.7-0.4c0.8-0.3,1.6-0.7,2.4-1.2c-2.4,1.7-5.3,3.5-8.2,3.9c-0.7,0.1-1.3,0.4-2.1,0.4
					c-0.7,0-1.4-0.3-2-0.5C81.6,65,80.7,64.9,80,65C79.4,65.1,78.8,65.4,78.1,65.3C77.7,65.2,78.6,65.4,78.1,65.3z"/>
				<path class="st1" d="M93.7,76c-0.1,0.1-0.3,0.2-0.5,0.3C93.4,76.3,93.6,76.1,93.7,76C93.6,76.1,93.6,76.1,93.7,76z"/>
				<path class="st1" d="M77.4,82.5c-0.3,0-0.5,0-0.7,0.2C77,82.7,77.1,82.7,77.4,82.5z"/>
			</g>
		</g>
	</g>
</g>
</svg>
