<svg id="planet-BR" xmlns="http://www.w3.org/2000/svg" xmlns:xlink="http://www.w3.org/1999/xlink" viewBox="0 0 96.73 100.98"><defs><style>.cls-1{fill:none;}.cls-2{clip-path:url(#clip-path);}.cls-3{fill:#f58531;}.cls-4{fill:#db5b1b;}.cls-5{fill:#f9b480;}.cls-6{fill:#f7a561;}.cls-7{fill:#c1601f;}.cls-8{fill:url(#linear-gradient);}.cls-9{fill:#d17434;}.cls-10,.cls-12{opacity:0.5;}.cls-10{fill:url(#radial-gradient);}.cls-11{fill:#fff;}.cls-12{fill:url(#radial-gradient-2);}.cls-13{fill:#dd6819;}.cls-14{opacity:0.8;fill:url(#radial-gradient-3);}</style><clipPath id="clip-path" transform="translate(-2.14 -2.07)"><circle class="cls-1" cx="48.8" cy="51.45" r="46.67"/></clipPath><linearGradient id="linear-gradient" x1="52.9" y1="45.54" x2="96.15" y2="67.54" gradientUnits="userSpaceOnUse"><stop offset="0" stop-color="#1a0621"/><stop offset="1" stop-color="#947515" stop-opacity="0"/></linearGradient><radialGradient id="radial-gradient" cx="79.45" cy="401.26" r="7.38" gradientTransform="translate(-384.19 153.36) rotate(-90)" gradientUnits="userSpaceOnUse"><stop offset="0" stop-color="#1a0621" stop-opacity="0"/><stop offset="0.38" stop-color="#1a0621" stop-opacity="0.27"/><stop offset="1" stop-color="#1a0621" stop-opacity="0.99"/><stop offset="1" stop-color="#1a0621"/></radialGradient><radialGradient id="radial-gradient-2" cx="88.39" cy="-1" r="10.93" gradientTransform="matrix(1, 0, 0, 1, 0, 0)" xlink:href="#radial-gradient"/><radialGradient id="radial-gradient-3" cx="38.24" cy="33.37" r="56.61" gradientUnits="userSpaceOnUse"><stop offset="0" stop-color="#1a0621" stop-opacity="0"/><stop offset="0.35" stop-color="#1a0621" stop-opacity="0.12"/><stop offset="0.69" stop-color="#1a0621" stop-opacity="0.48"/><stop offset="1" stop-color="#1a0621"/></radialGradient></defs><title>planet_A</title><g class="cls-2"><circle class="cls-3" cx="46.67" cy="49.38" r="46.67"/><path class="cls-4" d="M72.86,18.56c-5.6-4.13-15.22-1.16-19.84,3.06-5.78,5.28-9.26,13.25-13.21,19.87A102,102,0,0,0,34.4,52.2c-1.54,3.45-1.81,6.9-2.11,10.63a18.23,18.23,0,0,0,.1,5.74c.45,2,1.73,3.53,2.63,5.3,1.78,3.47,4.64,6.36,5.91,10.13s1.19,7.35,3.77,10.77a20.61,20.61,0,0,0,7.78,6.58c3.76,1.79,8.58,1.93,12.63,1.5,4.24-.46,7.65-2.82,11.26-4.92A36,36,0,0,0,86,90.09c2.51-3,3.48-7,5-10.55A98.46,98.46,0,0,0,95.3,68.18c1.24-4.23,2.89-8.35,3.36-12.76C99.57,47,97.38,37,92.27,30.17a23.6,23.6,0,0,0-9-7.37c-1.23-.57-10.37-3-10.37-4.25C72.42,18.23,72.86,18.24,72.86,18.56Z" transform="translate(-2.14 -2.07)"/><path class="cls-5" d="M74.61,23.56C73.88,22.69,72,23.09,71,23c-1.7-.13-3.35-.66-5.06-.72-3.46-.13-7,1.34-10.07,2.85-5.74,2.86-10.38,9.06-12,15.25-.71,2.68-1.64,6.18-1.13,9a14.76,14.76,0,0,0,1.37,3.26c.74,1.7,1.24,3.53,2,5.22a22.63,22.63,0,0,1,2.5,9.92c0,3.54-.77,6.9-.08,10.43,1.31,6.75,4.9,12.49,11.54,14.83s13,2.38,19.28-1.17A24,24,0,0,0,90.95,76.27,25.51,25.51,0,0,0,91,66c-.77-3.16-2.77-5.53-2.88-9C87.84,50.13,89.5,43.57,87,36.8c-1.21-3.28-3.56-5.16-5.64-7.83a20.34,20.34,0,0,0-6.76-5.42C74.07,22.91,76.21,24.47,74.61,23.56Z" transform="translate(-2.14 -2.07)"/><path class="cls-6" d="M70.11,27.81c-1.25-1.56-5.94,0-7.4.42A22.44,22.44,0,0,0,55,31.82c-3.6,2.66-7.36,7.8-8.15,12.27-1,5.9.74,10.51,3.91,15.34.68,1,1.5,1.81,2.2,2.75a2.33,2.33,0,0,1,.45,2.25C53,67,52.29,69.4,52.93,72A14.36,14.36,0,0,0,63,82.34c4.94,1.18,11.55-.13,15.35-3.64s4.35-9.49,3.06-14.32a15.84,15.84,0,0,0-1.54-3.85c-.42-.73-1.22-1.66-1.21-2.54,0-2.22,3.18-2.64,4.22-4.28,3.38-5.31,2.52-11.79-.2-17.14a17.2,17.2,0,0,0-5.38-6.08c-1.68-1.16-5-3.51-7.18-2.67C69.85,27.48,71.08,27.44,70.11,27.81Z" transform="translate(-2.14 -2.07)"/><path class="cls-7" d="M74.89,58c2.76-1.14,6-2.56,7.55-5.2s1.17-6.48.54-9.22c-1.43-6.15-7.44-10.71-13.88-8.77C63.83,36.4,57.95,41.53,57,47.13a15,15,0,0,0,1.78,9.29,12.06,12.06,0,0,0,3.19,4c.64.48,3.77.95,3.87,1.52-3.6.74-4.29,5.57-3.42,8.53,1.1,3.76,6.07,5.37,9.65,5,4.07-.39,6.55-4.11,6.8-7.92.19-2.87-.75-8.31-4.19-8.94,0,0,0-.09.19-.64C75.87,57.6,74.66,58.56,74.89,58Z" transform="translate(-2.14 -2.07)"/><path class="cls-8" d="M74.89,58c2.76-1.14,6-2.56,7.55-5.2s1.17-6.48.54-9.22c-1.43-6.15-7.44-10.71-13.88-8.77C63.83,36.4,57.95,41.53,57,47.13a15,15,0,0,0,1.78,9.29,12.06,12.06,0,0,0,3.19,4c.64.48,3.77.95,3.87,1.52-3.6.74-4.29,5.57-3.42,8.53,1.1,3.76,6.07,5.37,9.65,5,4.07-.39,6.55-4.11,6.8-7.92.19-2.87-.75-8.31-4.19-8.94,0,0,0-.09.19-.64C75.87,57.6,74.66,58.56,74.89,58Z" transform="translate(-2.14 -2.07)"/><path class="cls-9" d="M71.07,76.56c-4,0-8.48-2-9.59-5.79a9.76,9.76,0,0,1,.75-7.3A5.6,5.6,0,0,1,63.48,62h0a6.9,6.9,0,0,1-2.06-.77,12.73,12.73,0,0,1-3.47-4.35A16,16,0,0,1,56,47c1-6.1,7.28-11.46,12.76-13.1a11.29,11.29,0,0,1,9,1.06,13.2,13.2,0,0,1,6.15,8.45c.45,1.93,1.28,6.75-.65,10-1.46,2.42-4,3.87-6.69,5,2.69,1.82,3.48,6.37,3.29,9.29-.27,4.06-3,8.4-7.71,8.85C71.82,76.54,71.44,76.56,71.07,76.56Zm1-41.2a9.47,9.47,0,0,0-2.74.41C64.59,37.22,58.88,42,58,47.29a14,14,0,0,0,1.68,8.65,10.84,10.84,0,0,0,2.9,3.69,10.5,10.5,0,0,0,1.41.45c1.62.45,2.69.75,2.84,1.71l.16.95-.94.2a3.16,3.16,0,0,0-2.12,1.57,7.77,7.77,0,0,0-.55,5.7c.91,3.09,5.18,4.64,8.59,4.31,3.59-.34,5.69-3.78,5.9-7,.17-2.51-.66-7.39-3.37-7.9l-.52-.1L73.78,59A1.7,1.7,0,0,1,74,57.62l.16-.38.38-.16h0c2.82-1.16,5.68-2.49,7.07-4.79,1.6-2.65.73-7.16.42-8.47a11.2,11.2,0,0,0-5.21-7.17A9.31,9.31,0,0,0,72.11,35.36Z" transform="translate(-2.14 -2.07)"/><circle class="cls-10" cx="16.45" cy="69.95" r="5.21" transform="translate(-54.49 47.15) rotate(-60)"/></g><circle class="cls-11" cx="90.22" cy="5.83" r="5.83"/><circle class="cls-12" cx="90.22" cy="5.83" r="5.83"/><path class="cls-6" d="M36.59,58.68a11.84,11.84,0,0,0-1.34,6.73c.31,2.22,3.1,8,6.2,6.69,2.43-1,2.91-6.49,2.71-8.6-.32-3.47-1.85-5.34-4.64-7.11C39.53,56.39,38.4,55.57,36.59,58.68Z" transform="translate(-2.14 -2.07)"/><path class="cls-6" d="M40.24,70.68c.14,1,1.34,1.76,1.41,3.06.06,1-.49,2.07-.54,3.1-.09,1.79,1.43,5.82,3.65,3.39s-.94-4.34-2.13-6c-.77-1.11-.07-2.55-.81-3.57s-1.38-.89-1.58.07C40.29,71.1,40.31,70.31,40.24,70.68Z" transform="translate(-2.14 -2.07)"/><path class="cls-5" d="M45.73,88.41c0,1.14,2,8,4.2,5.39.85-1-.8-2.15-.75-3.18.08-1.66.76-.17,1.17-1.06.08-.18-3.22-4.71-3.18-4.72-1.95.48,1.89,4.25-1.13,2.81-.21.15-.21.43-.31.75S45.83,88.08,45.73,88.41Z" transform="translate(-2.14 -2.07)"/><path class="cls-13" d="M41.11,30.31c-.34,2.14-2.67,4-4.21,5.34-2.08,1.79-4,3.28-5.54,5.66a21.11,21.11,0,0,0-2.82,6.87c-.47,2.36,0,4.47.17,6.83a11.08,11.08,0,0,1-1.94,7.26,9.94,9.94,0,0,0-1.7,6.11,13.32,13.32,0,0,0,1.74,5.73c.47.87,3.38,4.56,3.05,5.37C29.25,81.05,27.37,77.6,27,77a21,21,0,0,1-3.09-7.36c-.51-2.4-.55-4.73-1.87-6.89a37,37,0,0,1-3.14-5.83C17.33,53,18.12,47.68,22,45.34c1.54-.93,3.2-1.43,4.56-2.66a12.15,12.15,0,0,0,3.58-6.42c.62-2.74,1.27-5,3.76-6.7,2.1-1.39,5.1-.49,7-1.84.36-.25,4.22-4.56,3.47-1.39-.28,1.19-2,1.57-2.64,2.42-.35.44-.32,1.19-.64,1.55C41,30.76,41.39,30,41.11,30.31Z" transform="translate(-2.14 -2.07)"/><circle class="cls-14" cx="46.67" cy="49.38" r="46.67"/></svg>