<svg id="bassoRightleg" xmlns="http://www.w3.org/2000/svg" xmlns:xlink="http://www.w3.org/1999/xlink" viewBox="0 0 12.14 48.46"><defs><style>.cls-1{fill:url(#linear-gradient);}.cls-2{fill:url(#linear-gradient-2);}.cls-3{fill:url(#linear-gradient-3);}</style><linearGradient id="linear-gradient" x1="7.07" y1="39.55" x2="7.07" y2="19.23" gradientUnits="userSpaceOnUse"><stop offset="0.1" stop-color="#f58323"/><stop offset="0.17" stop-color="#e97924"/><stop offset="0.4" stop-color="#ca5e26"/><stop offset="0.6" stop-color="#b74e28"/><stop offset="0.73" stop-color="#b04828"/></linearGradient><linearGradient id="linear-gradient-2" x1="-6.43" y1="63.02" x2="7.36" y2="32.93" gradientUnits="userSpaceOnUse"><stop offset="0" stop-color="#72c9bf"/><stop offset="1" stop-color="#44a1a2"/></linearGradient><linearGradient id="linear-gradient-3" x1="8.67" y1="43.09" x2="5.54" y2="46.21" gradientUnits="userSpaceOnUse"><stop offset="0" stop-color="#657947"/><stop offset="1" stop-color="#59894c"/></linearGradient></defs><title>byte_rightLeg</title><path class="cls-1" d="M7.07,1C4.09,1,.75,3.56,1,6.53l3.58,40.2a2.86,2.86,0,0,0,2.86,2.73h0a2.86,2.86,0,0,0,2.84-2.53L13.13,6.4C13.32,3.47,10,1,7.07,1h0Z" transform="translate(-1 -1)"/><polygon class="cls-2" points="2.38 32.25 3.01 39.19 9.76 39.25 10.25 32.25 2.38 32.25"/><path class="cls-3" d="M4.11,41.32l0.49,5.41a2.86,2.86,0,0,0,5.7.19l0.39-5.6H4.11Z" transform="translate(-1 -1)"/></svg>