<svg id="leftArm" xmlns="http://www.w3.org/2000/svg" xmlns:xlink="http://www.w3.org/1999/xlink" viewBox="0 0 15.66 20.34"><defs><style>.cls-1{fill:url(#radial-gradient);}</style><radialGradient id="radial-gradient" cx="10.33" cy="11.83" r="10.4" gradientUnits="userSpaceOnUse"><stop offset="0.09" stop-color="#7d122c"/><stop offset="0.2" stop-color="#85132f"/><stop offset="0.37" stop-color="#9b1736"/><stop offset="0.59" stop-color="#c01e42"/><stop offset="0.8" stop-color="#eb2550"/></radialGradient></defs><title>carmineLeftArm</title><path class="cls-1" d="M14.08,4.87A31.71,31.71,0,0,0,8,6.88a8.49,8.49,0,0,0-4.12,5.75,10.88,10.88,0,0,0-.22,1.3c1.57-.22,3,.52,3.77,3,.66,2.08.14,4.18-2.25,4.46-1.67.2-3.33-1.17-3.74-3.32a5.54,5.54,0,0,1-.09-1.51,16,16,0,0,1,.38-4.28c.67-2.8,1.74-5.93,4.61-7.89a28.67,28.67,0,0,1,7.11-3s2.5-.71,3.25,0S16.75,4.15,14.08,4.87Z" transform="translate(-1.3 -1.06)"/></svg>