<svg id="Layer_1" data-name="Layer 1" xmlns="http://www.w3.org/2000/svg" xmlns:xlink="http://www.w3.org/1999/xlink" viewBox="0 0 200 203"><defs><style>.cls-1{fill:none;}.cls-2{clip-path:url(#clip-path);}.cls-3{fill:url(#linear-gradient);}.cls-4,.cls-5{fill:#fff;}.cls-4{opacity:0.7;}.cls-5{opacity:0.5;}</style><clipPath id="clip-path" transform="translate(0 3)"><circle class="cls-1" cx="100" cy="100" r="100"/></clipPath><linearGradient id="linear-gradient" x1="100" y1="220.5" x2="100" y2="-119.35" gradientUnits="userSpaceOnUse"><stop offset="0" stop-color="#ffe12d"/><stop offset="1" stop-color="#f85865"/></linearGradient></defs><title>droneBGCircle</title><text y="3"></text><g class="cls-2"><circle class="cls-3" cx="100" cy="103" r="100"/><path class="cls-4" d="M144.29,35a16.79,16.79,0,0,0-8.94,2.53C133,28.07,123.64,21,112.46,21c-10.3,0-19,6-22.2,14.37C83.22,36.76,78,42.45,78,49.25c0,7.86,7,14.23,15.71,14.23h50.62C153,63.49,160,57.11,160,49.25S153,35,144.29,35Z" transform="translate(0 3)"/><path class="cls-5" d="M72.39,8.53a11.63,11.63,0,0,0-6.65,2.08A17.45,17.45,0,0,0,32.2,8.81a11.69,11.69,0,0,0,2.53,23.11H72.39a11.69,11.69,0,0,0,0-23.38Z" transform="translate(0 3)"/></g></svg>