<?xml version="1.0" encoding="utf-8"?>
<!-- Generator: Adobe Illustrator 20.1.0, SVG Export Plug-In . SVG Version: 6.00 Build 0)  -->
<svg version="1.1" id="greenBalloon" xmlns="http://www.w3.org/2000/svg" xmlns:xlink="http://www.w3.org/1999/xlink" x="0px"
	 y="0px" viewBox="0 0 128.3 396.3" style="enable-background:new 0 0 128.3 396.3;" xml:space="preserve">
<style type="text/css">
	.st0{fill:none;stroke:#FFFFFF;stroke-miterlimit:10;}
	.st1{opacity:0.9;fill:url(#SVGID_1_);}
	.st2{fill:#D3FABD;}
	.st3{opacity:0.9;fill:#C9FF8C;}
	.st4{fill:#A1D23E;}
	.st5{fill:none;stroke:#FFFFFF;stroke-linecap:round;stroke-miterlimit:10;}
</style>
<title>greenBalloon</title>
<path class="st0" d="M62.5,112.8c0,0,44.9,52.2,44.9,144.2c0,75-17.5,71-6.4,109.5s26.9,28,26.9,28"/>
<radialGradient id="SVGID_1_" cx="53" cy="56.5" r="72.5483" gradientUnits="userSpaceOnUse">
	<stop  offset="0" style="stop-color:#BEFF93"/>
	<stop  offset="0.45" style="stop-color:#A7D54A"/>
	<stop  offset="0.68" style="stop-color:#A2D341"/>
	<stop  offset="1" style="stop-color:#A1D23E"/>
</radialGradient>
<path class="st1" d="M88.2,58.7c2.4,20.7-12.9,51-25.2,52.4C51.6,112.5,28.7,86.7,26.3,66S38,32.3,53.5,30.5S85.8,38,88.2,58.7z"/>
<path class="st2" d="M89,58c-2.6-22-19.3-30.8-35.8-28.9C36.8,31,22.8,43.8,25.4,65.7C28,87.6,51,112.9,63,111.5
	C76.1,110,91.5,79.9,89,58z M63,111.1C51.6,112.5,28.7,86.7,26.3,66S38,32.3,53.5,30.5C69,28.6,85.8,38,88.2,58.7
	C90.7,79.4,75.3,109.7,63,111.1z"/>
<path class="st3" d="M31.3,66.1c1.4,12.2,6.1,17.5,5.1,16.7c-2.7-2.1-6.3-8.4-7.2-16.4c-1-8.1,0.1-14.8,3.3-16.8
	C33.2,49.1,29.7,52.7,31.3,66.1z"/>
<path class="st4" d="M67.2,114.7c0.7,1.6-1.2,1.1-3.1,1.9c-1.8,0.8-2.9,2.6-3.6,1.1c-0.5-2,0.7-4,2.7-4.5
	C64.7,112.8,66.3,113.5,67.2,114.7L67.2,114.7z"/>
<path class="st4" d="M63,111.1c-0.8,0.1-1.7,0-2.6-0.1l1.8,3c0.2,1,0.2,1.8,1.2,1.6l0.7-0.1c1-0.1,0.8-0.9,0.8-1.9l1.1-3.3
	c0,0,0-0.1,0-0.1C65,110.7,64,111,63,111.1z"/>
<path class="st5" d="M61.7,113.4c0,0,0.8-1.4,3.3-0.7"/>
</svg>
