<svg id="body" xmlns="http://www.w3.org/2000/svg" xmlns:xlink="http://www.w3.org/1999/xlink" viewBox="0 0 75.12 153.83"><defs><style>.cls-1{fill:none;}.cls-2{clip-path:url(#clip-path);}.cls-3{fill:url(#linear-gradient);}.cls-4{fill:url(#linear-gradient-2);}.cls-5{fill:#de6267;}.cls-6{fill:#8e4822;}.cls-7{fill:#a54948;}</style><clipPath id="clip-path" transform="translate(-0.96 23.83)"><rect class="cls-1" x="-0.79" y="0.5" width="80.12" height="140.88"/></clipPath><linearGradient id="linear-gradient" x1="42.5" y1="106.83" x2="42.5" y2="37.58" gradientUnits="userSpaceOnUse"><stop offset="0.38" stop-color="#797f85"/><stop offset="0.5" stop-color="#81878d"/><stop offset="0.68" stop-color="#979da2"/><stop offset="0.89" stop-color="#bbc0c5"/></linearGradient><linearGradient id="linear-gradient-2" x1="38.52" y1="130" x2="38.52" y2="-23.83" gradientUnits="userSpaceOnUse"><stop offset="0.03" stop-color="#4d786f"/><stop offset="0.09" stop-color="#4a806f"/><stop offset="0.18" stop-color="#42966f"/><stop offset="0.29" stop-color="#35bb70"/><stop offset="0.29" stop-color="#35bb70"/><stop offset="0.74" stop-color="#34b970"/><stop offset="0.78" stop-color="#34b870"/><stop offset="0.82" stop-color="#2d9f66"/><stop offset="0.86" stop-color="#26885c"/><stop offset="0.89" stop-color="#237f58"/><stop offset="0.95" stop-color="#39c275"/></linearGradient></defs><title>hopperBody</title><g class="cls-2"><rect class="cls-3" x="16.62" y="37.58" width="51.75" height="69.25" rx="15.7" ry="15.7"/><path class="cls-4" d="M64.61,51.13a48.11,48.11,0,0,0-2.09-10.21C59.25,30.71,55,14.06,52.69,4.82c-.36-1.7-.68-3.19-.94-4.43C66,.49,76.08.11,76.08-9.75c0-11.58-13.85-14.08-32.17-14.08S11.75-21.33,11.75-9.75C11.75,0,21.48.48,35.41.39c-.36,1.71-.82,3.89-1.36,6.43-2.44,9-6.33,22.46-9,27.48-1.58,3-4.55,7.34-7.7,11.92C12.18,53.8,6.28,62.39,3.93,68.82.13,79.17,1,91.59,1.09,92.12A1.5,1.5,0,0,0,2.58,93.5H2.7a1.5,1.5,0,0,0,1.38-1.61c0-.12-.91-12.29,2.67-22,2.23-6.07,6.17-12.68,13-19.68a74.7,74.7,0,0,0,5.67-6.55c-1.32,5.07-2.68,9.93-4,14.21a191.34,191.34,0,0,0-8,41.67s-2.33,25.08,21.34,29.75l5,.64c1,.07,2.08.11,3.19.11,1.42,0,2.75-.08,4-.19l5-.76c23-5.12,21.77-29.55,21.77-29.55a191.34,191.34,0,0,0-8-41.67c-.25-.8-.5-1.63-.75-2.46Z" transform="translate(-0.96 23.83)"/><path class="cls-5" d="M20.19,62a200,200,0,0,0-6.36,32.76c9.5-1.09,36.22-3.58,59.45-.58a200.43,200.43,0,0,0-6.6-33.2A174.47,174.47,0,0,0,20.19,62Z" transform="translate(-0.96 23.83)"/><path class="cls-6" d="M56.65,46.17c2.11,10.31,9.64,21.58,13,26.17-.4-1.78-.84-3.63-1.32-5.51C64.61,61.16,59.8,52.62,58.45,45c-1.2-6.78-.15-11.38,1.06-14.17q-.4-1.41-.79-2.85c-1.59,2.59-3.64,7.76-2.41,16.19Z" transform="translate(-0.96 23.83)"/><path class="cls-6" d="M31.07,46.17C28.76,57.42,20,69.8,17.32,73.42q.56-2.54,1.22-5.23C22.28,62.6,27.8,53.26,29.27,45c1.5-8.49-.53-13.58-2-16,.27-.74.54-1.52.82-2.33,1.5,1.88,4.78,7.31,3.29,17.46Z" transform="translate(-0.96 23.83)"/><circle class="cls-7" cx="42.96" cy="93.5" r="1.67"/><circle class="cls-7" cx="42.96" cy="101.25" r="1.67"/><circle class="cls-7" cx="42.96" cy="109" r="1.67"/></g></svg>