<svg id="swoop" xmlns="http://www.w3.org/2000/svg" xmlns:xlink="http://www.w3.org/1999/xlink" viewBox="0 0 99.13 133.07"><defs><style>.cls-1,.cls-7{fill:#fff;}.cls-2{fill:#172c2d;}.cls-3{fill:#3c4444;}.cls-4,.cls-5,.cls-6,.cls-8,.cls-9{fill:none;}.cls-4,.cls-5,.cls-6{stroke:#4c4e51;}.cls-4,.cls-6,.cls-7,.cls-9{stroke-miterlimit:10;}.cls-5,.cls-7,.cls-8{stroke-linecap:round;}.cls-5,.cls-8{stroke-linejoin:round;}.cls-6,.cls-9{stroke-width:2px;}.cls-7,.cls-8{stroke:#818284;stroke-width:3px;}.cls-9{stroke:#a7a9ac;}.cls-10{opacity:0.4;fill:url(#linear-gradient);}.cls-11{fill:#f58323;}</style><linearGradient id="linear-gradient" x1="48.65" y1="61.7" x2="51.21" y2="69.65" gradientUnits="userSpaceOnUse"><stop offset="0.01" stop-color="#fff"/><stop offset="0.4"/><stop offset="1" stop-color="#fff"/></linearGradient></defs><title>swoopShoe</title><path class="cls-1" d="M52.92,1C48.47,1,14.55,8,32.62,83.37H53.94l19.29,1C91.3,9,57.69,1,53.4,1h-.49Z" transform="translate(-3.94 -1)"/><path class="cls-2" d="M52.55,4c-4.34.59-23.6,5.19-23.6,39.92,0,33.34,4.89,31.37,3.74,48.35-1.13,16.71,1.93,41,19.86,41.76v0l.43,0,.43,0v0c17.93-.76,21-25,19.86-41.76C72.12,75.3,77,83.07,77,43.93,77,9.19,57.75,4.6,53.41,4h-.86Z" transform="translate(-3.94 -1)"/><path class="cls-3" d="M53.4,129.62c5.89,0,11.61-3.17,14.09-15.92a37.93,37.93,0,0,0-3.3-23.3h-22a37.93,37.93,0,0,0-3.3,23.3c2.48,12.75,8.2,15.92,14.09,15.92" transform="translate(-3.94 -1)"/><path class="cls-2" d="M47.89,67.89l-.37,9.66L40.79,93.76s11.23,7.93,25.68,0L58.18,77.27V67.89S54.27,63.74,47.89,67.89Z" transform="translate(-3.94 -1)"/><path class="cls-4" d="M66.69,118a34.35,34.35,0,0,0-2-27.6l-4.59-8.79a15.52,15.52,0,0,1-1.87-7.39V67.89s-4.31-4-10.3,0v6.34A15.52,15.52,0,0,1,46,81.61l-4.37,10a38.34,38.34,0,0,0-2.33,24.14C41,122.87,44.76,129.62,53,129.62,60.34,129.62,64.42,124.22,66.69,118Z" transform="translate(-3.94 -1)"/><path class="cls-1" d="M30.49,26.22s4.77-22.4,22.74-22.4c14.08,0,20.72,16.83,21.67,22.4H67.55A33.34,33.34,0,0,1,63.9,26c-2.65-.29-7.59-.8-10-.8s-6.51.49-8.81.78a26.54,26.54,0,0,1-3.36.22H30.49Z" transform="translate(-3.94 -1)"/><path class="cls-5" d="M47.79,68.71S46.09,42,41.5,36a45.86,45.86,0,0,0-10.44-9.73S37.91,4,52.55,4,74.77,26.33,74.77,26.33A44.94,44.94,0,0,0,64.47,36c-4.59,6-6.29,32.75-6.29,32.75" transform="translate(-3.94 -1)"/><circle class="cls-6" cx="36.86" cy="62.24" r="2.47"/><circle class="cls-6" cx="35.49" cy="50.23" r="2.47"/><circle class="cls-6" cx="61.93" cy="62.24" r="2.47"/><line class="cls-7" x1="37.47" y1="62.24" x2="62.54" y2="76.27"/><line class="cls-7" x1="61.76" y1="61.95" x2="37.03" y2="76.56"/><circle class="cls-6" cx="63.3" cy="50.23" r="2.47"/><polyline class="cls-8" points="61.76 61.95 35.49 50.23 63.3 50.23 37.47 62.24"/><circle class="cls-9" cx="37.1" cy="77.08" r="2.47"/><circle class="cls-9" cx="61.73" cy="77.08" r="2.47"/><path class="cls-1" d="M48.26,57.14a12.18,12.18,0,0,0-5.5,7.19c-.67,3,.63,6.58,3.45,7.85a1.78,1.78,0,0,1-2.63,1,3.26,3.26,0,0,1-.74-.82c-1.63-2.33-3-5-2.9-7.84.16-3.52,2.72-6.58,5.78-8.31,1.58-.9,9-4.13,10.28-2.63,1.6,1.84-1.8,1.39-2.62,1.51A12.93,12.93,0,0,0,48.26,57.14Z" transform="translate(-3.94 -1)"/><path class="cls-10" d="M48.26,57.14a12.18,12.18,0,0,0-5.5,7.19c-.67,3,.63,6.58,3.45,7.85a1.78,1.78,0,0,1-2.63,1,3.26,3.26,0,0,1-.74-.82c-1.63-2.33-3-5-2.9-7.84.16-3.52,2.72-6.58,5.78-8.31,1.58-.9,9-4.13,10.28-2.63,1.6,1.84-1.8,1.39-2.62,1.51A12.93,12.93,0,0,0,48.26,57.14Z" transform="translate(-3.94 -1)"/><path class="cls-1" d="M64.49,78a5.59,5.59,0,0,0,1.05,1.31,1.6,1.6,0,0,0,1.57.32,1.56,1.56,0,0,0,.79-1.65,4.16,4.16,0,0,0-.83-1.77c-1-1.41-4.46-5-6-3.94C58.67,74,63.55,76.56,64.49,78Z" transform="translate(-3.94 -1)"/><path class="cls-11" d="M46.83,70.87c2.36-1,5.94-1,8,.51a15.25,15.25,0,0,0-2.56,2,4.19,4.19,0,0,0-3.13-.89,14.33,14.33,0,0,0-7.11,5.11A5.5,5.5,0,0,1,40.89,79c-.92.64-2.16.26-2.09-.95,0-.78,1.61-2.28,2.11-2.85A16.47,16.47,0,0,1,46.83,70.87Z" transform="translate(-3.94 -1)"/><path class="cls-11" d="M60,67.09c.63,1.21,1.22,2.61.79,3.91a2.92,2.92,0,0,1-2,1.84,3.37,3.37,0,0,1-2.69-.44c-.87.66-2.59.62-3.46,1.28,1.42.51,3.74,1.66,5.25,1.63a5,5,0,0,0,4-1.82,5.57,5.57,0,0,0,.67-1.27,7.91,7.91,0,0,0,.11-6c-.57-1.33-3.28-6.3-4.9-5.1S59.4,65.86,60,67.09Z" transform="translate(-3.94 -1)"/><path class="cls-11" d="M45.72,61.3c-1.24.09-2.49.15-3.74.13a21.13,21.13,0,0,1-6.72-1.27,13.75,13.75,0,0,1-5.69-3.49A6.66,6.66,0,0,1,28,50.24a6.77,6.77,0,0,1,5-4,15.53,15.53,0,0,1,6.61.22,46.14,46.14,0,0,1,20.23,9.72c.12.1.75.24.83.37a1.66,1.66,0,0,1-1.11,2.11c-.77,0-1.93-1.11-2.54-1.58A37.22,37.22,0,0,0,37,49.49a8.15,8.15,0,0,0-3.35.28,3.24,3.24,0,0,0-2.19,2.38c-.3,1.93,1.56,3.33,3,4.23A16.15,16.15,0,0,0,40,58.56,32.17,32.17,0,0,0,44.4,59c4.66,0,10.83-.32,14,1.17-.6.54.36,1.15-1.55,1.85-.56.2-1.25-.32-1.76-.48a11.24,11.24,0,0,0-2.15-.43A41.35,41.35,0,0,0,45.72,61.3Z" transform="translate(-3.94 -1)"/><path class="cls-11" d="M98.91,68.22a4.45,4.45,0,0,1-1.48,2.31,131.27,131.27,0,0,0-12.77-4.32,57.66,57.66,0,0,0-7.27-1.64c-2-.3-4.07-.42-6.09-.77A28.18,28.18,0,0,1,61.37,60c.39.24,0-2.34.14-2.42.79-.38,2.17.58,3.08,1,1.53.66,3,1.34,4.6,1.86a74.4,74.4,0,0,0,9.92,2.36C85.84,64,92.79,65,98.91,68.22Z" transform="translate(-3.94 -1)"/><path class="cls-1" d="M9.44,79.29a1.89,1.89,0,0,1,1.89-2,8.11,8.11,0,0,0,2.52-.33c10-3,17-6.45,29.31-11.08.74-.28,3.26-2.73,6.42-3.7,3.86-1.19,3.52,1.25,5.79.54,1.33-.42,3.9-3.36,4.58-4.58a1.94,1.94,0,0,0,.07-2,2.65,2.65,0,0,0-.8-.68L55.48,53a8.73,8.73,0,0,1,4.16-.27,4.57,4.57,0,0,1,3.24,2.44,4.88,4.88,0,0,1-1.19,5.12c-1.27,1.36-5.09,4.76-6.81,5.47s-2.47-1.8-4.07-1.21a16.14,16.14,0,0,0-4.44,3.17c-1.46,1.72-7.33,2.87-8.88,3.5C28.87,74.7,20.94,79.05,11.69,81a1.88,1.88,0,0,1-2.25-1.69Z" transform="translate(-3.94 -1)"/><path class="cls-1" d="M51.21,73.17c1-.51,1.75-1.35,2.69-1.94a7.79,7.79,0,0,1,2-.85c1.58-.43,3.83-.47,4.77.87a2.13,2.13,0,0,1-2.57,1.51,4.8,4.8,0,0,0-2.91.09c-1.12.35-1.87,1.37-2.82,2.06-1.91,1.39-5.35,1.41-6.9-.54C47.46,72.31,49.06,74.3,51.21,73.17Z" transform="translate(-3.94 -1)"/><polygon class="cls-11" points="92.8 67.14 98.05 72.12 99.13 69.63 93.74 67.14 92.8 67.14"/><polygon class="cls-1" points="8.48 77.97 0 79.32 1.35 82.48 8.48 79.32 8.48 77.97"/></svg>