<?xml version="1.0" encoding="utf-8"?>
<!-- Generator: Adobe Illustrator 20.0.0, SVG Export Plug-In . SVG Version: 6.00 Build 0)  -->
<svg version="1.1" id="Layer_1" xmlns="http://www.w3.org/2000/svg" xmlns:xlink="http://www.w3.org/1999/xlink" x="0px" y="0px"
	 viewBox="0 0 37.3 37.3" style="enable-background:new 0 0 37.3 37.3;" xml:space="preserve">
<style type="text/css">
	.st0{fill:#FE4B26;}
	.st1{fill:#FFFFFF;}
</style>
<title>variables_error_icon</title>
<polygon class="st0" points="37.3,10.9 26.3,0 10.9,0.1 0,11.1 0.1,26.5 11.1,37.3 26.5,37.3 37.3,26.3 "/>
<path class="st1" d="M15.4,29.7c0-1.8,1.5-3.2,3.3-3.1c0,0,0,0,0.1,0c1.7-0.1,3.2,1.2,3.3,2.9c0.1,1.7-1.2,3.2-2.9,3.3
	c-0.1,0-0.2,0-0.4,0C16.9,32.9,15.4,31.5,15.4,29.7C15.4,29.7,15.4,29.7,15.4,29.7z M21.6,5.7L21.1,24h-4.9L15.8,5.7H21.6z"/>
</svg>
