<svg id="bassoMouth" xmlns="http://www.w3.org/2000/svg" xmlns:xlink="http://www.w3.org/1999/xlink" viewBox="0 0 112.13 11.21"><defs><style>.cls-1{fill:url(#linear-gradient);}.cls-2{fill:#8c3841;}</style><linearGradient id="linear-gradient" x1="30.66" y1="-25.68" x2="101.24" y2="-25.68" gradientTransform="matrix(1, -0.04, -0.04, -1, -0.34, -16.37)" gradientUnits="userSpaceOnUse"><stop offset="0" stop-color="#561022"/><stop offset="1" stop-color="#8a2521"/></linearGradient></defs><title>basso_mouth</title><path class="cls-1" d="M64.94,11.9a463.72,463.72,0,0,1-55-1.26,22.7,22.7,0,0,1-8.05-1.7,1.64,1.64,0,0,1-.7-2.27A5.29,5.29,0,0,1,4.12,4.59a30.23,30.23,0,0,1,7.33-1c29.66-1.54,59.49.71,89.06-2A77.06,77.06,0,0,1,109.4,1c1.73,0,4,.9,3.71,2.6-0.2,1.08-1.4,1.61-2.44,2-11.3,3.75-23,5.19-34.9,5.64C72.16,11.34,68.55,11.77,64.94,11.9Z" transform="translate(-1 -1)"/><path class="cls-2" d="M24.83,9.54s16,3.56,32.33-.47A62.88,62.88,0,0,0,24.83,9.54Z" transform="translate(-1 -1)"/></svg>