<svg id="myHouse_animate" xmlns="http://www.w3.org/2000/svg" viewBox="0 0 151.39 103.32"><defs><style>.cls-1{fill:#5ab054;}.cls-2{fill:#172c2d;}.cls-3{fill:#67bfef;}.cls-4{fill:#fff;}.cls-5{fill:#83c37e;}.cls-6{fill:#0b270b;}.cls-7{fill:#e0e0e0;}.cls-10,.cls-8,.cls-9{fill:none;stroke-miterlimit:10;}.cls-8{stroke:#172c2d;}.cls-10,.cls-8{stroke-width:2px;}.cls-10,.cls-9{stroke:#fff;}.cls-11{fill:#f7ff73;}.cls-12{fill:#1a4e14;}</style></defs><title>myHouse_frame</title><rect class="cls-1" x="78.13" y="21.64" width="71.5" height="30.02"/><rect class="cls-2" x="78.13" y="18.66" width="73.26" height="2.98"/><rect class="cls-1" x="2" y="2.98" width="76.13" height="100.34"/><rect class="cls-3" x="14.19" y="59.49" width="19.06" height="28.96"/><path class="cls-4" d="M33.24,61.49v27H16.19v-27H33.24m2-2H14.19v31H35.24v-31h0Z" transform="translate(-1 -1)"/><polygon class="cls-2" points="34.38 49.28 13.21 49.28 9.51 59.02 16.2 59.02 31.38 59.02 38.08 59.02 34.38 49.28"/><rect class="cls-5" x="45.29" y="2.98" width="33.26" height="100.34"/><polygon class="cls-1" points="78.14 52.09 78.14 103.32 84.93 103.32 84.93 62.82 144.23 62.82 144.23 103.32 149.63 103.32 149.63 52.09 78.14 52.09"/><rect class="cls-2" width="80.55" height="2.98"/><rect class="cls-3" x="85.35" y="27.79" width="23.76" height="12.63"/><path class="cls-4" d="M109.11,29.79V40.42H87.35V29.79h21.76m2-2H85.35V42.42h25.76V27.79h0Z" transform="translate(-1 -1)"/><rect class="cls-3" x="118.94" y="27.79" width="24.29" height="12.63"/><path class="cls-4" d="M143.23,29.79V40.42H120.94V29.79h22.29m2-2H118.94V42.42h26.29V27.79h0Z" transform="translate(-1 -1)"/><polygon class="cls-4" points="151.39 54.61 79.02 54.61 75.96 51.63 151.39 51.63 151.39 54.61"/><polygon class="cls-4" points="78.54 54.12 59.37 35.12 61.2 33.31 80.36 52.31 78.54 54.12"/><polygon class="cls-4" points="45.23 52.62 62.9 35.12 61.07 33.31 43.41 50.81 45.23 52.62"/><rect class="cls-6" x="55.08" y="63.61" width="13.68" height="25.52"/><rect class="cls-7" x="54.6" y="88.62" width="14.7" height="2.12"/><rect class="cls-4" x="54.06" y="87.55" width="15.71" height="1.06"/><rect class="cls-7" x="54.6" y="91.87" width="14.7" height="2.12"/><rect class="cls-4" x="54.06" y="90.81" width="15.71" height="1.06"/><rect class="cls-7" x="54.6" y="94.85" width="14.7" height="2.12"/><rect class="cls-4" x="54.06" y="93.79" width="15.71" height="1.06"/><rect class="cls-7" x="54.6" y="98.1" width="14.7" height="2.12"/><rect class="cls-4" x="54.06" y="97.04" width="15.71" height="1.06"/><rect class="cls-7" x="54.6" y="101.2" width="14.7" height="2.12"/><rect class="cls-4" x="54.06" y="100.14" width="15.71" height="1.06"/><rect class="cls-4" x="50.15" y="58.14" width="23.54" height="2.48"/><rect class="cls-2" x="50.15" y="53.15" width="23.54" height="4.99"/><polyline class="cls-8" points="151.39 51.64 80.67 51.64 61.35 32.52 42.2 51.61"/><line class="cls-9" x1="23.85" y1="60.63" x2="23.85" y2="88.62"/><line class="cls-9" x1="14.86" y1="73.97" x2="32.73" y2="73.97"/><line class="cls-9" x1="84.93" y1="32.52" x2="110.11" y2="32.52"/><line class="cls-9" x1="118.69" y1="32.52" x2="143.87" y2="32.52"/><rect class="cls-3" x="13.7" y="14.32" width="20.03" height="20.03"/><path class="cls-4" d="M33.73,16.32v18h-18v-18h18m2-2h-22v22h22v-22h0Z" transform="translate(-1 -1)"/><rect class="cls-3" x="55.61" y="11.18" width="13.14" height="13.14"/><path class="cls-4" d="M68.76,13.18V24.32H57.61V13.18H68.76m2-2H55.61V26.32H70.76V11.18h0Z" transform="translate(-1 -1)"/><line class="cls-9" x1="23.71" y1="14.3" x2="23.71" y2="35.35"/><line class="cls-9" x1="34.24" y1="24.83" x2="13.19" y2="24.83"/><line class="cls-9" x1="68.29" y1="17.75" x2="56.08" y2="17.75"/><line class="cls-9" x1="62.18" y1="23.85" x2="62.18" y2="11.64"/><line class="cls-10" x1="11.68" y1="34.44" x2="35.73" y2="34.44"/><line class="cls-10" x1="11.68" y1="88.68" x2="35.73" y2="88.68"/><line class="cls-10" x1="53.61" y1="24.37" x2="70.76" y2="24.37"/><circle class="cls-11" cx="73.17" cy="66.87" r="0.79"/><path class="cls-2" d="M73.17,64.29h0a1.6,1.6,0,0,1,1.6,1.6v1.05a0,0,0,0,1,0,0H71.58a0,0,0,0,1,0,0V65.88A1.6,1.6,0,0,1,73.17,64.29Z"/><rect class="cls-12" x="56.66" y="65.61" width="10.63" height="8.36"/><rect class="cls-12" x="57.58" y="76.58" width="3.54" height="8.36"/><rect class="cls-12" x="62.82" y="76.58" width="3.54" height="8.36"/><circle class="cls-4" cx="67.23" cy="75.49" r="0.87"/></svg>