<svg id="mapBubble" xmlns="http://www.w3.org/2000/svg" xmlns:xlink="http://www.w3.org/1999/xlink" viewBox="0 0 689.47 614.85"><defs><style>.cls-1,.cls-6{fill:none;}.cls-2{clip-path:url(#clip-path);}.cls-3{fill:#f9f5ed;}.cls-4{fill:#d9d1c5;}.cls-5{fill:#fff;}.cls-5,.cls-6{stroke:#d9d1c5;stroke-miterlimit:10;}</style><clipPath id="clip-path" transform="translate(113.04 12.27)"><circle class="cls-1" cx="277.1" cy="276.34" r="272.26"/></clipPath></defs><title>algorithms_mapBubble</title><g class="cls-2"><rect class="cls-3" x="103.47" width="577.05" height="570.79"/><rect class="cls-4" x="267.82" y="66.35" width="64.43" height="42.66"/><rect class="cls-4" x="583.71" y="338.58" width="34.22" height="29.33"/><path class="cls-5" d="M414.66,225.08A107.47,107.47,0,0,0,521.88,122.73h54.05v-15H380.5V-9.35h-15V107.73h-118V-9.35h-15V60.83l-15-.25V72.33l15,0.25v35.15H103.62V-9.35h-15V286.71H-112.54v25H88.62v49.45H-112.54v15H88.62v119h15v-119h92a140.84,140.84,0,0,1,36.86,4.56V602.08h15V385.89c21.9,9.32,40.59,25.53,57.71,49.54a39.12,39.12,0,0,1-2.4,48.57,54,54,0,0,0-13.31,35.51v42.61h15V519.51a39,39,0,0,1,9.61-25.65,54.07,54.07,0,0,0,3.31-67.13c-20.12-28.23-43-46.93-69.92-56.9V346h118v196.2h15V346h65.69V336H380.5V311.71H551v-25H380.5V225.08h34.16ZM380.5,122.73H511.87a97.46,97.46,0,0,1-97.21,92.35H380.5V122.73Zm-148,242.56a157.45,157.45,0,0,0-36.86-4.14h-92V311.71H232.5v53.58Zm0-78.58H103.62v-164H232.5v164Zm15-164h118v92.35h-118V122.73Zm0,102.35h118v61.63h-118V225.08Zm0,110.9V311.71h118V336h-118Z" transform="translate(113.04 12.27)"/></g><circle class="cls-6" cx="390.14" cy="288.61" r="272.26"/></svg>