<svg xmlns="http://www.w3.org/2000/svg" xmlns:xlink="http://www.w3.org/1999/xlink" viewBox="0 0 109.3 140.84"><defs><style>.cls-1{fill:#00caff;}.cls-2{fill:url(#linear-gradient);}.cls-3{fill:url(#linear-gradient-2);}.cls-4{fill:url(#radial-gradient);}.cls-5{fill:url(#radial-gradient-2);}.cls-6{fill:#ff9e3e;}</style><linearGradient id="linear-gradient" x1="20.57" y1="117.47" x2="7.84" y2="82.47" gradientUnits="userSpaceOnUse"><stop offset="0.03" stop-color="#555061"/><stop offset="0.14" stop-color="#5c5769"/><stop offset="0.32" stop-color="#70697f"/><stop offset="0.5" stop-color="#8a819d"/></linearGradient><linearGradient id="linear-gradient-2" x1="32.05" y1="112.43" x2="-1.87" y2="53.68" gradientUnits="userSpaceOnUse"><stop offset="0.03" stop-color="#797f85"/><stop offset="0.1" stop-color="#81878d"/><stop offset="0.21" stop-color="#979da2"/><stop offset="0.34" stop-color="#bbc0c5"/></linearGradient><radialGradient id="radial-gradient" cx="64.87" cy="79.21" r="80.77" gradientTransform="translate(113.26 9.52) rotate(84.65) scale(1 0.69)" gradientUnits="userSpaceOnUse"><stop offset="0.09" stop-color="#7d122c"/><stop offset="0.2" stop-color="#85132f"/><stop offset="0.37" stop-color="#9b1736"/><stop offset="0.59" stop-color="#c01e42"/><stop offset="0.8" stop-color="#eb2550"/></radialGradient><radialGradient id="radial-gradient-2" cx="63.2" cy="141.35" r="4.12" gradientTransform="translate(154.46 69.33) rotate(84.65) scale(1 0.69)" xlink:href="#radial-gradient"/></defs><title>carmineBody</title><g id="body"><path class="cls-1" d="M6.75,51.35a8.91,8.91,0,0,1,.92-7,8.92,8.92,0,0,1,5.22-3.6l.41,2-.21-1,.21,1a7,7,0,0,0-4,2.74,7,7,0,0,0-.64,5.44Z" transform="translate(-1 -1)"/><path class="cls-2" d="M15,81.25S4.73,82.5,2.85,84.88s-3,5.5,0,17.5,4.5,15.25,10.37,15.25a32.21,32.21,0,0,0,15.38-3.25L20,80.38Z" transform="translate(-1 -1)"/><path class="cls-3" d="M26.63,115.23,14,47.34s-6.62.42-9.75,5.54-.75,15.38,1,24.88c1.37,7.44,7.64,30.26,10.3,39.83A30.08,30.08,0,0,0,26.63,115.23Z" transform="translate(-1 -1)"/><path class="cls-4" d="M71.34,141.2c15.23-.18,16.42.18,18.72-1.69C91.55,138.29,96.44,118,101,96.2l.8-3.88C105,76.39,108,60.24,109.23,50.67c3-23.5-.17-41.17-11-42.83s-16.83,16-16.83,16S75.89,1.34,61.56,1s-22.5,21.67-22.5,21.67S30.39,6.67,21.89,9,7.73,22.67,15.23,66.67q1.64,9.61,3.26,18.21l.66,3.5c6.05,31.52,11.51,51.23,13.57,52.47s5.69,1.1,21.61.7Z" transform="translate(-1 -1)"/><path class="cls-5" d="M58.58,141.43l4.31-.1,4.25-.08" transform="translate(-1 -1)"/><path class="cls-6" d="M70.56,70.4a.75.75,0,0,1,.52,1.29c-1.32,1.25-4.53,3-7.31.88a.75.75,0,1,1,.92-1.18c2.45,1.9,5.24-.68,5.36-.79A.75.75,0,0,1,70.56,70.4Z" transform="translate(-1 -1)"/><path class="cls-1" d="M91.4,91.78a18.55,18.55,0,0,0,7.34,14.9l.48-2.2a16.54,16.54,0,0,1-5.83-13.43c.34-7.08,7.29-10.45,11-11.74l.43-2.25a26.7,26.7,0,0,0-5.72,2.48c-4.36,2.56-6.94,6-7.55,10.14Z" transform="translate(-1 -1)"/><path class="cls-1" d="M38.48,90.81c-.88-5.14-4.89-8.72-11.64-10.36a37.62,37.62,0,0,0-9.35-1l.37,2c3.67,0,17.39.48,18.71,10,1.28,9.22-9.85,14.24-13.59,15.65l.43,2A35.21,35.21,0,0,0,31,105.25c5.08-3.48,7.7-7.74,7.66-12.4Z" transform="translate(-1 -1)"/></g></svg>