<svg id="head" xmlns="http://www.w3.org/2000/svg" xmlns:xlink="http://www.w3.org/1999/xlink" viewBox="0 0 75.12 153.83"><defs><style>.cls-1{fill:none;}.cls-2{clip-path:url(#clip-path);}.cls-3{fill:url(#linear-gradient);}.cls-4{fill:url(#linear-gradient-2);}.cls-5{fill:#de6267;}.cls-6{fill:#8e4822;}.cls-7{fill:#a54948;}.cls-8{fill:#190000;}.cls-9{fill:#fdf7ca;}.cls-10{fill:#fdfbcb;}.cls-11{fill:#f7f7f7;}</style><clipPath id="clip-path" transform="translate(9.37 -0.67)"><rect class="cls-1" x="-11.12" y="-1.08" width="80.12" height="26.08"/></clipPath><linearGradient id="linear-gradient" x1="42.5" y1="106.83" x2="42.5" y2="37.58" gradientUnits="userSpaceOnUse"><stop offset="0.38" stop-color="#797f85"/><stop offset="0.5" stop-color="#81878d"/><stop offset="0.68" stop-color="#979da2"/><stop offset="0.89" stop-color="#bbc0c5"/></linearGradient><linearGradient id="linear-gradient-2" x1="28.19" y1="154.5" x2="28.19" y2="0.67" gradientUnits="userSpaceOnUse"><stop offset="0.03" stop-color="#4d786f"/><stop offset="0.09" stop-color="#4a806f"/><stop offset="0.18" stop-color="#42966f"/><stop offset="0.29" stop-color="#35bb70"/><stop offset="0.29" stop-color="#35bb70"/><stop offset="0.74" stop-color="#34b970"/><stop offset="0.78" stop-color="#34b870"/><stop offset="0.82" stop-color="#2d9f66"/><stop offset="0.86" stop-color="#26885c"/><stop offset="0.89" stop-color="#237f58"/><stop offset="0.95" stop-color="#39c275"/></linearGradient></defs><title>hopperHead</title><g class="cls-2"><rect class="cls-3" x="16.62" y="37.58" width="51.75" height="69.25" rx="15.7" ry="15.7"/><path class="cls-4" d="M54.28,75.63a48.11,48.11,0,0,0-2.09-10.21c-3.27-10.22-7.53-26.87-9.83-36.11-.36-1.7-.68-3.19-.94-4.43,14.29.11,24.33-.27,24.33-10.13C65.75,3.17,51.9.67,33.58.67S1.42,3.17,1.42,14.75c0,9.71,9.73,10.23,23.66,10.14-.36,1.71-.82,3.89-1.36,6.43-2.44,9-6.33,22.46-9,27.48-1.58,3-4.55,7.34-7.7,11.92C1.84,78.3-4,86.89-6.41,93.32c-3.8,10.36-2.88,22.78-2.84,23.3A1.5,1.5,0,0,0-7.75,118h.12a1.5,1.5,0,0,0,1.38-1.61c0-.12-.91-12.29,2.67-22,2.23-6.07,6.17-12.68,13-19.68a74.7,74.7,0,0,0,5.67-6.55c-1.32,5.07-2.68,9.93-4,14.21a191.34,191.34,0,0,0-8,41.67S.76,149.08,24.43,153.75l5,.64c1,.07,2.08.11,3.19.11,1.42,0,2.75-.08,4-.19l5-.76C64.6,148.43,63.42,124,63.42,124a191.34,191.34,0,0,0-8-41.67c-.25-.8-.5-1.63-.75-2.46Z" transform="translate(9.37 -0.67)"/><path class="cls-5" d="M9.86,86.47A200,200,0,0,0,3.5,119.23c9.5-1.09,36.22-3.58,59.45-.58a200.43,200.43,0,0,0-6.6-33.2A174.47,174.47,0,0,0,9.86,86.47Z" transform="translate(9.37 -0.67)"/><path class="cls-6" d="M46.31,70.67C48.43,81,56,92.25,59.27,96.84c-.4-1.78-.84-3.63-1.32-5.51-3.67-5.67-8.48-14.21-9.83-21.84-1.2-6.78-.15-11.38,1.06-14.17q-.4-1.41-.79-2.85C46.8,55.07,44.74,60.23,46,68.67Z" transform="translate(9.37 -0.67)"/><path class="cls-6" d="M20.74,70.67C18.43,81.92,9.68,94.3,7,97.92q.56-2.54,1.22-5.23c3.74-5.59,9.26-14.93,10.72-23.2,1.5-8.49-.53-13.58-2-16,.27-.74.54-1.52.82-2.33,1.5,1.88,4.78,7.31,3.29,17.46Z" transform="translate(9.37 -0.67)"/><circle class="cls-7" cx="42.96" cy="93.5" r="1.67"/><circle class="cls-7" cx="42.96" cy="101.25" r="1.67"/><circle class="cls-7" cx="42.96" cy="109" r="1.67"/></g><path class="cls-8" d="M34.58,10.08c-3.89,0-4.29-1.64-4.33-1.83a.5.5,0,0,1,1-.2c0,.06.41,1,3.34,1,2.31,0,2.89-.54,2.92-.73a.48.48,0,0,1,.43-.54.52.52,0,0,1,.56.45,1.12,1.12,0,0,1-.31.86C37.63,9.76,36.42,10.08,34.58,10.08Z" transform="translate(9.37 -0.67)"/><path class="cls-9" d="M42.76.94a10.34,10.34,0,0,0-.1,1.36c0,6.6,6.25,12,14,12a15.4,15.4,0,0,0,8.73-2.64C63.46,4.44,54.72,1.72,42.76.94Z" transform="translate(9.37 -0.67)"/><path class="cls-10" d="M1.88,11.37A15.32,15.32,0,0,0,11,14.25c7.71,0,14-5.35,14-12a10.34,10.34,0,0,0-.1-1.38C12.78,1.65,3.94,4.3,1.88,11.37Z" transform="translate(9.37 -0.67)"/><path class="cls-8" d="M24.82.91C18.55,1.3,13.17,2.21,9.14,4a12.48,12.48,0,0,0,6.34,9.62C21,12,24.92,7.54,24.92,2.29A10.34,10.34,0,0,0,24.82.91Z" transform="translate(9.37 -0.67)"/><path class="cls-8" d="M65.36,11.61c-1.54-5.82-7.59-8.71-16.2-10a11.83,11.83,0,0,0-.07,1.31,12.54,12.54,0,0,0,7.68,11.33A15.38,15.38,0,0,0,65.36,11.61Z" transform="translate(9.37 -0.67)"/><ellipse class="cls-11" cx="67.41" cy="6.12" rx="1.79" ry="1.66"/><ellipse class="cls-11" cx="29.33" cy="4.87" rx="1.79" ry="1.66"/></svg>