<svg id="loop" xmlns="http://www.w3.org/2000/svg" viewBox="0 0 89.33 133.07"><defs><style>.cls-1,.cls-7{fill:#fff;}.cls-2{fill:#172c2d;}.cls-3{fill:#3c4444;}.cls-4,.cls-5,.cls-6,.cls-8,.cls-9{fill:none;}.cls-4,.cls-5,.cls-6{stroke:#4c4e51;}.cls-4,.cls-6,.cls-7,.cls-9{stroke-miterlimit:10;}.cls-5,.cls-7,.cls-8{stroke-linecap:round;}.cls-5,.cls-8{stroke-linejoin:round;}.cls-6,.cls-9{stroke-width:2px;}.cls-7,.cls-8{stroke:#818284;stroke-width:3px;}.cls-9{stroke:#a7a9ac;}.cls-10{fill:#f58323;}</style></defs><title>loopShoe</title><path class="cls-1" d="M55.78.75c-4.44,0-38.36,7-20.29,82.37H56.81l19.29,1C94.17,8.75,60.56.75,56.27.75h-.49Z" transform="translate(-3.68 -0.75)"/><path class="cls-2" d="M55.42,3.76c-4.34.59-23.6,5.19-23.6,39.92C31.82,77,36.71,75,35.56,92c-1.13,16.71,1.93,41,19.86,41.76v0l.43,0,.43,0v0c17.93-.76,21-25,19.86-41.76C75,75,79.88,82.82,79.88,43.68c0-34.73-19.26-39.33-23.6-39.92h-.86Z" transform="translate(-3.68 -0.75)"/><path class="cls-3" d="M56.27,129.37c5.89,0,11.61-3.17,14.09-15.92a37.93,37.93,0,0,0-3.3-23.3h-22a37.93,37.93,0,0,0-3.3,23.3c2.48,12.75,8.2,15.92,14.09,15.92" transform="translate(-3.68 -0.75)"/><path class="cls-2" d="M50.76,67.63l-.37,9.66L43.66,93.51s11.23,7.93,25.68,0L61.05,77V67.63S57.14,63.48,50.76,67.63Z" transform="translate(-3.68 -0.75)"/><path class="cls-4" d="M69.56,117.75a34.35,34.35,0,0,0-2-27.6l-4.59-8.79A15.52,15.52,0,0,1,61.05,74V67.63s-4.31-4-10.3,0V74a15.52,15.52,0,0,1-1.87,7.39l-4.37,10a38.34,38.34,0,0,0-2.33,24.14c1.68,7.09,5.45,13.84,13.67,13.84C63.21,129.37,67.29,124,69.56,117.75Z" transform="translate(-3.68 -0.75)"/><path class="cls-1" d="M33.36,26S38.13,3.57,56.1,3.57C70.18,3.57,76.82,20.4,77.77,26H70.42a33.34,33.34,0,0,1-3.66-.2c-2.65-.29-7.59-.8-10-.8s-6.51.49-8.81.78a26.54,26.54,0,0,1-3.36.22H33.36Z" transform="translate(-3.68 -0.75)"/><path class="cls-5" d="M50.66,68.45S49,41.7,44.37,35.7A45.86,45.86,0,0,0,33.93,26S40.78,3.76,55.42,3.76,77.64,26.08,77.64,26.08A44.94,44.94,0,0,0,67.34,35.7c-4.59,6-6.29,32.75-6.29,32.75" transform="translate(-3.68 -0.75)"/><circle class="cls-6" cx="39.98" cy="62.24" r="2.47"/><circle class="cls-6" cx="38.62" cy="50.23" r="2.47"/><circle class="cls-6" cx="65.06" cy="62.24" r="2.47"/><line class="cls-7" x1="40.59" y1="62.24" x2="65.67" y2="76.27"/><line class="cls-7" x1="64.89" y1="61.95" x2="40.15" y2="76.56"/><circle class="cls-6" cx="66.42" cy="50.23" r="2.47"/><polyline class="cls-8" points="64.89 61.95 38.62 50.23 66.42 50.23 40.59 62.24"/><circle class="cls-9" cx="40.23" cy="77.08" r="2.47"/><circle class="cls-9" cx="64.86" cy="77.08" r="2.47"/><path class="cls-1" d="M28.73,73.25c5.83-4.09,13.86-5.86,20.15-2.52a6.07,6.07,0,0,0-2.63,2c-2.35-1.77-5.63-1.64-8.47-.88C28.92,74.26,15.89,87.84,11.1,95.66c-.86,1.4-2,3-3.62,3-1.87,0,1.46-4.11,1.66-4.34,1.45-1.64,2.55-3.73,3.87-5.49C15.68,85.32,25.08,75.81,28.73,73.25Z" transform="translate(-3.68 -0.75)"/><path class="cls-1" d="M64.1,74c.69.18,1.23,1,1.59,1.65a16.88,16.88,0,0,0,2.77,3.52,1.31,1.31,0,0,0,1.8-.61A2.23,2.23,0,0,0,70,76.47a8.75,8.75,0,0,0-1.42-1.61c-.89-.89-2.15-2.63-3.09-3.38C65.3,71.7,63.79,73.93,64.1,74Z" transform="translate(-3.68 -0.75)"/><path class="cls-10" d="M48.27,70.92c2.66-1.38,6.12-1.89,8.54-.12l-2.69,1.71a2.1,2.1,0,0,0-2-.46,12.5,12.5,0,0,0-2.8,1.82,17,17,0,0,0-3.57,3.8c-1.55,2-4.06,1.48-3.07-1.22C43.53,74.05,46.09,72.05,48.27,70.92Z" transform="translate(-3.68 -0.75)"/><path class="cls-10" d="M89.53,91.77a.57.57,0,0,1-.27,0,4.51,4.51,0,0,1-1.61-.92c-1.6-2.67-4.6-5.38-5.48-8.37-2.35-7.93.54-16.06,1-24,.29-5.34-1.8-11.44-8.07-11.58-3.61-.08-8.26,2.37-9.84,5.48-3,5.9,2.51,12.57.57,18.7A6.17,6.17,0,0,1,63,74.76c-2.1,1.08-4.65.21-6.74-.89.83-1.08,2.31-1.37,3.64-1.63s2.82-.67,3.5-1.85a4.29,4.29,0,0,0,.4-2.34q0-.33,0-.66c-.39-4.45-2.48-8.78-1.87-13.2,1.19-8.63,12.15-12.6,19.1-7.86,2.73,1.86,3.8,4.79,4.47,8,.81,3.94-.2,8.29-.89,12.15-.76,4.29-1.72,9.36-.81,13.63.86,4,3.9,7.28,6.93,10.21a.8.8,0,0,1-.45,1.36Z" transform="translate(-3.68 -0.75)"/><path class="cls-1" d="M54.72,74.81c1.16-.52,2.1-1.44,3.23-2a4,4,0,0,1,2.18-.47,3.08,3.08,0,0,0,3.24-1.82l0-.11c-1.57-1.24-4.63-1.48-6.21-.24-4.81,3.8-6,2.34-6,2.34L50,73.34l-.13.1-1.5,1.22S53.39,75.41,54.72,74.81Z" transform="translate(-3.68 -0.75)"/><polygon class="cls-10" points="84.48 89.91 88.31 95.87 89.33 94.26 86.02 89.4 84.48 89.91"/><polygon class="cls-1" points="5.66 94.31 0 100.64 2.83 102.4 6.46 95.12 5.66 94.31"/></svg>