<?xml version="1.0" encoding="utf-8"?>
<!-- Generator: Adobe Illustrator 20.0.0, SVG Export Plug-In . SVG Version: 6.00 Build 0)  -->
<svg version="1.1" id="trafficLight_off" xmlns="http://www.w3.org/2000/svg" xmlns:xlink="http://www.w3.org/1999/xlink" x="0px"
	 y="0px" viewBox="0 0 76.1 242.9" style="enable-background:new 0 0 76.1 242.9;" xml:space="preserve">
<style type="text/css">
	.st0{fill:#637377;}
	.st1{fill:#263235;}
	.st2{fill:#879599;}
	.st3{fill:#30240E;}
	.st4{fill:#C43130;}
	.st5{fill:#35474C;}
	.st6{fill:#EDDB35;}
	.st7{fill:#D4AE26;}
	.st8{fill:#A2BF28;}
	.st9{fill:#8FAB20;}
</style>
<title>trafficLight_offAlt</title>
<path class="st0" d="M4.1,16.3L4.1,16.3c0-3.7,2.5-7,6.1-8l28.3-8c1.9-0.5,3.9-0.4,5.8,0.5l17.4,8c3.2,1.5,5.1,4.8,4.8,8.3L66,22.5
	L4.1,16.3z"/>
<path class="st1" d="M39.9,9.1c0,0,3.6-0.7,2.6-5.4l19.2,7.5c0,0,4.8,1.9,4.8,4.8L39.9,9.1z"/>
<path class="st2" d="M31.1,157.3l1.4,81.6c0,2.2,1.8,3.9,4,3.9l0,0c2.2,0,4-1.7,4.1-3.9c0,0,0,0,0,0l-0.5-82.4L31.1,157.3z"/>
<polygon class="st0" points="4,15.6 10.9,166.1 38.5,170.6 41.8,8 "/>
<polygon class="st1" points="41.8,8 66.5,16 58.3,163 38.5,170.6 "/>
<path class="st2" d="M14.2,52.2c0,0-14.7-1.8-14.2-14.2s20.2-13.4,29.9-4.2s4.8,22.4,4.8,22.4l-1.3,0.1L14.2,52.2z"/>
<path class="st3" d="M13.6,53.7C8.1,51.6,4.3,46.4,4,40.5C3.2,27.2,24,29.4,31,38c4,5.1,5.4,11.9,3.6,18.2l-2,0.2L13.6,53.7z"/>
<path class="st4" d="M32.9,43.6c4.4,8.2,1.9,17.8-4.9,21.4c-6.8,3.6-15.8-0.1-20.2-8.4s-2.4-17.8,4.4-21.4S28.5,35.3,32.9,43.6z"/>
<path class="st5" d="M44.1,57.8c0,0-3.6-20.1,9.9-24.6c9.8-3.2,17.3-0.7,20.6,0.9c1.2,0.6,1.8,2.1,1.1,3.4l0,0
	c-1.2,2.3-4,6.3-11,11.5L44.1,57.8z"/>
<path class="st3" d="M44.1,57.8c0,0,2.9-22.8,27.1-21.7c3,0.3-1.4,9.8-11.2,15.6S44.1,57.8,44.1,57.8z"/>
<path class="st4" d="M66.9,36.5c0,0-9.6-1.2-17.8,9.2s-4.2,19.2-1,20.7S68.8,61.2,66.9,36.5z"/>
<path class="st2" d="M18.6,102.6c0,0-11-1.4-10.7-10.6c0.4-9.2,15.7-10,22.9-3.2s2.8,16.8,2.8,16.8l-0.7,0.1L18.6,102.6z"/>
<path class="st3" d="M18.1,103.7c-4.1-1.6-7-5.4-7.2-9.8c-0.6-10,15.5-8.4,20.8-1.9c5.1,6.3,2,13.6,2,13.6l-1.3,0.1L18.1,103.7z"/>
<path class="st6" d="M32.6,96.2c3.2,6.1,1.3,13.2-3.9,15.9s-12,0-15.2-6.1S11.8,92.7,17,90S29.4,90.1,32.6,96.2z"/>
<path class="st5" d="M43.5,107.2c0,0-3.3-14.7,9.5-20c5.5-1.5,11.3-1.9,16.1,1.6c0.9,0.6,1.3,1.8,0.7,2.7l0,0
	c-1.1,1.8-3.5,4.7-9.4,8.5L43.5,107.2z"/>
<path class="st3" d="M43.6,105.8c0,0,3.6-17.9,22.7-15.6c2.3,0.4-1.7,7.7-9.7,11.7S43.6,105.8,43.6,105.8z"/>
<path class="st7" d="M62.8,90.2c0,0-7.6-1.5-14.7,6.3s-4.4,15-1.9,16.3S62.9,109.8,62.8,90.2z"/>
<path class="st2" d="M20.8,146.3c0,0-10.5-1.3-10.2-10.1s15-9.5,21.9-3c6.9,6.6,2.6,16,2.6,16l-0.6,0.1L20.8,146.3z"/>
<path class="st3" d="M20.4,147.3c-4-1.5-6.7-5.2-6.9-9.4c-0.6-9.5,14.9-8,19.9-1.8c4.9,6.1,1.8,13,1.8,13l-1.2,0.1L20.4,147.3z"/>
<path class="st8" d="M34.3,140c3.2,6,1.3,13.4-3.7,16.1S19,156,15.9,150s-1.7-13,3.3-15.7S31.1,134,34.3,140z"/>
<path class="st5" d="M44.8,155.3c0,0-8.7-11.7,6.1-22.1c4.8-1.8,9.4-1.8,14.1,0.3c0.9,0.4,1.3,1.5,0.8,2.4c0,0,0,0,0,0l0,0
	c-0.8,1.6-2.8,4.5-7.8,8.3L44.8,155.3z"/>
<path class="st3" d="M43.5,150.6c0,0,1.9-16.3,19.1-15.7c2.1,0.2-0.9,7-7.8,11.2S43.5,150.6,43.5,150.6z"/>
<path class="st9" d="M59.5,135.2c0,0-6.9-0.8-12.6,6.7s-2.9,13.7-0.5,14.7S61.1,152.8,59.5,135.2z"/>
<path class="st0" d="M64.3,31.7c0,0-20-2-20.8,18.4C43.6,50.1,46.5,34.8,64.3,31.7z"/>
<path class="st0" d="M62.8,86.4c0,0-17.3-3.3-19.6,14.5C43.1,100.9,46.9,87.7,62.8,86.4z"/>
<path class="st0" d="M57.5,131.8c0,0-15.8-0.2-15.1,16.8C42.4,148.6,42.9,135.7,57.5,131.8z"/>
<path class="st2" d="M5.9,14.5c0,0,0.5-3.1,6.3-4.5c6-1.4,24.7-6.9,26-7.1c0.2-0.1,0.5,0,0.6,0.3c0,0.1,0,0.1,0,0.2
	c0,1.2-0.7,2.3-1.8,2.7c-3.2,1.4-6.6,2.5-10,3.3c-3.6,1-7.2,1.9-10.9,2.8c-2.8,0.7-5.6,1.3-8.3,1.9L5.9,14.5z"/>
</svg>
