<svg id="crosswalk" xmlns="http://www.w3.org/2000/svg" viewBox="0 0 1160.42 148"><defs><style>.cls-1{fill:#fff;}.cls-2{fill:none;stroke:#fff;stroke-linecap:round;stroke-linejoin:round;stroke-width:2px;}</style></defs><title>crosswalk</title><polygon class="cls-1" points="351 1 223.33 88.33 299.67 88.33 401.67 1 351 1"/><polygon class="cls-1" points="314.98 88.33 410.4 1 461.07 1 391.31 88.33 314.98 88.33"/><polygon class="cls-1" points="406.62 88.33 469.81 1 521.48 1 482.95 88.33 406.62 88.33"/><polygon class="cls-1" points="498.26 88.33 529.21 1 574.88 1 571.6 88.33 498.26 88.33"/><polygon class="cls-1" points="587.07 88.33 583.79 1 629.45 1 660.4 88.33 587.07 88.33"/><polygon class="cls-1" points="675.71 88.33 637.19 1 688.86 1 752.05 88.33 675.71 88.33"/><polygon class="cls-1" points="767.36 88.33 697.6 1 748.26 1 843.69 88.33 767.36 88.33"/><polygon class="cls-1" points="807.67 1 935.33 88.33 859 88.33 757 1 807.67 1"/><polyline class="cls-2" points="1 1 331.67 1 106.33 147"/><polyline class="cls-2" points="1159.42 1 828.76 1 1054.09 147"/></svg>