<svg id="road" xmlns="http://www.w3.org/2000/svg" xmlns:xlink="http://www.w3.org/1999/xlink" viewBox="0 0 464.46 892.43"><defs><style>.cls-1,.cls-4{fill:none;}.cls-2{clip-path:url(#clip-path);}.cls-3{fill:#818284;}.cls-4{stroke:#fff;stroke-miterlimit:10;stroke-width:8px;stroke-dasharray:24 50;}.cls-4,.cls-5{opacity:0.5;}.cls-5{fill:#fff;}</style><clipPath id="clip-path" transform="translate(-1 42.8)"><path class="cls-1" d="M272,324.25A391.2,391.2,0,0,0,229,346V0H1V768H229V637.33c10.88-31.71,26.59-63,49.27-88.73,42.17-47.91,103.4-71.2,187.19-71.2v-190C393.81,287.4,328.72,299.8,272,324.25Z"/></clipPath></defs><title>road</title><g class="cls-2"><path class="cls-3" d="M272,324.25A391.2,391.2,0,0,0,229,346V-10.9H1V768H229V637.33c10.88-31.71,26.59-63,49.27-88.73,42.17-47.91,103.4-71.2,187.19-71.2v-190C393.81,287.4,328.72,299.8,272,324.25Z" transform="translate(-1 42.8)"/><path class="cls-4" d="M126.94,648C158.37,520.13,243.7,382.4,465.46,382.4" transform="translate(-1 42.8)"/><line class="cls-4" x1="117.46" x2="117.46" y2="892.43"/><rect class="cls-3" x="89.15" y="623.14" width="67" height="77.57"/><path class="cls-5" d="M115,613v35h9s3-18,11.27-31.53L128,613a44.19,44.19,0,0,0-4,8.34V613h-9Z" transform="translate(-1 42.8)"/></g></svg>