<?xml version="1.0" encoding="utf-8"?>
<!-- Generator: Adobe Illustrator 19.2.1, SVG Export Plug-In . SVG Version: 6.00 Build 0)  -->
<svg version="1.1" id="truck" xmlns="http://www.w3.org/2000/svg" xmlns:xlink="http://www.w3.org/1999/xlink" x="0px" y="0px"
	 viewBox="0 0 91.1 207.1" style="enable-background:new 0 0 91.1 207.1;" xml:space="preserve">
<style type="text/css">
	.st0{fill:#FFCE00;}
	.st1{fill:#53B7B4;}
	.st2{fill:none;stroke:#D3AE11;stroke-width:2;stroke-miterlimit:10;}
	.st3{fill:#F7FF73;}
	.st4{fill:#292B2D;}
	.st5{fill:#DDE4ED;}
	.st6{fill:#BCBEC1;}
	.st7{fill:none;stroke:#BCBEC1;stroke-width:2;stroke-miterlimit:10;}
</style>
<title>truck</title>
<path class="st0" d="M10,44.8h70.1L79.7,5.3c0-3-2.4-5.3-5.4-5.3H15.6c-3,0-5.4,2.4-5.4,5.4L10,44.8z"/>
<path class="st0" d="M59.1,122.2l-0.8,0.2c-8.8,1.8-17.8,1.7-26.5-0.2l0,0c-6.5,0-11.8-4.5-15.5-9.1c-4.1-5.1-6.3-11.5-6.3-18v-48
	C10,27.7,25.7,2.5,45,2.5l0,0c19.4,0,35.1,25.2,35.1,44.6v48.6c0,6-1.9,11.9-5.4,16.8C71.1,117.3,65.8,122.2,59.1,122.2z"/>
<path class="st1" d="M25.8,52.4l0.8-0.2c15.1-4,22.6-3.9,37.6,0.2l0,0l8.4-18.8l0,0c-9.5-7.9-45.1-7.9-54.3,0l0,0L25.8,52.4z"/>
<polygon class="st1" points="68.4,54.4 68.4,58.2 75.9,58.3 75.9,36 "/>
<polygon class="st1" points="22,54.4 22,58.2 14.5,58.3 14.5,36 "/>
<line class="st2" x1="34.3" y1="4" x2="55.8" y2="4"/>
<line class="st2" x1="34.3" y1="8" x2="55.8" y2="8"/>
<path class="st3" d="M15,2.5h16.8l0,0l0,0c0,2.1-1.7,3.8-3.8,3.8c0,0,0,0,0,0h-9.2C16.7,6.3,15,4.6,15,2.5L15,2.5L15,2.5z"/>
<path class="st3" d="M58.7,2.5h16.8l0,0l0,0c0,2.1-1.7,3.8-3.8,3.8l0,0h-9.2C60.4,6.3,58.7,4.6,58.7,2.5C58.7,2.5,58.7,2.5,58.7,2.5
	L58.7,2.5C58.7,2.5,58.7,2.5,58.7,2.5z"/>
<path class="st4" d="M6.6,32.5h3.9c2.2,0,4,1.8,4,4V40l0,0H0l0,0v-0.9C0,35.5,2.9,32.5,6.6,32.5z"/>
<path class="st4" d="M4.1,198.9h82.7l0,0v6.1c0,1.2-0.9,2.1-2.1,2.1H6.2c-1.2,0-2.1-0.9-2.1-2.1V198.9L4.1,198.9z"/>
<path class="st4" d="M90.4,40H75.9l0,0v-3.5c0-2.2,1.8-4,4-4h3.9c3.6,0,6.6,2.9,6.6,6.6V40L90.4,40L90.4,40z"/>
<path class="st5" d="M5.6,66.5h80c3,0,5.5,2.5,5.5,5.5v129.9l0,0h-91l0,0V72C0.1,69,2.6,66.5,5.6,66.5z"/>
<path class="st5" d="M24.6,60.3h42c7.7,0,13.9,6.2,13.9,13.9v78.4c0,7.7-6.2,13.9-13.9,13.9h-42c-7.7,0-13.9-6.2-13.9-13.9V74.2
	C10.7,66.5,16.9,60.3,24.6,60.3z"/>
<path class="st2" d="M18.3,27.6c0,0,1.7-15.6,15.6-15.6V2"/>
<path class="st2" d="M71.4,27.6c0,0-1.8-15.6-15.6-15.6V2"/>
<path class="st6" d="M8.6,194.4h73.6c2.5,0,4.5,2,4.5,4.5l0,0l0,0H4.1l0,0l0,0C4.1,196.4,6.2,194.4,8.6,194.4z"/>
<polyline class="st7" points="4.1,189.6 4.1,98.6 86.8,98.6 86.8,188.6 "/>
</svg>
