<svg xmlns="http://www.w3.org/2000/svg" viewBox="0 0 463 368"><defs><style>.cls-1{isolation:isolate;}.cls-2{fill:#a66327;}.cls-3{fill:#663712;}.cls-4{fill:#65c13e;}.cls-5,.cls-8,.cls-9{fill:#d8823a;}.cls-6{fill:#895021;}.cls-7{fill:#853f13;mix-blend-mode:multiply;}.cls-10,.cls-7,.cls-8{opacity:0.5;}.cls-8,.cls-9{mix-blend-mode:screen;}.cls-9{opacity:0.4;}.cls-10{fill:#275116;}.cls-11{fill:#a7e557;}.cls-12{fill:#a0ba2c;}.cls-13{fill:#79891b;}</style></defs><title>worldBuilding_island</title><g class="cls-1"><g id="world"><polygon class="cls-2" points="0 113.44 12 217.44 27 237.44 41 243.94 50 230.44 56 225.44 62 236.44 62 274.44 69 294.44 82 317.44 100 324.44 166 347.44 177 347.44 214 323.44 231.5 294.44 259 256.44 269 255.44 270 263.44 285.58 268.08 309.18 249.94 333 230.44 339 208.44 339 189.44 402 151.44 430 126.44 444 104.44 455 84.44 463 74 463 62.95 373 62.95 0 113.44"/><polygon class="cls-3" points="168 243.94 173.5 278.44 173.5 306.44 166 368 190 355.59 214 323.44 214 281.44 203.5 250.44 206.5 205.19 168 243.94"/><path class="cls-4" d="M137.5,59L1,114.45l168,130.5,95-59h0a14.75,14.75,0,0,0,19.61,3.92L313,171.95s13-5,20-28l131-80L336,10.54,212.32,59.42Z" transform="translate(-1 -1)"/><path class="cls-5" d="M1,114.45l12,104,15,20s3.5-46,0-49,1.56-52.82,1.56-52.82Z" transform="translate(-1 -1)"/><polygon class="cls-5" points="68.4 166.58 62 236.44 62 274.44 69 294.44 82 317.44 109.5 276.32 100.81 191.75 68.4 166.58"/><polygon class="cls-6" points="82 317.44 109.5 276.32 122.82 332.4 82 317.44"/><polygon class="cls-5" points="131.29 215.43 122.82 276.32 122.82 352.95 166 368 173.5 306.44 173.5 278.44 168 243.94 131.29 215.43"/><polygon class="cls-2" points="100.81 191.75 85.75 243.94 82 317.44 109.5 276.32 100.81 191.75"/><path class="cls-3" d="M101.81,192.76l8.69,84.57,13.32,56.08s-1.09-58,0-61,8.47-56,8.47-56Z" transform="translate(-1 -1)"/><polygon class="cls-5" points="263 184.94 263 215.43 270.5 232.44 275.5 191.75 263 184.94"/><polygon class="cls-5" points="270.5 232.44 275.5 248.44 285.58 268.08 270 263.44 269 255.44 263 237.44 263 208.69 270.5 232.44"/><polygon class="cls-3" points="332 142.94 339 189.44 359.3 177.2 371.67 118.72 332 142.94"/><polygon class="cls-5" points="299.18 257.38 287.26 228.86 293.22 205.19 309.18 197.88 298.22 208.88 298.22 228.86 307.18 260.38 299.18 257.38"/><polygon class="cls-3" points="263 184.94 241.88 198.06 247.5 236.07 259 256.44 269 255.44 263 237.44 263 184.94"/><polygon class="cls-6" points="205.47 220.69 241.88 198.06 247.5 236.07 259 256.44 214 323.44 212.26 276.32 203.5 250.44 205.47 220.69"/><polygon class="cls-6" points="371.67 118.72 463 62.95 463 74 455 84.44 430 126.44 402 151.44 385.19 161.59 371.67 118.72"/><polygon class="cls-3" points="68.4 166.58 52.31 154.08 56 225.44 62 236.44 68.4 166.58"/><polygon class="cls-7" points="339.27 188.96 344.5 166.58 362.6 161.59 382.82 154.08 403.5 134.44 421.5 113.44 449.5 94.44 463 74 417.33 106.44 398.3 126.44 365.55 147.67 334.64 160.49 339.27 188.96"/><polygon class="cls-7" points="262.5 228.94 246.25 227.63 207.9 263.44 173.5 278.44 173.5 306.44 212.78 290.44 250.88 242.06 265.76 245.74 263 237.44 262.5 228.94"/><polygon class="cls-8" points="173.5 278.44 125.84 254.6 109.5 242.01 85.75 243.94 63.92 215.43 62 247.3 84.1 276.32 109.5 263.44 122.82 276.32 173.5 306.44 173.5 278.44"/><polygon class="cls-8" points="53.3 173.1 25.8 175.44 4.69 154.08 7.15 175.44 28.56 191.75 54.18 190.22 53.3 173.1"/><polygon class="cls-2" points="307.18 260.38 329.83 239.44 319.5 200.44 309.18 197.88 298.22 208.88 298.22 228.86 307.18 260.38"/><polygon class="cls-9" points="265.76 245.74 272.88 238.85 294.21 236.07 300.99 236.07 339.27 188.96 334.64 160.49 332 184.44 319.5 200.44 297.5 219.94 274.29 220.69 262.5 228.94 263 237.44 265.76 245.74"/><polygon class="cls-10" points="275.5 79.67 321.87 59.75 360.03 77.92 336.26 91.35 275.5 79.67"/><polygon class="cls-5" points="263.31 62.48 263.31 94.75 297.13 113.01 336.26 91.35 336.26 64.82 263.31 62.48"/><polygon class="cls-3" points="303.71 73 299.78 96.15 299.78 103.95 297.13 113.01 318.61 102.12 336.26 91.35 336.45 70.28 330.52 65.76 303.71 73"/><polygon class="cls-11" points="302.66 77.63 299.78 65.76 289.85 74.83 291.55 86.96 294.83 80.89 297.63 90.78 302.13 84.69 303.52 94.75 306.93 84.24 309.01 93.66 312.6 81.19 314.87 89.14 317.58 72.3 302.66 77.63"/><polygon class="cls-12" points="336.26 64.82 338.32 65.76 336.26 81.19 333.95 69.34 332.08 77.76 330.52 65.76 336.26 64.82"/><polygon class="cls-11" points="295.11 50.32 263.31 62.48 303.52 81.19 336.26 64.82 295.11 50.32"/><polygon class="cls-13" points="313.53 73 307.22 74.41 302.19 77.92 302.13 84.69 303.52 94.75 306.93 84.24 309.01 93.66 312.6 81.19 314.87 89.14 317.58 72.3 313.53 73"/><polygon class="cls-13" points="317.58 72.3 330.52 65.76 338.32 65.76 336.26 81.19 333.95 69.34 332.08 77.76 330.52 68.8 315.17 76.51 317.58 72.3"/><polygon class="cls-13" points="302.19 77.92 300.79 80.83 299.87 87.75 303.71 83.53 302.19 77.92"/><polygon class="cls-10" points="187.01 58.42 251.2 89.38 193.3 116.58 139 94.63 128.83 58.42 187.01 58.42"/><polygon class="cls-5" points="27.43 64.34 32.18 100.16 116.05 151.94 204.22 111.58 204.68 81.22 107.68 90.16 27.43 64.34"/><polygon class="cls-11" points="107.68 42.75 27.43 64.34 115.18 116.58 204.68 81.22 107.68 42.75"/><polygon class="cls-3" points="115.18 116.58 116.05 151.94 204.22 111.58 204.68 81.22 115.18 116.58"/><polygon class="cls-10" points="351.83 33 340.32 40.15 381.62 62.4 420.43 45.23 395.93 34.96 351.83 33"/><polygon class="cls-5" points="340.48 13 340.48 39 383.48 62 418.48 46 418.48 15.5 340.48 13"/><polygon class="cls-3" points="383.69 24.25 379.48 49 379.48 57.33 383.48 62 418.48 46 418.68 21.33 412.35 16.5 383.69 24.25"/><polygon class="cls-11" points="382.56 29.2 379.48 16.5 368.86 26.2 370.68 39.17 374.18 32.69 377.18 43.25 381.99 36.74 383.48 47.5 387.13 36.26 389.35 46.33 393.18 33 395.61 41.5 398.52 23.5 382.56 29.2"/><polygon class="cls-12" points="418.48 15.5 420.68 16.5 418.48 33 416.02 20.33 414.02 29.33 412.35 16.5 418.48 15.5"/><polygon class="cls-11" points="374.48 0 340.48 13 383.48 33 418.48 15.5 374.48 0"/><polygon class="cls-13" points="394.18 24.25 387.43 25.75 382.06 29.5 381.99 36.74 383.48 47.5 387.13 36.26 389.35 46.33 393.18 33 395.61 41.5 398.52 23.5 394.18 24.25"/><polygon class="cls-13" points="398.52 23.5 412.35 16.5 420.68 16.5 418.48 33 416.02 20.33 414.02 29.33 412.35 19.75 395.93 28 398.52 23.5"/><polygon class="cls-13" points="382.06 29.5 380.56 32.62 379.57 40.01 383.69 35.5 382.06 29.5"/><polygon class="cls-13" points="115.18 116.58 116.05 136.59 120.5 121.09 125.06 136.59 128.83 116.58 131.29 125.14 134.44 112.27 138.62 124.43 145.03 108.14 151.95 113.44 159.93 101.09 169.03 101.09 176.19 92.48 115.18 116.58"/><polygon class="cls-11" points="93.97 103.96 95.75 114.53 98.99 109.25 103.83 125.14 107.65 116.58 107.65 134.09 111.23 119.02 116.05 136.59 115.18 116.58 93.97 103.96"/><polygon class="cls-11" points="0 113.44 131.29 215.43 168 243.94 263 184.94 228.84 198.06 241.88 184.94 219.63 191.75 224 184.94 214 187.89 214 181.65 199.33 184.77 228.84 169.57 173.5 184.77 196 172.92 153.33 180.51 173.5 172.92 131.5 178.69 145.68 172.92 122.82 172.92 142.66 166.58 115.18 170.24 134.66 160.49 115.18 163.71 128.83 154.08 109.5 157.18 116.05 151.94 32.18 100.16 0 113.44"/><polygon class="cls-11" points="131.5 251.24 131.29 215.43 132.82 213.31 168.32 240.69 166 264.24 163.66 247.24 161.66 260.38 159.93 283.9 157.66 254.6 157.66 243.94 155.66 247.24 154.33 272.24 149.64 247.9 149.64 239.9 145.68 246.9 144.33 260.94 140.66 232.44 138 243.94 135 229.13 131.5 251.24"/><polygon class="cls-13" points="168 243.94 171.12 263.5 173.5 245.74 176.19 260.94 178.33 242.01 181.33 249.66 183.11 234.56 168 243.94"/><polygon class="cls-11" points="263 184.94 263.31 205.19 265.76 191.75 269 209.57 269.25 193.82 273.85 205.19 275.5 191.01 263 184.94"/><polygon class="cls-13" points="273.85 205.19 279.25 191.75 282 201.32 283.5 191.75 285.58 197.26 287.26 188.96 289 191.75 289.85 184.45 275.5 191.01 273.85 205.19"/></g></g></svg>