<svg id="grass" xmlns="http://www.w3.org/2000/svg" viewBox="0 0 865.25 282.81"><defs><style>.cls-1{fill:#45aa1f;}.cls-2{fill:#397f18;}.cls-3{fill:#275116;}.cls-4{fill:#65c13e;}.cls-5{fill:#a7e557;}.cls-6{fill:#6b3e10;}.cls-7{fill:#e2a350;}.cls-8{fill:#a36d31;}.cls-9{fill:#f2b46b;}.cls-10{fill:#3a2d27;}.cls-11{fill:#453730;}.cls-12{fill:#4f4039;}.cls-13{fill:#5a4a42;}.cls-14{fill:#c98b41;}.cls-15{fill:#fcc97c;}.cls-16{fill:#fff;}.cls-17{fill:#ed571d;}.cls-18{fill:#edd91d;}.cls-19{fill:#ffd503;}.cls-20{fill:#eaeaea;}.cls-21{fill:#c6441c;}</style></defs><title>flowerBed</title><path class="cls-1" d="M866.25,49.24l-423-9L1,185.65l144.38,38.93c63.6,17.15,125.81,42.38,191,52.8a508.26,508.26,0,0,0,202.83-8.45q2.81-.7,5.6-1.43c73.24-19.22,140.61-56.22,197-106.75Z" transform="translate(-1 -1)"/><polygon class="cls-2" points="773.88 79.4 809.68 80.89 576.35 233.81 514.76 228.31 773.88 79.4"/><path class="cls-2" d="M357.86,220.91l68.32-11.71s29.53,2.4,28.42,4.22-21,14.43-21,14.43l-16.31,19.58Z" transform="translate(-1 -1)"/><polygon class="cls-2" points="675.2 148.23 704.99 148.23 695.31 142.05 675.2 148.23"/><polygon class="cls-2" points="728.26 142.49 752.61 142.49 740.61 138.7 728.26 142.49"/><polygon class="cls-2" points="640.96 185.32 686.4 187.53 667.63 180.29 640.96 185.32"/><polygon class="cls-2" points="622.88 208.43 666.25 205.7 646.14 198.56 622.88 208.43"/><path class="cls-3" d="M459,59.86c-2.08-3.41-9.17-2.26-15.75.38h0L175.51,183.54l334.33,37.82,10.93,9.58,8.57,1.25L792.49,82.1Z" transform="translate(-1 -1)"/><polygon class="cls-2" points="674.95 182.45 703.84 182.53 694.46 176.51 674.95 182.45"/><polygon class="cls-2" points="694.1 162.79 731.59 160.43 714.21 154.25 694.1 162.79"/><polygon class="cls-4" points="517.83 239.95 486.74 236.03 438.06 244.46 517.83 239.95"/><polygon class="cls-4" points="484.63 229.87 454.56 223.4 430.36 234.1 484.63 229.87"/><polygon class="cls-2" points="634.54 219.46 623.79 214.33 595.38 219.46 634.54 219.46"/><polygon class="cls-4" points="296.36 231.84 281.61 224.8 250.67 231.84 296.36 231.84"/><polygon class="cls-4" points="528.53 246.82 501.61 241.03 479.94 250.61 528.53 246.82"/><polygon class="cls-5" points="492.61 266.23 470.41 262.65 442.81 266.23 492.61 266.23"/><polygon class="cls-4" points="372.4 187.62 337.67 183.24 283.3 192.66 372.4 187.62"/><polygon class="cls-4" points="288.59 200.78 258.52 194.3 234.32 205.01 288.59 200.78"/><polygon class="cls-5" points="227.06 215.11 202.26 211.11 171.44 215.11 227.06 215.11"/><polygon class="cls-4" points="387.06 217.19 356.99 210.72 332.79 221.43 387.06 217.19"/><polygon class="cls-5" points="355.66 237.35 330.86 233.35 300.04 237.35 355.66 237.35"/><polygon class="cls-5" points="370.46 242.25 345.67 238.25 314.84 242.25 370.46 242.25"/><polygon class="cls-4" points="296.33 209.79 266.27 203.32 229.05 215.04 296.33 209.79"/><polygon class="cls-4" points="208.07 201.48 178 195.01 153.8 205.72 208.07 201.48"/><polygon class="cls-5" points="146.7 180.1 121.91 176.1 79.95 184.81 146.7 180.1"/><polygon class="cls-4" points="300.89 237.89 277.28 232.53 246.14 239.86 300.89 237.89"/><polygon class="cls-4" points="410.12 269.12 380.05 262.65 355.85 273.36 410.12 269.12"/><polygon class="cls-4" points="427.85 262.66 400.05 253.86 372.24 262.66 427.85 262.66"/><polygon class="cls-4" points="380.06 264.44 349.99 252.07 311.09 262.33 380.06 264.44"/><polygon class="cls-4" points="360.6 227.22 332.79 218.43 304.98 227.22 360.6 227.22"/><polygon class="cls-4" points="539.39 258.68 510.59 250.92 490.38 260.44 539.39 258.68"/><polygon class="cls-6" points="449.16 40.46 787.98 72.79 791.49 18.37 449.16 0 449.16 40.46"/><polygon class="cls-7" points="779.91 17.61 449.16 0 441.71 2.84 770.91 21.53 779.91 17.61"/><polygon class="cls-8" points="449.16 0 156.27 113.23 170.3 179.95 449.16 40.46 449.16 0"/><polygon class="cls-9" points="154.85 108.72 449.16 0 457.5 0.46 174.51 110.55 154.85 108.72"/><path class="cls-10" d="M396,46.69C404.8,31.16,428.18,22.87,460.55,22c29.07-.8,58.13,8.54,58.22,22.86s-42.51,16.09-66.72,15.75S391.13,55.19,396,46.69Z" transform="translate(-1 -1)"/><path class="cls-11" d="M323.31,73.69c5.05-17.36,37.26-29.08,72.78-30,33.31-.82,71.33,13.22,71.53,29.55s-40.87,21.91-70.95,22S319.73,86,323.31,73.69Z" transform="translate(-1 -1)"/><path class="cls-12" d="M250.7,100.68c2.1-18.81,42.3-34.34,81-35.21,37.56-.84,84.53,17.9,84.84,36.24s-39.23,27.72-75.17,28.18S248.88,117,250.7,100.68Z" transform="translate(-1 -1)"/><path class="cls-13" d="M178.15,127.66c-0.42-20.35,47.35-39.6,89.15-40.45s97.73,22.59,98.15,42.93-37.59,33.53-79.4,34.39S178.57,148,178.15,127.66Z" transform="translate(-1 -1)"/><path class="cls-10" d="M499.86,39.58C508.3,26.65,533,23.06,556.29,23c22.91-.08,63.34,7,62.18,20.87S582.86,64.79,559.59,63,495.48,46.29,499.86,39.58Z" transform="translate(-1 -1)"/><path class="cls-11" d="M421.12,65c5-15.65,53.25-22.64,82.49-20,30.89,2.79,65.25,19.84,64.91,33.6-0.39,16-37.94,18-67.39,16.62S417.6,76.13,421.12,65Z" transform="translate(-1 -1)"/><path class="cls-12" d="M342.4,90.4c2.4-18,73.39-28.65,108.55-23.4,38.86,5.79,67.27,32.66,67.64,46.34,0.49,18.15-40.28,15-75.91,14.09S340.29,106.15,342.4,90.4Z" transform="translate(-1 -1)"/><path class="cls-13" d="M263.69,115.39C263.92,95,357.22,80.8,398.3,88.58c46.81,8.87,69.37,45.47,70.37,59.07,1.5,20.3-42.62,12-84.43,11.55S263.46,135.74,263.69,115.39Z" transform="translate(-1 -1)"/><path class="cls-10" d="M582.3,49.71c35-18.85,49.78-22.24,77.3-22.34s79.56,12,79.61,25.37S685,68.3,657.52,68.4,570.51,56.05,582.3,49.71Z" transform="translate(-1 -1)"/><path class="cls-11" d="M511,79.28C531,57,569.73,51.51,602,50.43s97.94,11,98.47,26.65-65.82,24.13-98.07,25.2S502.17,89.15,511,79.28Z" transform="translate(-1 -1)"/><path class="cls-12" d="M439.79,108.87c7.52-21.22,67.69-33.31,104.67-35.37s116.33,9.94,117.33,27.94-77.48,32.69-114.46,34.74S434.48,123.87,439.79,108.87Z" transform="translate(-1 -1)"/><path class="cls-13" d="M368.73,138.45c-1.48-20.3,76.65-38.85,118.35-41.88s134.71,8.93,136.19,29.22S534.13,167,492.43,170.08,370.21,158.75,368.73,138.45Z" transform="translate(-1 -1)"/><polygon class="cls-7" points="170.3 179.95 156.27 113.23 519.78 140.59 519.78 216.95 170.3 179.95"/><path class="cls-14" d="M792.49,19.37c-4.5,1.5-271.71,122.23-271.71,122.23v89.35L789,81.79Z" transform="translate(-1 -1)"/><polygon class="cls-14" points="408.3 146.65 434.99 153.29 431.04 164.06 434.99 192.14 432.63 203.95 431.2 207.57 418.24 206.22 408.3 146.65"/><path class="cls-14" d="M532.36,169c10.71-6.08,18.57-14.41,25.69-24.32,3.81-5.31,8.87-11.55,16.25-9.65a16.37,16.37,0,0,1,9.58,7.29c1.72,3,1.47,11.82-4.55,9.21l0.51,3.93a68.6,68.6,0,0,1,15-13.18c2.69-1.75.19-6.08-2.52-4.32a73.16,73.16,0,0,0-16,14c-0.92,1.08-1.09,3.24.51,3.93,6.49,2.81,13.52-2.25,13.41-9.34-0.13-8.34-8.74-15.57-16.52-16.69-8.78-1.27-14.84,5.28-19.54,11.74-6.87,9.42-14.06,17.29-24.32,23.12-2.8,1.59-.28,5.91,2.52,4.32h0Z" transform="translate(-1 -1)"/><path class="cls-14" d="M172.67,146.94l36.43,3.37c10,0.92,17.8,1,25-6.65,3.85-4,7.53-7.78,13.47-8.18a15.73,15.73,0,0,1,14,6.81c3.71,5.49,3,13.27-4.87,13.21a14.49,14.49,0,0,1-6.79-1.61c-1.15-.68-3.55-2.39-3.47-3.9,0.21-4.06,4.48-2.88,5.68-.83,1.63,2.77,6,.26,4.32-2.52-4.63-7.89-17.29-3.7-14.69,5.68,2.33,8.41,17.41,10.57,23.5,5.51,9.08-7.55.66-21.28-7.66-25.35a20.62,20.62,0,0,0-15.94-.77c-5.73,2.09-8.8,6.58-13.15,10.51-7,6.36-18.78,3.15-27.32,2.36l-28.55-2.64c-3.2-.3-3.18,4.71,0,5h0Z" transform="translate(-1 -1)"/><path class="cls-14" d="M226,158.38c11.47,14.8,31.91,23.37,49.25,13.15a28.68,28.68,0,0,0,8.94-8.2c1.44-2.06,2.23-4.57,3.72-6.57,2.19-2.93,5.28-3.74,8.75-3.92,6.08-.32,12.4.78,18.42,1.49,7.26,0.85,14.48,1.93,21.68,3.17,3.15,0.54,4.5-4.28,1.33-4.82-12-2.06-24.22-3.82-36.42-4.7-4.15-.3-8.56-0.33-12.42,1.42-4.19,1.89-5.77,5.26-7.93,9.08-4.86,8.62-14.91,13.18-24.63,12.56-11.1-.71-20.56-7.65-27.17-16.18-2-2.54-5.48,1-3.54,3.54h0Z" transform="translate(-1 -1)"/><path class="cls-14" d="M293.52,163.18l94.92,10.7c3.19,0.36,3.17-4.64,0-5l-94.92-10.7c-3.19-.36-3.17,4.64,0,5h0Z" transform="translate(-1 -1)"/><path class="cls-14" d="M277.54,139l141.21,15.57c2.9,0.32,3.24-4.1.66-4.91-9.58-3-20.23,4.54-20.42,14.68-0.21,11.11,10.57,19.5,21.18,18.31a23.42,23.42,0,0,0,14.41-7.46c2.08-2.28,3.43-6.25,6.16-7.74,3.32-1.81,9.92-.27,13.47,0l50.25,3.38c3.21,0.22,3.2-4.78,0-5l-37.69-2.54L448.42,162c-4.18-.27-8.59-0.67-11.93,2.38-3.81,3.49-5.34,8.24-10.07,11s-10.91,3.37-15.82.37-8.29-9.62-5.74-15.2a11.06,11.06,0,0,1,13.22-6.07l0.66-4.91L277.54,134c-3.19-.35-3.17,4.65,0,5h0Z" transform="translate(-1 -1)"/><path class="cls-14" d="M414.56,161.11L412,163.46a2.51,2.51,0,0,0-.39,3,9.38,9.38,0,0,0,5.07,3.59,2.52,2.52,0,0,0,2.82-1.15,3.74,3.74,0,0,0-2.43-5.29c-2.4-.65-4.21,1.12-5.47,2.91a2.54,2.54,0,0,0,.9,3.42,9.4,9.4,0,0,0,6.67,1.33c1.41-.19,2-1.9,1.75-3.08a5.61,5.61,0,0,0-5.43-4.42c-3.22-.1-3.22,4.9,0,5,0.44,0,.53.31,0.61,0.75l1.75-3.08a4.21,4.21,0,0,1-2.81-.83l0.9,3.42a3.29,3.29,0,0,1,.53-0.63q0.32-.25-0.71,0a1.18,1.18,0,0,1-.79-1l0.34-1.26-0.11.24,2.82-1.15a3.87,3.87,0,0,1-2.08-1.29l-0.39,3,2.55-2.34c2.38-2.18-1.17-5.71-3.54-3.54h0Z" transform="translate(-1 -1)"/><path class="cls-14" d="M519.46,196.67q-37.39-5-75-8c-3.21-.26-3.19,4.74,0,5q37.59,3.06,75,8c3.18,0.42,3.15-4.58,0-5h0Z" transform="translate(-1 -1)"/><polygon class="cls-6" points="175.25 187.29 180.94 181.32 176.35 114.74 189.21 108.44 191.89 103.79 174.51 110.55 171.67 127.54 171.67 165.02 175.25 187.29"/><path class="cls-14" d="M301.48,177.47q26.3,1.77,52.33,6c3.15,0.51,4.5-4.3,1.33-4.82q-26.67-4.36-53.66-6.19c-3.21-.22-3.2,4.79,0,5h0Z" transform="translate(-1 -1)"/><path class="cls-8" d="M532.61,165.89c12.25-5.81,24.56-11.51,36.75-17.46a118.9,118.9,0,0,0,16.26-9.23c5.22-3.66,9.81-8.11,15-11.85s11-6.86,17.36-6.67c6.11,0.18,13.31,4.81,12.77,11.73-0.51,6.46-7.8,9.85-13.22,11.33-3,.83-6.66,1.51-9.73.47s-6.83-6-2.94-8.69c2.64-1.81.14-6.14-2.52-4.32-8.45,5.79-2.22,17,6.32,18.27,9.85,1.43,24.56-4.33,26.84-15,2.44-11.46-9.69-19.51-19.86-18.67C600.86,117,591.13,130,579.38,137.33c-15.43,9.6-32.89,16.46-49.29,24.25-2.91,1.38-.37,5.69,2.52,4.32h0Z" transform="translate(-1 -1)"/><path class="cls-8" d="M618.16,129.61a5.68,5.68,0,0,0-4.81,1.26c-1.2,1-2.23,3-1.78,4.61s2.74,2.61,4.38,2.61a4.9,4.9,0,0,0,4.18-2.28c1.67-2.81-.26-7-3.69-7s-5.8,4.7-3.13,7.23c3.13,3,7.21-.28,8.35-3.5a2.52,2.52,0,0,0-1.75-3.08,2.55,2.55,0,0,0-3.08,1.75,1.33,1.33,0,0,0-.23.41,0.55,0.55,0,0,0-.14.18,1.06,1.06,0,0,1-.34.33c-0.2.29-.28-0.05,0,0.07a1.15,1.15,0,0,1,.94,1.05q0,0.6.06,0.11l-0.05.17a0.75,0.75,0,0,1-.43.27,1,1,0,0,1-.87-0.26l-0.06-.16a0.52,0.52,0,1,0,0,.14q0-.26,0,0.14v-0.2s0.22-.37.22-0.35l0.11,0-0.19,0c0.2,0-.43-0.19-0.08,0s-0.31-.25-0.06,0l0.73,1.77c0,0.28.18-.26,0.05-0.07s0.26-.2.11-0.13c0.11-.05.51-0.13,0.19-0.18a2.58,2.58,0,0,0,3.08-1.75,2.52,2.52,0,0,0-1.75-3.08h0Z" transform="translate(-1 -1)"/><path class="cls-8" d="M626.19,112.62a13.16,13.16,0,0,1,17.3,9.66,2.53,2.53,0,0,0,3.67,1.49l53.56-26.59c2.88-1.43.35-5.74-2.52-4.32l-53.56,26.59,3.67,1.49a18.17,18.17,0,0,0-23.45-13.15c-3,1.07-1.71,5.9,1.33,4.82h0Z" transform="translate(-1 -1)"/><path class="cls-8" d="M600.53,155c-2.37,2-8.52-1.6-11.63-1.5-4.86.17-9.88,3.18-14.27,5l-31.77,13.19c-2.93,1.22-1.64,6.06,1.33,4.82l34.49-14.32a74.68,74.68,0,0,1,7.73-3.13c3-.85,5.29-0.17,8.13.65,3.58,1,6.55,1.31,9.53-1.18,2.47-2.07-1.08-5.59-3.54-3.54h0Z" transform="translate(-1 -1)"/><path class="cls-8" d="M655.41,103.52l72.49-35c2.9-1.4.36-5.71-2.52-4.32l-72.49,35c-2.9,1.4-.36,5.71,2.52,4.32h0Z" transform="translate(-1 -1)"/><path class="cls-8" d="M771.58,46.68c1.13,0.11.36,9.59,0.17,10.45-0.8,3.61-2.64,7-6,8.78-3.63,2-7.07,1.34-10.17-1.11-1.84-1.46-3.33-2.38-5.78-2-2.83.48-5.8,2.43-8.33,3.68l-10.7,5.24L709.36,82.2c-2.89,1.41-.36,5.73,2.52,4.32l29.44-14.4c2.89-1.41,7.47-4.63,10.73-3.79,1.08,0.28,2.55,2.14,3.67,2.67a13.28,13.28,0,0,0,8.87.66c7-1.76,11.16-7.86,12.25-14.72,0.76-4.79,1.3-14.64-5.26-15.26-3.2-.31-3.18,4.7,0,5h0Z" transform="translate(-1 -1)"/><path class="cls-8" d="M760.14,51.42A3.56,3.56,0,0,0,755.93,49a4.77,4.77,0,0,0-3.12,2.25c-1.7,3,1,6.17,4.1,6.17s5.66-2.77,4.55-5.81a4.94,4.94,0,0,0-7.88-2,2.58,2.58,0,0,0-.39,3,5.37,5.37,0,0,0,3.19,2.78,5.66,5.66,0,0,0,4.28-.3,2.52,2.52,0,0,0,.9-3.42,2.56,2.56,0,0,0-3.42-.9q0.36-.16-0.06,0,0.43-.06,0,0,0.42,0.08,0,0a0.77,0.77,0,1,0-.14,0,0.41,0.41,0,1,0-.12-0.08l0,0q-0.3-.32,0,0a2.54,2.54,0,0,1-.2-0.42l-0.39,3a0.42,0.42,0,1,0,0,0,0.82,0.82,0,0,1-.55.15q0.43,0-.1-0.06l0.28,0.07a0.48,0.48,0,1,0-.14-0.08,2.89,2.89,0,0,1,.34.2q-0.36-.3-0.06,0a0.62,0.62,0,1,0,0-.05,0.8,0.8,0,1,0-.07-0.17,0.6,0.6,0,1,0,0-.2,0.53,0.53,0,1,0,0-.1,0.93,0.93,0,0,1,.31-0.51c-0.34.39,0.4-.21,0,0a1,1,0,1,0,.12,0l-0.34.09a0.53,0.53,0,1,0,.13,0q-0.35,0,0,0t0,0a0.64,0.64,0,1,0,.12.07q-0.34-.21.09,0.1a0.61,0.61,0,1,0,.07.11c0,0.15.08,0.86,0.12,0.44a1.09,1.09,0,0,1-.15.64,0.86,0.86,0,1,0-.09.1c0.42-.34-0.38.24,0,0a1.24,1.24,0,1,0-.14.05,0.82,0.82,0,1,0-.2,0,1.63,1.63,0,0,1-1.43-1.12,2.56,2.56,0,0,0,3.08,1.75,2.52,2.52,0,0,0,1.75-3.08h0Z" transform="translate(-1 -1)"/><path class="cls-8" d="M525.59,202a314.92,314.92,0,0,1,38.16-19.73c2.94-1.28.4-5.59-2.52-4.32a314.92,314.92,0,0,0-38.16,19.73c-2.75,1.67-.24,6,2.52,4.32h0Z" transform="translate(-1 -1)"/><polygon class="cls-15" points="176.35 114.74 189.21 108.44 523.33 132.45 519.78 140.59 176.35 114.74"/><polygon class="cls-7" points="504.84 137.87 779.91 17.61 791.49 18.37 519.78 140.59 504.84 137.87"/><polygon class="cls-15" points="519.78 229.95 508.85 228.54 508.85 187.04 514.31 185.04 508.85 182.54 504.84 137.87 519.78 140.59 519.78 229.95"/><polygon class="cls-15" points="154.85 108.72 162.27 184.81 175.25 187.29 174.51 129.54 171.67 127.54 174.51 127.29 174.51 110.55 154.85 108.72"/><path class="cls-16" d="M356.29,143.64l1.06,13,68,7.07,4.23-14.12-12.2-3.09a153.33,153.33,0,0,0-61-2.89h0Z" transform="translate(-1 -1)"/><path class="cls-16" d="M357.35,156.66l-3.29,8.7c-2.72,7.2-1.91,18.23-3.16,25.79-1,6.23-4.38,9-4.33,15.31q0,0.15,0,.3v20l70.1,10.76L426.18,216c4.34-18,1-33.86-.88-52.28h0Z" transform="translate(-1 -1)"/><path class="cls-16" d="M346.59,226.76L342,236.55l3.76,1.35a165.46,165.46,0,0,0,61.85,9.63l10.49-.38-1.46-9.63Z" transform="translate(-1 -1)"/><path class="cls-17" d="M419.58,176l-21.69-3.58a110,110,0,0,0-19.17-1.46l-22.21.25h0A93,93,0,0,0,355.36,184,51.21,51.21,0,0,1,352,201.4L351.16,209l9,8.55c8.36,4.26,10.54,5.84,19.92,5.82l7.34,0.49,25.95-2.15,4.2-17.06a58.41,58.41,0,0,0,1.68-12.8Z" transform="translate(-1 -1)"/><path class="cls-17" d="M374,209.16c1.55,1.47,5.35-1.7,7.35-3.8a13.45,13.45,0,0,0,1.62-2.1,13.45,13.45,0,0,0-.2,2.64,20.09,20.09,0,0,0,.75,5.2c0.53,1.71,1.26,2.56,2.16,2.54s1.59-.92,2-2.65a20.08,20.08,0,0,0,.48-5.23,13.45,13.45,0,0,0-.34-2.63,13.45,13.45,0,0,0,1.73,2c2.11,2,6.06,5,7.53,3.42s-1.7-5.35-3.8-7.34a13.45,13.45,0,0,0-2.1-1.62,13.45,13.45,0,0,0,2.64.2c2.9-.08,7.8-0.77,7.74-2.91s-5-2.58-7.88-2.5a13.46,13.46,0,0,0-2.63.34,13.46,13.46,0,0,0,2-1.73c2-2.11,5-6.06,3.42-7.53s-5.35,1.7-7.35,3.8a13.45,13.45,0,0,0-1.62,2.1,13.46,13.46,0,0,0,.2-2.64,20.09,20.09,0,0,0-.75-5.2c-0.53-1.71-1.26-2.57-2.16-2.54a1.44,1.44,0,0,0-1,.49c-1.26,1.33-1.54,5-1.48,7.39a13.45,13.45,0,0,0,.34,2.63,13.45,13.45,0,0,0-1.72-2c-2.11-2-6.06-5-7.53-3.42s1.7,5.35,3.8,7.35a13.45,13.45,0,0,0,2.1,1.62,13.45,13.45,0,0,0-2.64-.2,20.08,20.08,0,0,0-5.2.75,4.91,4.91,0,0,0-2.1,1.11,1.43,1.43,0,0,0-.44,1c0,0.9.91,1.59,2.65,2a20.08,20.08,0,0,0,5.23.48,13.45,13.45,0,0,0,2.63-.34,13.45,13.45,0,0,0-2,1.72C375.45,203.73,372.48,207.69,374,209.16Zm11.19-11.9,0-.18,0.1,0.15,0.09-.16,0,0.18,0.18,0-0.15.1,0.16,0.09-0.18,0,0,0.18-0.1-.15-0.09.16,0-.18-0.18,0,0.15-.1-0.16-.09Z" transform="translate(-1 -1)"/><path class="cls-18" d="M385.44,214.1c-1-.12-1.8-1.08-2.36-2.86a20.57,20.57,0,0,1-.77-5.33q0-.46,0-0.93-0.3.36-.61,0.7a22.25,22.25,0,0,1-3.93,3.32c-1.84,1.15-3.21,1.32-4.08.5h0c-0.86-.82-0.77-2.2.29-4.1a22.25,22.25,0,0,1,3.11-4.1q0.31-.33.66-0.65-0.47,0-.93.06a20.58,20.58,0,0,1-5.36-.49c-2-.5-3-1.33-3-2.47a1.89,1.89,0,0,1,.57-1.38,5.3,5.3,0,0,1,2.31-1.24,20.57,20.57,0,0,1,5.33-.77q0.46,0,.93,0-0.36-.3-0.7-0.61c-1-1-5.9-5.82-3.82-8s7.19,2.45,8.2,3.4q0.33,0.31.65,0.66,0-.47-0.06-0.93c0-1-.07-6,1.61-7.73a1.89,1.89,0,0,1,1.35-.64c1.14,0,2,.94,2.62,2.87a20.55,20.55,0,0,1,.77,5.33q0,0.46,0,.93,0.3-.36.61-0.7c1-1,5.81-5.91,8-3.82s-2.45,7.19-3.4,8.2q-0.31.33-.66,0.65,0.47,0,.93-0.06c1.38,0,8.29-.06,8.37,3,0,1.19-1,2.1-3.1,2.69a22.3,22.3,0,0,1-5.1.7q-0.46,0-.93,0,0.36,0.3.7,0.61c1,1,5.9,5.82,3.82,8-0.82.86-2.2,0.77-4.1-.29a22.26,22.26,0,0,1-4.1-3.11q-0.33-.31-0.65-0.66,0,0.47.06,0.93a20.56,20.56,0,0,1-.49,5.36c-0.5,2-1.33,3-2.47,3h-0.27ZM383.86,201l-0.4,2.34a13.05,13.05,0,0,0-.2,2.55A19.61,19.61,0,0,0,384,211c0.32,1,.87,2.24,1.7,2.21s1.32-1.26,1.58-2.3a19.61,19.61,0,0,0,.46-5.11,13,13,0,0,0-.33-2.54l-0.53-2.32,1.37,1.94a13,13,0,0,0,1.66,1.94,21,21,0,0,0,3.91,3c0.83,0.46,2.32,1.14,3,.47,1-1.05-1.21-4.23-3.79-6.68a13,13,0,0,0-2-1.56l-2-1.27,2.34,0.4a13.06,13.06,0,0,0,2.55.2,21,21,0,0,0,4.86-.66c0.91-.26,2.45-0.84,2.42-1.76,0-1.45-3.84-2.14-7.4-2a13,13,0,0,0-2.54.33l-2.32.53,1.94-1.37a13.07,13.07,0,0,0,1.94-1.66c2.45-2.58,4.49-5.87,3.44-6.87s-4.23,1.2-6.68,3.79a13,13,0,0,0-1.56,2l-1.27,2,0.4-2.34a13.05,13.05,0,0,0,.2-2.55,19.6,19.6,0,0,0-.73-5.07c-0.32-1-.88-2.24-1.7-2.21a1,1,0,0,0-.7.35c-1,1.09-1.42,4.33-1.35,7.06a13,13,0,0,0,.33,2.54l0.53,2.31-1.37-1.94a13.09,13.09,0,0,0-1.66-1.94c-2.58-2.45-5.87-4.49-6.87-3.44s1.2,4.23,3.79,6.68a13,13,0,0,0,2,1.56l2,1.27-2.34-.4a13.16,13.16,0,0,0-2.55-.2,19.63,19.63,0,0,0-5.08.73,4.51,4.51,0,0,0-1.9,1,1,1,0,0,0-.31.71c0,0.83,1.26,1.32,2.3,1.58a19.55,19.55,0,0,0,5.11.46,13,13,0,0,0,2.54-.33l2.32-.53-1.94,1.37a13,13,0,0,0-1.94,1.66,21,21,0,0,0-3,3.91c-0.46.83-1.14,2.32-.47,3h0c0.67,0.64,2.12-.11,2.93-0.62A21,21,0,0,0,381,205a13.07,13.07,0,0,0,1.56-2Zm0.32-.83,0.43-2.15-2.14.55,1.84-1.22-1.89-1.12,2.15,0.43L384,194.54l1.21,1.82,1.12-1.88-0.43,2.15,2.15-.55-1.85,1.22,1.89,1.12L386,198l0.54,2.13-1.22-1.83Z" transform="translate(-1 -1)"/><circle class="cls-19" cx="385.43" cy="197.24" r="3.5" transform="translate(-23.99 339.96) rotate(-46.49)"/><path class="cls-20" d="M350.29,234.93a1.28,1.28,0,0,1-1-1.76l2.39-5.74a1.28,1.28,0,1,1,2.37,1l-2.39,5.74A1.28,1.28,0,0,1,350.29,234.93Z" transform="translate(-1 -1)"/><path class="cls-20" d="M359,236.19l-0.24-.05a1.28,1.28,0,0,1-.83-1.61l1.93-6a1.28,1.28,0,0,1,2.44.78l-1.93,6A1.28,1.28,0,0,1,359,236.19Z" transform="translate(-1 -1)"/><path class="cls-20" d="M367.7,237.45l-0.14,0a1.28,1.28,0,0,1-1-1.54l1.48-6.34a1.28,1.28,0,0,1,2.49.58l-1.48,6.34A1.28,1.28,0,0,1,367.7,237.45Z" transform="translate(-1 -1)"/><path class="cls-20" d="M376.41,238.72h0a1.28,1.28,0,0,1-1.07-1.46l1-6.64a1.28,1.28,0,0,1,2.53.39l-1,6.64A1.28,1.28,0,0,1,376.41,238.72Z" transform="translate(-1 -1)"/><path class="cls-20" d="M385.11,240A1.28,1.28,0,0,1,384,238.6l0.56-6.93a1.28,1.28,0,0,1,2.55.21l-0.56,6.93a1.28,1.28,0,0,1-1.38,1.17h0Z" transform="translate(-1 -1)"/><path class="cls-20" d="M393.82,241.24a1.28,1.28,0,0,1-1.13-1.29l0.11-7.23a1.28,1.28,0,0,1,1.3-1.26,1.29,1.29,0,0,1,1.26,1.3L395.25,240a1.28,1.28,0,0,1-1.3,1.26h-0.13Z" transform="translate(-1 -1)"/><path class="cls-20" d="M402.52,242.5a1.28,1.28,0,0,1-1.13-1.21L401,233.76a1.28,1.28,0,1,1,2.56-.12l0.35,7.53a1.28,1.28,0,0,1-1.22,1.34h-0.21Z" transform="translate(-1 -1)"/><path class="cls-20" d="M411.23,243.76a1.28,1.28,0,0,1-1.12-1.14l-0.81-7.83a1.28,1.28,0,1,1,2.55-.26l0.81,7.83A1.28,1.28,0,0,1,411.23,243.76Z" transform="translate(-1 -1)"/><path class="cls-20" d="M420.49,164.46l-0.12,0a1.28,1.28,0,0,1-1-1.52l1.94-9.23a1.28,1.28,0,0,1,2.51.53l-1.94,9.23A1.28,1.28,0,0,1,420.49,164.46Z" transform="translate(-1 -1)"/><path class="cls-20" d="M412.34,163.75h0a1.28,1.28,0,0,1-1.07-1.46l1.48-9.53a1.28,1.28,0,1,1,2.53.39l-1.48,9.53A1.28,1.28,0,0,1,412.34,163.75Z" transform="translate(-1 -1)"/><path class="cls-20" d="M404.18,163a1.28,1.28,0,0,1-1.13-1.41l1-9.83a1.28,1.28,0,0,1,1.41-1.14,1.3,1.3,0,0,1,1.14,1.41l-1,9.83a1.28,1.28,0,0,1-1.41,1.14h0Z" transform="translate(-1 -1)"/><path class="cls-20" d="M396,162.34a1.28,1.28,0,0,1-1.13-1.34l0.57-10.13A1.28,1.28,0,0,1,398,151l-0.57,10.13a1.28,1.28,0,0,1-1.35,1.21H396Z" transform="translate(-1 -1)"/><path class="cls-20" d="M387.86,161.63a1.28,1.28,0,0,1-1.13-1.29l0.11-10.43a1.28,1.28,0,1,1,2.56,0l-0.11,10.43a1.28,1.28,0,0,1-1.29,1.27h-0.14Z" transform="translate(-1 -1)"/><path class="cls-20" d="M379.71,160.92a1.28,1.28,0,0,1-1.13-1.23L378.23,149a1.28,1.28,0,1,1,2.56-.08l0.34,10.73a1.28,1.28,0,0,1-1.24,1.32h-0.19Z" transform="translate(-1 -1)"/><path class="cls-20" d="M371.55,160.22a1.28,1.28,0,0,1-1.13-1.18l-0.8-11a1.28,1.28,0,1,1,2.56-.19l0.8,11a1.28,1.28,0,0,1-1.19,1.37h-0.24Z" transform="translate(-1 -1)"/><path class="cls-20" d="M363.39,159.51a1.28,1.28,0,0,1-1.12-1.13L361,147.06a1.28,1.28,0,1,1,2.55-.28l1.26,11.32a1.28,1.28,0,0,1-1.13,1.41A1.32,1.32,0,0,1,363.39,159.51Z" transform="translate(-1 -1)"/><polygon class="cls-20" points="347.34 210.78 347.61 223.13 366.98 229.12 407.69 233.87 413.68 232.42 420.61 220.37 411.78 229.48 404.44 229.77 364.96 226.3 353.71 221.84 347.34 210.78"/><polygon class="cls-20" points="422.02 177.37 423.28 166.62 420.89 162.45 393.89 159.99 386.86 160.63 371.98 157.85 365.61 158.89 374.35 159.91 389.75 164.14 397.52 163.9 411.1 166.35 419.2 169.64 422.02 177.37"/><path class="cls-21" d="M416.14,178l0.42,13.12-2.79,17.42s-1.72,8.76-2.56,9.38S401,221.37,401,221.37h-7l8.48-2.3,6.79-5,4.47-19.64v-8.16l0.65-6.4-11.92-3.1h6.79Z" transform="translate(-1 -1)"/></svg>