<?xml version="1.0" encoding="utf-8"?>
<!-- Generator: Adobe Illustrator 19.2.1, SVG Export Plug-In . SVG Version: 6.00 Build 0)  -->
<svg version="1.1" id="flower" xmlns="http://www.w3.org/2000/svg" xmlns:xlink="http://www.w3.org/1999/xlink" x="0px" y="0px"
	 viewBox="0 0 72.8 124.2" style="enable-background:new 0 0 72.8 124.2;" xml:space="preserve">
<style type="text/css">
	.st0{fill:#2ED652;}
	.st1{fill:#189E32;}
	.st2{fill:#ED571D;stroke:#EDD91D;stroke-width:2;stroke-miterlimit:10;}
	.st3{fill:#FFD503;}
</style>
<title>flower</title>
<path class="st0" d="M55.3,96.6c-8.7,3.4-18.5-0.8-18.5-0.8s4.2-9.9,12.9-13.3s18.5,0.8,18.5,0.8S63.9,93.1,55.3,96.6z"/>
<path class="st1" d="M46.4,84.2c-6.3,4-9.6,11.6-9.6,11.6c1.7,0.7,3.4,1.2,5.1,1.5L46.4,84.2z"/>
<path class="st0" d="M36.4,123.2c-1.7,0-3-1.3-3-3v-80c0-1.7,1.3-3,3-3s3,1.3,3,3v80C39.4,121.8,38.1,123.2,36.4,123.2z"/>
<path class="st1" d="M36.4,68c-1.7,0-3-1.3-3-3V40.2c0-1.7,1.3-3,3-3s3,1.3,3,3V65C39.4,66.7,38.1,68,36.4,68z"/>
<path class="st2" d="M15.6,64.2c3.6,2.7,10.9-4.9,14.6-9.9c1.1-1.5,2.1-3.1,2.9-4.8c-0.1,1.9,0,3.8,0.2,5.6
	c0.5,3.7,1.4,7.4,2.9,10.9c1.5,3.5,3.3,5.1,5.2,4.8s3.1-2.3,3.6-6.1c0.4-3.7,0.3-7.5-0.3-11.2c-0.3-1.9-0.7-3.7-1.4-5.5
	c1.3,1.4,2.6,2.7,4.1,3.8c4.9,3.7,14,9,16.8,5.4c2.8-3.6-4.9-10.9-9.8-14.6c-1.5-1.1-3.1-2.1-4.8-2.9c1.9,0.1,3.8,0,5.6-0.2
	c6.1-0.9,16.3-3.6,15.6-8.1s-11.2-4.2-17.3-3.3c-1.9,0.3-3.7,0.7-5.5,1.4c1.4-1.3,2.7-2.6,3.8-4.1c3.7-4.9,9-14,5.4-16.8
	s-10.9,4.9-14.6,9.9c-1.1,1.5-2.1,3.1-2.9,4.8c0.1-1.9,0-3.8-0.2-5.6c-0.5-3.7-1.4-7.3-2.9-10.8c-1.5-3.5-3.3-5.1-5.2-4.9
	c-0.8,0.1-1.5,0.6-2,1.3c-2.3,3.1-2,11-1.3,16c0.3,1.9,0.7,3.7,1.4,5.5c-1.3-1.4-2.6-2.7-4.1-3.8c-4.9-3.7-14-9-16.8-5.4
	s4.9,10.9,9.9,14.6c1.5,1.1,3.1,2.1,4.8,2.9c-1.9-0.1-3.8,0-5.6,0.2c-3.7,0.5-7.4,1.4-10.9,2.9c-1.6,0.6-3,1.6-4.2,2.8
	c-0.6,0.6-0.8,1.5-0.7,2.3c0.3,1.9,2.3,3.1,6.1,3.6c3.7,0.4,7.5,0.3,11.2-0.3c1.9-0.3,3.7-0.7,5.5-1.4c-1.4,1.3-2.7,2.6-3.8,4.1
	C17.3,52.4,12,61.5,15.6,64.2z M36.3,36.3L36.2,36l0.2,0.3l0.2-0.4v0.4l0.4-0.1l-0.3,0.2l0.3,0.2h-0.4l0.1,0.4l-0.2-0.3L36.3,37
	v-0.4L36,36.8l0.3-0.2l-0.4-0.2L36.3,36.3z"/>
<ellipse transform="matrix(0.5997 -0.8002 0.8002 0.5997 -14.2932 43.9131)" class="st3" cx="36.7" cy="36.2" rx="7.4" ry="7.4"/>
</svg>
