<?xml version="1.0" encoding="utf-8"?>
<!-- Generator: Adobe Illustrator 20.1.0, SVG Export Plug-In . SVG Version: 6.00 Build 0)  -->
<svg version="1.1" id="Layer_1" xmlns="http://www.w3.org/2000/svg" xmlns:xlink="http://www.w3.org/1999/xlink" x="0px" y="0px"
	 viewBox="0 0 102.5 103.3" style="enable-background:new 0 0 102.5 103.3;" xml:space="preserve">
<style type="text/css">
	.st0{fill:url(#SVGID_1_);}
	.st1{fill:#34BAFF;}
	.st2{clip-path:url(#SVGID_3_);}
	.st3{opacity:0.8;fill:url(#SVGID_4_);enable-background:new    ;}
	.st4{fill:url(#SVGID_5_);}
	.st5{fill:url(#SVGID_6_);}
	.st6{fill:#B2EAE6;}
	.st7{opacity:0.5;fill:url(#SVGID_7_);enable-background:new    ;}
	.st8{fill:#FFF3C2;}
	.st9{opacity:0.5;fill:url(#SVGID_8_);enable-background:new    ;}
	.st10{fill:#AA5013;}
	.st11{fill:#E0782B;}
</style>
<title>planet_C</title>
<g>
	<g id="planet-UR">
		
			<radialGradient id="SVGID_1_" cx="39.97" cy="65.71" r="36.07" gradientTransform="matrix(1 0 0 -1 0 106)" gradientUnits="userSpaceOnUse">
			<stop  offset="0" style="stop-color:#E1FFB6"/>
			<stop  offset="1" style="stop-color:#34BA74"/>
		</radialGradient>
		<circle class="st0" cx="52.3" cy="56" r="35.5"/>
		<path class="st1" d="M47.9,50.2c-0.8-0.1-3.5,3.1-4.3,3.6c-1.8,1.2-3.8,2-5.8,2.4c-3.1,0.6-6.1,0.4-9.2,0.9
			c-1.6,0.2-4.5,1.6-4.5,3.6c0,2.2,3.6,2.1,3.6,3.8c0,1.7-2.6,1.3-0.9,3.1c1.4,1.4,3.7,1.7,5.6,1.9C36,70,39.7,69,42.7,66.8
			c1.2-0.9,2.3-1.7,2.5-3.2c0.3-1.9-0.8-2.3,1.2-3.5c1.7-1,3.7-1.6,5-3.4c0.5-0.8,1.6-3.1,0.4-3.8c-0.5-0.3-1.6,0.6-2,0
			c-0.2-0.4,0.6-1.3,0.5-1.8C50.1,49.3,48,50.5,47.9,50.2C47.6,50.2,48,50.7,47.9,50.2z"/>
		<g>
			<defs>
				<circle id="SVGID_2_" cx="52.3" cy="56" r="35.5"/>
			</defs>
			<clipPath id="SVGID_3_">
				<use xlink:href="#SVGID_2_"  style="overflow:visible;"/>
			</clipPath>
			<g class="st2">
				<path class="st1" d="M60.8,19.2c-3.4-0.1-6.4-0.5-9.8,0.6c-2,0.7-6.4,3.6-4.2,6.2c1.4,1.6,4.2,1,6,1c1.2,0,6-0.3,6.2,2
					c-1.3,0.2-8.5,2.2-4.9,4.6c1.1,0.7,3.8,0.6,5.1,1c1.9,0.7,3.6,1.9,5,3.4c1.2,1.2,2.4,3.2,4.4,2.8c1.7-0.3,1.7-1.9,1.5-3.3
					c-0.2-1.3-1.2-2.8,0.5-3s2.1,2,3.3,2.6c1.6,0.9,2.1-0.5,2.2-2c0.1-1.8-0.5-3.6-1.7-5c-1.1-1-7.5-2.5-6.2-5
					c0.6-1.1,1.6,0.1,1.9-1.3s-1.4-3.4-2.5-4c-0.9-0.5-8.3-1.9-8.5-0.7C59.8,19.2,60.3,19.3,60.8,19.2L60.8,19.2z"/>
			</g>
		</g>
		<path class="st1" d="M79.3,57.8c0.1,3.8-3.4,7.9-5.7,10.6c-2.8,3.2-6.3,5.7-10.1,7.3c-1.8,0.8-3.8,1.1-5.6,2
			c-2.3,1.1-2.9,2.4-3.5,4.7c-0.5,1.8-2.2,2.1-2.9,3.6c-1.1,2.3,2.5,2.7,4,2.7c3.8-0.1,7.5-1.2,10.8-3.2c2.8-1.7,6-3.1,8.6-5.1
			c1.1-0.8,3.2-2.6,3-4.1s-2.3-1.1-3-2.1c-1-1.4,0.7-3.2,1.8-4.1c2.3-1.8,1.8,1.1,3.2,1.4c2.6,0.5,4.9-8.3,5.2-9.8
			c0.4-2,0.6-5.5-1.7-6.5S80.3,56.2,79.3,57.8C79.3,58.3,80.2,56.4,79.3,57.8z"/>
		
			<radialGradient id="SVGID_4_" cx="38.72" cy="74.38" r="61.13" gradientTransform="matrix(1 0 0 -1 0 106)" gradientUnits="userSpaceOnUse">
			<stop  offset="0" style="stop-color:#1A0621;stop-opacity:0"/>
			<stop  offset="0.38" style="stop-color:#1A0621;stop-opacity:0.27"/>
			<stop  offset="1" style="stop-color:#1A0621;stop-opacity:0.99"/>
			<stop  offset="1" style="stop-color:#1A0621"/>
		</radialGradient>
		<circle class="st3" cx="52.3" cy="56" r="35.5"/>
		
			<image style="overflow:visible;opacity:0.3;enable-background:new    ;" width="430" height="300" xlink:href="79DB7180DDF0716A.png"  transform="matrix(0.2383 0 0 0.2336 0 24.06)">
		</image>
		
			<radialGradient id="SVGID_5_" cx="92.5483" cy="169.0596" r="71.83" gradientTransform="matrix(0.94 0.33 0.38 -1.09 -148.07 205.03)" gradientUnits="userSpaceOnUse">
			<stop  offset="0" style="stop-color:#E1FFB6"/>
			<stop  offset="1" style="stop-color:#E1B736"/>
		</radialGradient>
		<path class="st4" d="M17.6,63.5c-1.3,1.1-2.4,2.3-3.5,3.4c-6.4,6.5-9.2,12-7.6,14.8c3.2,5.5,23.8,1.4,49.3-13.3
			C69.6,60.4,80,52,86.1,45.2c5.1-5.7,7.2-10.3,5.7-12.8c-0.9-1.5-3.2-2.3-6.6-2.3c-2.6,0.1-5.2,0.4-7.7,1l-1.8-1.7
			c6.9-1.7,15.2-2.5,17.8,2c2.2,3.8-0.8,9.6-6.8,16c-7.1,7.5-18.2,15.9-30,22.7C40.9,79.2,23.3,86,13,86c-4,0-6.9-1-8.2-3.3
			C2,78,7.6,70.7,12.7,65.5c1.4-1.4,2.9-2.8,4.5-4.3L17.6,63.5z"/>
		
			<image style="overflow:visible;opacity:0.3;enable-background:new    ;" width="359" height="384" xlink:href="79DB7180DDF0716E.png"  transform="matrix(0.238 0 0 0.2356 10.58 12.83)">
		</image>
		
			<radialGradient id="SVGID_6_" cx="24.53" cy="57.84" r="78.56" gradientTransform="matrix(1 0 0 -1 0.56 104.09)" gradientUnits="userSpaceOnUse">
			<stop  offset="0" style="stop-color:#E1FFB6"/>
			<stop  offset="1" style="stop-color:#E1B736"/>
		</radialGradient>
		<path class="st5" d="M66,23.2c8.8-5.8,16.4-8.2,20-4.9c4,3.7,0.9,12.3-2.4,18.8l-0.5,1c-4.6,8.7-11.9,18.6-20.7,28.2
			c-14.4,15.6-32.2,29-41.6,29c-1.6,0.1-3.1-0.4-4.3-1.5c-3.7-3.5-1.3-12.1,4.2-21.9l1.1,2c-5.1,9.2-6.4,16-3.9,18.4
			c0.8,0.7,1.9,1.1,3,1c7.2,0,23.1-10,40-28.4c9-9.8,16.5-20,20.9-28.7c4.2-8.1,5.2-14.3,2.9-16.4c-0.8-0.7-1.9-1.1-3-1
			c-3.1,0-7.8,1.8-13.5,5.4"/>
		<circle class="st6" cx="68.6" cy="5.8" r="5.8"/>
		
			<radialGradient id="SVGID_7_" cx="66.75" cy="107" r="10.9248" gradientTransform="matrix(1 0 0 -1 0 106)" gradientUnits="userSpaceOnUse">
			<stop  offset="0" style="stop-color:#1A0621;stop-opacity:0"/>
			<stop  offset="0.38" style="stop-color:#1A0621;stop-opacity:0.27"/>
			<stop  offset="1" style="stop-color:#1A0621;stop-opacity:0.99"/>
			<stop  offset="1" style="stop-color:#1A0621"/>
		</radialGradient>
		<circle class="st7" cx="68.6" cy="5.8" r="5.8"/>
		<circle class="st8" cx="76.9" cy="86" r="4.5"/>
		<path class="st1" d="M37.7,40.3c0.3-1.9-3.5-2.4-4.6-2.2c-2.6,0.6-4.8,2.5-5.8,5c-0.7,1.8-1.2,4.8,0.5,6.2c1,0.9,2.2,0.7,3.4,0.3
			c0.9-0.2,2.3-1.5,3-1.6c0.5,0.9-0.8,1.7,0.3,2.8c1.5,1.6,3.8,0.3,5.1-1c1.4-1.1,2.2-2.7,2.4-4.5c0.1-1.9-1.2-4-3.3-2.8
			c0.8-0.7-0.7-1.9-0.8-2.6C37.8,40.1,37.8,40.1,37.7,40.3C37.9,39.1,37.8,40.1,37.7,40.3z"/>
		
			<radialGradient id="SVGID_8_" cx="146.9779" cy="-77.5492" r="10.93" gradientTransform="matrix(0.77 0 0 -0.77 -37.78 20.83)" gradientUnits="userSpaceOnUse">
			<stop  offset="0" style="stop-color:#1A0621;stop-opacity:0"/>
			<stop  offset="0.38" style="stop-color:#1A0621;stop-opacity:0.27"/>
			<stop  offset="1" style="stop-color:#1A0621;stop-opacity:0.99"/>
			<stop  offset="1" style="stop-color:#1A0621"/>
		</radialGradient>
		<circle class="st9" cx="76.9" cy="86" r="4.5"/>
		<polygon class="st10" points="69.3,50.3 71.8,52.2 75.5,51.2 74.3,44.8 71.8,48.5 		"/>
		<polygon class="st11" points="74.3,44.8 70.9,46.3 69.3,50.3 71.8,50.3 		"/>
		<polygon class="st10" points="74.9,14.7 71.9,17.2 74.4,17.2 		"/>
		<polygon class="st11" points="74.9,14.7 72.7,14.7 71.9,17.2 		"/>
		<polygon class="st10" points="84.7,46.4 85.5,48.5 88.1,47.5 87.5,45.9 		"/>
		<polygon class="st10" points="84.7,48.3 85.4,50.5 88.1,51 90.3,49.7 91,48.5 90.3,44.7 88.4,47.9 		"/>
		<polygon class="st11" points="90.3,45.9 90.3,44.7 88.6,44.1 86.1,45 84.7,46.4 85.1,47 86.7,47 84.7,48.3 85.4,49.3 88,49.3 
			90.3,48.3 		"/>
		<polygon class="st10" points="7.8,67 4.8,68.5 6.3,69.5 		"/>
		<polygon class="st11" points="7.8,67 5.6,67 4.8,68.5 		"/>
		<circle class="st11" cx="92" cy="22.7" r="1.1"/>
		<circle class="st11" cx="15" cy="95.7" r="1.5"/>
		<polygon class="st10" points="67.8,53.5 64.8,55 66.3,56 		"/>
		<polygon class="st11" points="67.8,53.5 65.6,53.5 64.8,55 		"/>
		<circle class="st11" cx="63.8" cy="67.8" r="1"/>
	</g>
</g>
</svg>
