<svg id="swipeIndicator" xmlns="http://www.w3.org/2000/svg" viewBox="0 0 54.17 33.65"><defs><style>.cls-1{fill:#fff;}.cls-2{fill:none;stroke:#fff;stroke-linecap:round;stroke-miterlimit:10;stroke-width:4px;}</style></defs><title>cheveron_icon_mockup</title><path class="cls-1" d="M18.35,34L1.86,19.71a2.5,2.5,0,0,1,0-3.78L18.35,1.62A2.5,2.5,0,0,1,22.49,3.5V3.61a103.17,103.17,0,0,0,0,28.54h0A2.5,2.5,0,0,1,18.35,34Z" transform="translate(-1 -1)"/><circle class="cls-1" cx="46.67" cy="16.88" r="7.5"/><path class="cls-2" d="M27.62,27.08h0a85.56,85.56,0,0,1,0-18.39V8.58" transform="translate(-1 -1)"/><path class="cls-2" d="M35.35,24.08h0a39.22,39.22,0,0,1,0-12.39l0-.11" transform="translate(-1 -1)"/></svg>