<svg id="myHouse_garageDoor" xmlns="http://www.w3.org/2000/svg" viewBox="0 0 59.3 40.5"><defs><style>.cls-1{fill:#0b270b;}.cls-2{fill:#1a4e14;}.cls-3{fill:#67bfef;}.cls-4{fill:none;stroke:#1a4e14;stroke-miterlimit:10;}</style></defs><title>myHouse_garageDoor</title><rect class="cls-1" x="0.5" y="0.5" width="58.3" height="39.5"/><path class="cls-2" d="M59.3,2V40.5H2V2H59.3m1-1H1V41.5H60.3V1h0Z" transform="translate(-1 -1)"/><rect class="cls-3" x="3.23" y="3.97" width="52.83" height="7.33"/><path class="cls-2" d="M56.57,5.47V11.8H4.73V5.47H56.57m1-1H3.73V12.8H57.57V4.47h0Z" transform="translate(-1 -1)"/><path class="cls-2" d="M56.57,32.17v4.68H4.73V32.17H56.57m1-1H3.73v6.68H57.57V31.17h0Z" transform="translate(-1 -1)"/><path class="cls-2" d="M14.53,16.76V28H5.73V16.76h8.79m1-1H4.73V29H15.53V15.76h0Z" transform="translate(-1 -1)"/><path class="cls-2" d="M28.25,16.76V28H19.46V16.76h8.79m1-1H18.46V29H29.25V15.76h0Z" transform="translate(-1 -1)"/><path class="cls-2" d="M42,16.76V28H33.18V16.76H42m1-1H32.18V29H43V15.76h0Z" transform="translate(-1 -1)"/><path class="cls-2" d="M55.7,16.76V28H46.91V16.76H55.7m1-1H45.91V29H56.7V15.76h0Z" transform="translate(-1 -1)"/><line class="cls-4" x1="14.76" y1="11.15" x2="14.76" y2="4.26"/><line class="cls-4" x1="29.64" y1="11.15" x2="29.64" y2="4.26"/><line class="cls-4" x1="44.02" y1="11.15" x2="44.02" y2="4.26"/></svg>