<svg id="carGarage" xmlns="http://www.w3.org/2000/svg" viewBox="0 0 65.24 44.83"><defs><style>.cls-1{fill:#818284;}.cls-2{fill:#f57500;}.cls-3{fill:#332a02;}.cls-4{fill:#f7ff73;}.cls-5{fill:none;stroke:#c95f17;stroke-linecap:round;}.cls-5,.cls-7{stroke-miterlimit:10;stroke-width:0.5px;}.cls-6{fill:#96e2d5;}.cls-7{fill:#53b7b4;stroke:#96e2d5;}</style></defs><title>myHouse_car</title><rect class="cls-1" width="65.24" height="44.83"/><path class="cls-2" d="M25.31,32.7l-1.17-1h0a1.77,1.77,0,0,0-1.77-1.77H22a1.29,1.29,0,0,0-1.17,1.87,1,1,0,0,0,.94.52h1.59l0.77,1.07Z" transform="translate(-1 -1)"/><path class="cls-2" d="M46.14,33l1.17-1h0a1.77,1.77,0,0,1,1.77-1.77h0.37a1.29,1.29,0,0,1,1.17,1.87,1,1,0,0,1-.94.52H48.08l-0.77,1.07Z" transform="translate(-1 -1)"/><path d="M20.71,41.59h8.41a0,0,0,0,1,0,0v1.57a1.68,1.68,0,0,1-1.68,1.68H22.39a1.68,1.68,0,0,1-1.68-1.68V41.59A0,0,0,0,1,20.71,41.59Z"/><path d="M40.93,41.59h8.41a0,0,0,0,1,0,0v1.57a1.68,1.68,0,0,1-1.68,1.68H42.61a1.68,1.68,0,0,1-1.68-1.68V41.59A0,0,0,0,1,40.93,41.59Z"/><path class="cls-2" d="M49.67,43.63L38.42,44.81a23,23,0,0,1-4.79,0L22.38,43.63a1.54,1.54,0,0,1-1.21-2.23l0.25-.48-1.28-5.11a2.25,2.25,0,0,1,1.36-2.06l2.79-1.21H47.75l2.79,1.21a2.25,2.25,0,0,1,1.36,2.06l-1.28,5.11,0.25,0.48A1.54,1.54,0,0,1,49.67,43.63Z" transform="translate(-1 -1)"/><path class="cls-2" d="M32.45,24.76c-3.55,0-5,.23-6.13,2.42A27.57,27.57,0,0,1,25,29.61l-2.72,4.25L35.4,34.62v0h0.48v0L49,33.87l-2.88-4.51a16,16,0,0,1-1.05-1.93C44,25,42.52,24.76,38.83,24.76H32.45Z" transform="translate(-1 -1)"/><path class="cls-3" d="M24.13,38.74l11.48,2.05,11.73-2.05h0a10.13,10.13,0,0,1-6.45,3.75l-5.28.79-5.13-.85a10.13,10.13,0,0,1-5.62-2.94Z" transform="translate(-1 -1)"/><path class="cls-4" d="M49.06,34.47s-0.18,0-.49,0A8.15,8.15,0,0,0,42.83,38l0,0,6.25-.84S52.44,34.47,49.06,34.47Z" transform="translate(-1 -1)"/><path class="cls-4" d="M23.1,34.47s0.18,0,.49,0A8.15,8.15,0,0,1,29.33,38l0,0-6.25-.84S19.72,34.47,23.1,34.47Z" transform="translate(-1 -1)"/><polygon class="cls-5" points="35.02 30.92 25.11 31.67 29.06 34.87 30.4 37.01 35.02 37.74 39.66 37.01 40.99 34.87 44.94 31.67 35.02 30.92"/><path class="cls-2" d="M36,44.79a1,1,0,0,1-1-1V40.26a1,1,0,0,1,2,0v3.53A1,1,0,0,1,36,44.79Z" transform="translate(-1 -1)"/><circle class="cls-6" cx="23.01" cy="40.62" r="1.03"/><circle class="cls-6" cx="47.37" cy="40.62" r="1.03"/><path class="cls-7" d="M25.32,30.89l1.91-3.48a2.58,2.58,0,0,1,2.28-1.19H41.79A2.6,2.6,0,0,1,44,27.35l2.13,3.54A79.13,79.13,0,0,0,25.32,30.89Z" transform="translate(-1 -1)"/></svg>