<svg id="portalInside" xmlns="http://www.w3.org/2000/svg" viewBox="0 0 35.59 29.09"><defs><style>.cls-1{fill:#41bad1;}</style></defs><title>portalInside</title><path class="cls-1" d="M18.81,30.09A14.54,14.54,0,1,1,33.35,15.54,14.56,14.56,0,0,1,18.81,30.09ZM18.81,2A13.54,13.54,0,1,0,32.35,15.54,13.56,13.56,0,0,0,18.81,2Z" transform="translate(-1 -1)"/><path class="cls-1" d="M18.81,26.31A10.77,10.77,0,1,1,29.57,15.54,10.78,10.78,0,0,1,18.81,26.31Zm0-20.54a9.77,9.77,0,1,0,9.77,9.77A9.78,9.78,0,0,0,18.81,5.78Z" transform="translate(-1 -1)"/><path class="cls-1" d="M18.81,23a7.5,7.5,0,0,1-7.49-7.49h1a6.49,6.49,0,0,0,13,0h1A7.5,7.5,0,0,1,18.81,23Z" transform="translate(-1 -1)"/><rect class="cls-1" y="14.04" width="35.59" height="1"/></svg>