<svg id="swipeIndicator" xmlns="http://www.w3.org/2000/svg" viewBox="0 0 40.5 44.05"><defs><style>.cls-1{fill:#fff;}.cls-2,.cls-3{fill:none;stroke:#fff;stroke-miterlimit:10;}.cls-2{stroke-width:2px;}</style></defs><title>stopwatch_indicator</title><circle class="cls-1" cx="20.54" cy="23.8" r="2.27"/><path class="cls-1" d="M21.25,7.55A17.25,17.25,0,1,1,4,24.8,17.27,17.27,0,0,1,21.25,7.55m0-3A20.25,20.25,0,1,0,41.5,24.8,20.25,20.25,0,0,0,21.25,4.55h0Z" transform="translate(-1 -1)"/><path class="cls-1" d="M24.75,6.4V3a2,2,0,0,0-2-2h-3a2,2,0,0,0-2,2V6.4h7Z" transform="translate(-1 -1)"/><rect class="cls-1" x="35.49" y="1.75" width="4.52" height="8.74" rx="2.26" ry="2.26" transform="translate(5.73 27.48) rotate(-45)"/><path class="cls-1" d="M35.6,11.48l1.94-1.94a1.61,1.61,0,0,0,0-2.28l-0.67-.67a1.61,1.61,0,0,0-2.28,0L32.65,8.53Z" transform="translate(-1 -1)"/><line class="cls-2" x1="20.54" y1="9.58" x2="20.54" y2="23.8"/><line class="cls-3" x1="13.25" y1="32.29" x2="20.54" y2="23.8"/></svg>