<svg id="bluePrint" xmlns="http://www.w3.org/2000/svg" viewBox="0 0 201.7 271.26"><defs><style>.cls-1,.cls-5{fill:#0f64ed;}.cls-2,.cls-6{fill:none;stroke-miterlimit:10;stroke-width:0.5px;}.cls-2{stroke:#ededee;}.cls-2,.cls-3,.cls-4{opacity:0.4;}.cls-3{fill:#ededee;}.cls-4,.cls-7{fill:#fff;}.cls-5{font-size:20.4px;font-family:San Francisco Display;font-weight:700;}.cls-6{stroke:#fff;}</style></defs><title>droneBlueprint</title><rect class="cls-1" width="201.7" height="271.26"/><rect class="cls-2" x="4.15" y="3.77" width="194.75" height="263.84"/><rect class="cls-3" x="59.51" y="19.85" width="48.22" height="4.28"/><rect class="cls-3" x="59.51" y="30.05" width="48.22" height="4.28"/><rect class="cls-3" x="59.51" y="40.48" width="21.09" height="4.28"/><circle class="cls-3" cx="35.28" cy="35.97" r="16.11"/><rect class="cls-3" x="144.23" y="229.03" width="39.36" height="4.28"/><rect class="cls-3" x="144.23" y="239.23" width="39.36" height="4.28"/><rect class="cls-3" x="144.23" y="249.43" width="39.36" height="4.28"/><rect class="cls-3" x="83.22" y="229.03" width="39.36" height="4.28"/><rect class="cls-3" x="83.22" y="239.23" width="39.36" height="4.28"/><rect class="cls-3" x="83.22" y="249.43" width="39.36" height="4.28"/><rect class="cls-3" x="22.21" y="229.03" width="39.36" height="4.28"/><rect class="cls-3" x="22.21" y="239.23" width="39.36" height="4.28"/><rect class="cls-3" x="22.21" y="249.43" width="39.36" height="4.28"/><circle class="cls-4" cx="41.89" cy="205.94" r="16.11"/><circle class="cls-4" cx="102.9" cy="205.94" r="16.11"/><circle class="cls-4" cx="163.91" cy="205.94" r="16.11"/><text class="cls-5" transform="translate(37.01 211.96)">1</text><text class="cls-5" transform="translate(97.23 211.96) scale(0.99 1)">2</text><text class="cls-5" transform="translate(158.23 211.96) scale(0.99 1)">3</text><path class="cls-6" d="M70.73,158.81h0A1.7,1.7,0,0,1,69,157.1c0.06-6.63,2.22-11.43,6.43-14.29,9.51-6.45,25.91-.22,26.6.05a1.7,1.7,0,0,1-1.22,3.16h0c-0.15-.06-15.44-5.86-23.47-0.4-3.23,2.19-4.89,6.07-4.94,11.51A1.7,1.7,0,0,1,70.73,158.81Z" transform="translate(-1 -1)"/><path class="cls-6" d="M134.27,158.81a1.7,1.7,0,0,1-1.7-1.68c0-5.44-1.71-9.32-4.94-11.51-8-5.46-23.32.34-23.47,0.4a1.7,1.7,0,0,1-1.22-3.16c0.69-.27,17.09-6.5,26.6-0.05,4.21,2.86,6.38,7.67,6.43,14.29a1.7,1.7,0,0,1-1.68,1.71h0Z" transform="translate(-1 -1)"/><rect class="cls-6" x="96.96" y="146.2" width="9.98" height="8.85"/><path class="cls-6" d="M72.89,112.94L34,97.24V95.73l7.22-.38,15.31,4.73c6,1.62,16.18,2.44,22.42,2.44" transform="translate(-1 -1)"/><path class="cls-6" d="M123.14,137.36l4.62-5.64a25.5,25.5,0,0,0,6.5-17.89,11.67,11.67,0,0,0-1.18-5.28,5.59,5.59,0,0,0-2.23-1.84" transform="translate(-1 -1)"/><path class="cls-6" d="M76.63,106.51a6.1,6.1,0,0,0-2.61,2,11.67,11.67,0,0,0-1.18,5.28,25.5,25.5,0,0,0,6.5,17.89L84,137.36" transform="translate(-1 -1)"/><circle class="cls-6" cx="101.95" cy="161.11" r="9.21"/><circle class="cls-6" cx="101.95" cy="161.11" r="4.99"/><polygon class="cls-7" points="97.23 163.17 104.6 156.63 106 157.87 98.01 164.36 97.23 163.17"/><polygon class="cls-7" points="98.72 164.99 106.21 158.34 106.48 159.01 99.63 165.77 98.72 164.99"/><circle class="cls-6" cx="101.95" cy="161.11" r="4.99"/><path class="cls-6" d="M134.21,113.08l39.17-15.83V95.73l-7.22-.38-15.31,4.73c-6,1.62-15.16,2.44-21.41,2.44" transform="translate(-1 -1)"/><path class="cls-6" d="M77.15,115.71l-5.21,5.05A41.48,41.48,0,0,1,56,130.37l-28.77,9.46v2l9.56,2.64,52.07-16.82" transform="translate(-1 -1)"/><rect class="cls-6" x="31.94" y="115.7" width="4.37" height="23.33" rx="1.51" ry="1.51"/><rect class="cls-6" x="167.02" y="77.59" width="3.56" height="18.96" rx="1.22" ry="1.22" transform="translate(336.6 173.15) rotate(-180)"/><path class="cls-6" d="M134.21,113.08l39.17-15.83V95.73L150,104.62A36.88,36.88,0,0,1,138.72,107l-6.85.33" transform="translate(-1 -1)"/><rect class="cls-6" x="35.85" y="76.59" width="3.56" height="18.96" rx="1.22" ry="1.22"/><path class="cls-6" d="M130.27,115.71l5.21,5.05a41.48,41.48,0,0,0,15.9,9.61l28.77,9.46v2l-9.56,2.64-52.07-16.82" transform="translate(-1 -1)"/><rect class="cls-6" x="170.12" y="116.7" width="4.37" height="23.33" rx="1.51" ry="1.51" transform="translate(343.61 255.72) rotate(-180)"/><path class="cls-6" d="M170.61,144.44v-2.11s-28-7.94-33.9-12.25-8.55-11.63-18.17-13.38v10.91Z" transform="translate(-1 -1)"/><polygon class="cls-6" points="179.17 138.84 179.17 140.8 169.61 143.44 169.61 141.33 179.17 138.84"/><path class="cls-6" d="M72.89,112.94L34,97.24V95.73l23.33,8.89A36.88,36.88,0,0,0,68.71,107l6.53,0.32" transform="translate(-1 -1)"/><path class="cls-6" d="M36.82,144.44v-2.11s28-7.94,33.9-12.25,8.55-11.63,18.17-13.38v10.91Z" transform="translate(-1 -1)"/><path class="cls-6" d="M71.48,107.18v3.69c0,5.18,14.46,9.39,32.3,9.39s32.3-4.2,32.3-9.39v-3.69" transform="translate(-1 -1)"/><ellipse class="cls-6" cx="102.78" cy="107.23" rx="32.3" ry="9.39"/><ellipse class="cls-6" cx="102.78" cy="105.71" rx="27.06" ry="7.86"/><path class="cls-6" d="M98,150.49a39.22,39.22,0,0,0,5.42.37,40,40,0,0,0,4.56-.26v-3.82H98v3.71Z" transform="translate(-1 -1)"/><polygon class="cls-6" points="26.26 138.84 26.26 140.8 35.82 143.44 35.82 141.33 26.26 138.84"/><path class="cls-6" d="M124.35,134.9v6.85c0,4-9.21,7.22-20.56,7.22s-20.56-3.23-20.56-7.22V134.9" transform="translate(-1 -1)"/><path class="cls-6" d="M83.19,134.21v3.09c0,3.94,9.11,7.14,20.35,7.14s20.35-3.2,20.35-7.14v-3.09S117.7,131,103.55,131,83.19,134.21,83.19,134.21Z" transform="translate(-1 -1)"/><path class="cls-6" d="M123.9,135.42c0,3.94-9.11,7.14-20.35,7.14s-20.35-3.2-20.35-7.14" transform="translate(-1 -1)"/><path class="cls-6" d="M130.84,177.72h-0.22a1.89,1.89,0,0,1-1.65-2.09c1.09-9.36.21-16.7-2.63-21.81-3.57-6.44-9-7-9.25-7a1.88,1.88,0,0,1,.3-3.76c0.31,0,7.65.67,12.25,9,3.22,5.82,4.26,13.92,3.07,24.07A1.89,1.89,0,0,1,130.84,177.72Z" transform="translate(-1 -1)"/><path class="cls-6" d="M72.81,177.72a1.88,1.88,0,0,1-1.87-1.67c-1.19-10.19,0-18.31,3.55-24.14A17.92,17.92,0,0,1,87.63,143a1.88,1.88,0,0,1,.27,3.76c-0.27,0-6.25.59-10.19,7.09-3.1,5.1-4.11,12.41-3,21.75A1.89,1.89,0,0,1,73,177.71H72.81Z" transform="translate(-1 -1)"/><path class="cls-6" d="M53.3,114.19l-15,2.23,5.68-3.92c-2.72-.27-5.69-0.41-8.8-0.41s-5.85.14-8.47,0.38l5.72,4-15.3-2.27c-3.21.95-5.13,2.16-5.13,3.47s1.58,2.29,4.25,3.19l15.42-2.29-6,4.14a93,93,0,0,0,19,0l-6-4.14,15.42,2.29c2.68-.9,4.25-2,4.25-3.19S56.43,115.13,53.3,114.19Z" transform="translate(-1 -1)"/><path class="cls-6" d="M31.24,118.52a3.88,3.88,0,1,1,7.77,0h0a13.49,13.49,0,0,1-7.77,0h0Z" transform="translate(-1 -1)"/><path class="cls-6" d="M57.18,74.91l-15,2.23,5.68-3.92C45.1,73,42.13,72.81,39,72.81s-5.85.14-8.47,0.38l5.72,4L21,74.87c-3.21.95-5.13,2.16-5.13,3.47s1.58,2.29,4.25,3.19L35.5,79.24l-6,4.14a89.71,89.71,0,0,0,9.5.49,89.71,89.71,0,0,0,9.5-.49l-6-4.14,15.42,2.29c2.68-.9,4.25-2,4.25-3.19S60.31,75.85,57.18,74.91Z" transform="translate(-1 -1)"/><path class="cls-6" d="M35.13,79.24a3.88,3.88,0,1,1,7.77,0h0a13.49,13.49,0,0,1-7.77,0h0Z" transform="translate(-1 -1)"/><path class="cls-6" d="M187,74.15l-15,2.23,5.68-3.92c-2.72-.27-5.69-0.41-8.8-0.41s-5.85.14-8.47,0.38l5.72,4-15.3-2.27c-3.21.95-5.13,2.16-5.13,3.47s1.58,2.29,4.25,3.19l15.42-2.29-6,4.14a89.71,89.71,0,0,0,9.5.49,89.71,89.71,0,0,0,9.5-.49l-6-4.14,15.42,2.29c2.68-.9,4.25-2,4.25-3.19S190.1,75.1,187,74.15Z" transform="translate(-1 -1)"/><path class="cls-6" d="M164.91,78.49a3.88,3.88,0,0,1,7.77,0h0a13.49,13.49,0,0,1-7.77,0h0Z" transform="translate(-1 -1)"/><path class="cls-6" d="M190.13,114.19l-15,2.23,5.68-3.92c-2.72-.27-5.69-0.41-8.8-0.41s-5.85.14-8.47,0.38l5.72,4-15.3-2.27c-3.21.95-5.13,2.16-5.13,3.47s1.58,2.29,4.25,3.19l15.42-2.29-6,4.14a93,93,0,0,0,19,0l-6-4.14,15.42,2.29c2.68-.9,4.25-2,4.25-3.19S193.26,115.13,190.13,114.19Z" transform="translate(-1 -1)"/><path class="cls-6" d="M168.07,118.52a3.88,3.88,0,1,1,7.77,0h0a13.49,13.49,0,0,1-7.77,0h0Z" transform="translate(-1 -1)"/></svg>