<svg id="drone" xmlns="http://www.w3.org/2000/svg" viewBox="0 0 405.65 265.64"><defs><style>.cls-1,.cls-11,.cls-6{fill:none;stroke-miterlimit:10;}.cls-1{stroke:#163d4a;stroke-width:9px;}.cls-1,.cls-11{stroke-linecap:round;}.cls-2{fill:#214d59;}.cls-3{fill:#163d4a;}.cls-4{fill:#88f2e8;}.cls-5{fill:#ededee;}.cls-6{stroke:#02a39b;stroke-width:3px;}.cls-7{fill:#467984;}.cls-8{fill:#2c6370;}.cls-9{fill:#285460;}.cls-10{fill:#07232b;}.cls-11{stroke:#467984;stroke-width:10px;}</style></defs><title>simpleComm_droneAlt</title><path class="cls-1" d="M197.82,178.35S116.89,147,116.31,212" transform="translate(-1 -1)"/><path class="cls-1" d="M203.38,178.35S284.32,147,284.9,212" transform="translate(-1 -1)"/><rect class="cls-2" x="187.56" y="184.66" width="26.47" height="23.48"/><path class="cls-3" d="M143.36,102.13L19,53.13v-4l19.16-1L78.79,60.68a188.85,188.85,0,0,0,49.07,6.49H210l3.56,35-62.45,11.23Z" transform="translate(-1 -1)"/><path class="cls-3" d="M281.7,83.11c-7.2-12-58.33-15.95-58.33-15.95h-40s-51.13,4-58.33,15.95c-2,3.37-2.91,8.45-3.14,14a67.66,67.66,0,0,0,17.24,47.46l13.26,15h102l13.26-15a67.66,67.66,0,0,0,17.24-47.46C284.61,91.57,283.73,86.49,281.7,83.11Z" transform="translate(-1 -1)"/><circle class="cls-3" cx="200.79" cy="224.21" r="24.43"/><circle class="cls-4" cx="200.79" cy="224.21" r="13.23"/><polygon class="cls-5" points="187.56 230.34 207.82 212.35 211.54 215.62 189.81 233.28 187.56 230.34"/><polygon class="cls-5" points="192.22 234.51 212.49 216.52 212.8 218.66 194.47 237.45 192.22 234.51"/><circle class="cls-6" cx="200.79" cy="224.21" r="13.23"/><path class="cls-3" d="M264.29,102.13l124.36-49v-4l-19.16-1L328.86,60.68a188.85,188.85,0,0,1-49.07,6.49H197.62l-3.56,35,62.45,11.23Z" transform="translate(-1 -1)"/><path class="cls-3" d="M1,171.34l25.36,7,180.83-58.42V102.13H133.36l-13.83,13.4A110,110,0,0,1,77.33,141L1,166.13v5.21Z" transform="translate(-1 -1)"/><rect class="cls-7" x="15.06" y="103.75" width="11.6" height="61.88" rx="3.99" ry="3.99"/><rect class="cls-7" x="371.77" y="1" width="9.43" height="50.31" rx="3.25" ry="3.25" transform="translate(751.98 51.31) rotate(-180)"/><path class="cls-7" d="M388.65,53.13v-4L326.75,72.71A97.83,97.83,0,0,1,296.69,79L261,80.75v24Z" transform="translate(-1 -1)"/><rect class="cls-7" x="25.45" width="9.43" height="50.31" rx="3.25" ry="3.25"/><path class="cls-3" d="M406.65,171.34l-25.36,7L200.46,119.91V102.13h73.83l13.83,13.4a110,110,0,0,0,42.2,25.5l76.33,25.1v5.21Z" transform="translate(-1 -1)"/><rect class="cls-7" x="379.99" y="104.75" width="11.6" height="61.88" rx="3.99" ry="3.99" transform="translate(770.58 270.38) rotate(-180)"/><path class="cls-8" d="M381.29,178.34v-5.6s-74.2-21.07-89.93-32.5-22.69-30.87-48.21-35.48v29Z" transform="translate(-1 -1)"/><polygon class="cls-7" points="405.65 165.13 405.65 170.34 380.29 177.34 380.29 171.74 405.65 165.13"/><path class="cls-7" d="M19,53.13v-4L80.91,72.71A97.83,97.83,0,0,0,111,79l35.73,1.74v24Z" transform="translate(-1 -1)"/><path class="cls-8" d="M26.36,178.34v-5.6s74.2-21.07,89.93-32.5,22.69-30.87,48.21-35.48v29Z" transform="translate(-1 -1)"/><path class="cls-9" d="M118.31,89.29c0,13.75,38.36,24.9,85.69,24.9s85.69-11.15,85.69-24.9v-9.8H118.31v9.8Z" transform="translate(-1 -1)"/><ellipse class="cls-3" cx="203" cy="81.29" rx="85.69" ry="24.9"/><ellipse class="cls-9" cx="203" cy="77.25" rx="71.78" ry="20.86"/><path class="cls-3" d="M188.56,194.4a104,104,0,0,0,14.38,1,106,106,0,0,0,12.09-.68V184.56H188.56v9.84Z" transform="translate(-1 -1)"/><polygon class="cls-7" points="0 165.13 0 170.34 25.36 177.34 25.36 171.74 0 165.13"/><path class="cls-2" d="M258.56,171.2c0,10.57-24.43,19.14-54.56,19.14s-54.56-8.57-54.56-19.14V153H258.56V171.2Z" transform="translate(-1 -1)"/><path class="cls-10" d="M257.38,159.4c0,10.46-24.18,18.95-54,18.95s-54-8.48-54-18.95V151.2h108v8.21Z" transform="translate(-1 -1)"/><path class="cls-3" d="M257.38,154.4c0,10.46-24.18,18.95-54,18.95s-54-8.48-54-18.95V149h108v5.37Z" transform="translate(-1 -1)"/><path class="cls-11" d="M239.72,179.57S285,183,275.78,261.64" transform="translate(-1 -1)"/><path class="cls-11" d="M161.49,179.57s-48.83,3.41-39.66,82.07" transform="translate(-1 -1)"/></svg>