<svg xmlns="http://www.w3.org/2000/svg" xmlns:xlink="http://www.w3.org/1999/xlink" viewBox="0 0 355.93 323.69"><defs><style>.cls-1{fill:none;}.cls-2{isolation:isolate;}.cls-3{fill:#84afa7;}.cls-4{fill:#723818;}.cls-5{fill:#934c25;}.cls-6{clip-path:url(#clip-path);}.cls-7{fill:#f9cf70;}.cls-8{fill:#381e10;}.cls-9{fill:#492312;}.cls-10{fill:#fff;}.cls-11{fill:#ff3d20;}.cls-12{fill:#d82c1a;mix-blend-mode:multiply;}.cls-12,.cls-13{opacity:0.6;}.cls-13{fill:#fc9c92;mix-blend-mode:screen;}.cls-14{fill:#fce5e3;}</style><clipPath id="clip-path" transform="translate(-1 -1)"><path class="cls-1" d="M276.55,55.35V167c0,1.5-260.65,88.5-260.65,88.5V176.85Z"/></clipPath></defs><title>simpleComm_cake-01</title><g class="cls-2"><g id="cake"><polygon class="cls-3" points="22.8 300.96 64.38 323.69 355.93 229.22 266.38 185.65 22.8 300.96"/><path class="cls-4" d="M276.55,217.88L21.8,305.29a4.46,4.46,0,0,1-5.91-4.22V236.22l260.65-89.44v71.09Z" transform="translate(-1 -1)"/><polygon class="cls-4" points="275.55 126.08 14.9 215.52 14.9 150.27 275.55 60.84 275.55 126.08"/><polygon class="cls-5" points="275.55 173.74 14.9 263.17 14.9 213.68 275.55 124.25 275.55 173.74"/><g class="cls-6"><path class="cls-7" d="M279.33,113.75a21.34,21.34,0,0,0-8.61,4.26,10.18,10.18,0,0,1-7.17,2.35,15.23,15.23,0,0,0-6.36.87,22,22,0,0,0-6.36,3.5,10.81,10.81,0,0,1-7.42,2.55,15.23,15.23,0,0,0-6.36.87,22,22,0,0,0-6.36,3.5,10.81,10.81,0,0,1-7.42,2.55,15.23,15.23,0,0,0-6.36.87,22,22,0,0,0-6.36,3.5,10.81,10.81,0,0,1-7.42,2.55,15.23,15.23,0,0,0-6.36.87,22,22,0,0,0-6.36,3.5A10.81,10.81,0,0,1,183,148a15.23,15.23,0,0,0-6.36.87,22,22,0,0,0-6.36,3.5,10.81,10.81,0,0,1-7.42,2.55,15.23,15.23,0,0,0-6.36.87,22,22,0,0,0-6.36,3.5,10.81,10.81,0,0,1-7.42,2.55,15.23,15.23,0,0,0-6.36.87,22,22,0,0,0-6.36,3.5,10.81,10.81,0,0,1-7.42,2.55,15.23,15.23,0,0,0-6.36.87,22,22,0,0,0-6.36,3.5,10.81,10.81,0,0,1-7.42,2.55,15.23,15.23,0,0,0-6.36.87,22,22,0,0,0-6.36,3.5,10.81,10.81,0,0,1-7.42,2.55,15.23,15.23,0,0,0-6.36.87,22,22,0,0,0-6.36,3.5,10.81,10.81,0,0,1-7.42,2.55,15.23,15.23,0,0,0-6.36.87,22,22,0,0,0-6.36,3.5A10.81,10.81,0,0,1,42,196.36a15.23,15.23,0,0,0-6.36.87,22,22,0,0,0-6.36,3.5c-2.27,1.78-4.92,2.83-7.17,2.57a16.22,16.22,0,0,0-8.61,1.65C7,208,1.82,214.53,1.09,220.63c-1,8.21,5.87,12.52,14.45,9.58a22,22,0,0,0,6.36-3.5,10.81,10.81,0,0,1,7.42-2.55,15.24,15.24,0,0,0,6.36-.87A22,22,0,0,0,42,219.8a10.81,10.81,0,0,1,7.42-2.55,15.24,15.24,0,0,0,6.36-.87,22,22,0,0,0,6.36-3.5,10.81,10.81,0,0,1,7.42-2.55,15.24,15.24,0,0,0,6.36-.87,22,22,0,0,0,6.36-3.5,10.81,10.81,0,0,1,7.42-2.55,15.23,15.23,0,0,0,6.36-.87,22,22,0,0,0,6.36-3.5,10.81,10.81,0,0,1,7.42-2.55,15.24,15.24,0,0,0,6.36-.87,22,22,0,0,0,6.36-3.5,10.81,10.81,0,0,1,7.42-2.55,15.24,15.24,0,0,0,6.36-.87,22,22,0,0,0,6.36-3.5,10.81,10.81,0,0,1,7.42-2.55,15.24,15.24,0,0,0,6.36-.87,22,22,0,0,0,6.36-3.5,10.81,10.81,0,0,1,7.42-2.55,15.24,15.24,0,0,0,6.36-.87,22,22,0,0,0,6.36-3.5,10.81,10.81,0,0,1,7.42-2.55,15.23,15.23,0,0,0,6.36-.87,22,22,0,0,0,6.36-3.5,10.81,10.81,0,0,1,7.42-2.55,15.24,15.24,0,0,0,6.36-.87,22,22,0,0,0,6.36-3.5,10.81,10.81,0,0,1,7.42-2.55,15.24,15.24,0,0,0,6.36-.87,22,22,0,0,0,6.36-3.5,10.81,10.81,0,0,1,7.42-2.55,15.24,15.24,0,0,0,6.36-.87,22,22,0,0,0,6.36-3.5,10.81,10.81,0,0,1,7.42-2.55,15.24,15.24,0,0,0,6.36-.87c8.58-2.94,15.43-12,14.45-19.49C291,115.29,285.84,112.3,279.33,113.75Z" transform="translate(-1 -1)"/></g><polygon class="cls-8" points="275.55 60.84 91.95 123.39 79.26 134.75 275.55 67.41 275.55 60.84"/><path class="cls-9" d="M15.86,151.27S106,42.35,106,40.35s102.09-35,170.54,21.48Z" transform="translate(-1 -1)"/><path class="cls-9" d="M30.68,143.93l-9.47,3.8c-5.31,1.88-6.67,3-6.67,11.62l0,7.31c0,9.16,10.94,4.55,12.9-1,1-2.81.81-6.06,2.24-8.65a4.78,4.78,0,0,1,3.52-2.64c2.7-.24,4.71,2.85,5,5.73s-0.56,5.76-.51,8.65,1.49,6.18,4.16,6.63A3.75,3.75,0,0,0,45.3,174a7.55,7.55,0,0,0,1.24-3.26c0.81-4.17.22-8.06,0.35-12.22a10.93,10.93,0,0,1,2-6.56,12.62,12.62,0,0,1,2.47-2.15c6.39-4.66,12.3-8.89,20.25-9.63,2.43-.23,4.89-0.15,7.3-0.57,5.06-.88,7.74-6.19,11.8-9.53,5.21-4.28,12-6.43,17.46-10.41Z" transform="translate(-1 -1)"/><path class="cls-10" d="M135.44,28c9.39-2.29,20.05,3.23,23.59,12.23a35.84,35.84,0,0,0,24.36,1.55c1.32-4.52,4.77-8.08,8.26-11.25,3.19-2.9,6.8-5.78,11.09-6.24,7.92-.85,14.27,6.87,16.49,14.52,1.67,5.75,1.89,12.12-.58,17.57s-8,9.71-14,9.56c-1.82,0-3.67-.48-5.43,0s-3.2,1.77-4.62,2.94a39.3,39.3,0,0,1-33.26,7.71c-4.53-1.06-12.49-1-15.13-4.83A32.42,32.42,0,0,1,143,65.12s-7.15,1.32-10.41-.09c-8.31-3.61-13.53-8.08-12.68-17.36C120.79,38.69,126.28,30.25,135.44,28Z" transform="translate(-1 -1)"/><path class="cls-11" d="M147.8,29c4.13-15.16,11.56-28,25.82-28s21.6,12.64,25.82,28c4.17,15.11,1.71,28-25.82,28C145.8,56.9,143.68,44.07,147.8,29Z" transform="translate(-1 -1)"/><path class="cls-12" d="M165.1,38c2.79-10.23,7.8-18.87,17.43-18.87S197.11,27.69,200,38s1.16,18.87-17.43,18.87C163.75,56.9,162.32,48.24,165.1,38Z" transform="translate(-1 -1)"/><path class="cls-10" d="M173.76,35.14c-4.9-1.35-10.32.13-14.36,3.21A26.16,26.16,0,0,0,151,50.79c-1.4,4.09-1.85,9.2,1.25,12.23,1.75,1.71,4.25,2.36,6.66,2.8,8.21,1.52,25.87,3.64,30.56-5.81C194.05,50.72,182.21,37.47,173.76,35.14Z" transform="translate(-1 -1)"/><path class="cls-13" d="M156,26.49a1.69,1.69,0,0,0,1.29-1.25q0.12-.49.25-1c1.94-7.13,5.27-13.27,11.29-14.55a1.7,1.7,0,0,0,1.2-2.26l0-.09a1.7,1.7,0,0,0-1.75-1.11c-7.52.76-11.54,7.94-13.84,16.37q-0.26.95-.46,1.87a1.71,1.71,0,0,0,2,2h0Z" transform="translate(-1 -1)"/><path class="cls-14" d="M174.63,40.25A4.59,4.59,0,0,0,168,41a27.68,27.68,0,0,0-7.83,26.26c0.7,2.88,2,5.79,4.44,7.47A12.75,12.75,0,0,0,171,76.57a32.45,32.45,0,0,0,24.79-9.2,6.39,6.39,0,0,1,1.87-1.48,6.89,6.89,0,0,1,2.78-.29c10.41,0.08,19.67-10.18,18.53-20.53S209.59,26.61,199.44,29c1.6,8.11,1.94,11.07-.06,16.49-1.59,4.31-7.82,11.29-13.36,7.46-1.75-1.21-3.16-5.37-4.7-7.12A27.67,27.67,0,0,0,174.63,40.25Z" transform="translate(-1 -1)"/></g></g></svg>