<svg id="bassoBody_face" xmlns="http://www.w3.org/2000/svg" xmlns:xlink="http://www.w3.org/1999/xlink" viewBox="0 0 92.99 80.47"><defs><style>.cls-1{fill:url(#linear-gradient);}.cls-2{fill:url(#linear-gradient-2);}</style><linearGradient id="linear-gradient" x1="33.57" y1="24.38" x2="66.07" y2="78.9" gradientUnits="userSpaceOnUse"><stop offset="0" stop-color="#72c9bf"/><stop offset="1" stop-color="#44a1a2"/></linearGradient><linearGradient id="linear-gradient-2" x1="61.14" y1="36.81" x2="44.61" y2="60.83" gradientUnits="userSpaceOnUse"><stop offset="0" stop-color="#44a1a2"/><stop offset="1" stop-color="#44a1a2" stop-opacity="0"/></linearGradient></defs><title>basso_head</title><path class="cls-1" d="M75.23,1S39.05,3.81,21.9,12.85,1.29,51.08,1,81.47L75.23,69,72.42,41.23,87,36.38a10.22,10.22,0,0,0,6.72-12s-2.31-6.71-2.67-8.26-1.07-8-1.07-8A9.25,9.25,0,0,0,81,1H75.23Z" transform="translate(-1 -1)"/><path class="cls-2" d="M72.42,41.23s-34.78,9.67-51,10c0,0-12.87,2.34-12.87,12.87V80.2L75.23,69Z" transform="translate(-1 -1)"/></svg>