<svg id="tiedShoe" xmlns="http://www.w3.org/2000/svg" xmlns:xlink="http://www.w3.org/1999/xlink" viewBox="0 0 71.97 133.07"><defs><style>.cls-1,.cls-7{fill:#fff;}.cls-2{fill:#172c2d;}.cls-3{fill:#3c4444;}.cls-4,.cls-5,.cls-6,.cls-8,.cls-9{fill:none;}.cls-4,.cls-5,.cls-6{stroke:#4c4e51;}.cls-4,.cls-6,.cls-7,.cls-9{stroke-miterlimit:10;}.cls-5,.cls-7,.cls-8{stroke-linecap:round;}.cls-5,.cls-8{stroke-linejoin:round;}.cls-6,.cls-9{stroke-width:2px;}.cls-7,.cls-8{stroke:#818284;stroke-width:3px;}.cls-9{stroke:#a7a9ac;}.cls-10{fill:url(#linear-gradient);}.cls-11{fill:url(#linear-gradient-2);}.cls-12{fill:url(#linear-gradient-3);}.cls-13{fill:url(#linear-gradient-4);}.cls-14{fill:#d1d1d1;}</style><linearGradient id="linear-gradient" x1="30.07" y1="76.27" x2="22.57" y2="80.52" gradientUnits="userSpaceOnUse"><stop offset="0" stop-color="#c7c7c7"/><stop offset="0.25" stop-color="#d9d9d9"/><stop offset="0.73" stop-color="#f5f5f5"/><stop offset="1" stop-color="#fff"/></linearGradient><linearGradient id="linear-gradient-2" x1="-522.84" y1="76.93" x2="-530.34" y2="81.18" gradientTransform="matrix(-0.95, -0.32, -0.32, 0.95, -427.73, -162.71)" xlink:href="#linear-gradient"/><linearGradient id="linear-gradient-3" x1="28" y1="72.05" x2="21.25" y2="58.55" xlink:href="#linear-gradient"/><linearGradient id="linear-gradient-4" x1="-525.06" y1="145.52" x2="-531.72" y2="132.21" gradientTransform="matrix(-0.97, 0.23, 0.23, 0.97, -500.55, 52.85)" xlink:href="#linear-gradient"/></defs><title>byteShoe-Tied</title><path class="cls-1" d="M36,1C31.52,1-2.4,8,15.67,83.37H37l19.29,1C74.35,9,40.74,1,36.45,1H36Z" transform="translate(-1 -1)"/><path class="cls-2" d="M35.59,4C31.25,4.6,12,9.19,12,43.93c0,33.34,4.89,31.37,3.74,48.35C14.6,109,17.66,133.27,35.59,134v0l0.43,0,0.43,0v0c17.93-.76,21-25,19.86-41.76-1.15-17,3.74-9.21,3.74-48.35C60.06,9.19,40.79,4.6,36.46,4H35.59Z" transform="translate(-1 -1)"/><path class="cls-3" d="M36.44,129.62c5.89,0,11.61-3.17,14.09-15.92a37.93,37.93,0,0,0-3.3-23.3h-22a37.93,37.93,0,0,0-3.3,23.3c2.48,12.75,8.2,15.92,14.09,15.92" transform="translate(-1 -1)"/><path class="cls-2" d="M30.93,67.89l-0.37,9.66L23.84,93.76s11.23,7.93,25.68,0L41.23,77.27V67.89S37.32,63.74,30.93,67.89Z" transform="translate(-1 -1)"/><path class="cls-4" d="M49.73,118a34.35,34.35,0,0,0-2-27.6L43.1,81.61a15.52,15.52,0,0,1-1.87-7.39V67.89s-4.31-4-10.3,0v6.34a15.52,15.52,0,0,1-1.87,7.39l-4.37,10a38.34,38.34,0,0,0-2.33,24.14C24,122.87,27.8,129.62,36,129.62,43.38,129.62,47.47,124.22,49.73,118Z" transform="translate(-1 -1)"/><path class="cls-1" d="M13.54,26.22s4.77-22.4,22.74-22.4c14.08,0,20.72,16.83,21.67,22.4H50.59a33.34,33.34,0,0,1-3.66-.2c-2.65-.29-7.59-0.8-10-0.8s-6.51.49-8.81,0.78a26.54,26.54,0,0,1-3.36.22H13.54Z" transform="translate(-1 -1)"/><path class="cls-5" d="M30.84,68.71S29.13,42,24.55,36A45.86,45.86,0,0,0,14.1,26.22S21,4,35.59,4,57.81,26.33,57.81,26.33A44.94,44.94,0,0,0,47.52,36c-4.59,6-6.29,32.75-6.29,32.75" transform="translate(-1 -1)"/><circle class="cls-6" cx="22.84" cy="62.24" r="2.47"/><circle class="cls-6" cx="21.47" cy="50.23" r="2.47"/><circle class="cls-6" cx="47.91" cy="62.24" r="2.47"/><line class="cls-7" x1="23.45" y1="62.24" x2="48.52" y2="76.27"/><line class="cls-7" x1="47.74" y1="61.95" x2="23.01" y2="76.56"/><circle class="cls-6" cx="49.28" cy="50.23" r="2.47"/><polyline class="cls-8" points="47.74 61.95 21.47 50.23 49.28 50.23 23.45 62.24"/><circle class="cls-9" cx="23.08" cy="77.08" r="2.47"/><circle class="cls-9" cx="47.71" cy="77.08" r="2.47"/><path class="cls-10" d="M35.33,72.72c0.14,1.42,1.15,2.44,1.08,3.87,0-.19-1.24.16-1.44,0.15a16,16,0,0,0-9.09,2.59c-3.18,2-5.61-1.45-2.44-3.21C26.86,74.21,31.52,73.41,35.33,72.72Z" transform="translate(-1 -1)"/><path class="cls-11" d="M40.17,70.35c-0.58,1.3-2,1.5-2.43,2.88a3.29,3.29,0,0,1,1.35.34c3.08,0.86,5.91,3.59,8,6,2.4,2.87,5.78.39,3.33-2.28C47.74,74.44,43.57,72.21,40.17,70.35Z" transform="translate(-1 -1)"/><path class="cls-12" d="M34.64,73.25a23.83,23.83,0,0,1-7.35,1.52,7.63,7.63,0,0,1-3.14-.37c-2.2-.86-3.38-3.31-3.73-5.65S20.34,64,20,61.67a14,14,0,0,0-4-7.9,2.15,2.15,0,0,1,.89-1.85A5.56,5.56,0,0,1,15.6,49a1.92,1.92,0,0,1,1.93-2.09q0.19,2.12.54,4.22a2.06,2.06,0,0,1,1.61-.29,32,32,0,0,1,3.26,13.79c0,2-.09,4.16,1.13,5.73a5.39,5.39,0,0,0,4.69,1.75,15.91,15.91,0,0,0,5-1.54A9.54,9.54,0,0,0,34.64,73.25Z" transform="translate(-1 -1)"/><path class="cls-1" d="M20.19,69.26a22.33,22.33,0,0,0-9.93.53C4.9,71.58-3.23,80.56,3.63,85.48c3,2.14,7.33,1.29,10.64.32,7.23-2.12,13.32-7.11,20.06-10.12a1.44,1.44,0,0,0,.61-0.4A1.13,1.13,0,0,0,35,74.42L34.58,71.5c-6.82,4.31-15.35,11.43-24.2,11.31a7.47,7.47,0,0,1-3.8-.89A4,4,0,0,1,4.93,80c-0.71-1.89.37-4,2.06-5.34,6.36-5,16.12-.76,23.75-0.86a4.78,4.78,0,0,0,2.84-.66,1.29,1.29,0,0,0-.09-2.22,2.53,2.53,0,0,0-.75-0.13c-4-.26-7.79-0.83-11.71-1.39Z" transform="translate(-1 -1)"/><path class="cls-13" d="M37.84,73.64a23.83,23.83,0,0,0,7.5-.25,7.63,7.63,0,0,0,3-1.1c1.94-1.36,2.51-4,2.3-6.36s-1-4.62-1.27-7a15.37,15.37,0,0,1,1.81-9.1A1.31,1.31,0,0,0,50,48.75a5.56,5.56,0,0,0,.63-3.15c-0.22-1.07-.61-1.19-1.6-0.76a7.86,7.86,0,0,1-.3,3.42,1.32,1.32,0,0,0-1.26.28,31.2,31.2,0,0,0-.3,14c0.45,1.93,1.07,4,.25,5.83a5.39,5.39,0,0,1-4.15,2.8,15.91,15.91,0,0,1-5.18-.33A9.54,9.54,0,0,1,37.84,73.64Z" transform="translate(-1 -1)"/><path class="cls-1" d="M51.68,81.25a23.49,23.49,0,0,0,9.41,2.48c5.5,0,15.55-5.33,10.51-11.63-2.19-2.73-6.48-3.28-9.84-3.42-7.33-.3-14.38,2.22-21.5,2.83a1.42,1.42,0,0,0-.68.17,1,1,0,0,0-.32.71l-0.38,2.66c7.54-1.72,17.47-5.36,25.69-2.63a7.77,7.77,0,0,1,3.3,1.9,3.7,3.7,0,0,1,1,2.17c0.15,1.85-1.45,3.37-3.39,4-7.3,2.42-15.25-5.32-22.4-7.49a5,5,0,0,0-2.83-.27,1.13,1.13,0,0,0-.53,1.95,2.65,2.65,0,0,0,.66.33c3.62,1.4,7,4.23,10.55,5.88Z" transform="translate(-1 -1)"/><path class="cls-1" d="M36.44,69.29a3.09,3.09,0,0,1,2-.4,4.81,4.81,0,0,1,2.24.45,1,1,0,0,1,.31.28,0.92,0.92,0,0,1,.12.55,27.64,27.64,0,0,0,.39,4.39c0.23,1.43-1.41,2.72-3.42,2.55h0a1.47,1.47,0,0,1-.88-0.27,0.52,0.52,0,0,1,0-.54,7.64,7.64,0,0,0,.11-3.82C37,71.75,35.73,69.95,36.44,69.29Z" transform="translate(-1 -1)"/><path class="cls-14" d="M38.67,72.58a5.93,5.93,0,0,1-.11,2.33l-0.27,1.43a1,1,0,0,1-.36.71,1.12,1.12,0,0,1-1.08.1,5,5,0,0,0-.19-5.94c-0.41-.56-1.41-1.54-0.09-1.89A6.73,6.73,0,0,1,38.67,72.58Z" transform="translate(-1 -1)"/><path class="cls-1" d="M33.05,71.24a2.86,2.86,0,0,1,.66,2c0,1.3.4,2.21-1,3.19,1.37,0.21,2.22.82,3.63,0.84a1.09,1.09,0,0,0,.5-0.07,0.43,0.43,0,0,0,.19-0.24,7.81,7.81,0,0,0,.74-3.79,5.56,5.56,0,0,0-.95-2.63,2,2,0,0,0-1.24-1.25c-0.22,0-1,.11-1.25,0-0.43-.11-1.28-0.17-1.73-0.24-1.07-.16-1.2,1.6-1.2,1.6A1.93,1.93,0,0,1,33.05,71.24Z" transform="translate(-1 -1)"/><path class="cls-14" d="M30.74,73.76a3.7,3.7,0,0,0,2.56-.47c1.2-.77,0,2.63,0,2.63S28.51,78.41,30.74,73.76Z" transform="translate(-1 -1)"/><path class="cls-14" d="M32,70.69c-0.15,0,1.61-.67,1.72.64l0.1,1.31S33.48,70.76,32,70.69Z" transform="translate(-1 -1)"/></svg>