<?xml version="1.0" encoding="utf-8"?>
<!-- Generator: Adobe Illustrator 20.0.0, SVG Export Plug-In . SVG Version: 6.00 Build 0)  -->
<svg version="1.1" id="Layer_1" xmlns="http://www.w3.org/2000/svg" xmlns:xlink="http://www.w3.org/1999/xlink" x="0px" y="0px"
	 viewBox="0 0 432.9 407.1" style="enable-background:new 0 0 432.9 407.1;" xml:space="preserve">
<style type="text/css">
	.st0{opacity:0.2;}
	.st1{fill:#723818;}
	.st2{fill:#934C25;}
	.st3{clip-path:url(#SVGID_2_);fill:#F9CF70;}
	.st4{fill:#210E06;}
	.st5{fill:#492312;}
	.st6{opacity:0.4;fill:#210E06;}
	.st7{fill:#FFFFFF;}
	.st8{fill:#FF3D20;}
	.st9{opacity:0.6;fill:#D82C1A;}
	.st10{opacity:0.6;fill:#FC9C92;}
	.st11{fill:#FCE5E3;}
	.st12{opacity:0.2;fill:#180023;}
	.st13{fill:none;stroke:#934C25;stroke-width:2;stroke-linecap:round;stroke-miterlimit:10;}
</style>
<polygon class="st0" points="57.5,340.2 99.1,362.9 396,265.6 306.4,222 "/>
<path class="st1" d="M315.6,253.3L60.9,340.7c-2.9,1-5.9-1.2-5.9-4.2v-64.8l260.7-89.4V253.3z"/>
<polygon class="st1" points="315.6,162.5 55,251.9 55,186.7 315.6,97.2 "/>
<polygon class="st2" points="315.6,210.1 55,299.6 55,250.1 315.6,160.6 "/>
<g>
	<defs>
		<path id="SVGID_1_" d="M315.6,90.7c0,0,0,110.2,0,111.7S55,290.9,55,290.9v-78.7L315.6,90.7z"/>
	</defs>
	<clipPath id="SVGID_2_">
		<use xlink:href="#SVGID_1_"  style="overflow:visible;"/>
	</clipPath>
	<path class="st3" d="M318.4,149.1c-3.1,0.7-6.1,2.2-8.6,4.3c-2.3,1.8-4.9,2.6-7.2,2.4c-1.9-0.2-4.1,0.1-6.4,0.9
		c-2.3,0.8-4.4,2-6.4,3.5c-2.4,1.8-5.1,2.8-7.4,2.5c-1.9-0.2-4.1,0.1-6.4,0.9c-2.3,0.8-4.4,2-6.4,3.5c-2.4,1.8-5.1,2.8-7.4,2.5
		c-1.9-0.2-4.1,0.1-6.4,0.9c-2.3,0.8-4.4,2-6.4,3.5c-2.4,1.8-5.1,2.8-7.4,2.5c-1.9-0.2-4.1,0.1-6.4,0.9c-2.3,0.8-4.4,2-6.4,3.5
		c-2.4,1.8-5.1,2.8-7.4,2.5c-1.9-0.2-4.1,0.1-6.4,0.9c-2.3,0.8-4.4,2-6.4,3.5c-2.4,1.8-5.1,2.8-7.4,2.5c-1.9-0.2-4.1,0.1-6.4,0.9
		c-2.3,0.8-4.4,2-6.4,3.5c-2.4,1.8-5.1,2.8-7.4,2.5c-1.9-0.2-4.1,0.1-6.4,0.9s-4.4,2-6.4,3.5c-2.4,1.8-5.1,2.8-7.4,2.5
		c-1.9-0.2-4.1,0.1-6.4,0.9c-2.3,0.8-4.4,2-6.4,3.5c-2.4,1.8-5.1,2.8-7.4,2.5c-1.9-0.2-4.1,0.1-6.4,0.9c-2.3,0.8-4.4,2-6.4,3.5
		c-2.4,1.8-5.1,2.8-7.4,2.5c-1.9-0.2-4.1,0.1-6.4,0.9c-2.3,0.8-4.4,2-6.4,3.5c-2.4,1.8-5.1,2.8-7.4,2.5c-1.9-0.2-4.1,0.1-6.4,0.9
		c-2.3,0.8-4.4,2-6.4,3.5c-2.4,1.8-5.1,2.8-7.4,2.5c-1.9-0.2-4.1,0.1-6.4,0.9c-2.3,0.8-4.4,2-6.4,3.5c-2.3,1.8-4.9,2.8-7.2,2.6
		c-2.5-0.3-5.5,0.2-8.6,1.6c-6.5,3-11.7,9.6-12.4,15.7c-1,8.2,5.9,12.5,14.4,9.6c2.3-0.8,4.4-2,6.4-3.5c2.4-1.8,5.1-2.8,7.4-2.5
		c1.9,0.2,4.1-0.1,6.4-0.9c2.3-0.8,4.4-2,6.4-3.5c2.4-1.8,5.1-2.8,7.4-2.5c1.9,0.2,4.1-0.1,6.4-0.9c2.3-0.8,4.4-2,6.4-3.5
		c2.4-1.8,5.1-2.8,7.4-2.5c1.9,0.2,4.1-0.1,6.4-0.9c2.3-0.8,4.4-2,6.4-3.5c2.4-1.8,5.1-2.8,7.4-2.5c1.9,0.2,4.1-0.1,6.4-0.9
		c2.3-0.8,4.4-2,6.4-3.5c2.4-1.8,5.1-2.8,7.4-2.5c1.9,0.2,4.1-0.1,6.4-0.9c2.3-0.8,4.4-2,6.4-3.5c2.4-1.8,5.1-2.8,7.4-2.5
		c1.9,0.2,4.1-0.1,6.4-0.9s4.4-2,6.4-3.5c2.4-1.8,5.1-2.8,7.4-2.5c1.9,0.2,4.1-0.1,6.4-0.9c2.3-0.8,4.4-2,6.4-3.5
		c2.4-1.8,5.1-2.8,7.4-2.5c1.9,0.2,4.1-0.1,6.4-0.9c2.3-0.8,4.4-2,6.4-3.5c2.4-1.8,5.1-2.8,7.4-2.5c1.9,0.2,4.1-0.1,6.4-0.9
		c2.3-0.8,4.4-2,6.4-3.5c2.4-1.8,5.1-2.8,7.4-2.5c1.9,0.2,4.1-0.1,6.4-0.9c2.3-0.8,4.4-2,6.4-3.5c2.4-1.8,5.1-2.8,7.4-2.5
		c1.9,0.2,4.1-0.1,6.4-0.9c2.3-0.8,4.4-2,6.4-3.5c2.4-1.8,5.1-2.8,7.4-2.5c1.9,0.2,4.1-0.1,6.4-0.9c2.3-0.8,4.4-2,6.4-3.5
		c2.4-1.8,5.1-2.8,7.4-2.5c1.9,0.2,4.1-0.1,6.4-0.9c8.6-2.9,15.4-12,14.4-19.5C330.1,150.7,324.9,147.7,318.4,149.1z"/>
</g>
<polygon class="st4" points="315.6,97.2 55,186.7 55,195.2 315.6,103.8 "/>
<path class="st5" d="M54.9,186.7c0,0,89.3-109.1,90.1-110.9c1.1-2.3,102.1-35,170.5,21.5L54.9,186.7z"/>
<path class="st6" d="M179.5,68.4c9.4-2.3,20.1,3.2,23.6,12.2c7.6,3.3,16.4,3.9,24.4,1.5c1.3-4.5,4.8-8.1,8.3-11.2
	c3.2-2.9,3.9,15.8,8.2,15.4c7.9-0.8,11.8-0.5,15.6,0c5.9,0.8,5.6,5,3.2,10.5c-2.5,5.4-8,9.7-14,9.6c-1.8,0-3.7-0.5-5.4,0
	c-1.8,0.5-3.2,1.8-4.6,2.9c-9.1,7.5-21.8,10.4-33.3,7.7c-4.5-1.1-12.5-1-15.1-4.8c-1.8-2.6-3.2-6.6-3.2-6.6s-7.2,1.3-10.4-0.1
	c-8.3-3.6-13.5-8.1-12.7-17.4C164.8,79.1,170.3,70.6,179.5,68.4z"/>
<path class="st7" d="M174.5,63.4c9.4-2.3,20.1,3.2,23.6,12.2c7.6,3.3,16.4,3.9,24.4,1.5c1.3-4.5,4.8-8.1,8.3-11.2
	c3.2-2.9,6.8-5.8,11.1-6.2c7.9-0.8,14.3,6.9,16.5,14.5c1.7,5.7,1.9,12.1-0.6,17.6c-2.5,5.4-8,9.7-14,9.6c-1.8,0-3.7-0.5-5.4,0
	c-1.8,0.5-3.2,1.8-4.6,2.9c-9.1,7.5-21.8,10.4-33.3,7.7c-4.5-1.1-12.5-1-15.1-4.8c-1.8-2.6-3.2-6.6-3.2-6.6s-7.2,1.3-10.4-0.1
	c-8.3-3.6-13.5-8.1-12.7-17.4C159.8,74.1,165.3,65.6,174.5,63.4z"/>
<path class="st8" d="M186.9,64.3c4.1-15.2,11.6-28,25.8-28c14.3,0,21.6,12.6,25.8,28c4.2,15.1,1.7,28-25.8,28
	C184.9,92.3,182.7,79.5,186.9,64.3z"/>
<path class="st9" d="M204.2,73.4c2.8-10.2,7.8-18.9,17.4-18.9c9.6,0,14.6,8.5,17.4,18.9c2.8,10.2,1.2,18.9-17.4,18.9
	C202.8,92.3,201.4,83.6,204.2,73.4z"/>
<path class="st7" d="M212.8,70.5c-4.9-1.4-10.3,0.1-14.4,3.2c-4,3.1-6.8,7.6-8.4,12.4c-1.4,4.1-1.8,9.2,1.2,12.2
	c1.7,1.7,4.3,2.4,6.7,2.8c8.2,1.5,25.9,3.6,30.6-5.8C233.1,86.1,221.3,72.9,212.8,70.5z"/>
<path class="st10" d="M195.1,61.9c0.6-0.1,1.1-0.6,1.3-1.2c0.1-0.3,0.2-0.7,0.3-1c1.9-7.1,5.3-13.3,11.3-14.5c1-0.2,1.6-1.3,1.2-2.3
	l0-0.1c-0.3-0.7-1-1.2-1.8-1.1c-7.5,0.8-11.5,7.9-13.8,16.4c-0.2,0.6-0.3,1.3-0.5,1.9C192.8,61.1,193.9,62.1,195.1,61.9L195.1,61.9z
	"/>
<path class="st11" d="M213.7,75.6c-1.1-0.6-2.3-1.2-3.5-1.1c-1.2,0.1-2.2,0.9-3.1,1.8c-7,6.5-10.1,17-7.8,26.3
	c0.7,2.9,2,5.8,4.4,7.5c1.9,1.3,4.2,1.7,6.4,1.9c9.1,0.6,18.3-2.8,24.8-9.2c0.6-0.6,1.1-1.2,1.9-1.5c0.9-0.4,1.8-0.3,2.8-0.3
	c10.4,0.1,19.7-10.2,18.5-20.5s-9.4-18.5-19.6-16.1c1.6,8.1,1.9,11.1-0.1,16.5c-1.6,4.3-7.8,11.3-13.4,7.5c-1.8-1.2-3.2-5.4-4.7-7.1
	C218.5,79,216.2,77.1,213.7,75.6z"/>
<polygon class="st12" points="64.1,339.3 67.4,189.8 315.6,103.8 315.6,252.8 "/>
<line class="st13" x1="56.7" y1="186.4" x2="314.9" y2="97.7"/>
</svg>
