<svg id="blueBody" xmlns="http://www.w3.org/2000/svg" xmlns:xlink="http://www.w3.org/1999/xlink" viewBox="0 0 76.85 125.3"><defs><style>.cls-1{fill:url(#radial-gradient);}.cls-2{fill:#b44610;}.cls-3{fill:#d16626;}.cls-4{fill:#b34a11;}</style><radialGradient id="radial-gradient" cx="43.04" cy="32.61" r="70.81" gradientUnits="userSpaceOnUse"><stop offset="0.07" stop-color="#54cae8"/><stop offset="0.71" stop-color="#3686b4"/><stop offset="1" stop-color="#204c73"/></radialGradient></defs><title>blueBody</title><path class="cls-1" d="M76.92,90.07c1.9-15.79-3.7-34.62-12.17-53.57C52,8,44,0,44,0S32.25,5.25,15,36.25C4.65,54.85,0,71.73.48,85.72l.2,3A40.22,40.22,0,0,0,8.25,109.5a33.89,33.89,0,0,0,15.71,11l3.52,1.1a43.85,43.85,0,0,0,26.8-1.17l3.47-1.54a33.92,33.92,0,0,0,10-7.68,37,37,0,0,0,8.71-18.17Z" transform="translate(-0.44)"/><path class="cls-2" d="M77.09,88.2c.13-1.57.2-3.17.19-4.8-2.54,6-12.2,23.39-39,25.27-20.83,1.45-30.46-3.72-34.68-7.56a37.67,37.67,0,0,0,1.84,4c4.76,3,12.71,5.84,25.8,5.84,2.24,0,4.63-.08,7.17-.26C61.58,109,72.51,96.15,77.09,88.2Z" transform="translate(-0.44)"/><path class="cls-3" d="M38.14,124.92c-6.3,0-21.3-1.27-23.54-1.72a9.65,9.65,0,0,1-5.38-3.9,4.2,4.2,0,0,1-.74-3.22c.11-.48.23-1.05.36-1.68.66-3.2,1.56-7.59,3.61-9.19a8.46,8.46,0,0,1,5.07-1.36,13.65,13.65,0,0,1,1.89.12l22.62.83h.2c1.2,0,5.18.17,6.13,2.4,1.06,2.48-.15,9.75-1.17,12.13-1.15,2.69-2.84,5.23-7.32,5.56C39.41,124.91,38.83,124.92,38.14,124.92Z" transform="translate(-0.44)"/><path class="cls-4" d="M17.5,104.22a13.33,13.33,0,0,1,1.83.12l22.67.83h.22c1,0,4.91.13,5.78,2.17,1,2.33-.17,9.5-1.17,11.83s-2.5,5-7,5.33c-.44,0-1,0-1.7,0-6.23,0-21.22-1.26-23.47-1.71-2.5-.5-6.5-3.83-5.83-6.67s1.5-8.83,3.83-10.67a8.1,8.1,0,0,1,4.83-1.28m0-.75h0a8.82,8.82,0,0,0-5.3,1.45c-2.15,1.69-3.07,6.15-3.74,9.41-.13.62-.25,1.19-.36,1.67a4.56,4.56,0,0,0,.79,3.51,9.92,9.92,0,0,0,5.62,4.07c2.25.45,17.3,1.73,23.62,1.73.72,0,1.31,0,1.75,0,4.68-.35,6.43-3,7.63-5.79,1.07-2.49,2.28-9.82,1.17-12.42-1-2.37-4.86-2.62-6.47-2.62H42l-22.6-.83a14.42,14.42,0,0,0-1.9-.12Z" transform="translate(-0.44)"/><path class="cls-3" d="M31.2,111.77c-1.11,0-2.24,0-3.29-.07-4.59-.17-11.89-.83-14.87-1.25-.4-.06-3.14-.68-3.39-1.72a.8.8,0,0,1,.39-.87,1.41,1.41,0,0,0,.52-.58,6.83,6.83,0,0,1,1.87-2.07,7.76,7.76,0,0,1,4.9-1.4,13.4,13.4,0,0,1,2.07.15l22.62.83h.2a11.3,11.3,0,0,1,4.5.84.38.38,0,0,1-.16.71h0a5.86,5.86,0,0,0-.59,0,4.42,4.42,0,0,0-2.22.5,41.83,41.83,0,0,0-4.5,3.68c-.27.32-1.1,1.28-8,1.28Z" transform="translate(-0.44)"/><path class="cls-4" d="M17.33,104.19a13.13,13.13,0,0,1,2,.15l22.67.83h.22a11.09,11.09,0,0,1,4.34.8,6.12,6.12,0,0,0-.63,0,4.71,4.71,0,0,0-2.42.56,41.81,41.81,0,0,0-4.58,3.75c-.76.89-4.18,1.15-7.72,1.15-1.11,0-2.23,0-3.28-.07-4.64-.17-11.92-.83-14.83-1.25-.89-.13-4-1.08-2.83-1.92,1-.69.17-.75,2.42-2.67a7.38,7.38,0,0,1,4.66-1.31m0-.75a8.11,8.11,0,0,0-5.15,1.49,7.35,7.35,0,0,0-2,2.17,1.05,1.05,0,0,1-.41.46,1.17,1.17,0,0,0-.54,1.26c.35,1.42,3.67,2,3.7,2,3,.43,10.31,1.08,14.91,1.26,1.16,0,2.27.07,3.31.07,7.08,0,8-1,8.29-1.41a39.09,39.09,0,0,1,4.45-3.63,3.91,3.91,0,0,1,2-.42c.33,0,.55,0,.55,0h.08a.75.75,0,0,0,.33-1.42,11.67,11.67,0,0,0-4.67-.88H42l-22.6-.83a14.18,14.18,0,0,0-2.08-.15Z" transform="translate(-0.44)"/></svg>