<?xml version="1.0" encoding="utf-8"?>
<!-- Generator: Adobe Illustrator 19.2.1, SVG Export Plug-In . SVG Version: 6.00 Build 0)  -->
<svg version="1.1" id="portalOutside" xmlns="http://www.w3.org/2000/svg" xmlns:xlink="http://www.w3.org/1999/xlink" x="0px"
	 y="0px" viewBox="0 0 117.3 123" style="enable-background:new 0 0 117.3 123;" xml:space="preserve">
<style type="text/css">
	.st0{fill:#FFFFFF;}
	.st1{fill:#FFFFFF;enable-background:new    ;}
</style>
<title>portalOutside</title>
<path class="st0" d="M75.8,61h16c-0.1-8.9-3.5-17.4-9.6-23.9l-11.6,11C73.9,51.7,75.7,56.2,75.8,61z"/>
<path class="st0" d="M75.8,62c-0.1,5-2.1,9.7-5.6,13.2l11.3,11.3C88,80,91.7,71.2,91.8,62H75.8L75.8,62z"/>
<path class="st0" d="M90.8,47.7c3.2,8.2,3.5,17.2,0.7,25.5l20.9,6.9c4.4-13.3,4-27.8-1.3-40.8L90.8,47.7z"/>
<path class="st0" d="M75.3,29.4c6.7,4.1,12,10.2,15.2,17.4l20.3-8.4c-5-11.7-13.5-21.5-24.4-28L75.3,29.4z"/>
<path class="st0" d="M91.2,74.2c-2.9,8.1-8.6,15-16,19.4l11.1,19c12-7.2,21.1-18.3,25.8-31.5L91.2,74.2z"/>
<path class="st0" d="M85.5,9.9C76.5,4.7,66.3,2,56,2v5.1h-4.3v11.4h4.3V24c6.4,0,12.8,1.7,18.4,4.9L85.5,9.9z"/>
<path class="st0" d="M56,98.9L56,98.9v5.9h-3.7l-0.2,10.6H56v5.5l0,0c10.3,0,20.5-2.7,29.5-7.9l-11.1-19
	C68.8,97.3,62.4,98.9,56,98.9z"/>
<path class="st0" d="M70,47.4l11.6-11.1C74.8,29.5,65.6,25.6,56,25.6v3.6h-2.2v10.1h2.9v2.3C61.8,41.9,66.5,43.9,70,47.4z"/>
<path class="st0" d="M69.6,75.9c-3.5,3.3-8,5.2-12.8,5.4v2.1h-2.5l-0.5,10.8H56v3.2l0,0c9.3,0,18.2-3.6,24.9-10.1L69.6,75.9z"/>
<g>
	<path class="st0" d="M18.2,61.5c0-3,0.4-6,1.1-8.9l-16-4.3C0.6,59.1,1.3,70.5,5.3,81l15.5-6C19.1,70.7,18.2,66.1,18.2,61.5z"/>
	<path class="st0" d="M19.6,51.6c1.9-6.9,5.7-13.1,10.9-17.9l-11-12.4C11.8,28.2,6.3,37.2,3.6,47.2L19.6,51.6z"/>
	<path class="st0" d="M21.2,76L5.7,82c4.1,10,11.1,18.6,20.1,24.6l9.1-13.9C28.8,88.6,24,82.8,21.2,76z"/>
</g>
<g>
	<path class="st0" d="M51.7,24V7.3C40,8.2,29,12.9,20.2,20.6l11,12.4C37,28,44.1,24.9,51.7,24z"/>
	<path class="st0" d="M51.7,99c-5.7-0.6-11.2-2.6-16-5.7l-9,13.8c7.5,4.9,16.1,7.8,25,8.5V99z"/>
</g>
<path class="st1" d="M41.8,75.8L30.6,86.6C36.2,92.4,43.7,96,51.7,97V81.2C47.9,80.3,44.5,78.5,41.8,75.8z"/>
<path class="st1" d="M36.1,64.8l-15.5,2.2c1.1,7.1,4.3,13.6,9.2,18.8l11.3-10.8C38.5,72.2,36.8,68.7,36.1,64.8z"/>
<path class="st1" d="M35.8,61.5c0-1.5,0.2-3.1,0.5-4.6l-15.1-4c-1.1,4.3-1.3,8.8-0.7,13.1L36,63.8C35.9,63,35.8,62.2,35.8,61.5z"/>
<path class="st1" d="M36.7,55.9c0.6-2.1,1.6-4.1,2.8-5.9l-12.6-9.3c-2.4,3.4-4.3,7.2-5.4,11.3L36.7,55.9z"/>
<path class="st1" d="M40.1,49.2c2.9-3.7,7-6.4,11.6-7.4V26c-9.6,1.2-18.3,6.2-24.2,13.9L40.1,49.2z"/>
</svg>
